<svg width="99" height="70" viewBox="0 0 99 70" fill="none" xmlns="http://www.w3.org/2000/svg">
<path d="M32.0282 70H24.465L22.1513 64.4561H9.5465L7.43854 70H0L11.3643 42H19.5059L32.0282 70ZM15.5387 48.6907L11.4061 59.5699H20.0849L15.5387 48.6907Z" fill="white"/>
<path d="M59.5014 42H65.6177V70H58.5913V52.5104L50.9872 61.2953H49.9131L42.3096 52.5104V69.9997H35.2832V42H41.3995L50.4498 52.3868L59.5014 42Z" fill="white"/>
<path d="M83.4211 42C93.711 42 99 48.3627 99 56.04C99 64.0866 93.8762 70 82.6355 70H70.981V42H83.4211ZM78.0069 64.8681H82.5934C89.6603 64.8681 91.7682 60.1047 91.7682 55.9985C91.7682 51.1946 89.1642 47.1312 82.5107 47.1312H78.0067L78.0069 64.8681Z" fill="white"/>
<path d="M42.9847 8.7179L34.2684 0H66V31.733L57.2837 23.0161V8.7179H42.9847Z" fill="#00A270"/>
<path d="M42.9739 10.4648L34 19.4385V32H46.5598L55.5332 23.0263H42.9739V10.4648Z" fill="#00A270"/>
</svg>
