<svg width="133" height="23" viewBox="0 0 133 23" fill="none" xmlns="http://www.w3.org/2000/svg">
<path d="M0.00931548 22.9345C-0.0367237 22.8858 0.0924365 22.5349 0.296338 22.1548C0.711749 21.3804 9.52866 4.47186 10.104 3.34621C10.6687 2.24146 11.875 1.02547 12.9116 0.51598L13.7928 0.0828487L19.4372 0.042909L25.0815 0.00296808L24.9833 9.10423L24.885 18.2055L33.1147 18.1228C42.2308 18.0311 41.8795 18.067 42.653 17.1496C43.4079 16.2542 43.1348 14.8978 42.0928 14.3673C41.579 14.1057 41.3382 14.0932 36.7921 14.091C31.5514 14.0884 30.8678 14.0163 29.3454 13.3053C27.7622 12.566 26.2471 10.8024 25.695 9.05643C25.3557 7.98334 25.3305 6.15536 25.6392 5.00639C26.2647 2.67831 28.0407 1.01725 30.6394 0.329844C31.393 0.130487 32.4959 0.0966532 39.7143 0.0514534L47.9313 0V2.46503V4.93005H40.5328C32.2547 4.93005 32.5159 4.90167 31.8732 5.87091C31.3921 6.59638 31.3326 7.29997 31.69 8.03672C32.2376 9.16567 32.1499 9.14859 37.7515 9.21661C41.7873 9.26561 42.8306 9.31659 43.538 9.49935C46.3331 10.2216 48.3812 12.0732 48.9232 14.3678C49.1756 15.4365 49.1766 16.0369 48.9278 17.2141C48.4025 19.7003 46.6523 21.6666 44.1524 22.5794L43.2073 22.9245L30.8661 22.9622L18.525 23L18.4907 14.1974L18.4565 5.39485L17.9997 5.35143C16.5933 5.21773 15.8997 5.80022 14.8066 8.03318C14.3728 8.91938 12.6054 12.5706 10.8791 16.147C9.15288 19.7234 7.69647 22.6922 7.64268 22.7443C7.51605 22.867 0.119693 23.0513 0.00931548 22.9345ZM49.9273 11.4311V0.00419781L57.479 0.0435239L65.0306 0.0828487L66.1585 0.475562C67.7352 1.02455 69.0681 1.94377 69.737 2.94344C70.405 3.94168 70.6019 4.80328 70.5311 6.41778C70.4833 7.5092 70.4175 7.79786 70.0431 8.55666C69.2867 10.0902 68.0133 10.9863 65.7208 11.5983L65.0803 11.7693L66.1016 12.4333C67.5212 13.3564 68.6155 14.5611 69.2333 15.881C69.8844 17.2722 70.165 18.6533 70.2527 20.8993L70.3241 22.7253H66.6649H63.0057L62.9275 21.2977C62.795 18.8798 62.2046 17.2965 60.9809 16.0779C59.8625 14.9641 58.5716 14.4532 56.4241 14.2745L55.3831 14.1879V18.523V22.8581H52.6552H49.9273V11.4311ZM62.3692 8.58205C63.3684 8.0835 63.6452 6.78898 62.9097 6.05494C62.403 5.54927 61.7564 5.46278 58.477 5.46199L55.3831 5.46125V7.19972V8.93818L58.61 8.89292C61.5165 8.85215 61.8898 8.82127 62.3692 8.58205ZM79.7325 22.7218C77.0126 22.4038 74.5274 21.3117 72.752 19.6542C67.539 14.7876 70.7609 7.58927 78.8365 6.06045C80.3184 5.7799 82.8383 5.80317 84.3256 6.11112C88.2139 6.91623 91.298 9.25451 92.3139 12.1677C92.6161 13.0343 92.714 14.7691 92.5148 15.7271C91.5808 20.2167 85.7231 23.4221 79.7325 22.7218ZM82.7241 18.9361C84.8317 18.3882 86.161 17.0167 86.5311 15.0081C86.6629 14.2925 86.653 14.0245 86.4676 13.2965C86.0856 11.7967 85.1528 10.7161 83.622 10C82.9421 9.68199 82.7073 9.64445 81.3981 9.64445C80.0689 9.64445 79.8655 9.67818 79.1859 10.0114C78.0848 10.5513 77.2806 11.3207 76.8007 12.2934C75.4398 15.0523 77.0309 18.1688 80.2005 18.9525C81.1179 19.1794 81.8052 19.1749 82.7241 18.9361ZM80.3739 17.7659C77.0853 16.844 76.6181 12.6965 79.6294 11.1562C80.4141 10.7548 81.8689 10.6654 82.7676 10.9633C83.5765 11.2314 84.5625 12.0643 84.9593 12.8146C85.4166 13.6795 85.3732 15.0083 84.857 15.9444C84.0359 17.4335 82.0566 18.2377 80.3739 17.7659ZM104.997 22.7117C100.034 22.3302 96.0178 20.4694 94.1989 17.7083C93.3388 16.4027 93.1081 15.6945 93.1081 14.3589C93.1081 13.0279 93.339 12.3149 94.1862 11.0285C95.4848 9.05668 97.7311 7.54951 100.623 6.70983C102.726 6.09907 103.928 5.96469 107.912 5.89536L111.671 5.82993V7.81581V9.80168L109.11 9.88874C107.693 9.93688 106.133 10.0647 105.62 10.1745C103.692 10.5876 101.88 11.7516 101.298 12.9508C100.931 13.7091 100.932 14.8792 101.302 15.642C101.868 16.8079 103.573 17.9538 105.429 18.4153C105.996 18.5563 107.186 18.6525 108.977 18.7023L111.671 18.7772V20.8176V22.8581L109.043 22.8393C107.598 22.8291 105.777 22.7716 104.997 22.7117ZM112.47 11.4373V0.0164486H115.996H119.522V5.06285V10.1093H120.692C123.477 10.1093 125.374 9.02801 126.443 6.83077L126.908 5.87628L129.74 5.86797C132.99 5.85842 132.765 5.76006 132.752 7.18765C132.735 9.01068 131.464 10.7406 129.258 11.9444L128.59 12.3092L129.507 13.025C131.906 14.8974 132.788 16.8938 132.926 20.7665L133 22.8581H129.67H126.341L126.248 21.4305C126.024 18.0067 125.127 16.1641 123.234 15.243C122.396 14.8353 121.397 14.6245 120.303 14.6245H119.522V18.7413V22.8581H115.996H112.47V11.4373Z" fill="#A1A1A1"/>
</svg>
