<svg width="137" height="27" viewBox="0 0 137 27" fill="none" xmlns="http://www.w3.org/2000/svg">
<path d="M131.184 3.41932C131.184 1.8743 132.434 0.60788 133.965 0.60788C134.704 0.60788 135.393 0.91182 135.929 1.41839C136.464 1.95028 136.745 2.65947 136.745 3.394C136.745 4.12852 136.464 4.83771 135.929 5.36961C135.393 5.9015 134.704 6.20544 133.965 6.20544C132.434 6.20544 131.184 4.96435 131.184 3.41932ZM130.955 3.41932C130.955 5.09099 132.307 6.45872 133.99 6.45872C134.806 6.45872 135.546 6.15478 136.107 5.57223C136.668 4.98968 137 4.22983 137 3.41932C137 2.60882 136.694 1.84897 136.107 1.26642C135.521 0.683865 134.781 0.379925 133.99 0.379925C132.307 0.379925 130.955 1.74765 130.955 3.41932ZM132.842 5.21764H133.276V3.79925H134.245C134.398 3.79925 134.526 3.79925 134.628 3.84991C134.755 3.92589 134.832 4.07786 134.857 4.28049L134.908 4.83771C134.908 4.96435 134.908 5.04034 134.908 5.09099C134.934 5.14165 134.934 5.16698 134.959 5.19231H135.495V5.11632C135.419 5.09099 135.393 5.01501 135.368 4.9137C135.342 4.86304 135.342 4.76173 135.342 4.63508L135.317 4.2045C135.317 4.00188 135.265 3.87523 135.214 3.79925C135.138 3.72326 135.036 3.64728 134.908 3.59662C135.061 3.52064 135.163 3.41932 135.24 3.29268C135.317 3.16604 135.342 3.01407 135.342 2.81144C135.342 2.43152 135.189 2.17824 134.908 2.02627C134.755 1.95028 134.551 1.92495 134.322 1.92495H132.868L132.842 5.21764ZM133.25 3.41932V2.27955H134.271C134.424 2.27955 134.551 2.30488 134.628 2.35553C134.781 2.43152 134.857 2.60882 134.857 2.83677C134.857 3.06473 134.806 3.2167 134.679 3.29268C134.577 3.36867 134.424 3.41932 134.22 3.41932H133.25V3.41932ZM12.3966 7.5985L0 26.9493H8.46844L20.4059 8.45966L12.3966 7.5985ZM63.4368 7.16792V0H39.3323C36.0419 0.202627 34.6135 1.77298 33.5422 2.88743C32.3943 4.07786 31.7567 6.58537 31.7567 6.58537V0.0506567H18.9265C17.9572 0.0506567 17.0389 0.45591 16.3502 1.41839C15.636 2.35553 12.7027 7.16792 12.7027 7.16792H63.4368ZM128.991 7.16792V0H103.203C99.9378 0.202627 98.4839 1.77298 97.4126 2.88743C96.2648 4.07786 95.6271 6.58537 95.6271 6.58537V7.16792H128.991ZM71.9052 0.0253283H64.6867V7.16792H71.9052V0.0253283ZM95.5506 0.0253283H88.3575V7.16792H95.5506V0.0253283ZM95.5506 9.75141L88.4595 9.32082V17.6032C88.4595 17.6032 88.434 19.9841 86.1128 19.9841H73.9713C73.9713 19.9841 71.9052 19.8068 71.9052 17.6285V8.20638L64.7632 7.69981V20.3893C65.911 26.4681 71.4461 26.9493 71.4461 26.9493C71.4461 26.9493 72.0073 26.9747 72.1093 27H88.5615C88.5615 27 95.6016 26.4428 95.6016 19.7054L95.5506 9.75141ZM24.4105 26.9493H58.1313C63.998 25.7842 64.6101 20.4653 64.6101 20.4653C64.8907 18.8949 64.7377 17.6032 64.7377 17.6032C64.5591 16.5394 62.5185 11.8283 58.1313 11.4231C55.504 11.1698 32.1138 9.32082 32.1138 9.32082C32.5729 11.651 33.6187 12.8415 34.3329 13.5C35.9654 15.045 38.5416 15.5009 38.5416 15.5009C39.1538 15.5516 56.5753 16.9953 56.5753 16.9953C57.1365 17.0206 58.1823 17.1726 58.1568 18.5403C58.1568 18.7176 58.0037 19.9081 56.6773 19.9081H31.4506V9.27017L24.436 8.7636C24.4105 8.7636 24.4105 26.9493 24.4105 26.9493ZM95.6016 27H121.415C127.894 26.6201 128.812 20.5159 128.812 20.5159C129.042 18.9203 128.863 17.6032 128.863 17.6032C128.685 16.1595 126.619 11.803 122.206 11.3724C119.604 11.1191 96.0607 9.75141 96.0607 9.75141C96.7494 12.1576 97.6932 12.8921 98.4074 13.5507C100.04 15.121 102.463 15.4756 102.463 15.4756C103.075 15.5263 120.675 16.9953 120.675 16.9953C121.236 17.0206 122.384 17.0713 122.384 18.439C122.384 18.8443 122.18 19.2749 121.925 19.5028C121.925 19.5028 121.313 19.8321 120.726 19.8321H95.6781L95.6016 27Z" fill="#00539B"/>
</svg>
