<?xml version="1.0" standalone="no"?>
<!DOCTYPE svg PUBLIC "-//W3C//DTD SVG 20010904//EN"
 "http://www.w3.org/TR/2001/REC-SVG-20010904/DTD/svg10.dtd">
<svg version="1.0" xmlns="http://www.w3.org/2000/svg"
 width="512.000000pt" height="512.000000pt" viewBox="0 0 512.000000 512.000000"
 preserveAspectRatio="xMidYMid meet">

<g transform="translate(0.000000,512.000000) scale(0.100000,-0.100000)"
fill="#000000" stroke="none">
<path d="M698 5105 c-127 -32 -168 -63 -394 -289 -231 -230 -258 -268 -290
-403 -29 -121 -4 -268 64 -378 13 -22 346 -363 740 -757 l717 -718 -717 -717
c-394 -395 -727 -736 -740 -758 -68 -110 -93 -257 -64 -378 32 -135 59 -173
290 -403 230 -231 268 -258 403 -290 116 -28 268 -4 372 57 20 12 361 346 758
743 l723 721 727 -726 c792 -789 758 -759 910 -795 124 -29 259 -5 377 66 35
21 134 112 255 235 216 218 246 260 277 392 29 121 4 268 -64 378 -13 22 -346
363 -740 758 l-717 717 717 718 c394 394 727 735 740 757 68 110 93 257 64
378 -32 134 -59 173 -290 404 -192 192 -218 215 -286 247 -41 20 -102 41 -135
47 -115 21 -257 -6 -360 -69 -22 -13 -363 -346 -757 -740 l-718 -717 -722 721
c-398 397 -739 731 -759 743 -102 60 -269 85 -381 56z m947 -1214 c434 -434
805 -797 824 -806 44 -22 138 -22 182 0 19 9 390 372 824 806 744 742 792 789
825 789 32 0 50 -15 207 -172 158 -158 173 -176 173 -208 0 -33 -45 -80 -795
-830 -832 -833 -825 -825 -825 -908 0 -86 -21 -63 822 -907 750 -752 798 -803
798 -835 0 -32 -16 -50 -172 -207 -158 -158 -176 -173 -208 -173 -32 0 -81 46
-835 798 -841 840 -822 822 -905 822 -83 0 -64 18 -905 -822 -752 -750 -803
-798 -835 -798 -32 0 -50 16 -207 172 -158 158 -173 176 -173 208 0 33 46 80
799 835 790 792 799 801 811 853 9 41 9 63 0 105 -12 51 -21 61 -811 852 -751
752 -799 803 -799 835 0 32 16 50 172 207 158 158 176 173 208 173 33 0 80
-45 825 -789z"/>
</g>
</svg>
