<?xml version="1.0" standalone="no"?>
<!DOCTYPE svg PUBLIC "-//W3C//DTD SVG 20010904//EN"
 "http://www.w3.org/TR/2001/REC-SVG-20010904/DTD/svg10.dtd">
<svg version="1.0" xmlns="http://www.w3.org/2000/svg"
 width="512.000000pt" height="512.000000pt" viewBox="0 0 512.000000 512.000000"
 preserveAspectRatio="xMidYMid meet">

<g transform="translate(0.000000,512.000000) scale(0.100000,-0.100000)"
fill="#000000" stroke="none">
<path d="M1113 5105 c-53 -23 -58 -42 -63 -255 l-5 -195 -110 -6 c-60 -3 -127
-11 -147 -18 -131 -42 -257 -168 -299 -299 -7 -20 -15 -86 -18 -147 l-6 -110
-195 -5 c-215 -6 -233 -10 -256 -65 -18 -44 -18 -59 2 -100 27 -58 58 -65 268
-65 l186 0 -2 -232 -3 -233 -194 -3 c-218 -3 -239 -9 -261 -77 -15 -47 -5 -86
31 -121 l30 -29 200 -3 199 -4 0 -229 0 -229 -177 -1 c-202 0 -236 -8 -270
-58 -29 -43 -29 -79 0 -122 34 -50 68 -58 270 -58 l177 -1 0 -229 0 -229 -199
-4 -200 -3 -30 -29 c-36 -35 -46 -74 -31 -121 22 -68 43 -74 261 -77 l194 -3
3 -232 2 -233 -186 0 c-210 0 -241 -7 -268 -65 -20 -41 -20 -56 -2 -100 23
-55 41 -59 256 -65 l195 -5 6 -110 c3 -60 11 -127 18 -147 42 -131 168 -257
299 -299 20 -7 87 -15 147 -18 l110 -6 5 -195 c6 -215 10 -233 65 -256 44 -18
59 -18 100 2 58 27 65 58 65 268 l0 186 233 -2 232 -3 3 -194 c3 -218 9 -239
77 -261 47 -15 86 -5 121 31 l29 30 3 200 4 199 228 0 228 0 4 -194 c3 -222 9
-238 86 -266 37 -13 45 -12 76 3 66 31 71 48 74 264 l4 193 228 0 228 0 4
-199 3 -200 29 -30 c35 -36 74 -46 121 -31 68 22 74 43 77 261 l3 194 233 3
232 2 0 -186 c0 -210 7 -241 65 -268 41 -20 56 -20 100 -2 55 23 59 41 65 256
l5 195 110 6 c61 3 127 11 147 18 131 42 257 168 299 299 7 20 15 87 18 147
l6 110 195 5 c215 6 233 10 256 65 18 44 18 59 -2 100 -27 58 -58 65 -268 65
l-186 0 2 232 3 233 194 3 c218 3 239 9 261 77 15 47 5 86 -31 121 l-30 29
-200 3 -199 4 0 228 0 228 194 4 c221 3 238 9 265 84 12 34 11 44 -2 76 -28
67 -47 73 -264 76 l-193 4 0 228 0 228 199 4 200 3 30 29 c36 35 46 74 31 121
-22 68 -43 74 -261 77 l-194 3 -3 233 -2 232 186 0 c210 0 241 7 268 65 20 41
20 56 2 100 -23 55 -41 59 -256 65 l-195 5 -6 110 c-3 61 -11 127 -18 147 -42
131 -168 257 -299 299 -20 7 -86 15 -147 18 l-110 6 -5 195 c-6 215 -10 233
-65 256 -44 18 -59 18 -100 -2 -58 -27 -65 -58 -65 -268 l0 -186 -232 2 -233
3 -3 194 c-3 218 -9 239 -77 261 -47 15 -86 5 -121 -31 l-29 -30 -3 -200 -4
-199 -228 0 -228 0 -4 193 c-3 216 -8 233 -74 264 -31 15 -39 16 -76 3 -77
-28 -83 -44 -86 -266 l-4 -194 -228 0 -228 0 -4 199 -3 200 -29 30 c-35 36
-74 46 -121 31 -68 -22 -74 -43 -77 -261 l-3 -194 -232 -3 -233 -2 0 186 c0
210 -7 241 -65 268 -40 19 -60 20 -102 1z m3151 -697 c54 -16 128 -90 144
-144 18 -60 18 -3348 0 -3408 -16 -54 -90 -128 -144 -144 -60 -18 -3348 -18
-3408 0 -54 16 -128 90 -144 144 -18 60 -18 3348 0 3408 15 50 89 127 138 143
53 17 3357 18 3414 1z"/>
<path d="M1014 4183 c-12 -2 -34 -18 -50 -34 l-29 -30 0 -1559 0 -1560 33 -32
32 -33 1560 0 1560 0 32 33 33 32 0 1560 0 1560 -33 32 -32 33 -1543 1 c-848
1 -1552 0 -1563 -3z m2941 -1623 l0 -1395 -1395 0 -1395 0 -3 1385 c-1 762 0
1391 3 1398 3 10 288 12 1397 10 l1393 -3 0 -1395z"/>
</g>
</svg>
