<?xml version="1.0" ?><svg fill="none" height="24" viewBox="0 0 24 24" width="24" xmlns="http://www.w3.org/2000/svg"><path clip-rule="evenodd" d="M2 11.5546V13.3137C2 14.3532 2.84958 15.2128 3.89905 15.2128C5.70815 15.2128 6.44778 16.4922 5.53823 18.0614C5.01849 18.9609 5.32834 20.1303 6.23788 20.6501L7.96702 21.6396C8.75662 22.1093 9.77611 21.8295 10.2459 21.0399L10.3558 20.85C11.2654 19.2808 12.7446 19.2808 13.6442 20.85L13.7541 21.0399C14.2239 21.8295 15.2434 22.1093 16.033 21.6396L17.7621 20.6501C18.6717 20.1303 18.9815 18.9709 18.4618 18.0614C17.5522 16.4922 18.2919 15.2128 20.101 15.2128C21.1504 15.2128 22 14.3532 22 13.3137V11.5546C22 10.5051 21.1404 9.65557 20.101 9.65557C18.2919 9.65557 17.5522 8.37621 18.4618 6.807C18.9815 5.90745 18.6717 4.73803 17.7621 4.21829L16.033 3.22879C15.2434 2.75902 14.2239 3.03888 13.7541 3.82849L13.6442 4.01839C12.7346 5.58761 11.2554 5.58761 10.3558 4.01839L10.2459 3.82849C9.77611 3.03888 8.75662 2.75902 7.96702 3.22879L6.23788 4.21829C5.32834 4.73803 5.01849 5.90745 5.53823 6.807C6.44778 8.37621 5.70815 9.65557 3.89905 9.65557C2.84958 9.65557 2 10.5151 2 11.5546ZM12.0001 14.9065C10.6347 14.9065 9.52783 13.7996 9.52783 12.4342C9.52783 11.0688 10.6347 9.96191 12.0001 9.96191C13.3655 9.96191 14.4724 11.0688 14.4724 12.4342C14.4724 13.7996 13.3655 14.9065 12.0001 14.9065ZM8.02783 12.4342C8.02783 10.2404 9.80629 8.46191 12.0001 8.46191C14.194 8.46191 15.9724 10.2404 15.9724 12.4342C15.9724 14.628 14.194 16.4065 12.0001 16.4065C9.80629 16.4065 8.02783 14.628 8.02783 12.4342Z" fill="#ffa812" fillRule="evenodd"/></svg>