<?xml version="1.0" standalone="no"?>
<!DOCTYPE svg PUBLIC "-//W3C//DTD SVG 20010904//EN"
 "http://www.w3.org/TR/2001/REC-SVG-20010904/DTD/svg10.dtd">
<svg version="1.0" xmlns="http://www.w3.org/2000/svg"
 width="150" height="150" viewBox="0 0 1200.000000 300.000000"
 preserveAspectRatio="xMidYMid meet">
<metadata>
Created by potrace 1.16, written by Peter Selinger 2001-2019
</metadata>
<g transform="translate(0.000000,300.000000) scale(0.100000,-0.100000)"
fill="#000000" stroke="none">
<path d="M1055 2185 c-432 -78 -688 -552 -518 -960 77 -185 238 -337 424 -400
108 -37 204 -45 541 -45 l308 0 0 410 0 410 -200 0 -200 0 0 -229 c0 -190 -2
-231 -15 -241 -10 -9 -45 -11 -117 -8 -122 5 -178 28 -265 110 -96 91 -136
211 -114 333 24 128 96 220 219 278 l67 32 303 3 302 3 0 160 0 159 -332 -1
c-223 -1 -356 -5 -403 -14z" fill="#0284c7" />
<path d="M2120 1495 l0 -705 195 0 195 0 0 705 0 705 -195 0 -195 0 0 -705z" fill="#0284c7" />
<path d="M3285 2185 c-213 -38 -400 -182 -496 -380 -53 -111 -72 -190 -72
-310 0 -124 19 -201 77 -320 105 -212 308 -355 547 -385 46 -5 222 -10 391
-10 l308 0 0 410 0 410 -200 0 -200 0 0 -229 c0 -189 -3 -231 -15 -241 -10 -8
-45 -11 -112 -8 -118 4 -184 30 -264 104 -63 60 -94 111 -115 194 -14 54 -14
75 -5 133 23 137 87 224 209 284 l76 38 303 3 303 3 0 160 0 159 -332 -1
c-223 -1 -356 -5 -403 -14z" fill="#0284c7" />
<path d="M4682 2123 c-158 -411 -502 -1324 -502 -1332 0 -8 63 -11 194 -11
l193 0 54 148 55 147 259 3 c200 2 260 -1 266 -10 5 -7 30 -75 56 -151 l47
-137 209 0 210 0 -7 28 c-3 15 -124 333 -268 707 l-263 680 -237 3 -236 2 -30
-77z m346 -505 l79 -258 -170 0 c-131 0 -168 3 -165 13 3 6 43 126 89 265 46
139 85 249 86 245 2 -5 38 -124 81 -265z" fill="#0284c7"/>
<path d="M5900 1489 l0 -711 373 5 c399 5 453 11 563 61 76 35 146 104 180
179 26 56 29 72 29 167 0 94 -3 110 -27 156 -39 74 -98 118 -213 159 -17 6
-11 11 36 35 72 37 134 107 154 173 8 28 15 86 15 128 0 140 -55 237 -169 298
-104 55 -154 61 -568 61 l-373 0 0 -711z m656 410 c77 -37 94 -122 38 -189
-35 -41 -105 -60 -221 -60 l-93 0 0 142 0 141 117 -7 c87 -5 128 -12 159 -27z
m19 -546 c62 -32 78 -56 82 -121 8 -119 -56 -162 -254 -170 l-123 -5 0 163 0
162 128 -4 c104 -3 134 -8 167 -25z" fill="#0284c7"/>
<path d="M7030 2194 c0 -3 117 -203 260 -444 l260 -439 0 -265 0 -266 190 0
190 0 0 264 0 264 260 442 c143 243 260 444 260 446 0 2 -100 4 -222 4 l-223
-1 -129 -269 c-71 -149 -132 -270 -136 -270 -3 0 -65 122 -137 270 l-131 270
-221 0 c-122 0 -221 -3 -221 -6z" fill="#0284c7"/>
<path d="M8600 2055 l0 -145 170 0 170 0 0 -565 0 -565 195 0 195 0 0 565 0
565 170 0 170 0 0 145 0 145 -535 0 -535 0 0 -145z" fill="#0284c7"/>
<path d="M9840 1490 l0 -710 515 0 515 0 0 140 0 140 -320 0 -320 0 0 155 0
155 290 0 290 0 0 140 0 140 -290 0 -290 0 0 140 0 140 310 0 310 0 0 135 0
135 -505 0 -505 0 0 -710z" fill="#0284c7"/>
<path d="M11020 2180 c0 -17 7 -20 40 -20 l40 0 0 -115 0 -115 25 0 25 0 0
115 0 115 40 0 c33 0 40 3 40 20 0 19 -7 20 -105 20 -98 0 -105 -1 -105 -20z" fill="#0284c7"/>
<path d="M11260 2066 l0 -136 25 0 c24 0 24 2 27 93 l3 92 35 -92 c31 -84 37
-93 60 -93 23 0 29 9 60 93 l35 92 3 -92 c3 -91 3 -93 27 -93 l25 0 0 136 0
135 -37 -3 -38 -3 -34 -92 c-19 -51 -37 -93 -40 -93 -3 0 -22 42 -41 93 -35
92 -35 92 -73 95 l-37 3 0 -135z" fill="#0284c7"/>
</g>
</svg>
