<svg width="106" height="70" viewBox="0 0 106 70" fill="none" xmlns="http://www.w3.org/2000/svg">
<path d="M31.081 29.6915V46.8331H25.6581V25.2869L36.8536 25.2981C41.6088 25.2981 43.2287 28.6723 43.2287 31.7372V46.8331H37.8156V31.7654C37.8156 30.4815 37.1552 29.6915 35.562 29.6915H31.081V29.6915ZM67.9555 29.434C66.102 29.434 64.6675 30.3928 64.0684 31.6945C63.7133 32.4759 63.5913 33.0749 63.5495 34.0317H71.8923C71.7853 31.6945 70.7319 29.434 67.9555 29.434V29.434ZM63.5495 37.7454C63.5495 40.5365 65.2738 42.5907 68.3523 42.5907C70.7475 42.5907 71.938 41.9228 73.3229 40.5365L76.6723 43.7544C74.5277 45.8848 72.2774 47.1785 68.3125 47.1785C63.1214 47.1785 58.1534 44.3303 58.1534 36.0294C58.1534 28.9369 62.4909 24.9217 68.1905 24.9217C73.9677 24.9217 77.3053 29.6225 77.3053 35.7799V37.7454H63.5495V37.7454ZM53.5758 46.8062C49.158 46.8062 47.2836 43.7117 47.2836 40.6554V19.4165H52.6979V25.2869H56.7796V29.6915H52.6979V40.3139C52.6979 41.5656 53.2853 42.2604 54.5769 42.2604H56.7796V46.8062H53.5758ZM20.8331 22.3093H15.3731V17.0904H20.8331V22.3093ZM20.8468 47.0596C16.758 46.6643 15.3672 44.1688 15.3672 41.2891L15.3731 25.2869H20.8469V47.0596H20.8468ZM85.9229 46.5993C81.8426 46.2033 80.4583 43.7117 80.4583 40.8359V16.3476H85.9229V46.5993V46.5993ZM105.027 19.8867C100.074 -4.40855 53.2057 -5.94658 22.996 12.559V14.6021C53.1751 -1.00413 95.9763 -0.91219 99.8759 21.4648C101.181 28.864 97.0369 36.5785 89.6365 41.0126V46.814C98.5438 43.5351 107.679 32.9022 105.027 19.8867V19.8867ZM50.1122 62.394C29.2627 64.3333 7.53609 61.2881 4.49606 44.8945C3.00803 36.8129 6.66677 28.246 11.5205 22.9247V20.0791C2.78287 27.789 -1.95927 37.5497 0.770753 49.083C4.25524 63.8722 22.902 72.2533 51.3633 69.4701C62.6241 68.3642 77.3628 64.7207 87.6094 59.0618V51.0223C78.3118 56.5932 62.9263 61.2001 50.1122 62.394" fill="#0071C5"/>
<path d="M92.2397 17.9741C92.2397 17.7075 92.085 17.6228 91.7312 17.6228H91.3899V18.3773C91.4395 18.3773 91.6875 18.3865 91.7312 18.3865C92.085 18.3865 92.2397 18.2676 92.2397 18.0181V17.9741V17.9741ZM92.7722 19.8451H92.3676C92.331 19.8451 92.299 19.8221 92.2834 19.7912L91.7312 18.8495C91.7214 18.8305 91.6738 18.8075 91.6549 18.8075H91.4069V19.7413C91.4069 19.7912 91.3729 19.8451 91.3077 19.8451H90.9415C90.8959 19.8451 90.8502 19.7912 90.8502 19.7413V17.3791C90.8502 17.2425 90.903 17.1854 91.0179 17.1677C91.1471 17.1506 91.4982 17.1388 91.6875 17.1388C92.3597 17.1388 92.7663 17.3384 92.7663 17.9741V18.0181C92.7663 18.4115 92.5718 18.619 92.2703 18.7208L92.8427 19.6947C92.8464 19.7144 92.8597 19.7413 92.8597 19.7643C92.8597 19.8024 92.8368 19.8451 92.7722 19.8451L92.7722 19.8451ZM91.8115 16.7125C90.8156 16.7125 90.0102 17.54 90.0102 18.5362C90.0102 19.5338 90.8156 20.3481 91.8115 20.3481C92.8022 20.3481 93.6154 19.5338 93.6154 18.5362C93.6154 17.54 92.8022 16.7125 91.8115 16.7125ZM91.8115 20.7237C90.6015 20.7237 89.6362 19.7413 89.6362 18.5362C89.6362 17.3331 90.6015 16.3481 91.8115 16.3481C93.0085 16.3481 93.992 17.3331 93.992 18.5362C93.992 19.7413 93.0085 20.7237 91.8115 20.7237Z" fill="#0071C5"/>
</svg>
