<?xml version="1.0" standalone="no"?>
<!DOCTYPE svg PUBLIC "-//W3C//DTD SVG 20010904//EN"
 "http://www.w3.org/TR/2001/REC-SVG-20010904/DTD/svg10.dtd">
<svg version="1.0" xmlns="http://www.w3.org/2000/svg"
 width="500.000000pt" height="500.000000pt" viewBox="0 0 500.000000 500.000000"
 preserveAspectRatio="xMidYMid meet">

<g transform="translate(0.000000,500.000000) scale(0.100000,-0.100000)"
fill="#000000" stroke="none">
<path d="M4480 4439 c-124 -4 -781 -10 -1460 -13 -1123 -6 -1501 -14 -1615
-34 -39 -7 -38 -7 25 -13 121 -11 -833 14 -1188 31 -112 6 -207 8 -213 5 -5
-4 -9 -43 -9 -88 0 -57 -3 -77 -10 -67 -6 10 -10 -473 -10 -1372 0 -919 3
-1388 10 -1388 6 0 10 -14 10 -30 0 -22 6 -33 22 -39 41 -15 739 -74 808 -67
36 3 140 25 231 50 l166 45 505 7 c477 7 508 6 557 -11 l51 -19 0 -223 c0
-223 0 -224 -22 -232 -13 -4 -86 -16 -163 -25 -77 -9 -309 -37 -515 -62 -206
-24 -604 -71 -885 -104 -387 -46 -513 -64 -521 -75 -18 -24 -26 -107 -12 -117
20 -12 39 -11 929 52 464 33 952 67 1084 77 285 20 249 22 2220 -127 162 -12
272 -13 279 -1 5 8 -10 110 -17 117 -2 2 -190 26 -418 54 -718 89 -1603 200
-1631 206 l-28 6 0 116 c0 64 -3 176 -6 247 -3 78 -2 125 3 117 7 -10 17 -10
43 -1 25 9 165 10 548 5 l515 -7 191 -51 c105 -27 211 -51 236 -51 48 0 325
24 608 52 97 10 178 23 185 30 9 9 13 362 15 1491 l2 1480 -27 7 c-37 10 -31
9 -93 16 -104 12 -176 13 -400 6z m-4463 -291 c-2 -18 -4 -6 -4 27 0 33 2 48
4 33 2 -15 2 -42 0 -60z m371 0 c18 -18 14 -38 -8 -38 -11 0 -20 5 -20 10 0 6
-7 10 -15 10 -25 0 -17 -17 20 -39 57 -33 44 -91 -20 -91 -33 0 -55 15 -55 37
0 19 37 16 44 -4 5 -13 9 -14 19 -4 9 10 4 19 -25 43 -56 44 -47 88 17 88 17
0 36 -5 43 -12z m154 -73 l15 -75 -23 0 c-20 0 -23 6 -30 68 -8 71 -12 66 -28
-30 -5 -29 -12 -38 -26 -38 -23 0 -23 2 -9 72 15 78 15 78 52 78 l34 0 15 -75z
m124 18 l8 -58 11 55 c10 52 12 55 43 58 l32 3 0 -75 c0 -69 -2 -76 -20 -76
-17 0 -20 7 -21 53 l-1 52 -10 -52 c-8 -46 -13 -53 -33 -53 -20 0 -24 7 -33
58 l-9 57 -2 -57 c-1 -51 -3 -58 -21 -58 -18 0 -20 7 -20 75 l0 75 34 0 c34 0
35 0 42 -57z m232 45 c18 -18 14 -38 -8 -38 -11 0 -20 5 -20 10 0 6 -8 10 -17
10 -13 0 -6 -11 25 -39 46 -42 47 -44 32 -72 -19 -35 -110 -17 -110 22 0 13
34 11 48 -3 9 -9 15 -9 23 -1 7 7 0 17 -25 33 -20 12 -36 23 -36 25 0 2 -3 10
-6 18 -13 35 65 64 94 35z m94 -60 c2 -35 8 -63 13 -63 6 0 11 28 13 63 3 54
5 62 23 62 18 0 20 -6 17 -72 l-3 -73 -38 -3 c-56 -5 -67 9 -67 84 0 57 2 64
20 64 16 0 19 -8 22 -62z m191 10 l15 -53 1 53 c1 45 4 52 21 52 18 0 20 -7
20 -75 l0 -75 -28 0 c-26 0 -30 5 -46 55 -9 30 -19 55 -22 55 -3 0 -2 -25 1
-55 7 -51 6 -55 -14 -55 -20 0 -21 5 -21 75 l0 75 29 0 c26 0 30 -5 44 -52z
m195 40 c18 -18 14 -38 -8 -38 -11 0 -20 5 -20 10 0 6 -7 10 -15 10 -11 0 -15
-12 -15 -50 0 -39 3 -50 16 -50 13 0 15 7 11 30 -6 27 -4 30 18 30 22 0 25 -4
25 -35 0 -36 -20 -55 -59 -55 -34 0 -51 27 -51 84 0 60 12 76 55 76 17 0 36
-5 43 -12z m2532 -372 c0 -12 -356 -279 -382 -287 -43 -12 -41 -10 167 155
101 80 179 135 193 136 12 0 22 -2 22 -4z m-2602 -152 c213 -164 201 -154 174
-154 -19 0 -317 215 -377 271 -19 19 -19 19 4 19 14 0 90 -52 199 -136z m18
-132 c-4 -3 -14 2 -24 12 -16 18 -16 18 6 6 13 -6 21 -14 18 -18z m2314 -17
c-7 -8 -17 -15 -22 -15 -6 0 -5 7 2 15 7 8 17 15 22 15 6 0 5 -7 -2 -15z
m-2266 -10 c11 -8 18 -17 15 -19 -2 -3 -15 4 -29 14 -14 11 -20 20 -15 19 6 0
19 -6 29 -14z m2196 -35 c0 -6 -11 -15 -23 -19 -13 -5 -31 -16 -40 -25 -9 -9
-18 -12 -21 -7 -3 4 10 17 29 27 19 10 35 22 35 26 0 5 5 8 10 8 6 0 10 -5 10
-10z m-2097 -27 c23 -16 44 -31 45 -35 2 -5 8 -8 13 -8 6 0 30 -15 54 -32 72
-53 131 -88 151 -89 12 0 14 -3 6 -6 -16 -6 39 -43 64 -43 8 0 13 -4 10 -8 -3
-5 71 -60 165 -122 93 -62 168 -115 165 -117 -2 -3 -28 11 -56 30 -30 21 -59
33 -68 30 -9 -4 -13 -2 -9 4 4 7 -23 31 -65 59 -40 26 -75 51 -78 54 -3 3 -23
17 -46 33 -59 40 -91 36 -137 -15 l-39 -43 29 39 c15 22 26 49 25 60 -3 17 -2
18 12 7 8 -7 23 -11 33 -9 15 4 13 7 -9 18 -16 7 -28 16 -28 19 0 3 -71 6
-157 5 l-158 0 144 5 c142 6 143 6 122 25 -12 11 -21 16 -21 12 0 -4 -18 6
-39 23 -21 17 -42 31 -46 31 -8 0 -79 53 -83 63 -2 4 -9 7 -17 7 -7 0 -18 7
-25 15 -19 22 -5 18 43 -12z m1962 7 c-13 -20 -178 -140 -194 -140 -13 0 -13
2 -1 14 83 77 219 165 195 126z m-1758 -71 c51 -39 93 -73 93 -75 0 -2 -6 -4
-14 -4 -16 0 -196 131 -196 143 0 18 31 2 117 -64z m1793 32 c0 -11 -106 -92
-112 -85 -3 2 -13 -5 -23 -16 -18 -20 -18 -20 96 -21 63 -1 101 -4 85 -6 -23
-4 -27 -9 -24 -27 4 -19 1 -22 -14 -18 -21 5 -23 17 -5 29 7 5 -24 10 -73 13
-82 5 -150 -9 -150 -32 0 -12 24 -10 39 5 11 10 13 8 8 -10 -3 -13 -2 -25 2
-27 10 -7 103 -126 98 -126 -3 0 -30 32 -61 70 -50 62 -61 70 -91 70 -18 0
-35 -5 -37 -11 -2 -7 -9 -5 -17 5 -11 14 -11 16 3 16 25 0 80 37 64 43 -8 3
-4 6 8 6 11 1 38 14 60 31 21 16 44 30 51 30 6 0 13 4 15 9 2 6 19 21 38 35
42 29 40 28 40 17z m-1543 -107 c-38 -25 -71 -44 -73 -41 -5 5 117 87 131 87
5 0 -21 -21 -58 -46z m476 39 c-67 -2 -179 -2 -250 0 -70 1 -15 3 122 3 138 0
195 -2 128 -3z m510 0 c-56 -2 -151 -2 -210 0 -59 1 -13 3 102 3 116 0 164 -2
108 -3z m141 -8 c11 -8 16 -15 10 -15 -5 0 -18 7 -28 15 -11 8 -16 15 -10 15
5 0 18 -7 28 -15z m-29 -22 l20 -16 -20 9 c-11 5 -110 11 -220 14 l-200 6 200
2 c170 1 203 -1 220 -15z m-1075 -34 c-34 -22 -64 -38 -67 -36 -5 5 107 76
121 77 5 0 -19 -18 -54 -41z m458 34 c-65 -2 -171 -2 -235 0 -65 1 -12 3 117
3 129 0 182 -2 118 -3z m997 -3 c4 -6 -7 -10 -27 -9 -27 0 -30 2 -13 9 27 12
33 12 40 0z m-265 -30 c8 -5 11 -10 5 -10 -5 0 -21 10 -35 21 -24 20 -5 13 30
-11z m-1507 13 c-7 -2 -21 -2 -30 0 -10 3 -4 5 12 5 17 0 24 -2 18 -5z m1477
-33 c8 -5 10 -10 4 -10 -7 0 -22 9 -35 21 -19 16 -20 18 -4 10 11 -6 27 -15
35 -21z m-2465 0 c3 -5 2 -10 -4 -10 -5 0 -13 5 -16 10 -3 6 -2 10 4 10 5 0
13 -4 16 -10z m2789 -55 c18 -16 23 -23 12 -15 -11 8 -5 -4 14 -27 18 -24 35
-43 38 -43 2 0 -2 8 -9 18 -13 15 -12 16 3 3 10 -7 16 -17 13 -21 -3 -4 4 -19
15 -33 30 -37 26 -86 -10 -129 -29 -36 -30 -40 -24 -104 6 -53 13 -73 36 -99
16 -18 27 -43 27 -56 -2 -24 -2 -24 -6 1 -3 14 -18 39 -33 55 -24 25 -30 42
-36 98 -7 66 -6 69 25 108 24 29 31 47 29 72 -3 30 -5 32 -48 35 -43 3 -48 7
-102 77 -32 40 -58 76 -58 79 0 3 16 6 35 6 29 0 35 4 36 23 1 20 2 20 6 2 3
-11 19 -33 37 -50z m-2717 43 c18 -7 33 -16 33 -21 0 -5 7 -4 15 3 9 8 15 9
15 2 0 -6 -4 -13 -9 -16 -11 -7 -101 25 -101 36 0 11 8 10 47 -4z m821 -6 c2
-7 -3 -12 -12 -12 -9 0 -16 7 -16 16 0 17 22 14 28 -4z m108 -22 c19 0 34 -3
34 -7 0 -4 -25 -40 -56 -80 -51 -66 -60 -73 -93 -74 -20 -1 -39 -1 -43 0 -5 0
-8 -18 -8 -42 0 -33 6 -49 25 -67 22 -21 25 -31 25 -100 0 -74 -1 -77 -35
-110 -45 -44 -45 -74 1 -156 20 -35 33 -64 31 -64 -12 0 -77 131 -77 155 0 17
13 42 35 66 33 37 35 43 35 107 0 60 -3 71 -30 104 -25 30 -29 42 -24 70 4 18
11 38 16 45 5 7 7 16 4 21 -3 6 2 16 12 23 15 12 16 12 7 -1 -5 -9 2 -2 17 15
15 16 26 35 23 42 -2 6 4 17 13 25 15 11 16 11 7 -2 -5 -9 0 -4 12 10 13 14
24 34 24 45 2 17 2 17 6 -2 4 -19 11 -23 39 -23z m-812 -6 c23 -9 20 -23 -4
-17 -11 3 -20 9 -20 14 0 11 3 11 24 3z m2295 2 c-25 -25 -85 -66 -97 -66 -18
0 68 69 87 69 8 1 12 -1 10 -3z m51 -11 c-12 -15 -138 -102 -170 -118 -19 -10
16 -3 44 9 14 5 17 4 12 -4 -5 -9 9 -12 51 -14 35 -1 45 -3 26 -5 -18 -2 -33
-8 -33 -13 0 -5 8 -7 18 -4 14 5 15 4 2 -5 -11 -8 -18 -7 -26 4 -13 17 -44 20
-44 5 0 -6 18 -35 40 -64 42 -55 50 -95 25 -116 -23 -19 -20 -102 5 -125 11
-10 19 -29 19 -44 l-2 -26 -4 26 c-2 15 -13 35 -24 45 -24 22 -27 105 -4 124
8 7 15 23 15 36 0 19 -5 24 -25 24 -18 0 -25 -5 -25 -19 0 -11 -9 -21 -22 -24
-20 -5 -21 -4 -6 6 9 7 18 20 20 28 4 17 -56 102 -65 92 -4 -3 -7 1 -7 10 0
25 -40 21 -75 -8 -16 -13 -24 -24 -17 -25 9 0 11 -7 7 -20 -5 -14 2 -32 20
-55 25 -33 25 -35 6 -35 -14 0 -21 -7 -21 -18 0 -10 -5 -23 -11 -29 -16 -16
-17 -82 -1 -95 17 -15 15 -35 -10 -79 -18 -33 -27 -38 -60 -41 -37 -3 -28 -8
136 -82 97 -43 176 -83 176 -88 0 -6 -8 -7 -17 -3 -39 15 -47 15 -20 0 21 -12
32 -13 41 -6 16 13 81 -10 69 -24 -5 -4 -3 -5 4 -1 6 3 30 -1 52 -10 29 -11
38 -20 34 -31 -5 -13 -8 -14 -17 -2 -6 8 -18 14 -26 15 -8 1 -26 4 -40 8 l-25
7 25 -15 c14 -9 21 -15 15 -15 -14 -1 -40 17 -40 27 0 20 -31 40 -48 31 -22
-13 -184 60 -165 73 9 6 6 7 -9 3 -12 -3 -30 -1 -41 6 -28 18 -56 4 -49 -23 4
-14 0 -30 -11 -43 -9 -11 -13 -17 -8 -13 14 12 45 -10 41 -29 -1 -10 3 -25 9
-33 8 -11 5 -11 -15 2 -15 9 -29 14 -33 11 -8 -8 14 -34 24 -28 4 3 14 -3 21
-13 13 -15 12 -16 -3 -3 -25 19 -22 2 4 -28 13 -14 -2 -3 -32 24 -53 48 -48
38 15 -35 16 -19 3 -10 -29 20 -42 39 -52 46 -36 23 13 -18 24 -43 26 -55 1
-13 13 -47 26 -77 l23 -54 33 87 c31 81 35 86 63 86 16 0 29 -4 29 -10 0 -13
-140 -353 -150 -363 -4 -5 -19 -7 -33 -5 l-25 3 25 63 26 63 -38 87 c-50 116
-75 162 -73 137 1 -11 0 -68 0 -127 l-2 -108 -30 0 c-19 0 -30 5 -30 14 0 13
-4 13 -27 0 -35 -18 -65 -18 -107 0 -41 17 -65 49 -73 100 l-6 38 -13 -38 c-7
-22 -29 -53 -48 -71 -99 -91 -270 -16 -268 119 1 27 -3 36 -11 31 -7 -3 -5 2
4 13 8 10 23 33 33 49 16 28 15 27 -18 -7 -39 -40 -63 -53 -29 -15 41 46 34
50 -12 7 l-49 -45 49 60 49 60 -54 -50 c-30 -27 -48 -42 -41 -32 8 9 11 20 8
24 -9 8 13 34 23 28 4 -3 14 3 21 13 13 15 12 16 -3 3 -12 -9 -18 -10 -19 -2
-3 20 -4 26 -12 37 -4 7 1 18 11 25 16 13 16 13 2 -6 -15 -19 -14 -19 9 -2 17
11 29 13 36 7 8 -7 18 -4 30 10 10 11 16 20 14 21 -2 0 -12 2 -21 4 -9 2 -22
-3 -29 -11 -12 -15 -33 -9 -23 7 3 5 9 7 14 4 4 -3 11 3 14 12 4 10 4 14 0 11
-11 -12 -34 19 -28 37 6 15 4 15 -31 0 -21 -8 -44 -20 -52 -26 -7 -6 -20 -9
-28 -5 -9 3 -14 2 -11 -2 3 -5 -25 -23 -62 -40 -37 -18 -58 -26 -48 -17 11 8
24 15 30 15 5 0 7 3 4 6 -3 3 -24 -4 -47 -15 -45 -23 -51 -25 -51 -12 0 5 81
46 181 92 156 73 176 84 147 87 -27 2 -37 10 -56 43 -29 51 -24 94 11 85 21
-5 21 -5 -2 13 -18 14 -22 24 -17 44 3 14 2 29 -4 32 -5 3 -10 15 -10 26 0 25
-40 27 -41 2 0 -11 -3 -13 -6 -5 -2 7 9 33 26 58 17 26 27 52 24 61 -4 11 -2
14 8 11 8 -3 13 -10 12 -16 -3 -12 55 -28 64 -18 4 3 -4 6 -17 6 -18 0 -21 3
-13 11 9 9 19 8 39 -6 14 -9 24 -12 20 -7 -3 6 -2 13 4 17 6 4 8 11 4 16 -3 6
2 19 12 30 17 19 18 19 63 -23 25 -24 39 -35 32 -25 -11 14 -11 17 0 18 8 1 3
5 -11 9 -19 6 -20 8 -6 9 15 1 16 4 7 15 -19 22 6 53 48 60 84 14 130 3 143
-34 3 -8 7 -1 10 18 l5 32 -148 0 c-88 0 -150 4 -154 10 -4 7 48 10 149 10
l156 0 0 38 c0 23 3 32 8 24 5 -7 16 -10 27 -6 15 6 17 3 13 -24 l-5 -32 126
-1 c69 -1 130 0 136 1 5 1 6 -2 2 -7 -11 -11 -8 -10 -147 -12 -107 -1 -120 -3
-119 -18 0 -11 3 -13 6 -5 6 15 145 17 174 2 20 -11 26 -45 9 -55 -6 -4 -8
-11 -5 -16 4 -5 1 -9 -4 -9 -6 0 -11 -7 -11 -16 0 -12 7 -10 31 10 22 19 35
23 47 17 9 -4 24 -6 32 -3 13 5 13 3 1 -11 -16 -20 -36 -23 -25 -4 5 9 4 9 -6
0 -8 -7 -15 -19 -16 -27 -1 -9 25 3 67 31 38 25 69 50 69 54 0 5 7 9 15 9 18
0 20 20 3 20 -16 1 39 50 55 50 7 0 -1 -11 -18 -25 -19 -15 -24 -24 -15 -24 8
0 58 31 110 68 94 68 124 85 100 56z m372 -7 c10 2 18 -1 18 -7 0 -17 -40 -8
-58 13 -16 20 -16 20 2 6 11 -8 27 -14 38 -12z m-2754 0 c24 -24 14 -38 -18
-27 -32 12 -38 24 -17 32 19 8 22 8 35 -5z m1138 -18 c24 -17 44 -33 44 -35 0
-12 -20 -2 -66 30 -27 19 -43 35 -36 35 7 0 33 -14 58 -30z m1634 -73 c0 -5
-12 6 -27 25 -45 56 -50 66 -11 23 21 -22 38 -44 38 -48z m-2069 65 c-5 -10
-18 -25 -27 -33 -11 -9 -9 -2 6 19 26 35 36 42 21 14z m2536 12 c-3 -3 -12 -4
-19 -1 -8 3 -5 6 6 6 11 1 17 -2 13 -5z m-2567 -13 c0 -5 -9 -7 -20 -4 -11 3
-20 7 -20 9 0 2 9 4 20 4 11 0 20 -4 20 -9z m2482 -12 c-24 -11 -49 -18 -55
-16 -7 3 3 8 21 12 18 4 35 12 38 16 3 5 13 9 22 8 9 0 -2 -10 -26 -20z m298
6 c16 -19 17 -92 1 -108 -8 -8 -19 -8 -44 1 -18 7 -48 12 -65 12 -24 0 -32 5
-32 18 0 9 -3 27 -6 40 -6 19 -2 22 22 22 16 1 40 7 54 15 33 19 55 19 70 0z
m-3200 -19 c0 -2 -9 -2 -20 1 -11 3 -20 9 -20 15 0 5 9 4 20 -2 11 -6 20 -12
20 -14z m-236 4 c17 -5 44 -12 59 -15 26 -5 28 -9 25 -43 -3 -35 -6 -37 -43
-44 -22 -4 -54 -10 -71 -14 -37 -7 -48 5 -46 53 2 38 18 73 34 73 6 0 25 -4
42 -10z m726 6 c0 -2 -8 -10 -17 -17 -16 -13 -17 -12 -4 4 13 16 21 21 21 13z
m2335 -15 c-12 -12 -137 -52 -144 -46 -2 3 5 7 15 10 10 4 27 11 36 16 10 5
29 9 42 9 14 0 28 5 31 10 3 6 11 10 18 10 7 0 7 -3 2 -9z m-2770 -11 c7 -12
-2 -12 -30 0 -19 8 -19 9 2 9 12 1 25 -3 28 -9z m3192 -27 c-3 -10 -5 -4 -5
12 0 17 2 24 5 18 2 -7 2 -21 0 -30z m-3142 17 c4 -6 10 -8 15 -5 4 3 28 -4
51 -15 24 -11 40 -20 34 -20 -16 0 -103 28 -123 39 -16 10 -16 10 0 11 9 0 20
-5 23 -10z m495 6 c0 -2 -8 -10 -17 -17 -16 -13 -17 -12 -4 4 13 16 21 21 21
13z m385 -21 c17 -14 26 -25 22 -25 -14 0 -67 34 -67 42 0 14 14 8 45 -17z
m-575 11 c0 -2 -8 -10 -17 -17 -16 -13 -17 -12 -4 4 13 16 21 21 21 13z m723
-21 c-64 -43 -71 -46 -79 -33 -4 7 -4 10 0 7 4 -4 18 4 32 18 13 13 29 21 34
18 6 -3 10 -1 10 5 0 6 5 8 11 5 7 -5 4 -12 -8 -20z m-1476 -17 c-3 -7 -5 -2
-5 12 0 14 2 19 5 13 2 -7 2 -19 0 -25z m900 -6 c-9 -10 -18 -35 -19 -55 -4
-45 -18 -49 -18 -5 0 19 9 41 22 55 25 27 39 32 15 5z m369 3 c10 -8 15 -15 9
-14 -21 3 -35 -1 -35 -11 0 -5 11 -10 23 -10 13 0 26 -3 29 -6 11 -10 -89
-104 -111 -104 -27 0 -27 -24 -1 -57 28 -35 27 -103 -1 -129 -15 -13 -20 -28
-17 -51 2 -17 0 -29 -4 -27 -16 10 -8 61 12 79 14 12 20 31 20 57 0 25 -8 50
-20 65 -11 14 -20 32 -20 40 0 8 -4 12 -9 8 -5 -3 -12 -1 -16 5 -3 5 2 10 12
10 10 0 35 24 56 53 29 40 37 58 33 80 -6 31 9 36 40 12z m916 -7 c-12 -12
-35 -1 -27 12 3 5 13 6 21 3 10 -4 12 -9 6 -15z m1016 -5 c1 -24 0 -25 -9 -10
-5 9 -7 22 -4 27 9 15 10 13 13 -17z m-476 -37 c2 -18 -2 -31 -10 -34 -10 -3
-13 5 -11 30 2 18 -1 40 -5 48 -8 13 -7 13 7 0 8 -8 17 -28 19 -44z m-1522 30
c0 -18 -20 -25 -45 -15 -18 7 -18 8 5 9 23 1 23 2 5 10 -18 8 -17 9 8 9 17 1
27 -4 27 -13z m1717 -8 c-3 -8 -6 -5 -6 6 -1 11 2 17 5 13 3 -3 4 -12 1 -19z
m-2517 -9 c0 -11 -4 -18 -10 -14 -5 3 -7 12 -3 20 7 21 13 19 13 -6z m710 -1
c0 -6 -6 -5 -15 2 -8 7 -15 14 -15 16 0 2 7 1 15 -2 8 -4 15 -11 15 -16z
m1773 15 c-7 -2 -21 -2 -30 0 -10 3 -4 5 12 5 17 0 24 -2 18 -5z m-703 -18
c-7 -8 -17 -15 -22 -15 -6 0 -5 7 2 15 7 8 17 15 22 15 6 0 5 -7 -2 -15z m820
0 c0 -8 -9 -15 -20 -15 -11 0 -20 7 -20 15 0 8 9 15 20 15 11 0 20 -7 20 -15z
m-2370 -15 c0 -13 -7 -20 -19 -20 -22 0 -35 15 -26 30 12 19 45 11 45 -10z
m107 14 c-3 -3 -12 -4 -19 -1 -8 3 -5 6 6 6 11 1 17 -2 13 -5z m706 -20 c21
-14 36 -28 34 -31 -3 -2 -24 9 -48 26 -51 37 -39 42 14 5z m985 1 c9 1 11 0 4
-2 -11 -4 -11 -8 0 -21 9 -12 6 -12 -10 2 -12 11 -22 24 -21 30 0 7 2 7 5 0 3
-7 13 -11 22 -9z m-1238 0 c0 -1 -10 -10 -22 -21 -12 -10 -18 -13 -14 -6 4 7
2 12 -6 12 -11 0 -11 2 0 8 11 7 42 12 42 7z m1500 -15 c0 -5 -8 -10 -17 -10
-15 0 -16 -2 -3 -10 13 -8 12 -10 -2 -10 -10 0 -18 4 -18 9 0 5 -17 3 -37 -5
-39 -14 -70 -18 -61 -9 3 3 34 14 69 25 35 10 65 19 67 19 1 1 2 -3 2 -9z
m-1655 -49 c-2 -2 -25 2 -51 8 -25 7 -56 9 -67 6 -18 -5 -19 -4 -7 4 13 9 13
11 -2 11 -10 0 -18 4 -18 9 0 4 33 -1 74 -13 41 -11 73 -22 71 -25z m2567 9
c3 -20 0 -30 -9 -30 -8 0 -13 12 -13 30 0 17 4 30 9 30 5 0 11 -13 13 -30z
m-2458 -1 c-3 -5 -10 -7 -15 -3 -5 3 -7 10 -3 15 3 5 10 7 15 3 5 -3 7 -10 3
-15z m1091 11 c3 -5 1 -10 -4 -10 -6 0 -11 5 -11 10 0 6 2 10 4 10 3 0 8 -4
11 -10z m229 2 c3 -5 -1 -9 -9 -9 -8 0 -12 4 -9 9 3 4 7 8 9 8 2 0 6 -4 9 -8z
m-2464 -43 c0 -16 -4 -28 -9 -25 -8 5 -3 56 5 56 2 0 4 -14 4 -31z m2870 6
c-20 -24 -4 -134 23 -165 l22 -25 -26 23 c-14 12 -32 22 -40 23 -11 0 -11 2 0
6 9 4 10 8 2 12 -6 4 -13 28 -15 54 -4 39 -1 51 17 67 25 24 35 26 17 5z
m-400 1 c0 -2 -7 -6 -15 -10 -8 -3 -15 -1 -15 4 0 6 7 10 15 10 8 0 15 -2 15
-4z m64 -13 c3 -8 -2 -13 -14 -13 -11 0 -20 6 -20 13 0 8 7 14 15 14 8 0 16
-6 19 -14z m1030 -23 c20 -50 24 -177 6 -220 -10 -25 -17 -30 -34 -26 -12 3
-40 6 -63 6 l-42 0 -5 53 c-3 28 -8 85 -11 125 l-6 72 39 0 c23 0 45 6 52 15
22 27 47 17 64 -25z m-2821 -27 c-9 -8 -12 -13 -5 -13 16 0 15 -30 0 -31 -10
0 -10 -2 0 -6 18 -7 15 -31 -5 -42 -16 -8 -18 -2 -18 69 l0 77 22 -21 c21 -19
21 -22 6 -33z m337 36 c0 -5 -7 -9 -15 -9 -8 0 -15 7 -15 15 0 9 6 12 15 9 8
-4 15 -10 15 -15z m164 -11 c7 -5 4 -8 -6 -8 -12 0 -18 7 -17 23 0 15 2 17 6
7 3 -8 11 -18 17 -22z m-1160 7 c11 -8 35 -15 53 -15 l33 0 0 -64 c0 -34 -3
-91 -6 -125 l-7 -61 -33 0 c-18 0 -44 -4 -57 -9 -19 -8 -29 -6 -41 8 -35 38
-32 189 4 249 22 36 27 37 54 17z m2586 -45 c0 -33 -4 -60 -9 -60 -5 0 -18 -3
-28 -7 -17 -7 -17 -6 0 20 9 15 13 27 7 27 -11 0 -14 63 -3 73 3 4 12 7 20 7
9 0 13 -17 13 -60z m-1723 17 c0 -12 2 -42 6 -67 4 -25 4 -39 1 -32 -3 6 -12
12 -20 12 -10 0 -14 15 -14 60 0 47 3 58 14 54 8 -3 13 -15 13 -27z m1740 -44
c-2 -16 -4 -3 -4 27 0 30 2 43 4 28 2 -16 2 -40 0 -55z m998 37 c-9 -16 -22
-30 -31 -30 -13 0 -13 4 1 30 9 17 22 30 31 30 13 0 13 -4 -1 -30z m-3760 -20
c18 -34 18 -40 5 -40 -8 0 -40 51 -40 65 0 16 22 1 35 -25z m1348 -17 c-4 -33
-3 -44 5 -39 8 5 10 2 6 -9 -12 -29 -39 -12 -41 25 -2 31 -1 32 7 10 8 -25 8
-25 10 5 1 17 2 36 1 43 -1 6 3 12 8 12 7 0 8 -17 4 -47z m1057 37 c0 -5 -7
-10 -15 -10 -8 0 -15 5 -15 10 0 6 7 10 15 10 8 0 15 -4 15 -10z m-1690 -4 c0
-3 -4 -8 -10 -11 -5 -3 -10 -1 -10 4 0 6 5 11 10 11 6 0 10 -2 10 -4z m508
-65 l-1 -46 -4 45 c-3 24 -10 51 -16 60 -11 13 -10 13 6 1 12 -10 17 -26 15
-60z m1302 12 c0 -25 -3 -44 -6 -40 -8 8 -14 69 -7 80 9 16 13 5 13 -40z m167
25 c-3 -8 -6 -5 -6 6 -1 11 2 17 5 13 3 -3 4 -12 1 -19z m-1720 -25 c-3 -10
-5 -4 -5 12 0 17 2 24 5 18 2 -7 2 -21 0 -30z m80 15 c-3 -8 -6 -5 -6 6 -1 11
2 17 5 13 3 -3 4 -12 1 -19z m1265 10 c-17 -17 -15 -73 3 -88 8 -7 14 -22 14
-34 -2 -21 -2 -21 -6 1 -2 12 -11 27 -19 33 -25 21 -13 100 15 100 3 0 0 -5
-7 -12z m88 -23 c0 -19 -4 -35 -9 -35 -13 0 -22 28 -11 35 5 3 7 12 3 20 -3 8
0 15 6 15 6 0 11 -16 11 -35z m670 25 c0 -5 -9 -10 -20 -10 -11 0 -20 5 -20
10 0 6 9 10 20 10 11 0 20 -4 20 -10z m-2380 -15 c0 -8 -9 -15 -20 -15 -20 0
-26 11 -13 23 12 13 33 7 33 -8z m1727 -32 c-3 -10 -5 -2 -5 17 0 19 2 27 5
18 2 -10 2 -26 0 -35z m-1020 -20 c-3 -10 -5 -2 -5 17 0 19 2 27 5 18 2 -10 2
-26 0 -35z m1203 27 c0 -5 -4 -10 -10 -10 -5 0 -10 5 -10 10 0 6 5 10 10 10 6
0 10 -4 10 -10z m-1450 -10 c0 -5 -4 -10 -9 -10 -6 0 -13 5 -16 10 -3 6 1 10
9 10 9 0 16 -4 16 -10z m1264 -115 c-4 -8 -8 -15 -10 -15 -2 0 -4 7 -4 15 0 8
4 15 10 15 5 0 7 -7 4 -15z m-1084 -10 c0 -8 -2 -15 -4 -15 -2 0 -6 7 -10 15
-3 8 -1 15 4 15 6 0 10 -7 10 -15z m1150 -25 c-6 -11 -13 -20 -16 -20 -2 0 0
9 6 20 6 11 13 20 16 20 2 0 0 -9 -6 -20z m151 -7 c-12 -20 -14 -14 -5 12 4 9
9 14 11 11 3 -2 0 -13 -6 -23z m259 -22 c-28 -56 -35 -52 -8 4 12 24 23 43 26
41 2 -2 -6 -22 -18 -45z m-1783 17 c2 -18 0 -20 -7 -8 -12 18 -13 30 -2 30 4
0 9 -10 9 -22z m153 2 c6 -11 8 -20 6 -20 -3 0 -10 9 -16 20 -6 11 -8 20 -6
20 3 0 10 -9 16 -20z m1503 13 c-7 -2 -19 -2 -25 0 -7 3 -2 5 12 5 14 0 19 -2
13 -5z m-1760 -10 c-7 -2 -21 -2 -30 0 -10 3 -4 5 12 5 17 0 24 -2 18 -5z
m475 -30 c-21 -2 -55 -2 -75 0 -21 2 -4 4 37 4 41 0 58 -2 38 -4z m1229 -9
c-3 -3 -12 -4 -19 -1 -8 3 -5 6 6 6 11 1 17 -2 13 -5z m-264 -19 c-3 -9 -8
-14 -10 -11 -3 3 -2 9 2 15 9 16 15 13 8 -4z m-1103 -18 c34 -4 34 -4 -6 -5
-31 -2 -44 2 -48 14 -5 13 -3 14 6 6 7 -6 29 -12 48 -15z m1830 -2 c-7 -8 -16
-15 -21 -15 -5 0 -6 7 -3 15 4 8 13 15 21 15 13 0 13 -3 3 -15z m-2582 -24 c3
-8 -1 -12 -9 -9 -7 2 -15 10 -17 17 -3 8 1 12 9 9 7 -2 15 -10 17 -17z m2049
3 c-3 -3 -12 -4 -19 -1 -8 3 -5 6 6 6 11 1 17 -2 13 -5z m198 -24 c-9 -16 -18
-30 -21 -30 -2 0 2 14 11 30 9 17 18 30 21 30 2 0 -2 -13 -11 -30z m-1718 14
c-3 -3 -12 -4 -19 -1 -8 3 -5 6 6 6 11 1 17 -2 13 -5z m-202 -44 c9 -16 13
-30 11 -30 -3 0 -12 14 -21 30 -9 17 -13 30 -11 30 3 0 12 -13 21 -30z m634
-27 c-6 -7 -15 -10 -20 -7 -13 8 -3 21 15 21 12 0 13 -4 5 -14z m-349 -27 c14
-18 14 -19 -7 -7 -22 11 -28 6 -24 -21 0 -4 -18 -17 -40 -29 -23 -11 -38 -15
-34 -9 5 9 1 10 -14 5 -14 -4 -21 -2 -22 7 0 7 -5 2 -10 -11 -8 -19 -12 -22
-22 -12 -9 10 -8 15 8 27 11 8 28 13 38 10 11 -2 16 -2 12 2 -3 4 18 18 47 33
29 14 53 25 53 25 1 -1 7 -10 15 -20z m1823 3 c26 -6 46 -13 44 -16 -3 -2 -22
0 -43 6 -22 5 -108 12 -192 14 -84 3 -156 8 -160 12 -10 10 296 -4 351 -16z
m-1976 -1 c-7 -4 -73 -8 -147 -8 l-134 0 -286 -86 c-157 -47 -398 -122 -537
-165 -138 -43 -257 -79 -264 -79 -55 0 75 42 761 246 258 77 307 88 395 93
138 8 225 7 212 -1z m419 -33 c-1 -8 -8 -21 -16 -28 -10 -10 -11 -9 -4 3 5 8
9 18 10 23 3 14 4 17 8 17 2 0 3 -7 2 -15z m1809 -35 c165 -48 169 -48 183
-29 7 11 31 28 52 39 67 34 139 24 193 -28 33 -32 33 -36 2 -50 -21 -10 -28
-8 -49 13 -31 31 -93 34 -126 7 -22 -18 -22 -18 53 -40 41 -12 96 -22 121 -22
34 0 46 -4 46 -15 0 -8 4 -15 9 -15 4 0 12 28 15 63 13 115 6 108 105 105 85
-3 86 -3 89 -30 3 -27 3 -27 -65 -30 -66 -3 -68 -4 -71 -30 -3 -26 -1 -27 27
-22 61 13 121 -36 121 -98 0 -20 8 -26 46 -36 25 -7 43 -16 40 -21 -3 -4 -24
-3 -47 3 -36 9 -42 8 -57 -11 -38 -47 -105 -57 -159 -23 -38 23 -42 40 -13 58
17 10 25 9 49 -9 23 -17 32 -19 50 -10 11 7 21 16 21 21 0 7 -132 52 -153 51
-5 0 -18 -19 -30 -43 -28 -54 -63 -79 -120 -85 -111 -13 -207 93 -177 196 8
29 7 31 -28 41 -55 15 -55 15 -80 -48 -127 -311 -122 -302 -153 -302 -16 0
-29 2 -29 5 0 2 11 30 25 61 l25 57 -50 118 c-27 64 -50 120 -50 123 0 3 13 6
29 6 27 0 31 -6 61 -80 18 -44 35 -80 39 -80 4 0 20 36 36 80 24 63 34 80 50
81 11 0 -29 15 -90 33 -131 38 -147 44 -125 45 8 0 91 -22 185 -49z m-565 15
c0 -8 -7 -15 -15 -15 -16 0 -20 12 -8 23 11 12 23 8 23 -8z m40 -20 c0 -8 -7
-15 -15 -15 -8 0 -15 7 -15 15 0 8 7 15 15 15 8 0 15 -7 15 -15z m-1740 -10
c0 -8 -4 -15 -9 -15 -13 0 -22 16 -14 24 11 11 23 6 23 -9z m1783 -13 c-2 -10
3 -24 11 -31 22 -18 20 -26 -8 -39 -19 -9 -27 -8 -37 4 -16 20 -73 15 -77 -7
-2 -13 10 -20 49 -29 55 -13 99 -47 99 -75 0 -9 -13 -30 -29 -46 -24 -24 -38
-29 -76 -29 -81 0 -141 48 -90 72 20 9 28 8 43 -5 23 -21 65 -22 82 -2 13 16
12 16 -83 50 -48 17 -63 40 -55 81 6 30 54 57 98 56 22 -1 40 3 40 8 0 6 9 10
19 10 14 0 18 -5 14 -18z m-1823 -7 c0 -8 -7 -15 -15 -15 -8 0 -15 7 -15 15 0
8 7 15 15 15 8 0 15 -7 15 -15z m1591 -6 c9 -4 21 -15 28 -23 19 -22 -23 -43
-54 -26 -28 15 -70 9 -70 -10 0 -9 20 -20 53 -30 90 -26 112 -76 56 -127 -33
-30 -105 -31 -151 -3 -39 24 -41 37 -8 52 20 9 28 8 43 -5 22 -20 63 -22 80
-5 15 15 -3 38 -30 38 -25 0 -90 28 -100 43 -14 22 -8 64 11 81 36 33 95 39
142 15z m279 -5 c0 -8 -6 -14 -13 -14 -19 0 -27 10 -20 25 6 17 33 8 33 -11z
m197 -4 c37 -22 66 -71 61 -103 -3 -21 -7 -22 -105 -19 -57 2 -103 0 -103 -4
0 -4 10 -18 22 -31 27 -29 83 -31 112 -4 18 17 24 18 46 6 l24 -13 -32 -30
c-17 -16 -46 -32 -63 -36 -101 -20 -195 80 -158 169 7 17 13 36 14 42 0 7 3
13 7 13 4 1 22 7 40 15 46 20 98 18 135 -5z m-2107 -4 c0 -8 -7 -17 -16 -20
-8 -3 -12 -2 -9 4 3 6 1 10 -5 10 -6 0 -8 5 -5 10 9 15 35 12 35 -4z m-50 -21
c0 -8 -2 -15 -4 -15 -2 0 -6 7 -10 15 -3 8 -1 15 4 15 6 0 10 -7 10 -15z
m1375 -5 c10 -11 16 -20 13 -20 -3 0 -13 9 -23 20 -10 11 -16 20 -13 20 3 0
13 -9 23 -20z m-101 -6 c3 -8 2 -12 -4 -9 -6 3 -10 10 -10 16 0 14 7 11 14 -7z"/>
<path d="M2990 3000 c20 -13 60 -13 60 0 0 6 -17 10 -37 10 -28 0 -34 -3 -23
-10z"/>
<path d="M2482 2943 c-16 -3 -25 -14 -30 -36 -3 -18 -5 -35 -4 -39 1 -5 -3 -8
-10 -8 -6 0 -4 -6 7 -13 12 -10 14 -16 7 -21 -7 -4 -12 -2 -12 4 0 6 -7 4 -17
-5 -9 -9 -12 -20 -7 -23 17 -13 13 -30 -11 -56 -13 -14 -21 -26 -18 -26 4 0 2
-5 -5 -12 -15 -15 -16 -48 -2 -48 6 0 10 -8 11 -17 0 -16 29 41 45 90 4 9 11
17 16 17 6 0 8 -6 5 -14 -3 -7 0 -19 6 -26 9 -10 9 -11 -2 -5 -11 6 -13 3 -9
-13 4 -12 2 -22 -3 -22 -5 0 -9 -13 -9 -29 0 -16 -4 -31 -10 -33 -6 -2 -7 -33
-2 -83 4 -44 3 -108 -2 -142 -9 -62 -9 -62 23 -95 18 -18 35 -45 38 -61 8 -39
17 -40 36 -7 10 16 31 34 47 42 29 12 37 27 23 42 -4 3 -7 77 -8 164 -1 92 -7
169 -13 185 -7 16 -12 39 -12 52 0 35 27 21 36 -18 3 -18 11 -38 16 -44 6 -7
7 -24 4 -39 -5 -17 -3 -23 4 -19 14 9 13 65 -2 65 -8 0 -6 5 4 10 13 8 15 16
8 41 -15 50 -34 89 -45 89 -5 0 -3 4 5 10 12 8 12 13 -3 44 -9 20 -22 36 -28
36 -6 0 -8 8 -4 19 3 11 -1 26 -10 35 -17 16 -21 17 -63 9z m108 -173 c0 -5
-2 -10 -4 -10 -3 0 -8 5 -11 10 -3 6 -1 10 4 10 6 0 11 -4 11 -10z m-71 -212
c7 -99 4 -266 -6 -308 -9 -39 -11 -41 -12 -15 -1 17 -7 39 -15 50 -10 15 -12
33 -6 72 5 28 9 89 10 135 2 46 4 91 7 101 7 29 19 11 22 -35z"/>
<path d="M2840 2905 c-25 -14 -25 -14 -2 -15 12 0 22 4 22 9 0 5 9 7 20 4 11
-3 20 0 20 6 0 15 -30 13 -60 -4z"/>
<path d="M2880 2866 c0 -2 8 -10 18 -17 15 -13 16 -12 3 4 -13 16 -21 21 -21
13z"/>
<path d="M2386 2597 c3 -10 9 -15 12 -12 3 3 0 11 -7 18 -10 9 -11 8 -5 -6z"/>
<path d="M2150 2489 c0 -5 5 -7 10 -4 6 3 10 8 10 11 0 2 -4 4 -10 4 -5 0 -10
-5 -10 -11z"/>
<path d="M1975 2430 c-3 -6 1 -7 9 -4 18 7 21 14 7 14 -6 0 -13 -4 -16 -10z"/>
<path d="M2806 2295 c4 -8 11 -15 16 -15 6 0 5 6 -2 15 -7 8 -14 15 -16 15 -2
0 -1 -7 2 -15z"/>
<path d="M2105 2290 c-3 -5 -1 -10 4 -10 6 0 11 5 11 10 0 6 -2 10 -4 10 -3 0
-8 -4 -11 -10z"/>
<path d="M2780 2290 c0 -5 5 -10 11 -10 5 0 7 5 4 10 -3 6 -8 10 -11 10 -2 0
-4 -4 -4 -10z"/>
<path d="M2300 2270 c-8 -5 -11 -10 -7 -10 4 0 3 -6 -3 -12 -6 -7 -18 -22 -26
-33 -15 -19 -15 -19 -4 3 18 37 5 51 -13 15 -24 -45 -21 -77 9 -112 32 -38 80
-49 122 -27 38 20 52 44 52 88 0 35 -19 78 -21 48 0 -8 -4 -4 -8 10 -8 25 -8
25 -24 -10 l-17 -35 5 38 c8 48 -1 47 -21 -3 -19 -48 -28 -48 -14 0 14 47 5
49 -19 3 -24 -44 -27 -38 -7 12 8 19 14 35 13 35 -1 0 -9 -5 -17 -10z m97 -82
c-3 -8 -6 -5 -6 6 -1 11 2 17 5 13 3 -3 4 -12 1 -19z"/>
<path d="M2620 2210 c0 -5 -6 -7 -14 -4 -16 6 -46 -32 -46 -57 0 -9 9 -28 21
-43 27 -35 90 -37 113 -4 24 34 20 73 -10 97 -28 22 -64 28 -64 11z"/>
<path d="M1760 2325 c-14 -8 -20 -14 -15 -14 6 0 21 6 35 14 14 8 21 14 15 14
-5 0 -21 -6 -35 -14z"/>
<path d="M4131 2198 c-35 -93 96 -172 167 -100 l27 27 -54 3 -53 3 4 34 c3 29
1 34 -22 38 -14 3 -33 9 -42 12 -13 5 -20 0 -27 -17z"/>
<path d="M4476 2151 c-6 -9 45 -31 71 -31 11 0 11 4 3 20 -11 21 -64 28 -74
11z"/>
<path d="M3583 2213 c-12 -2 -27 -11 -33 -19 -11 -12 -3 -14 54 -14 69 0 86
13 40 30 -14 6 -28 9 -32 9 -4 -1 -17 -4 -29 -6z"/>
</g>
</svg>
