<svg width="131" height="31" viewBox="0 0 131 31" fill="none" xmlns="http://www.w3.org/2000/svg">
<path fillRule="evenodd" clip-rule="evenodd" d="M111.333 31L119.713 7.59527C119.713 7.59527 113.45 7.59527 107.186 8.86811L99.2647 31H111.333ZM109.905 1.27317L108.296 5.76896C114.598 4.49417 120.823 4.49417 120.823 4.49417L122.431 1.23613e-06C122.431 1.23613e-06 116.169 1.23613e-06 109.905 1.27317Z" fill="#005DAA"/>
<path fillRule="evenodd" clip-rule="evenodd" d="M64.6816 29.7252C68.9371 30.5599 73.333 31 77.8309 31H77.8322C84.9709 31 87.9044 30.2809 91.6083 28.3652C94.7632 26.731 96.8373 24.9974 97.7283 22.011C98.492 19.4517 97.5159 17.0363 95.2514 15.5003C92.9863 13.9637 90.7918 13.2372 88.1859 11.7813C85.907 10.5084 84.6641 9.54958 84.8161 8.21549C85.1367 5.41543 88.0922 4.49417 92.164 4.49417C96.1312 4.49417 100.015 4.85807 103.783 5.55379L105.315 1.27349C101.059 0.439729 96.661 0.000325257 92.164 0.000325257C85.0253 0.000325257 82.0928 0.719703 78.3892 2.6348C75.2331 4.26896 73.1589 6.00259 72.2679 8.99093C71.5042 11.5496 72.4803 13.9637 74.7468 15.5003C77.01 17.0363 79.2035 17.7634 81.8116 19.221C84.0892 20.4932 85.3334 21.4507 85.1789 22.7855C84.8583 25.5862 81.9027 26.5039 77.8322 26.5039H77.8309C73.865 26.5039 69.9813 26.1413 66.2128 25.4443L64.6816 29.7252Z" fill="#005DAA"/>
<path fillRule="evenodd" clip-rule="evenodd" d="M60.0886 31L67.857 9.29845C68.4882 7.53889 68.5288 4.36876 66.7839 2.63578C65.0374 0.896307 62.9578 1.2312e-06 59.1147 1.2312e-06C55.2717 -0.00129495 52.1517 1.02106 49.644 2.01588C48.2961 2.54796 46.2952 3.58717 44.0307 4.9757C43.8119 4.09624 43.4126 3.27123 42.7747 2.63578C41.0275 0.896307 38.9479 1.2312e-06 35.1058 1.2312e-06C31.2615 -0.000970901 28.1441 1.02139 25.6348 2.01588C24.2872 2.54796 22.2857 3.58717 20.0215 4.9757C19.803 4.09624 19.4037 3.27123 18.7658 2.63578C17.0193 0.896307 14.9403 1.2312e-06 11.0963 1.2312e-06L0 31H12.0705L17.6188 15.5003C18.6247 12.6883 21.3624 10.0113 22.8645 8.83539C24.7767 7.34057 33.3299 4.96014 31.0001 11.4708L24.0095 31H36.0804L41.6293 15.4971C42.6358 12.687 45.3722 10.011 46.874 8.83506C48.7856 7.34025 57.3394 4.95982 55.0093 11.4705L48.0187 31H60.0886Z" fill="#005DAA"/>
<path d="M128.143 0.453015H127.421V2.34057H126.826V0.453015H126.103V1.23613e-06H128.143V0.453015Z" fill="#005DAA"/>
<path d="M131 2.34057H130.406V0.773494L129.978 1.78937H129.569L129.142 0.773494V2.34025H128.582V1.23613e-06H129.271L129.79 1.17336L130.306 1.23613e-06H131V2.34057Z" fill="#005DAA"/>
</svg>
