<?xml version="1.0" standalone="no"?>
<!DOCTYPE svg PUBLIC "-//W3C//DTD SVG 20010904//EN"
 "http://www.w3.org/TR/2001/REC-SVG-20010904/DTD/svg10.dtd">
<svg version="1.0" xmlns="http://www.w3.org/2000/svg"
 width="568.000000pt" height="568.000000pt" viewBox="0 0 568.000000 568.000000"
 preserveAspectRatio="xMidYMid meet">

<g transform="translate(0.000000,568.000000) scale(0.100000,-0.100000)"
fill="#000000" stroke="none">
<path d="M3082 5639 c-18 -12 -31 -24 -28 -26 6 -6 63 24 71 37 10 16 -7 11
-43 -11z"/>
<path d="M2725 5405 c-205 -125 -329 -195 -346 -195 -36 0 -279 -149 -279
-171 0 -11 -75 -62 -217 -150 -120 -73 -237 -145 -260 -161 -23 -16 -55 -28
-72 -28 -36 0 -211 -105 -211 -126 0 -7 -10 -23 -22 -34 -14 -13 -17 -19 -7
-15 13 5 16 -4 18 -47 2 -59 8 -71 26 -64 7 2 21 -2 32 -10 16 -12 16 -13 1
-8 -14 5 -18 1 -18 -21 0 -15 -9 -34 -22 -44 -30 -25 -32 -50 -4 -43 14 3 18
1 11 -6 -10 -10 -226 -135 -325 -188 -30 -16 -58 -33 -62 -39 -13 -17 -9 -35
7 -35 22 0 21 14 6 -444 -11 -321 -19 -416 -23 -265 -3 134 -17 -302 -53
-1651 -8 -311 -19 -636 -25 -723 l-9 -159 28 -76 c16 -42 35 -80 42 -84 8 -4
237 -68 509 -142 708 -192 1112 -304 1162 -320 54 -18 340 -94 428 -113 36 -8
84 -18 108 -24 23 -5 96 -9 161 -9 l120 0 145 100 c80 56 150 109 156 120 5
10 10 52 10 93 l0 74 98 16 c88 15 103 15 162 2 36 -9 103 -22 150 -31 47 -8
148 -27 225 -41 77 -14 158 -26 180 -28 22 -1 75 -8 118 -15 94 -17 101 -12
123 81 12 49 14 96 10 204 -12 271 -42 1084 -81 2190 -28 801 -45 1279 -55
1530 -5 138 -12 337 -16 443 -5 144 -10 195 -19 198 -7 3 -23 28 -35 55 -11
28 -27 52 -34 55 -22 8 -140 -51 -165 -82 -38 -49 -111 -75 -111 -39 0 11 -11
15 -40 15 -28 0 -120 33 -315 115 -151 63 -279 115 -285 115 -9 0 -12 -64 -15
-295 -1 -55 -13 -115 -23 -115 -16 1 -34 18 -29 28 4 5 0 29 -7 53 l-14 44 -1
-37 c-1 -27 -6 -38 -16 -38 -8 0 -16 -4 -16 -10 -1 -5 -3 -14 -4 -20 -1 -5 -3
-15 -4 -22 0 -6 -4 -8 -8 -5 -3 4 -12 2 -20 -5 -10 -8 -17 -8 -25 0 -15 15 0
34 23 27 11 -4 19 -2 19 4 0 6 -9 11 -20 11 -11 0 -20 5 -20 11 0 5 -4 7 -10
4 -5 -3 -10 -16 -10 -28 0 -16 -3 -18 -12 -9 -7 7 -20 12 -31 12 -14 0 -18 7
-17 28 3 47 0 63 -11 57 -6 -4 -7 -19 -4 -35 8 -36 -4 -122 -16 -114 -5 3 -10
24 -10 47 -1 23 -5 56 -9 72 -7 28 -8 28 -9 5 -2 -36 -16 -57 -25 -35 -3 9 -6
25 -6 36 0 21 -34 27 -46 7 -12 -19 -34 22 -36 66 -1 38 -2 36 -8 -14 -4 -30
-7 -43 -8 -27 -1 15 -6 27 -11 27 -5 0 -12 12 -14 28 -2 15 -6 -29 -8 -98 -2
-69 -4 -145 -5 -170 -1 -25 -2 -87 -3 -138 -1 -55 -5 -91 -10 -87 -5 3 -12 -9
-14 -27 -3 -28 -4 -27 -5 10 -2 46 -22 50 -22 5 0 -15 -2 -24 -6 -21 -3 3 -5
33 -5 67 0 33 -4 61 -8 61 -3 0 -12 29 -19 65 -8 45 -12 204 -12 530 0 256 -3
465 -7 465 -5 0 -152 -88 -328 -195z m612 -642 c-3 -10 -5 -4 -5 12 0 17 2 24
5 18 2 -7 2 -21 0 -30z m220 -10 c-3 -10 -5 -2 -5 17 0 19 2 27 5 18 2 -10 2
-26 0 -35z m-117 -9 c0 -8 -5 -12 -10 -9 -6 4 -8 11 -5 16 9 14 15 11 15 -7z
m-2050 -448 c-7 -7 -13 -7 -20 0 -6 6 -3 10 10 10 13 0 16 -4 10 -10z m-327
-358 c-5 -28 -17 -36 -27 -19 -7 11 17 62 26 53 3 -4 4 -19 1 -34z m7 -233 c0
-43 -3 -55 -16 -55 -12 0 -15 10 -13 48 3 52 6 62 20 62 5 0 9 -25 9 -55z m50
10 c0 -19 -4 -35 -10 -35 -5 0 -10 16 -10 35 0 19 5 35 10 35 6 0 10 -16 10
-35z m108 7 c-2 -8 -8 -17 -14 -19 -13 -4 -27 24 -19 37 9 14 36 -1 33 -18z
m86 -8 c8 -22 8 -24 -8 -24 -18 0 -29 16 -21 30 9 15 22 12 29 -6z m-46 -27
c2 -10 -3 -17 -12 -17 -10 0 -16 9 -16 21 0 24 23 21 28 -4z m130 6 c-4 -22
-22 -20 -26 1 -2 10 3 16 13 16 10 0 15 -7 13 -17z m-170 -21 c2 -7 -6 -12
-17 -12 -21 0 -27 11 -14 24 9 9 26 2 31 -12z m128 7 c3 -6 1 -16 -5 -22 -9
-9 -14 -8 -21 3 -9 15 -4 30 10 30 5 0 12 -5 16 -11z m132 -7 c3 -9 -2 -13
-14 -10 -9 1 -19 9 -22 16 -3 9 2 13 14 10 9 -1 19 -9 22 -16z m-48 -26 c-13
-13 -35 7 -25 24 5 8 11 8 21 -1 10 -8 12 -15 4 -23z m130 13 c0 -24 -23 -21
-28 4 -2 10 3 17 12 17 10 0 16 -9 16 -21z m-256 -5 c4 -11 1 -14 -11 -12 -9
2 -18 9 -21 16 -6 18 25 15 32 -4z m84 -12 c2 -7 -5 -12 -17 -12 -14 0 -19 5
-14 15 6 17 25 15 31 -3z m127 -2 c0 -7 -6 -15 -12 -17 -8 -3 -13 4 -13 17 0
13 5 20 13 18 6 -3 12 -11 12 -18z m145 -25 c0 -13 -4 -27 -10 -30 -6 -4 -10
8 -10 30 0 22 4 34 10 30 6 -3 10 -17 10 -30z m-182 7 c3 -9 -2 -13 -14 -10
-9 1 -19 9 -22 16 -3 9 2 13 14 10 9 -1 19 -9 22 -16z m232 -23 c0 -16 -4 -29
-10 -29 -5 0 -10 16 -10 36 0 21 4 33 10 29 6 -3 10 -19 10 -36z m-150 10 c0
-5 -7 -9 -15 -9 -15 0 -20 12 -9 23 8 8 24 -1 24 -14z m-130 -64 c0 -8 -7 -15
-15 -15 -8 0 -15 7 -15 15 0 8 7 15 15 15 8 0 15 -7 15 -15z m-42 -18 c2 -10
-3 -17 -12 -17 -10 0 -16 9 -16 21 0 24 23 21 28 -4z m-128 -18 c0 -12 -27
-11 -35 1 -11 17 5 32 21 19 8 -6 14 -15 14 -20z m213 6 c7 -16 -8 -29 -23
-20 -15 9 -12 35 4 35 8 0 16 -7 19 -15z m480 -10 c31 -4 63 -12 71 -19 13 -9
14 -68 9 -443 l-6 -432 -61 5 c-94 9 -101 11 -98 17 1 4 2 205 2 448 0 365 2
440 13 436 8 -3 39 -8 70 -12z m-525 -19 c3 -12 -1 -17 -10 -14 -7 3 -15 13
-16 22 -3 12 1 17 10 14 7 -3 15 -13 16 -22z m-265 -6 c3 -12 0 -20 -7 -20
-18 0 -25 10 -19 26 7 20 20 17 26 -6z m130 6 c6 -16 -2 -28 -14 -20 -12 7
-11 34 0 34 5 0 11 -6 14 -14z m-38 -35 c-10 -16 -25 -3 -25 22 0 20 1 20 16
5 9 -9 13 -21 9 -27z m135 18 c0 -6 -4 -7 -10 -4 -5 3 -10 11 -10 16 0 6 5 7
10 4 6 -3 10 -11 10 -16z m80 -15 c0 -16 -16 -19 -25 -4 -8 13 4 32 16 25 5
-4 9 -13 9 -21z m-136 -10 c4 -10 1 -14 -6 -12 -15 5 -23 28 -10 28 5 0 13 -7
16 -16z m94 -7 c2 -10 -3 -17 -12 -17 -10 0 -16 9 -16 21 0 24 23 21 28 -4z
m-130 -10 c2 -10 -3 -17 -11 -17 -16 0 -30 24 -19 34 10 10 27 1 30 -17z m202
-2 c0 -8 -4 -15 -10 -15 -5 0 -10 7 -10 15 0 8 5 15 10 15 6 0 10 -7 10 -15z
m95 -13 c0 -18 -20 -15 -23 4 -3 10 1 15 10 12 7 -3 13 -10 13 -16z m-255 -18
c0 -8 -7 -14 -15 -14 -15 0 -21 21 -9 33 10 9 24 -2 24 -19z m125 8 c0 -18
-20 -15 -23 4 -3 10 1 15 10 12 7 -3 13 -10 13 -16z m-38 -17 c8 -22 -6 -33
-17 -15 -13 20 -12 30 0 30 6 0 13 -7 17 -15z m125 -7 c-7 -7 -12 -8 -12 -2 0
14 12 26 19 19 2 -3 -1 -11 -7 -17z m-252 -1 c0 -21 -12 -28 -27 -16 -19 16
-16 29 7 29 11 0 20 -6 20 -13z m200 -9 c0 -16 -3 -19 -11 -11 -6 6 -8 16 -5
22 11 17 16 13 16 -11z m-120 -9 c0 -24 -23 -21 -28 4 -2 10 3 17 12 17 10 0
16 -9 16 -21z m88 -7 c2 -7 -3 -12 -12 -12 -9 0 -16 7 -16 16 0 17 22 14 28
-4z m-130 -10 c2 -7 -3 -12 -12 -12 -9 0 -16 7 -16 16 0 17 22 14 28 -4z
m-228 -12 c0 -5 -4 -10 -10 -10 -5 0 -10 5 -10 10 0 6 5 10 10 10 6 0 10 -4
10 -10z m514 -5 c-4 -8 -8 -15 -10 -15 -2 0 -4 7 -4 15 0 8 4 15 10 15 5 0 7
-7 4 -15z m-461 -10 c7 -16 -8 -29 -23 -20 -15 9 -12 35 4 35 8 0 16 -7 19
-15z m37 5 c0 -5 -4 -10 -9 -10 -6 0 -13 5 -16 10 -3 6 1 10 9 10 9 0 16 -4
16 -10z m396 -11 c3 -6 1 -16 -5 -22 -9 -9 -14 -8 -21 3 -9 15 -4 30 10 30 5
0 12 -5 16 -11z m-478 -22 c2 -10 -3 -17 -12 -17 -18 0 -29 16 -21 31 9 14 29
6 33 -14z m84 -29 c-16 -16 -37 4 -28 28 6 16 8 16 23 1 13 -13 15 -19 5 -29z
m351 27 c7 -16 -8 -29 -23 -20 -15 9 -12 35 4 35 8 0 16 -7 19 -15z m-393 -31
c0 -17 -22 -14 -28 4 -2 7 3 12 12 12 9 0 16 -7 16 -16z m420 6 c0 -5 -5 -10
-11 -10 -5 0 -7 5 -4 10 3 6 8 10 11 10 2 0 4 -4 4 -10z m-40 -20 c0 -5 -5
-10 -11 -10 -5 0 -7 5 -4 10 3 6 8 10 11 10 2 0 4 -4 4 -10z m140 -14 c0 -3
-4 -8 -10 -11 -5 -3 -10 -1 -10 4 0 6 5 11 10 11 6 0 10 -2 10 -4z m-5 -44 c0
-18 -20 -15 -23 4 -3 10 1 15 10 12 7 -3 13 -10 13 -16z m-85 4 c0 -3 -4 -8
-10 -11 -5 -3 -10 -1 -10 4 0 6 5 11 10 11 6 0 10 -2 10 -4z m-40 -21 c0 -8
-4 -15 -10 -15 -5 0 -10 7 -10 15 0 8 5 15 10 15 6 0 10 -7 10 -15z m80 -5 c0
-11 -4 -20 -9 -20 -11 0 -22 26 -14 34 12 12 23 5 23 -14z m-43 -26 c-9 -9
-28 6 -21 18 4 6 10 6 17 -1 6 -6 8 -13 4 -17z m-340 1 c7 -20 -2 -29 -21 -22
-9 4 -13 13 -10 22 8 19 23 19 31 0z m-47 -35 c0 -13 -5 -18 -15 -14 -16 7
-19 17 -8 27 12 13 23 7 23 -13z m-40 -19 c0 -12 -20 -25 -27 -18 -7 7 6 27
18 27 5 0 9 -4 9 -9z m428 -60 c3 -8 -1 -12 -9 -9 -7 2 -15 10 -17 17 -3 8 1
12 9 9 7 -2 15 -10 17 -17z m-274 -76 c-4 -8 -8 -15 -10 -15 -2 0 -4 7 -4 15
0 8 4 15 10 15 5 0 7 -7 4 -15z m-7 -57 c-3 -8 -6 -5 -6 6 -1 11 2 17 5 13 3
-3 4 -12 1 -19z m198 -8 c3 -5 1 -10 -4 -10 -6 0 -11 5 -11 10 0 6 2 10 4 10
3 0 8 -4 11 -10z m-198 -52 c-3 -8 -6 -5 -6 6 -1 11 2 17 5 13 3 -3 4 -12 1
-19z m228 2 c3 -5 1 -10 -4 -10 -6 0 -11 5 -11 10 0 6 2 10 4 10 3 0 8 -4 11
-10z m-457 -483 c2 -10 -3 -17 -12 -17 -10 0 -16 9 -16 21 0 24 23 21 28 -4z
m-48 -27 c0 -11 -7 -20 -15 -20 -8 0 -15 9 -15 20 0 11 7 20 15 20 8 0 15 -9
15 -20z m46 -21 c10 -17 -13 -36 -27 -22 -12 12 -4 33 11 33 5 0 12 -5 16 -11z
m-46 -39 c0 -11 -7 -20 -15 -20 -8 0 -15 9 -15 20 0 11 7 20 15 20 8 0 15 -9
15 -20z m44 -18 c2 -4 1 -14 -4 -22 -7 -11 -12 -12 -21 -3 -6 6 -8 16 -5 22 8
13 23 14 30 3z m-44 -42 c0 -21 -24 -28 -35 -10 -8 14 3 30 21 30 8 0 14 -9
14 -20z m43 -25 c8 -18 -11 -31 -25 -17 -11 11 -3 32 12 32 4 0 10 -7 13 -15z
m-47 -26 c10 -17 -13 -36 -27 -22 -12 12 -4 33 11 33 5 0 12 -5 16 -11z m44
-39 c0 -11 -7 -20 -15 -20 -8 0 -15 9 -15 20 0 11 7 20 15 20 8 0 15 -9 15
-20z m-44 -21 c10 -17 -13 -36 -27 -22 -12 12 -4 33 11 33 5 0 12 -5 16 -11z
m44 -39 c0 -11 -7 -20 -15 -20 -8 0 -15 9 -15 20 0 11 7 20 15 20 8 0 15 -9
15 -20z m-47 -17 c9 -9 -13 -34 -24 -27 -14 8 -11 34 4 34 8 0 17 -3 20 -7z
m45 -40 c-5 -25 -28 -28 -28 -4 0 12 6 21 16 21 9 0 14 -7 12 -17z m-50 -30
c-4 -22 -22 -20 -26 1 -2 10 3 16 13 16 10 0 15 -7 13 -17z m52 -27 c0 -21
-21 -31 -30 -15 -5 7 -6 17 -4 21 9 14 34 9 34 -6z m-52 -33 c-4 -22 -22 -20
-26 1 -2 10 3 16 13 16 10 0 15 -7 13 -17z m48 -24 c10 -17 -13 -36 -27 -22
-12 12 -4 33 11 33 5 0 12 -5 16 -11z m-46 -33 c0 -20 -19 -31 -32 -18 -6 6
-7 15 -4 21 10 16 36 13 36 -3z m46 -27 c10 -17 -13 -36 -27 -22 -12 12 -4 33
11 33 5 0 12 -5 16 -11z m-52 -27 c2 -4 0 -14 -5 -22 -8 -13 -10 -13 -18 0
-10 15 -6 30 9 30 5 0 11 -4 14 -8z m50 -31 c3 -5 -1 -14 -8 -20 -16 -13 -32
2 -21 19 8 12 22 13 29 1z m-48 -32 c10 -17 -13 -36 -27 -22 -12 12 -4 33 11
33 5 0 12 -5 16 -11z m42 -36 c-4 -22 -22 -20 -26 1 -2 10 3 16 13 16 10 0 15
-7 13 -17z m-45 -28 c8 -18 -11 -31 -25 -17 -11 11 -3 32 12 32 4 0 10 -7 13
-15z m915 -1051 c213 -47 390 -89 395 -93 11 -11 -50 -101 -65 -96 -7 3 -179
45 -381 94 -203 49 -370 91 -373 93 -4 5 27 88 33 88 2 0 178 -39 391 -86z"/>
<path d="M3277 4926 c-3 -8 -2 -18 4 -22 16 -9 22 2 11 21 -8 15 -10 16 -15 1z"/>
<path d="M3246 4901 c-4 -7 -5 -15 -2 -18 9 -9 19 4 14 18 -4 11 -6 11 -12 0z"/>
<path d="M3609 4822 c-3 -20 -2 -29 4 -23 5 5 7 19 5 32 -3 20 -5 19 -9 -9z"/>
<path d="M3122 4520 c0 -14 2 -19 5 -12 2 6 2 18 0 25 -3 6 -5 1 -5 -13z"/>
<path d="M971 3914 c0 -11 3 -14 6 -6 3 7 2 16 -1 19 -3 4 -6 -2 -5 -13z"/>
<path d="M963 3595 c0 -44 2 -61 4 -37 2 23 2 59 0 80 -2 20 -4 1 -4 -43z"/>
</g>
</svg>
