<?xml version="1.0" standalone="no"?>
<!DOCTYPE svg PUBLIC "-//W3C//DTD SVG 20010904//EN"
 "http://www.w3.org/TR/2001/REC-SVG-20010904/DTD/svg10.dtd">
<svg version="1.0" xmlns="http://www.w3.org/2000/svg"
 width="431.000000pt" height="600.000000pt" viewBox="0 0 431.000000 600.000000"
 preserveAspectRatio="xMidYMid meet">

<g transform="translate(0.000000,600.000000) scale(0.100000,-0.100000)"
fill="#000000" stroke="none">
<path d="M1997 5943 c-4 -3 -7 -14 -7 -24 0 -21 -31 -33 -60 -24 -34 11 -105
-32 -289 -175 -97 -75 -422 -326 -723 -559 l-548 -422 0 -129 c0 -121 -1 -130
-19 -130 -28 0 -43 -24 -39 -67 2 -30 9 -41 31 -51 l27 -13 -5 -277 c-8 -377
-35 -2546 -35 -2771 l0 -181 -24 0 c-29 0 -35 -8 -41 -51 -5 -40 9 -67 37 -71
21 -3 21 -6 19 -150 l-2 -147 98 -30 c54 -16 127 -38 162 -48 45 -12 65 -23
69 -36 6 -25 42 -37 106 -37 32 0 100 -14 167 -34 287 -86 828 -246 867 -256
31 -8 42 -16 42 -30 0 -43 23 -45 450 -45 223 0 446 3 495 7 50 5 146 13 215
19 69 6 147 12 173 14 27 2 51 6 54 9 4 3 20 7 37 8 25 1 22 2 -14 8 l-45 7
61 1 c34 1 77 4 95 7 29 4 30 3 9 -4 -21 -8 -22 -9 -5 -10 11 0 27 4 35 9 9 6
10 10 3 10 -10 0 -12 44 -2 54 2 2 150 14 329 26 179 13 329 26 334 31 5 4 4
286 -3 671 -33 1918 -37 2122 -56 3268 -8 470 -15 953 -17 1073 -1 120 -5 220
-9 223 -17 10 -397 85 -429 85 -19 0 -51 6 -70 14 -58 23 -641 122 -1147 195
-295 42 -316 44 -326 33z m0 -75 c-3 -8 -6 -5 -6 6 -1 11 2 17 5 13 3 -3 4
-12 1 -19z m0 -1030 c-1 -189 -2 -37 -2 337 0 374 1 528 2 343 2 -185 2 -491
0 -680z m1833 798 c0 -3 -4 -8 -10 -11 -5 -3 -10 -1 -10 4 0 6 5 11 10 11 6 0
10 -2 10 -4z m122 -38 c-13 -13 -17 -82 -4 -75 4 3 6 -70 6 -161 -1 -97 2
-150 6 -127 l7 40 2 -37 c0 -20 -3 -40 -9 -43 -5 -3 -10 -23 -9 -43 0 -27 2
-32 8 -18 4 12 8 -11 9 -57 1 -43 -2 -77 -6 -77 -16 0 -44 38 -33 44 5 4 9 40
9 81 -1 41 -4 73 -7 70 -4 -2 -13 1 -21 6 -12 8 -11 9 5 7 19 -3 20 3 20 82 0
47 -2 138 -5 203 -5 111 -4 117 15 117 15 0 16 -3 7 -12z m-122 -28 c0 -5 -5
-10 -11 -10 -5 0 -7 5 -4 10 3 6 8 10 11 10 2 0 4 -4 4 -10z m77 -17 c-8 -7
-37 9 -31 19 3 5 12 4 20 -3 8 -6 13 -14 11 -16z m-17 -24 c0 -6 6 -9 13 -6
18 7 23 -79 5 -100 -7 -8 -13 -23 -13 -32 -1 -9 -2 -28 -3 -42 -2 -22 -7 -27
-27 -25 -18 1 -25 7 -25 22 0 22 18 44 35 44 5 0 3 -4 -5 -10 -8 -5 -11 -12
-7 -16 11 -11 31 12 24 29 -8 22 -57 28 -58 8 0 -9 -6 7 -13 34 -17 70 -6 100
39 103 21 2 35 -2 35 -9z m-2180 -147 c0 -29 -31 -83 -45 -79 -18 6 -18 86 1
115 16 24 17 25 30 7 8 -10 14 -30 14 -43z m2218 -73 c3 -12 2 -12 -6 0 -8 11
-10 11 -15 0 -4 -10 -6 -8 -6 4 -1 21 21 18 27 -4z m-35 -26 c4 -21 1 -24 -15
-20 -15 4 -18 2 -14 -10 5 -13 4 -14 -9 -3 -15 12 -21 51 -9 62 12 13 42 -6
47 -29z m-5 -91 c2 -18 8 -30 13 -26 5 3 6 10 3 16 -4 7 -2 8 5 4 6 -4 8 -13
4 -19 -4 -7 -8 -16 -8 -20 0 -4 -10 -19 -22 -31 l-23 -24 22 -5 c12 -4 26 -1
31 6 6 9 7 8 4 -3 -2 -8 -14 -21 -28 -27 -13 -7 -19 -13 -13 -13 16 0 28 -88
15 -104 -7 -8 -4 -15 10 -24 10 -7 19 -17 19 -23 0 -8 -4 -8 -12 -2 -20 15
-50 24 -43 13 3 -6 13 -10 21 -10 9 0 14 -11 14 -31 0 -27 -3 -30 -22 -23 -25
7 -39 24 -32 35 2 4 5 26 6 48 1 28 6 41 15 41 8 0 12 4 8 10 -3 5 -11 7 -18
4 -8 -3 -12 6 -12 26 0 16 2 30 5 30 3 0 6 9 7 20 1 11 -1 20 -5 20 -6 0 -9
117 -4 143 1 5 10 7 20 5 11 -2 18 -14 20 -36z m-388 -142 c0 -40 18 -38 22 3
5 49 17 -566 28 -1443 5 -432 15 -1109 20 -1505 10 -692 11 -1475 3 -1407 -5
38 -23 33 -24 -6 -1 -24 -2 -23 -9 8 -8 31 -15 461 -35 2105 -3 237 -7 534
-10 660 -13 627 -17 1615 -6 1615 6 0 11 -13 11 -30z m326 -7 c-10 -10 -19 5
-10 18 6 11 8 11 12 0 2 -7 1 -15 -2 -18z m135 -57 c5 3 9 -1 9 -10 0 -8 -6
-16 -12 -19 -10 -3 -10 -7 -2 -18 6 -8 14 -30 17 -49 3 -19 3 -29 0 -22 -2 6
-9 12 -13 12 -5 0 -2 -16 6 -35 19 -47 21 -450 2 -439 -10 6 -10 4 0 -7 14
-16 16 -53 2 -44 -6 3 -10 -4 -10 -17 0 -19 2 -20 11 -8 9 13 10 12 5 -2 -15
-47 -18 -116 -5 -123 9 -6 11 -4 6 8 -3 8 -2 28 3 44 6 20 9 -2 9 -74 1 -63
-3 -103 -9 -103 -5 0 -10 5 -10 12 0 6 -3 9 -6 5 -3 -3 1 -20 10 -38 10 -20
15 -54 14 -88 -1 -45 -2 -49 -6 -21 l-5 35 -7 -35 -7 -35 -2 38 c0 20 -6 37
-12 37 -5 0 -7 5 -3 12 4 6 6 108 5 225 -2 147 1 213 8 213 6 0 11 10 10 23 0
20 -1 20 -8 3 -18 -46 -25 16 -21 174 1 41 -1 135 -4 208 -4 73 -3 138 1 145
5 8 8 8 11 -1 2 -7 8 -10 13 -6z m-50 -49 c-10 -9 -11 -8 -5 6 3 10 9 15 12
12 3 -3 0 -11 -7 -18z m-334 -94 c-3 -10 -5 -4 -5 12 0 17 2 24 5 18 2 -7 2
-21 0 -30z m273 -13 c0 -5 -4 -10 -10 -10 -5 0 -10 5 -10 10 0 6 5 10 10 10 6
0 10 -4 10 -10z m17 -52 c-3 -8 -6 -5 -6 6 -1 11 2 17 5 13 3 -3 4 -12 1 -19z
m46 -80 c9 -6 9 -10 1 -15 -7 -5 -14 -17 -17 -28 -2 -11 -5 9 -4 45 0 36 2 52
4 35 3 -16 10 -33 16 -37z m-106 30 c-3 -8 -6 -5 -6 6 -1 11 2 17 5 13 3 -3 4
-12 1 -19z m-2092 -25 c10 -25 12 -82 2 -76 -5 3 -7 17 -5 33 1 15 -4 35 -11
44 -7 9 -9 16 -3 16 5 0 13 -8 17 -17z m2122 -15 c-3 -7 -5 -2 -5 12 0 14 2
19 5 13 2 -7 2 -19 0 -25z m73 -120 c-1 -26 -3 -30 -10 -16 -6 9 -7 23 -4 32
9 25 14 19 14 -16z m-73 -75 c-2 -16 -4 -5 -4 22 0 28 2 40 4 28 2 -13 2 -35
0 -50z m72 -30 l-1 -68 -8 54 c-7 49 -5 81 6 81 2 0 3 -30 3 -67z m-1912 -325
c-1 -68 -3 -15 -3 117 0 132 2 187 3 123 2 -64 2 -172 0 -240z m-1053 300
c145 -74 233 -235 244 -446 2 -56 9 -105 14 -108 6 -4 8 1 4 12 -3 11 -1 26 4
34 15 23 11 -149 -5 -190 l-13 -35 -11 28 c-6 16 -9 40 -5 55 3 15 -9 -5 -26
-44 -39 -89 -88 -148 -152 -180 -114 -58 -235 -35 -310 59 -54 68 -88 123
-100 161 -6 17 -17 36 -25 42 -7 7 -20 43 -28 80 -28 133 -15 260 39 369 83
168 232 233 370 163z m2893 -30 c-3 -8 -6 -5 -6 6 -1 11 2 17 5 13 3 -3 4 -12
1 -19z m-2387 -55 c0 -21 -3 -24 -9 -14 -5 8 -7 20 -4 28 8 21 13 15 13 -14z
m2137 -25 c-2 -13 -4 -5 -4 17 -1 22 1 32 4 23 2 -10 2 -28 0 -40z m353 17 c0
-5 -5 -3 -10 5 -5 8 -10 20 -10 25 0 6 5 3 10 -5 5 -8 10 -19 10 -25z m-2302
13 c15 -15 16 -82 1 -73 -6 4 -8 13 -5 21 3 8 0 13 -7 11 -7 -1 -13 10 -15 26
-4 29 6 35 26 15z m2269 -10 c-3 -8 -6 -5 -6 6 -1 11 2 17 5 13 3 -3 4 -12 1
-19z m-2364 -41 c-3 -5 -11 4 -19 18 -19 37 -18 42 5 14 11 -13 17 -28 14 -32z
m-108 -92 c-8 -71 -21 -88 -29 -36 -14 94 -16 126 -7 106 8 -18 9 -17 17 10
l7 30 9 -30 c5 -16 6 -53 3 -80z m2500 95 c3 -5 1 -10 -4 -10 -6 0 -11 5 -11
10 0 6 2 10 4 10 3 0 8 -4 11 -10z m-2550 -181 c2 -74 9 -181 14 -239 6 -58
10 -118 10 -135 0 -29 -1 -29 -10 -7 -5 13 -6 29 -2 34 3 7 1 8 -5 4 -7 -4 -9
-20 -5 -39 5 -26 3 -30 -7 -20 -11 10 -18 5 -35 -24 l-22 -36 -7 37 c-8 40 0
76 15 76 5 0 9 8 9 18 1 16 2 16 15 -2 13 -18 14 -17 21 9 11 46 10 170 -2
196 -17 36 -30 139 -24 195 l4 49 7 -55 6 -55 1 69 c3 111 12 71 17 -75z m336
84 c-12 -20 -14 -14 -5 12 4 9 9 14 11 11 3 -2 0 -13 -6 -23z m-32 -75 c-10
-29 -19 -64 -19 -78 -1 -14 -4 -19 -7 -11 -6 16 26 141 37 141 4 0 -1 -24 -11
-52z m41 -143 c0 -77 -4 -135 -9 -135 -11 0 -16 16 -26 73 -7 44 13 197 26
197 5 0 9 -61 9 -135z m-1233 78 c-3 -10 -5 -2 -5 17 0 19 2 27 5 18 2 -10 2
-26 0 -35z m3420 15 c-3 -8 -6 -5 -6 6 -1 11 2 17 5 13 3 -3 4 -12 1 -19z
m-2610 -30 c-3 -7 -5 -2 -5 12 0 14 2 19 5 13 2 -7 2 -19 0 -25z m-66 -53 c-8
-46 -9 -47 -10 -13 -1 34 8 73 15 66 2 -2 -1 -26 -5 -53z m2676 23 c-3 -7 -5
-2 -5 12 0 14 2 19 5 13 2 -7 2 -19 0 -25z m-2700 -30 c-3 -8 -6 -5 -6 6 -1
11 2 17 5 13 3 -3 4 -12 1 -19z m440 -90 c-2 -24 -4 -7 -4 37 0 44 2 63 4 43
2 -21 2 -57 0 -80z m-1142 -69 c4 -19 4 -31 1 -28 -12 12 -33 148 -28 176 5
20 8 9 13 -43 4 -39 10 -86 14 -105z m1482 89 c-2 -18 -4 -6 -4 27 0 33 2 48
4 33 2 -15 2 -42 0 -60z m1920 10 c-3 -8 -6 -5 -6 6 -1 11 2 17 5 13 3 -3 4
-12 1 -19z m-2670 -81 c-13 -52 -18 -42 -10 23 4 37 8 48 13 35 4 -11 2 -37
-3 -58z m2741 30 c2 -10 -3 -17 -11 -17 -16 0 -30 24 -19 34 10 10 27 1 30
-17z m-171 -29 c-3 -7 -5 -2 -5 12 0 14 2 19 5 13 2 -7 2 -19 0 -25z m-2144
-18 c3 -11 1 -20 -4 -20 -5 0 -9 9 -9 20 0 11 2 20 4 20 2 0 6 -9 9 -20z m44
-91 c-3 -10 -7 -8 -13 6 -4 11 -13 24 -21 28 -7 4 -13 13 -13 20 0 6 12 0 26
-15 15 -14 24 -32 21 -39z m280 39 c-3 -8 -6 -5 -6 6 -1 11 2 17 5 13 3 -3 4
-12 1 -19z m1820 -20 c-3 -8 -6 -5 -6 6 -1 11 2 17 5 13 3 -3 4 -12 1 -19z
m170 -26 c0 -15 -1 -19 -4 -9 -2 9 -9 15 -14 12 -5 -4 -9 3 -9 14 0 31 26 15
27 -17z m3 -54 c0 -17 -2 -18 -15 -4 -8 8 -15 19 -15 25 0 6 7 8 15 5 8 -4 15
-15 15 -26z m-2573 -75 c-3 -10 -5 -2 -5 17 0 19 2 27 5 18 2 -10 2 -26 0 -35z
m2565 -19 c-6 -11 -11 -13 -16 -5 -4 6 -2 11 3 11 6 0 12 10 12 23 1 16 3 17
6 5 2 -10 0 -25 -5 -34z m-3242 -60 c0 -2 -13 2 -30 11 -16 9 -30 18 -30 21 0
2 14 -2 30 -11 17 -9 30 -18 30 -21z m734 4 c3 -13 6 -34 6 -48 -1 -32 -15 -9
-23 38 -7 36 7 44 17 10z m2515 -20 c0 -28 -2 -30 -9 -13 -8 19 -9 19 -9 1 -1
-11 -3 -17 -6 -14 -9 8 6 58 16 58 5 0 9 -15 8 -32z m-2339 3 c0 -10 -6 -21
-14 -24 -11 -4 -11 -1 -2 19 13 29 16 30 16 5z m-393 -263 c-3 -8 -6 -5 -6 6
-1 11 2 17 5 13 3 -3 4 -12 1 -19z m2730 -50 c-3 -7 -5 -2 -5 12 0 14 2 19 5
13 2 -7 2 -19 0 -25z m-2710 -224 c-3 -3 -12 -4 -19 -1 -8 3 -5 6 6 6 11 1 17
-2 13 -5z m-197 -34 c0 -5 -5 -10 -11 -10 -5 0 -7 5 -4 10 3 6 8 10 11 10 2 0
4 -4 4 -10z m640 -946 c0 -27 -4 -43 -10 -39 -5 3 -10 24 -10 46 0 21 5 39 10
39 6 0 10 -21 10 -46z m-345 -1 c-4 -21 -8 -39 -9 -40 -1 -2 -49 -8 -107 -13
-57 -6 -112 -13 -121 -16 -15 -4 -18 1 -18 30 0 19 6 38 13 43 23 14 121 31
186 32 l63 1 -7 -37z m249 1 c9 -3 16 -15 16 -26 0 -30 -54 -21 -58 10 -3 23
11 28 42 16z m-760 -76 c3 -17 3 -35 -1 -39 -5 -4 -52 -9 -106 -11 l-97 -3 0
26 c0 44 24 54 146 57 50 2 52 1 58 -30z m774 -125 c2 -9 -7 -13 -27 -13 -21
0 -31 5 -31 16 0 19 51 16 58 -3z m78 -61 c-13 -12 -18 9 -10 45 l8 38 4 -39
c2 -21 1 -41 -2 -44z m-344 29 l3 -39 -44 -6 c-24 -3 -57 -6 -72 -6 -19 0 -29
-5 -29 -15 0 -11 -11 -15 -36 -15 -56 0 -74 15 -74 60 0 38 1 39 43 48 23 6
79 10 123 11 l82 1 4 -39z m-512 -51 l0 -40 -41 0 c-22 0 -47 -6 -55 -14 -10
-10 -22 -12 -42 -6 -52 15 -57 20 -59 55 -2 40 3 42 120 44 l77 1 0 -40z m577
14 c-3 -3 -12 -4 -19 -1 -8 3 -5 6 6 6 11 1 17 -2 13 -5z m151 -1 c-10 -2 -28
-2 -40 0 -13 2 -5 4 17 4 22 1 32 -1 23 -4z m-321 -39 c-3 -3 -12 -4 -19 -1
-8 3 -5 6 6 6 11 1 17 -2 13 -5z m463 -858 c0 -26 -6 -18 -14 19 -5 22 -4 26
4 15 5 -8 10 -24 10 -34z"/>
<path d="M3952 5060 c0 -14 2 -19 5 -12 2 6 2 18 0 25 -3 6 -5 1 -5 -13z"/>
<path d="M3835 5520 c-3 -5 1 -10 10 -10 8 0 20 -10 25 -22 10 -26 13 -14 4
20 -7 23 -28 30 -39 12z"/>
<path d="M3896 5455 c-3 -8 -1 -15 4 -15 6 0 10 7 10 15 0 8 -2 15 -4 15 -2 0
-6 -7 -10 -15z"/>
<path d="M1672 5394 c-9 -32 -9 -41 3 -53 12 -12 15 -11 20 12 4 14 3 38 -2
53 l-9 27 -12 -39z"/>
<path d="M3860 5200 c0 -5 5 -10 11 -10 5 0 7 5 4 10 -3 6 -8 10 -11 10 -2 0
-4 -4 -4 -10z"/>
<path d="M3870 5155 c7 -8 17 -15 22 -15 6 0 5 7 -2 15 -7 8 -17 15 -22 15 -6
0 -5 -7 2 -15z"/>
<path d="M3951 4811 c-9 -6 -10 -11 -2 -15 6 -4 10 -39 9 -87 -1 -43 2 -82 5
-86 4 -3 7 39 7 95 0 56 -1 102 -2 102 -2 0 -9 -4 -17 -9z"/>
<path d="M3961 4588 c0 -9 -4 -25 -7 -35 -5 -14 -4 -15 5 -7 7 7 11 22 8 35
-2 13 -5 16 -6 7z"/>
<path d="M3951 4504 c0 -11 3 -14 6 -6 3 7 2 16 -1 19 -3 4 -6 -2 -5 -13z"/>
<path d="M778 4390 c-21 -4 -46 -14 -56 -23 -10 -10 -22 -17 -26 -17 -15 0
-48 -46 -78 -109 -28 -57 -32 -77 -36 -170 -7 -166 39 -300 132 -394 59 -58
117 -81 192 -75 51 4 61 9 93 44 20 22 29 31 21 19 -15 -20 -15 -20 7 -1 99
84 133 321 69 490 -46 122 -128 209 -221 235 -44 12 -43 12 -97 1z m-15 -27
c-7 -2 -19 -2 -25 0 -7 3 -2 5 12 5 14 0 19 -2 13 -5z m125 -15 c67 -33 168
-146 148 -165 -2 -3 -11 8 -20 25 -26 50 -106 120 -160 141 -28 11 -42 20 -32
20 10 1 39 -9 64 -21z m211 -407 c1 -116 -5 -99 -11 29 -3 58 -2 94 2 80 5
-14 8 -63 9 -109z"/>
<path d="M1202 3810 c0 -14 2 -19 5 -12 2 6 2 18 0 25 -3 6 -5 1 -5 -13z"/>
<path d="M3298 243 c6 -2 18 -2 25 0 6 3 1 5 -13 5 -14 0 -19 -2 -12 -5z"/>
</g>
</svg>
