<?xml version="1.0" standalone="no"?>
<!DOCTYPE svg PUBLIC "-//W3C//DTD SVG 20010904//EN"
 "http://www.w3.org/TR/2001/REC-SVG-20010904/DTD/svg10.dtd">
<svg version="1.0" xmlns="http://www.w3.org/2000/svg"
 width="378.000000pt" height="600.000000pt" viewBox="0 0 378.000000 600.000000"
 preserveAspectRatio="xMidYMid meet">

<g transform="translate(0.000000,600.000000) scale(0.100000,-0.100000)"
fill="#000000" stroke="none">
<path d="M2127 5980 c-27 -10 -81 -43 -121 -73 -40 -31 -266 -185 -502 -343 -236 -158 -519 -348 -629 -422 -110 -75 -303 -205 -430 -290 -126 -85 -243 -167 -259 -181 -15 -14 -57 -66 -92 -115 -52 -73 -64 -96 -64 -128 0 -21 2 -38 5 -38 7 0 58 32 65 40 16 18 113 69 121 64 6 -3 42 -8 80 -10 l70 -4 -2 50 c-2 27 -5 50 -8 50 -16 0 -59 -48 -51 -56 5 -5 6 -15 0 -24 -8 -12 -11 -1 -28 3 -13 12 -21 14 -29 6 -6 -6 -17 -9 -24 -7 -10 3 249 176 393 263 18 10 96 60 173 110 160 104 232 147 199 118 -12 -10 -37 -27 -55 -38 -39 -24 -43 -26 -137 -89 -52 -36 -69 -52 -60 -58 9 -6 6 -7 -8 -4 -14 4 -30 -2 -49 -18 -15 -13 -45 -32 -66 -41 -25 -12 -39 -25 -42 -42 -6 -34 2 -63 19 -63 11 0 12 4 3 19 -7 11 -9 26 -4 37 5 11 7 22 7 27 -2 9 10 9 23 -1 12 -9 15 -82 3 -82 -4 0 -8 -18 -8 -40 0 -34 -3 -40 -21 -40 -19 0 -21 -5 -18 -47 3 -46 -17 -113 -33 -113 -5 0 -8 -18 -8 -40 0 -22 -7 -57 -15 -77 -13 -30 -17 -33 -30 -23 -12 10 -15 10 -15 -3 0 -8 6 -17 13 -20 9 -4 9 -7 0 -18 -7 -7 -13 -23 -13 -36 0 -14 -6 -23 -16 -23 -13 0 -15 -9 -13 -43 4 -40 2 -43 -19 -39 -13 3 -22 -1 -22 -9 0 -7 -3 -9 -7 -6 -3 4 -12 2 -20 -4 -15 -13 -18 -49 -3 -49 6 0 10 9 10 20 0 11 7 20 15 20 18 0 20 -16 3 -23 -7 -3 -1 -6 13 -6 17 -1 29 -9 37 -25 12 -26 30 -28 56 -7 22 18 50 10 54 -17 3 -16 10 -22 28 -22 14 0 27 7 30 15 9 23 43 18 55 -9 7 -14 17 -22 24 -20 7 3 16 1 19 -4 3 -6 -18 -10 -52 -11 -31 -1 -73 -5 -92 -10 -30 -8 -23 -9 45 -11 78 -3 77 -4 -14 -16 -26 -3 -39 -9 -32 -13 7 -5 23 -6 36 -4 26 5 65 -12 65 -29 0 -6 -11 -8 -27 -5 -40 7 -56 -1 -37 -20 18 -19 14 -37 -11 -41 -20 -4 -37 16 -30 36 3 8 -2 20 -10 28 -13 14 -15 13 -13 -7 2 -16 -2 -24 -13 -24 -8 0 -23 -8 -33 -17 -15 -16 -15 -18 -2 -18 9 0 16 5 16 10 0 16 37 11 44 -6 11 -28 7 -34 -24 -34 -21 0 -30 -5 -30 -16 0 -13 -7 -15 -30 -10 -20 4 -29 2 -25 -5 4 -5 1 -17 -6 -25 -6 -8 -9 -17 -6 -21 4 -3 9 2 13 11 8 21 43 21 51 0 3 -9 1 -25 -5 -35 -7 -11 -8 -20 -2 -24 16 -10 12 -45 -6 -52 -21 -8 -46 19 -38 40 3 9 10 17 15 17 14 0 10 17 -5 23 -10 4 -13 1 -10 -7 3 -7 -2 -18 -10 -25 -14 -11 -13 -16 1 -38 14 -21 14 -26 2 -34 -22 -13 -29 -11 -38 14 -16 45 -20 97 -7 109 10 9 9 15 -6 30 -27 27 -32 26 -36 -7 -7 -57 1 -123 18 -155 7 -13 6 -20 -6 -24 -9 -3 -20 -4 -25 0 -5 3 -9 0 -9 -5 0 -6 11 -11 25 -11 14 0 26 -6 26 -12 2 -24 -3 -43 -14 -50 -7 -4 -4 -12 6 -23 22 -21 21 -32 0 -44 -15 -8 -16 -12 -5 -22 6 -7 12 -21 12 -31 0 -24 -34 -23 -51 1 -11 14 -20 16 -39 11 -24 -8 -24 -8 -2 -9 29 -1 40 -28 19 -48 -13 -13 -13 -19 -1 -41 7 -14 11 -36 8 -48 -7 -28 22 -81 48 -87 13 -4 16 -11 11 -23 -5 -13 -3 -16 10 -11 19 7 40 -16 42 -47 0 -20 -8 -15 -55 33 -69 71 -100 108 -100 121 0 6 -4 10 -10 10 -5 0 -10 7 -10 16 0 8 -5 12 -11 8 -6 -3 -9 -20 -6 -38 2 -17 1 -42 -3 -56 -4 -14 -13 -45 -21 -70 -28 -100 -41 -52 -14 53 20 76 19 80 -10 123 -14 20 -25 45 -25 55 0 11 -7 19 -17 19 -16 0 -18 12 -18 120 0 90 -3 120 -12 120 -7 0 -13 -12 -13 -26 0 -19 -4 -25 -14 -21 -18 7 -23 -23 -35 -233 l-10 -155 6 175 c3 96 5 302 4 458 -1 189 2 282 9 282 5 0 10 10 10 23 0 34 15 50 39 42 12 -4 21 -2 21 4 0 6 -16 11 -35 11 -33 0 -35 -2 -36 -32 0 -29 -1 -30 -9 -12 -5 13 -3 65 6 130 8 60 13 132 10 159 -2 28 -2 44 1 38 2 -8 22 -13 44 -13 37 0 39 1 39 33 0 28 -3 32 -27 32 -16 0 -39 -10 -53 -22 -14 -13 -29 -23 -35 -23 -5 0 -3 -5 5 -11 10 -7 11 -12 4 -15 -9 -4 -11 -83 -8 -294 3 -191 1 -290 -6 -290 -6 0 -9 -33 -9 -82 2 -67 3 -75 9 -43 6 33 7 27 9 -37 0 -46 -3 -78 -9 -78 -5 0 -10 -9 -10 -20 0 -11 5 -20 10 -20 6 0 10 -9 10 -20 0 -11 -4 -20 -10 -20 -6 0 -10 -25 -9 -57 0 -42 3 -52 9 -38 7 16 9 14 9 -15 0 -19 -3 -30 -7 -24 -4 7 -8 -81 -9 -195 -2 -113 -7 -510 -12 -881 -5 -371 -13 -957 -17 -1302 l-7 -628 59 -2 c54 -1 55 -2 14 -5 -25 -3 -49 -8 -54 -13 -10 -10 107 -220 143 -256 l24 -24 946 4 c520 3 1144 9 1386 15 242 5 617 13 834 17 375 7 394 8 412 27 18 20 17 43 -2 32 -5 -3 -6 0 -3 8 5 13 -59 108 -78 115 -4 2 -8 10 -8 18 0 8 -4 14 -9 14 -24 0 -21 42 5 73 47 56 54 86 61 278 6 169 -5 1008 -27 2059 -9 424 -32 838 -65 1165 -8 83 -22 256 -30 385 -30 489 -64 896 -86 1031 -9 56 -7 82 10 173 26 133 27 192 3 231 -24 39 -46 49 -172 79 -58 14 -208 50 -335 81 -126 31 -277 67 -335 81 -58 14 -187 45 -288 70 -100 24 -193 44 -205 44 -12 -1 -44 -9 -70 -20z m447 -1129 c10 -15 -23 -34 -49 -29 -14 3 -28 1 -31 -3 -8 -14 -34 -10 -34 4 0 21 103 46 114 28z m66 -6 c0 -9 -9 -15 -25 -15 -16 0 -25 6 -25 15 0 9 9 15 25 15 16 0 25 -6 25 -15z m60 -10 c0 -15 -43 -12 -48 3 -3 10 4 13 22 10 15 -2 26 -7 26 -13z m108 -30 c2 -2 1 -8 -2 -14 -4 -6 -20 -4 -44 6 -45 18 -46 19 -37 32 4 7 18 6 43 -4 20 -9 38 -17 40 -20z m-364 6 c5 -7 -43 -36 -53 -31 -2 1 -8 -5 -13 -14 -11 -20 -38 -21 -38 -2 0 28 91 69 104 47z m431 -59 c-9 -9 -35 8 -35 24 0 16 2 16 20 -1 11 -10 18 -20 15 -23z m-541 -7 c7 -18 -34 -49 -48 -35 -6 6 -3 17 9 30 22 24 31 25 39 5z m-1671 -12 c-7 -2 -21 -2 -30 0 -10 3 -4 5 12 5 17 0 24 -2 18 -5z m1617 -46 c0 -7 -6 -22 -14 -33 -14 -18 -15 -18 -21 -1 -7 17 10 47 26 47 5 0 9 -6 9 -13z m710 -29 c0 -6 -7 -5 -15 2 -8 7 -15 17 -15 22 0 6 7 5 15 -2 8 -7 15 -17 15 -22z m-753 -40 c-3 -8 -6 -5 -6 6 -1 11 2 17 5 13 3 -3 4 -12 1 -19z m797 -4 c20 -19 11 -40 -10 -23 -13 10 -20 39 -10 39 3 0 12 -7 20 -16z m36 -68 c0 -5 -7 -3 -15 4 -8 7 -12 17 -9 22 7 10 24 -9 24 -26z m38 -41 c6 -14 8 -25 4 -25 -12 0 -32 23 -32 37 0 22 16 15 28 -12z m44 -95 c1 -9 -1 -17 -7 -18 -5 -1 -11 10 -13 25 -4 29 13 23 20 -7z m18 -69 c0 -9 5 -22 11 -28 13 -13 8 -53 -6 -56 -5 -1 -13 16 -16 38 -3 22 -7 45 -9 50 -4 18 0 26 10 20 6 -3 10 -14 10 -24z m-3107 -108 l-10 -78 1 87 c0 49 5 83 10 78 5 -5 4 -42 -1 -87z m3137 -30 c0 -22 -2 -25 -10 -13 -13 20 -13 40 0 40 6 0 10 -12 10 -27z m0 -74 c0 -10 -4 -19 -10 -19 -5 0 -10 12 -10 26 0 14 4 23 10 19 6 -3 10 -15 10 -26z m-975 -60 c-12 -18 -25 3 -24 39 l1 37 14 -33 c8 -18 12 -37 9 -43z m972 -21 c-3 -7 -5 -2 -5 12 0 14 2 19 5 13 2 -7 2 -19 0 -25z m-7 -55 c0 -23 -22 -83 -30 -83 -13 0 -13 32 0 64 9 24 30 37 30 19z m-2397 -52 c6 -23 0 -31 -24 -31 -22 0 -33 16 -25 35 8 22 43 18 49 -4z m1536 -36 c41 -56 49 -75 32 -75 -13 0 -91 100 -91 116 0 26 17 14 59 -41z m-1429 30 c10 -12 10 -18 0 -29 -14 -18 -40 -10 -40 13 0 32 20 40 40 16z m138 -30 c3 -10 0 -15 -7 -11 -6 4 -11 0 -11 -9 0 -9 5 -13 10 -10 6 3 10 1 10 -4 0 -6 -7 -11 -15 -11 -11 0 -15 11 -15 36 0 37 22 45 28 9z m-190 -3 c3 -9 -2 -13 -14 -10 -9 1 -19 9 -22 16 -3 9 2 13 14 10 9 -1 19 -9 22 -16z m102 -22 c0 -13 -5 -18 -15 -14 -16 7 -19 17 -8 27 12 13 23 7 23 -13z m2200 8 c0 -19 -18 -43 -25 -36 -9 9 4 48 16 48 5 0 9 -6 9 -12z m-2425 -48 c3 -5 1 -10 -4 -10 -6 0 -11 5 -11 10 0 6 2 10 4 10 3 0 8 -4 11 -10z m2395 -14 c0 -16 -18 -31 -27 -22 -8 8 5 36 17 36 5 0 10 -6 10 -14z m-714 -17 c19 -22 19 -22 -3 -10 -13 6 -23 16 -23 21 0 15 5 12 26 -11z m-1676 -29 c12 -7 12 -12 3 -21 -9 -9 -16 -9 -28 1 -29 24 -9 42 25 20z m-66 -6 c18 -7 21 -39 5 -50 -16 -9 -43 21 -36 40 7 18 9 18 31 10z m2405 -20 c-13 -14 -25 -20 -27 -14 -5 15 17 40 36 40 12 0 10 -6 -9 -26z m-596 2 c17 -13 24 -36 10 -36 -14 1 -43 27 -43 39 0 14 11 14 33 -3z m-1685 -8 c16 -16 15 -25 -5 -32 -17 -7 -33 9 -33 32 0 15 22 16 38 0z m-162 -13 c6 -16 -12 -45 -27 -45 -12 0 -31 39 -24 50 10 15 45 12 51 -5z m2404 -9 c0 -14 -29 -31 -38 -22 -2 3 -2 12 1 21 8 19 37 20 37 1z m-2460 -37 c0 -11 -7 -22 -16 -26 -15 -5 -15 -7 0 -15 17 -10 22 -43 7 -52 -5 -4 -17 -3 -26 0 -12 5 -16 15 -12 38 2 17 0 39 -5 49 -6 12 -6 23 2 32 16 19 50 2 50 -26z m168 18 c2 -11 -3 -17 -17 -17 -23 0 -35 15 -26 31 10 15 39 6 43 -14z m1807 6 c19 -9 35 -20 35 -25 0 -4 6 -5 13 -2 15 5 44 -23 33 -33 -8 -9 -88 32 -111 57 -22 24 -16 25 30 3z m-1695 -29 c0 -16 -26 -19 -35 -4 -4 6 -4 18 -1 27 5 12 9 13 21 3 8 -7 15 -19 15 -26z m2130 11 c0 -14 -29 -35 -49 -35 -20 0 -11 27 12 38 30 15 37 14 37 -3z m-2300 -14 c0 -27 -19 -36 -37 -18 -18 18 -9 37 18 37 12 0 19 -7 19 -19z m110 -6 c13 -16 6 -35 -15 -35 -15 0 -28 27 -19 41 8 13 20 11 34 -6z m-171 -9 c13 -16 4 -46 -14 -46 -7 0 -18 7 -25 15 -10 12 -10 18 0 30 15 19 24 19 39 1z m2291 0 c0 -21 -20 -30 -33 -17 -9 9 -8 14 3 21 21 14 30 12 30 -4z m-2016 -12 c8 -21 8 -24 -5 -24 -5 0 -7 5 -4 10 3 6 -1 10 -10 10 -9 0 -13 5 -10 10 9 15 22 12 29 -6z m1572 0 c18 -14 18 -14 -6 -3 -31 14 -36 19 -24 19 6 0 19 -7 30 -16z m-1732 -11 c4 -9 2 -21 -4 -27 -13 -13 -46 17 -36 33 11 16 33 13 40 -6z m2044 -6 c2 -11 -3 -17 -17 -17 -25 0 -38 19 -20 31 19 12 33 6 37 -14z m82 2 c0 -5 -12 -9 -27 -9 -27 1 -27 1 -9 15 19 14 36 12 36 -6z m-2013 -14 c2 -6 -6 -11 -17 -11 -11 0 -20 6 -20 14 0 15 32 13 37 -3z m-167 -14 c0 -26 -17 -36 -35 -21 -18 15 -8 40 16 40 12 0 19 -7 19 -19z m1855 9 c3 -6 -1 -7 -9 -4 -18 7 -21 14 -7 14 6 0 13 -4 16 -10z m-1755 -10 c0 -5 -4 -10 -10 -10 -5 0 -10 5 -10 10 0 6 5 10 10 10 6 0 10 -4 10 -10z m-150 -34 c0 -21 -32 -29 -48 -12 -13 12 -13 18 -3 30 15 18 51 5 51 -18z m-64 -22 c9 -37 -15 -51 -39 -23 -13 17 -15 25 -6 35 18 22 38 16 45 -12z m-52 -36 c9 -17 15 -32 14 -34 -2 -1 -16 0 -31 3 -31 6 -43 24 -33 48 9 25 34 17 50 -17z m-66 -10 c16 -16 15 -38 -2 -38 -13 0 -26 20 -26 41 0 13 14 11 28 -3z m2180 -15 c-2 -13 -18 -20 -53 -25 -28 -5 -63 -15 -79 -24 -23 -14 -30 -14 -36 -3 -10 15 -4 29 11 29 6 0 8 -4 5 -9 -4 -5 3 -7 14 -4 10 3 18 10 17 16 -2 8 54 25 116 36 5 0 7 -7 5 -16z m160 -21 c3 -9 -3 -13 -19 -10 -12 1 -24 9 -27 16 -3 9 3 13 19 10 12 -1 24 -9 27 -16z m-2299 -18 c-6 -8 -18 -14 -26 -14 -11 0 -11 4 -3 20 6 11 16 17 25 13 12 -4 13 -9 4 -19z m2362 5 c25 -13 14 -32 -14 -23 -28 8 -30 11 -22 23 8 14 11 14 36 0z m-2731 -77 c0 -48 -4 -63 -22 -78 l-21 -19 6 40 c4 22 7 57 7 78 0 26 4 37 15 37 12 0 15 -13 15 -58z m2310 43 c0 -8 -9 -19 -19 -24 -25 -14 -38 14 -13 28 24 14 32 13 32 -4z m495 -10 c24 -19 26 -24 12 -25 -27 0 -57 18 -57 35 0 21 10 19 45 -10z m-545 -34 c0 -5 -13 -21 -30 -34 -16 -14 -30 -30 -30 -35 0 -12 -26 -23 -34 -15 -11 11 -6 19 29 56 34 35 65 48 65 28z m605 -12 c12 -19 -5 -23 -22 -6 -16 16 -16 17 -1 17 9 0 20 -5 23 -11z m-2545 -40 c0 -19 -20 -17 -34 3 -12 17 -13 24 -3 30 11 7 37 -16 37 -33z m2610 -37 c-15 -5 -51 28 -44 40 3 5 17 -1 31 -14 14 -13 19 -24 13 -26z m-2616 2 c27 -10 20 -44 -9 -44 -18 0 -25 5 -25 18 0 29 9 36 34 26z m-334 -21 c0 -5 -5 -15 -10 -23 -8 -12 -10 -11 -10 8 0 12 5 22 10 22 6 0 10 -3 10 -7z m3000 -40 c0 -19 -13 -16 -28 7 -17 28 -4 50 15 25 7 -11 13 -25 13 -32z m-2932 -23 c0 -9 -3 -7 -8 5 -5 11 -8 29 -8 40 0 16 2 15 8 -5 4 -14 8 -32 8 -40z m222 24 c0 -16 -26 -19 -35 -4 -4 6 -4 18 -1 27 5 12 9 13 21 3 8 -7 15 -19 15 -26z m47 -30 c-3 -3 -12 -4 -19 -1 -8 3 -5 6 6 6 11 1 17 -2 13 -5z m2711 -39 c25 -52 26 -55 12 -55 -10 0 -50 71 -50 90 0 23 17 7 38 -35z m-908 15 c0 -20 -25 -38 -36 -27 -8 7 15 47 26 47 6 0 10 -9 10 -20z m948 -102 c15 -15 16 -48 2 -48 -9 0 -30 40 -30 56 0 8 16 4 28 -8z m33 -90 c6 -24 -4 -58 -15 -48 -2 3 -7 22 -11 44 -6 30 -5 38 6 34 7 -2 16 -16 20 -30z m-2736 2 c11 -17 -5 -32 -21 -19 -8 6 -14 15 -14 20 0 12 27 11 35 -1z m69 -39 c4 -5 -3 -7 -14 -4 -23 6 -26 13 -6 13 8 0 17 -4 20 -9z m-356 -33 c-4 -27 -33 -36 -42 -13 -8 22 1 35 25 35 15 0 20 -6 17 -22z m419 6 c-3 -3 -12 -4 -19 -1 -8 3 -5 6 6 6 11 1 17 -2 13 -5z m-297 -54 c0 -5 -4 -10 -10 -10 -5 0 -10 5 -10 10 0 6 5 10 10 10 6 0 10 -4 10 -10z m100 -10 c0 -5 -2 -10 -4 -10 -3 0 -8 5 -11 10 -3 6 -1 10 4 10 6 0 11 -4 11 -10z m2823 -4 c7 -18 -3 -56 -14 -56 -5 0 -9 16 -9 35 0 35 13 47 23 21z m-1013 -131 c0 -8 -4 -15 -10 -15 -5 0 -10 7 -10 15 0 8 5 15 10 15 6 0 10 -7 10 -15z m1010 -39 c0 -36 -14 -76 -27 -76 -11 0 -12 9 -7 38 4 20 9 40 11 45 7 12 23 8 23 -7z m-978 -49 c12 -26 18 -50 15 -54 -10 -10 -38 19 -35 36 2 9 -5 24 -14 33 -22 22 -23 41 -2 36 8 -2 25 -24 36 -51z m948 -66 c0 -10 -7 -24 -15 -31 -12 -10 -15 -10 -15 3 0 23 11 47 21 47 5 0 9 -8 9 -19z m-895 -38 c42 -48 75 -91 75 -97 0 -16 -42 -4 -47 14 -3 11 -9 20 -13 20 -8 0 -50 62 -50 74 0 12 20 6 35 -11z m865 -32 c0 -10 -7 -24 -15 -31 -12 -10 -15 -10 -15 3 0 23 11 47 21 47 5 0 9 -8 9 -19z m-40 -68 c0 -9 -10 -27 -22 -40 -40 -42 -53 -22 -17 28 23 32 39 37 39 12z m-691 -51 c39 -37 59 -69 24 -41 -9 8 -19 13 -22 12 -11 -2 -26 11 -44 40 -25 38 -6 34 42 -11z m607 -50 c-8 -9 -19 -13 -22 -9 -10 9 16 38 28 31 6 -4 4 -13 -6 -22z m-59 -29 c-9 -9 -20 -13 -24 -9 -4 4 1 14 11 22 25 18 35 8 13 -13z m-432 5 c14 -6 25 -15 25 -20 0 -5 3 -7 8 -5 12 8 54 -12 47 -23 -8 -12 -45 -13 -45 -1 0 5 -13 11 -29 14 -17 4 -35 15 -41 27 -12 23 -3 26 35 8z m381 -43 c-25 -19 -37 -19 -30 0 4 8 16 15 28 15 21 -1 21 -1 2 -15z m-46 -5 c0 -10 -34 -31 -47 -29 -4 1 -16 -1 -27 -6 -12 -5 -21 -3 -27 6 -11 18 -1 26 36 32 54 7 65 7 65 -3z m-156 -7 c4 -5 12 -9 17 -9 19 -3 20 -4 14 -14 -5 -8 -11 -8 -20 0 -7 6 -31 12 -54 13 -23 1 -35 4 -28 9 15 10 61 10 71 1z m-44 -192 c0 -12 -29 -23 -41 -15 -18 10 -9 24 16 24 14 0 25 -4 25 -9z m90 -6 c0 -8 -6 -15 -14 -15 -17 0 -28 14 -19 24 12 12 33 6 33 -9z m45 5 c3 -5 -1 -10 -9 -10 -9 0 -16 5 -16 10 0 6 4 10 9 10 6 0 13 -4 16 -10z m-195 -16 c0 -5 -27 -16 -67 -28 -27 -9 -33 17 -7 32 14 8 74 5 74 -4z m-112 -31 c-3 -19 -48 -32 -48 -14 0 10 28 30 43 31 5 0 7 -8 5 -17z m416 4 c11 -8 17 -20 14 -27 -3 -9 -13 -5 -33 13 -32 28 -15 39 19 14z m-2694 -17 c0 -16 -6 -20 -32 -19 -46 1 -81 12 -86 27 -3 9 14 12 57 12 54 0 61 -2 61 -20z m2760 -32 c0 -13 -23 -5 -28 10 -2 7 2 10 12 6 9 -3 16 -11 16 -16z m-540 3 c0 -11 -29 -35 -35 -29 -10 9 7 38 21 38 8 0 14 -4 14 -9z m597 -43 c13 -12 23 -28 23 -37 0 -10 -9 -6 -30 14 -29 28 -38 45 -23 45 4 0 17 -10 30 -22z m-671 -15 c-10 -10 -19 5 -10 18 6 11 8 11 12 0 2 -7 1 -15 -2 -18z m-13 -19 c5 -6 -25 -53 -70 -113 -2 -3 -8 0 -15 7 -8 8 -2 24 22 61 30 48 48 60 63 45z m737 -24 c0 -5 -4 -10 -10 -10 -5 0 -10 5 -10 10 0 6 5 10 10 10 6 0 10 -4 10 -10z m-832 -141 c-7 -20 -14 -27 -20 -21 -13 13 0 52 17 52 11 0 12 -6 3 -31z m922 0 c6 -11 10 -24 8 -29 -5 -14 -25 3 -32 28 -9 28 9 29 24 1z m50 -116 c0 -7 -6 -13 -14 -13 -14 0 -28 45 -17 55 7 8 31 -25 31 -42z m10 -59 c0 -8 -4 -14 -10 -14 -5 0 -10 9 -10 21 0 11 5 17 10 14 6 -3 10 -13 10 -21z m14 -79 c-4 -8 -10 -12 -15 -9 -11 6 -12 48 -2 58 10 10 24 -31 17 -49z m-342 -18 c4 -23 -18 -55 -29 -43 -3 3 -12 1 -20 -5 -10 -9 -13 -8 -13 5 0 17 -16 22 -22 6 -3 -10 -78 -2 -78 9 1 16 21 35 28 26 8 -11 112 -15 112 -3 0 4 -8 12 -17 17 -16 9 -16 12 -3 20 18 12 36 -2 42 -32z m18 -72 c0 -11 -11 -15 -40 -15 -48 0 -51 6 -7 19 45 13 47 13 47 -4z m333 -39 c7 -17 -14 -76 -26 -76 -5 0 -6 7 -3 16 3 9 6 29 6 45 0 30 14 39 23 15z m-13 -131 c0 -15 -18 -30 -27 -22 -2 3 -2 15 2 26 7 23 25 19 25 -4z m-17 -65 c-5 -19 -23 -39 -23 -25 0 9 20 45 24 45 2 0 2 -9 -1 -20z m-43 -94 c0 -15 -18 -31 -26 -23 -7 7 7 37 17 37 5 0 9 -6 9 -14z m-860 -16 c0 -5 -2 -10 -4 -10 -3 0 -8 5 -11 10 -3 6 -1 10 4 10 6 0 11 -4 11 -10z m840 -29 c0 -12 -20 -25 -27 -18 -7 7 6 27 18 27 5 0 9 -4 9 -9z m-782 -40 c18 -22 32 -45 32 -50 0 -22 -26 -9 -56 27 -45 55 -48 62 -26 62 10 0 33 -18 50 -39z m746 0 c9 -14 -19 -43 -37 -40 -16 4 -16 6 -2 27 17 23 30 28 39 13z m-64 -86 c-7 -8 -16 -15 -21 -15 -13 0 -11 24 3 38 18 18 35 -3 18 -23z m-599 4 c26 -18 31 -39 10 -39 -16 0 -61 42 -56 51 9 13 13 12 46 -12z m536 -36 c-9 -9 -20 -13 -24 -9 -4 4 -1 11 7 16 25 16 35 11 17 -7z m-457 -23 c0 -16 -17 -19 -35 -6 -24 18 -11 40 16 26 10 -6 19 -15 19 -20z m45 -10 c3 -5 14 -10 24 -10 26 0 48 -28 28 -36 -17 -6 -87 21 -87 34 0 21 24 29 35 12z m365 -4 c0 -18 -31 -29 -44 -16 -8 8 -7 14 4 20 22 14 40 12 40 -4z m-57 -21 c9 -22 -62 -40 -82 -21 -12 13 -9 16 20 24 48 14 56 14 62 -3z m-128 -15 c3 -4 -2 -14 -11 -21 -10 -9 -18 -9 -22 -2 -4 6 -18 10 -31 9 -13 0 -26 4 -28 11 -5 12 84 15 92 3z m-1728 -416 c-3 -3 -12 -4 -19 -1 -8 3 -5 6 6 6 11 1 17 -2 13 -5z m-580 -40 c-3 -3 -12 -4 -19 -1 -8 3 -5 6 6 6 11 1 17 -2 13 -5z m-304 -21 c-7 -2 -19 -2 -25 0 -7 3 -2 5 12 5 14 0 19 -2 13 -5z m1009 -60 c21 -20 38 -41 38 -45 0 -5 -147 -7 -327 -6 l-328 3 -3 43 -3 42 293 0 292 0 38 -37z m2535 -179 c-3 -3 -12 -4 -19 -1 -8 3 -5 6 6 6 11 1 17 -2 13 -5z"/>
<path d="M502 4670 c-19 -10 -41 -25 -50 -33 -9 -8 -32 -22 -50 -32 -19 -9 -32 -18 -30 -20 7 -7 89 37 94 50 3 7 23 11 49 10 24 -1 42 3 39 7 -3 5 -15 6 -27 2 -20 -6 -20 -5 -8 10 8 9 20 15 28 12 7 -3 13 -1 13 4 0 15 -21 11 -58 -10z"/>
<path d="M420 4590 l-54 -27 54 1 c52 1 55 2 57 29 1 15 1 26 0 26 -1 -1 -27 -14 -57 -29z m45 -10 c-3 -5 -10 -10 -16 -10 -5 0 -9 5 -9 10 0 6 7 10 16 10 8 0 12 -4 9 -10z"/>
<path d="M275 4520 c3 -5 13 -10 21 -10 8 0 12 5 9 10 -3 6 -13 10 -21 10 -8 0 -12 -4 -9 -10z"/>
<path d="M180 4458 c-13 -13 -26 -22 -27 -20 -7 6 -23 1 -23 -8 0 -14 51 -4 61 12 4 7 11 9 15 5 4 -4 -2 -15 -14 -25 l-21 -19 29 0 c16 0 26 5 23 10 -3 5 0 12 6 16 9 6 7 14 -6 30 l-18 22 -25 -23z"/>
<path d="M157 4069 c7 -7 15 -10 18 -7 3 3 -2 9 -12 12 -14 6 -15 5 -6 -5z"/>
<path d="M198 4073 c6 -2 18 -2 25 0 6 3 1 5 -13 5 -14 0 -19 -2 -12 -5z"/>
<path d="M258 4073 c7 -3 16 -2 19 1 4 3 -2 6 -13 5 -11 0 -14 -3 -6 -6z"/>
<path d="M335 4070 c3 -5 10 -10 16 -10 5 0 9 5 9 10 0 6 -7 10 -16 10 -8 0 -12 -4 -9 -10z"/>
<path d="M276 4044 c-15 -14 -25 -28 -21 -32 3 -4 11 1 16 11 6 9 19 17 29 17 11 0 20 7 20 15 0 21 -10 18 -44 -11z"/>
<path d="M240 4050 c0 -5 5 -10 11 -10 5 0 7 5 4 10 -3 6 -8 10 -11 10 -2 0 -4 -4 -4 -10z"/>
<path d="M107 4037 c-21 -16 -32 -63 -17 -72 6 -4 8 -15 5 -26 -7 -21 10 -27 18 -6 4 10 6 10 6 0 1 -7 5 -13 9 -13 10 0 14 102 4 117 -7 10 -11 10 -25 0z m13 -53 c0 -21 -4 -33 -10 -29 -5 3 -10 19 -10 36 0 16 5 29 10 29 6 0 10 -16 10 -36z"/>
<path d="M211 4014 c0 -22 3 -32 6 -24 3 8 10 20 14 26 6 7 3 16 -6 24 -13 11 -15 7 -14 -26z"/>
<path d="M330 4043 c0 -5 7 -18 15 -29 12 -16 14 -16 15 -3 0 9 -7 22 -15 29 -8 7 -15 8 -15 3z"/>
<path d="M107 3895 c-8 -20 3 -47 17 -42 14 5 14 49 0 54 -6 2 -14 -3 -17 -12z"/>
<path d="M433 3903 c-21 -4 -41 -38 -29 -50 3 -4 6 1 6 9 0 15 20 28 43 28 6 0 2 -7 -9 -16 -18 -14 -18 -15 6 -8 14 3 29 10 35 15 5 5 20 9 35 9 20 0 22 2 10 10 -15 10 -56 11 -97 3z"/>
<path d="M120 3800 c0 -22 -4 -40 -10 -40 -5 0 -10 -18 -10 -40 0 -22 4 -40 9 -40 6 0 12 -19 14 -42 2 -27 4 -13 6 37 1 44 3 99 4 123 1 23 -1 42 -5 42 -5 0 -8 -18 -8 -40z"/>
<path d="M347 3816 c-4 -10 -1 -13 8 -9 8 3 12 9 9 14 -7 12 -11 11 -17 -5z"/>
<path d="M80 3800 c0 -19 3 -21 12 -12 9 9 9 15 0 24 -9 9 -12 7 -12 -12z"/>
<path d="M460 3769 c0 -5 5 -7 10 -4 6 3 10 8 10 11 0 2 -4 4 -10 4 -5 0 -10 -5 -10 -11z"/>
<path d="M178 3763 c7 -3 16 -2 19 1 4 3 -2 6 -13 5 -11 0 -14 -3 -6 -6z"/>
<path d="M435 3740 c3 -5 8 -10 11 -10 2 0 4 5 4 10 0 6 -5 10 -11 10 -5 0 -7 -4 -4 -10z"/>
<path d="M385 3730 c3 -5 8 -10 11 -10 2 0 4 5 4 10 0 6 -5 10 -11 10 -5 0 -7 -4 -4 -10z"/>
<path d="M71 3504 c0 -11 3 -14 6 -6 3 7 2 16 -1 19 -3 4 -6 -2 -5 -13z"/>
<path d="M300 3470 l-25 -8 27 -1 c15 -1 30 4 33 9 7 11 0 11 -35 0z"/>
<path d="M330 3415 c0 -8 -8 -15 -17 -15 -17 -1 -17 -1 0 -11 9 -5 17 -19 17 -29 0 -11 7 -20 15 -20 8 0 15 5 15 10 0 6 -5 10 -11 10 -8 0 -10 12 -6 35 3 19 2 35 -4 35 -5 0 -9 -7 -9 -15z"/>
</g>
</svg>
