<?xml version="1.0" standalone="no"?>
<!DOCTYPE svg PUBLIC "-//W3C//DTD SVG 20010904//EN"
 "http://www.w3.org/TR/2001/REC-SVG-20010904/DTD/svg10.dtd">
<svg version="1.0" xmlns="http://www.w3.org/2000/svg"
 width="366.000000pt" height="600.000000pt" viewBox="0 0 366.000000 600.000000"
 preserveAspectRatio="xMidYMid meet">

<g transform="translate(0.000000,600.000000) scale(0.100000,-0.100000)"
fill="#000000" stroke="none">
<path d="M1380 5988 c-195 -7 -237 -11 -247 -24 -8 -12 -12 -91 -12 -273 -2
-840 -27 -2242 -44 -2403 -1 -12 -10 -18 -25 -18 -17 0 -23 4 -18 15 10 27
-11 64 -32 58 -14 -3 -22 1 -27 17 -4 11 -14 20 -23 19 -32 -3 -40 1 -45 22
-4 16 -11 20 -26 16 -14 -3 -25 3 -36 19 -8 13 -24 24 -35 24 -10 0 -23 6 -27
14 -4 8 -17 15 -28 17 -11 3 -25 14 -31 27 -6 12 -13 19 -16 16 -8 -7 -68 24
-68 35 0 5 -8 11 -17 15 -26 8 -55 28 -80 54 -12 12 -26 22 -30 22 -15 0 -93
75 -93 89 0 7 -6 11 -14 8 -19 -7 -50 28 -43 48 4 9 -3 21 -18 31 -14 9 -25
23 -25 30 0 8 -4 14 -8 14 -5 0 -16 19 -26 43 -24 59 -31 70 -44 75 -8 2 -12
-15 -13 -55 -1 -32 -5 -87 -9 -123 -5 -39 -6 25 -3 161 4 196 8 251 23 304 5
18 -12 65 -21 59 -13 -8 -11 3 7 39 l15 32 -20 -25 c-52 -65 -59 -94 -65 -300
-4 -107 -13 -337 -21 -510 -15 -327 -34 -785 -60 -1460 -8 -217 -22 -559 -30
-760 -8 -201 -19 -498 -26 -660 -6 -162 -13 -297 -15 -299 -12 -12 23 -31 57
-31 46 0 54 -12 63 -92 6 -46 13 -62 34 -79 23 -18 36 -20 93 -15 102 9 97 4
125 119 7 32 8 32 164 13 63 -8 180 -22 260 -31 187 -21 189 -21 195 -48 37
-167 48 -207 60 -207 7 0 18 -7 25 -15 10 -12 37 -15 120 -15 153 0 160 5 194
128 14 54 26 106 26 115 0 15 13 17 90 17 72 0 90 -3 90 -15 0 -25 36 -35 124
-35 86 0 116 12 116 44 0 10 58 15 258 20 403 9 909 15 885 10 -13 -3 -23 -13
-23 -22 1 -34 66 -175 85 -186 11 -6 23 -15 27 -21 8 -11 219 -9 263 3 26 7
33 18 57 83 15 41 27 86 27 101 1 35 11 40 85 44 33 2 81 9 106 17 l45 13 -1
85 c-1 46 -9 275 -18 509 -9 234 -21 538 -26 675 -6 138 -17 419 -25 625 -8
206 -22 553 -30 770 -22 573 -43 1123 -60 1540 -8 201 -20 511 -26 690 -9 257
-15 329 -26 342 -9 10 -38 20 -72 24 -85 10 -101 19 -166 90 l-60 65 -630 125
c-347 68 -644 128 -661 134 -34 11 -133 11 -474 -2z m31 -55 c13 -16 12 -17
-3 -4 -10 7 -18 15 -18 17 0 8 8 3 21 -13z m106 -110 l84 -88 -5 -55 c-3 -30
-8 -104 -11 -165 -4 -60 -20 -310 -37 -555 -16 -245 -33 -490 -36 -545 -7
-100 -24 -135 -30 -61 -2 25 0 36 7 31 6 -3 11 -1 11 4 0 6 -7 11 -15 11 -8 0
-15 9 -15 20 0 11 7 20 15 20 8 0 15 9 15 20 0 11 -4 20 -10 20 -14 0 -32 40
-25 57 5 14 7 14 20 -3 13 -18 14 -18 15 -1 0 11 -11 22 -30 28 -16 6 -30 15
-30 20 0 5 -7 9 -15 9 -19 0 -36 41 -28 69 4 17 1 21 -21 21 -19 0 -26 5 -26
20 0 12 -7 20 -17 20 -13 0 -14 3 -5 12 9 9 15 8 24 -4 7 -10 26 -20 42 -24
24 -6 28 -4 23 8 -3 9 0 21 6 27 8 8 7 11 -6 11 -9 0 -20 -7 -25 -16 -8 -14
-10 -13 -23 2 -8 10 -9 15 -2 11 17 -11 27 11 12 29 -6 8 -9 18 -5 21 4 4 11
1 15 -6 5 -7 14 -10 20 -7 20 12 1 26 -35 26 -27 0 -34 4 -34 19 0 10 9 21 20
24 21 5 28 37 9 37 -6 0 -9 6 -6 13 2 6 0 22 -4 35 -6 14 -5 21 0 17 5 -3 12
-1 16 5 3 5 -1 10 -9 10 -9 0 -16 7 -16 15 0 8 -7 15 -15 15 -8 0 -15 5 -15
10 0 6 5 10 10 10 6 0 10 7 10 15 0 9 9 15 25 15 14 0 25 5 25 10 0 6 -12 10
-27 10 -21 0 -24 3 -15 12 17 17 15 28 -9 36 l-20 8 20 18 c21 19 21 19 22 0
1 -14 3 -13 8 6 10 34 3 50 -23 51 -16 1 -17 2 -3 6 11 3 17 14 17 36 0 18 3
42 6 54 4 16 0 23 -16 28 -22 7 -22 32 -1 27 7 -1 9 3 5 9 -3 6 -3 14 2 18 5
3 17 18 27 34 17 26 17 27 0 27 -16 1 -16 2 -3 13 17 13 24 67 9 67 -5 0 -9 6
-9 14 0 8 -6 16 -12 19 -10 3 -10 9 -1 25 10 16 10 22 0 26 -7 3 -2 3 11 0 29
-7 57 23 40 43 -6 7 -8 19 -5 27 6 15 -16 40 -26 30 -3 -3 -11 -3 -17 1 -8 5
-8 10 0 20 7 8 9 19 5 25 -3 5 -1 10 4 10 6 0 10 8 9 18 -3 35 2 62 12 62 6 0
10 -9 10 -19 0 -11 4 -23 10 -26 5 -3 9 9 8 30 -1 19 2 38 5 42 4 3 0 15 -10
25 -12 14 -13 18 -2 18 7 0 51 -39 96 -87z m-127 -143 c0 -5 -8 -10 -17 -10
-15 0 -16 2 -3 10 19 12 20 12 20 0z m-6 -51 c-8 -14 -24 -10 -24 6 0 9 6 12
15 9 8 -4 12 -10 9 -15z m-54 -71 c0 -16 -3 -19 -11 -11 -6 6 -8 16 -5 22 11
17 16 13 16 -11z m40 -82 c0 -2 -3 -11 -6 -20 -9 -23 -24 -20 -24 4 0 11 7 20
15 20 8 0 15 -2 15 -4z m1731 -189 c-10 -9 -11 -8 -5 6 3 10 9 15 12 12 3 -3
0 -11 -7 -18z m-40 -74 c-12 -20 -14 -14 -5 12 4 9 9 14 11 11 3 -2 0 -13 -6
-23z m62 -20 c-7 -2 -13 -11 -13 -19 0 -9 -4 -13 -10 -9 -14 9 0 35 19 34 10
0 11 -2 4 -6z m-48 -13 c3 -5 1 -10 -4 -10 -6 0 -11 5 -11 10 0 6 2 10 4 10 3
0 8 -4 11 -10z m-950 -20 c-8 -25 3 -26 20 -3 11 15 15 15 29 4 14 -11 16 -11
16 2 0 10 6 13 20 10 27 -7 25 -33 -2 -34 -15 0 -18 -2 -8 -6 8 -3 24 -13 34
-22 18 -15 18 -15 8 5 -9 17 -8 24 2 33 11 9 15 9 20 -1 5 -10 7 -10 12 0 7
14 23 15 43 3 12 -8 12 -12 2 -24 -7 -9 -8 -18 -3 -21 6 -3 12 4 15 15 4 16 9
19 24 11 10 -5 23 -7 30 -5 7 2 19 -11 28 -29 8 -18 12 -23 9 -10 -7 27 -5 27
46 1 48 -25 56 -35 40 -54 -6 -8 -7 -16 -2 -19 6 -3 12 4 15 15 7 24 22 18 30
-11 3 -13 0 -20 -10 -20 -9 0 -11 -5 -6 -12 13 -21 12 -38 -2 -38 -10 0 -12
-7 -5 -30 9 -30 -3 -43 -14 -15 -3 8 -12 15 -20 15 -8 0 -18 9 -21 20 -3 11
-15 20 -25 20 -11 0 -23 7 -28 16 -5 9 -13 16 -18 16 -5 0 -19 4 -32 9 -13 5
-28 9 -34 9 -5 0 -8 6 -5 14 3 8 -1 22 -9 33 -14 17 -14 16 -4 -4 6 -13 9 -23
6 -23 -15 0 -135 64 -139 74 -6 15 -47 28 -47 15 0 -5 6 -9 14 -9 17 0 31 -17
41 -50 7 -23 7 -23 -9 -7 -22 21 -55 22 -62 2 -5 -13 -9 -12 -24 5 -20 23 -35
26 -27 6 4 -10 1 -13 -9 -9 -8 3 -13 8 -10 11 3 2 0 14 -5 25 -8 14 -8 22 2
28 10 6 10 11 1 22 -14 16 -6 27 20 27 20 0 25 -26 7 -32 -19 -6 11 -46 38
-51 13 -2 23 0 23 4 0 5 -9 9 -20 9 -24 0 -38 26 -22 42 6 6 8 17 5 24 -3 9 1
14 12 14 12 0 15 -5 10 -20z m899 -14 c-4 -10 -16 -15 -33 -15 -24 2 -24 2 -3
6 13 3 26 11 29 19 3 8 7 13 9 11 3 -2 2 -12 -2 -21z m-987 -2 c3 -9 0 -20 -8
-25 -11 -6 -11 -11 -1 -21 16 -16 15 -38 -3 -38 -17 0 -39 36 -26 44 4 3 6 17
3 31 -3 18 0 25 12 25 9 0 19 -7 23 -16z m1081 -14 c-11 -17 -10 -22 2 -30 13
-9 13 -11 0 -20 -12 -7 -13 -13 -3 -28 8 -14 9 -22 1 -30 -8 -8 -7 -16 2 -27
11 -14 11 -18 1 -25 -8 -4 -10 -13 -6 -21 7 -10 10 -74 16 -359 1 -19 1 -59 0
-89 -1 -47 -3 -52 -16 -41 -19 15 -30 7 -21 -16 3 -9 12 -14 21 -10 10 3 15
-1 15 -13 0 -15 -5 -18 -21 -14 -17 5 -20 2 -17 -13 2 -11 11 -18 21 -18 9 1
17 -5 17 -13 0 -7 -7 -13 -16 -11 -25 4 -29 -22 -5 -29 12 -3 21 -11 21 -18 0
-8 -8 -11 -20 -8 -21 6 -25 -3 -11 -26 5 -7 14 -10 20 -7 6 4 11 0 11 -9 0 -9
-6 -15 -13 -13 -7 2 -14 0 -15 -4 -5 -19 -1 -28 13 -28 8 0 15 -4 15 -10 0 -5
-7 -10 -15 -10 -8 0 -15 -7 -15 -15 0 -9 7 -18 15 -21 8 -4 15 -10 15 -16 0
-5 -5 -6 -10 -3 -19 12 -23 -26 -4 -40 18 -13 18 -14 2 -15 -10 0 -18 -7 -18
-15 0 -7 8 -18 18 -24 16 -9 16 -10 0 -16 -22 -9 -23 -34 -3 -41 14 -6 13 -8
-2 -19 -15 -11 -15 -15 -4 -29 10 -12 11 -20 3 -28 -8 -8 -8 -17 -1 -31 8 -13
8 -22 0 -30 -8 -8 -6 -16 6 -29 9 -10 11 -18 6 -18 -7 0 -9 -92 -6 -279 l4
-278 -26 4 c-14 3 -25 1 -25 -5 0 -15 28 -34 40 -27 5 3 10 -1 10 -10 0 -12
-6 -15 -21 -10 -17 6 -20 3 -17 -17 2 -15 9 -23 21 -22 9 1 17 -5 17 -13 0
-10 -6 -12 -21 -8 -17 6 -20 3 -17 -17 2 -15 9 -23 21 -22 9 1 17 -2 17 -7 0
-5 -9 -9 -20 -9 -11 0 -20 -6 -20 -14 0 -17 24 -38 33 -29 4 3 7 1 7 -5 0 -7
-9 -12 -20 -12 -22 0 -26 -20 -8 -38 10 -10 10 -15 -2 -22 -13 -8 -13 -13 -2
-31 11 -17 11 -23 2 -29 -9 -5 -9 -13 -2 -27 8 -14 8 -23 1 -30 -8 -8 -8 -17
0 -31 8 -14 8 -23 1 -27 -6 -4 -9 -1 -8 5 2 7 -5 17 -15 23 -14 10 -20 9 -27
-3 -6 -9 -6 -18 0 -24 6 -6 10 -15 10 -20 0 -6 -6 -2 -12 9 -7 11 -11 44 -11
73 1 38 -3 55 -14 59 -21 8 -40 -14 -25 -29 7 -7 12 -17 12 -22 0 -6 -7 0 -16
12 -13 19 -13 26 -3 38 10 12 9 18 -3 31 -18 17 -38 10 -38 -13 0 -8 -4 -12
-10 -9 -6 4 -5 13 2 25 10 15 10 22 0 32 -15 15 -24 5 -24 -27 0 -14 -4 -25
-9 -25 -5 0 -9 -9 -9 -19 0 -25 31 -37 46 -17 16 23 26 19 12 -4 -15 -24 -35
-26 -58 -5 -15 14 -17 13 -17 -2 0 -10 4 -23 9 -30 7 -8 3 -10 -12 -6 -12 3
-24 12 -27 19 -5 12 -33 21 -33 10 0 -16 14 -36 26 -36 8 0 14 -4 14 -10 0
-18 -39 -10 -50 10 -13 25 -41 27 -37 3 1 -10 6 -24 10 -30 5 -7 4 -13 -1 -13
-32 0 -34 73 -3 107 9 10 16 32 15 48 0 17 2 34 5 40 12 22 7 43 -8 38 -13 -5
-14 -3 -3 8 6 7 12 21 12 30 0 10 -6 19 -12 22 -7 2 -9 8 -5 13 4 5 12 2 17
-6 5 -8 13 -11 17 -6 4 5 2 11 -4 13 -7 3 -13 10 -13 18 0 7 -6 18 -14 24 -20
17 -43 -13 -26 -34 9 -11 10 -18 1 -29 -12 -14 -61 -28 -59 -17 2 21 -5 31
-22 31 -11 0 -20 4 -20 10 0 5 6 7 13 4 8 -3 19 2 26 9 9 12 8 18 -4 30 -9 10
-11 18 -5 22 18 11 11 45 -9 45 -26 0 -36 -17 -21 -35 16 -20 -4 -45 -34 -44
-20 1 -18 2 22 15 10 3 10 9 2 24 -13 25 -28 25 -47 3 -13 -17 -13 -16 -4 3 6
12 6 26 0 35 -12 19 -11 29 3 29 6 0 8 -3 5 -7 -9 -9 12 -33 29 -33 25 0 16
40 -11 50 -30 11 -34 24 -5 15 24 -7 39 20 22 37 -9 9 -17 7 -30 -6 -19 -16
-19 -16 -15 7 4 19 10 23 29 19 19 -3 24 0 24 16 0 25 -25 35 -40 16 -7 -8
-21 -14 -31 -14 -23 0 -35 -18 -20 -33 6 -6 11 -15 11 -20 0 -5 -8 1 -19 14
-16 20 -21 22 -35 10 -12 -10 -14 -17 -6 -25 5 -5 10 -14 10 -20 0 -5 -6 -1
-14 10 -10 13 -11 23 -4 31 5 7 7 16 4 21 -3 5 5 7 18 5 32 -6 42 14 20 38
-10 11 -12 19 -6 19 15 0 15 37 0 46 -6 4 -17 -1 -25 -12 -8 -10 -23 -18 -33
-16 -13 2 -20 -2 -20 -12 0 -9 -6 -13 -15 -10 -12 5 -12 8 -2 19 8 7 22 15 33
17 24 4 25 41 2 46 -13 2 -18 -3 -18 -18 0 -17 -2 -19 -14 -8 -8 8 -10 15 -4
19 15 9 5 44 -12 44 -10 0 -14 -9 -13 -29 2 -26 1 -27 -11 -10 -16 22 -1 54
26 54 25 0 33 20 15 38 -13 12 -19 13 -31 3 -9 -8 -14 -17 -11 -21 2 -4 -6 -5
-19 -3 -15 3 -26 0 -29 -9 -2 -7 -3 -4 -1 6 2 11 -1 29 -7 40 -8 19 -8 18 7
-1 18 -25 40 -30 47 -10 7 20 -4 37 -24 37 -10 0 -19 4 -19 9 0 14 41 0 47
-15 3 -8 13 -14 23 -14 15 0 18 9 18 50 0 28 -5 50 -10 50 -7 0 -6 5 1 13 15
19 4 27 -41 27 -35 0 -39 -2 -36 -22 4 -31 38 -37 38 -7 0 17 3 20 12 11 8 -8
8 -15 0 -24 -7 -9 -7 -19 -2 -28 13 -20 12 -30 0 -30 -5 0 -10 9 -10 20 0 25
-35 27 -49 3 -6 -10 -11 -13 -11 -8 0 6 5 16 12 23 8 8 8 15 -2 27 -9 11 -9
19 -2 28 6 7 7 19 3 26 -10 16 -47 10 -43 -8 1 -7 -2 -10 -8 -6 -8 5 -8 11 0
20 7 8 9 19 5 25 -8 14 -72 13 -81 -1 -5 -8 -10 -6 -16 5 -5 9 -14 14 -19 11
-5 -4 -37 -9 -72 -12 -34 -3 -70 -9 -80 -15 -23 -12 -42 -1 -27 17 8 10 8 19
1 34 -13 23 -14 41 -3 40 15 -2 52 14 52 23 0 5 9 6 20 3 12 -4 20 -2 20 5 0
6 10 8 25 4 15 -4 25 -2 25 5 0 6 -9 12 -20 12 -26 2 -26 2 -83 18 -51 15 -71
47 -47 76 9 10 9 15 1 15 -6 0 -11 10 -11 23 1 20 2 20 11 5 5 -10 15 -18 21
-18 6 0 20 -8 30 -17 18 -16 18 -16 12 1 -5 14 -3 17 7 14 8 -3 14 -11 14 -19
0 -16 27 -51 33 -44 3 3 -1 11 -8 20 -19 23 -4 30 25 11 14 -9 30 -14 35 -11
10 6 24 -31 23 -60 -1 -16 -1 -17 3 -2 3 10 16 18 32 18 24 2 24 2 5 6 -13 2
-23 9 -23 14 0 6 9 8 19 4 13 -4 23 0 30 12 10 17 10 16 11 -3 0 -12 7 -24 15
-28 8 -3 15 -1 15 4 0 5 11 10 25 12 30 4 35 18 11 33 -13 8 -20 6 -32 -9 -8
-11 -14 -15 -14 -9 0 7 5 15 10 18 6 4 7 13 1 24 -12 21 -3 63 11 55 5 -3 5
-11 -2 -19 -6 -7 -8 -20 -4 -29 8 -20 44 -21 44 -2 0 9 7 12 20 9 24 -6 37 21
20 42 -9 10 -9 15 -1 15 6 0 11 6 11 14 0 9 7 12 19 9 24 -6 36 13 21 32 -10
12 -10 18 0 30 10 12 10 18 0 30 -9 11 -9 18 3 35 7 11 17 17 20 13 4 -3 2
-12 -4 -19 -6 -8 -9 -21 -5 -29 7 -20 36 -19 36 1 0 11 6 14 20 9 24 -8 39 20
21 38 -10 9 -16 8 -27 -7 -17 -23 -25 -18 -18 10 4 16 12 20 30 16 18 -3 24 0
24 13 0 12 5 15 19 10 26 -8 37 13 17 33 -16 16 -18 16 -32 -2 -7 -11 -17 -16
-21 -12 -4 4 -1 11 7 16 12 8 13 13 3 28 -8 14 -8 23 -1 30 14 14 3 42 -17 42
-9 0 -18 -6 -21 -14 -3 -8 -12 -12 -20 -9 -8 3 -21 -3 -29 -13 -13 -18 -14
-18 -8 4 4 15 13 22 29 22 14 0 24 6 24 14 0 9 7 12 19 9 25 -6 36 14 19 34
-10 13 -10 17 0 20 6 3 12 10 12 17 0 7 10 12 23 12 12 -1 21 4 20 10 -1 7 8
9 22 6 18 -3 25 0 25 11 0 10 6 13 19 10 22 -6 36 11 24 30 -14 23 -10 76 9
96 17 19 9 39 -10 27 -5 -3 -6 8 -4 25 4 24 1 29 -17 29 -12 0 -21 -6 -21 -16
0 -8 -5 -12 -10 -9 -7 4 -7 12 -2 18 7 10 8 46 3 87 0 6 -11 10 -23 11 -13 0
-17 3 -10 6 6 2 12 11 12 19 0 8 6 11 18 7 14 -5 15 -3 5 8 -22 22 -14 30 12
13 29 -19 44 -11 28 14 -7 13 -7 20 2 29 10 9 13 7 13 -10 0 -33 8 -77 16 -84
3 -4 11 -2 18 5 8 8 8 15 -1 26 -11 13 -10 18 4 32 15 15 16 15 10 -8 -9 -34
17 -55 39 -33 9 9 16 12 16 6 0 -5 -4 -12 -10 -16 -13 -8 -1 -35 16 -35 8 0
17 7 20 15 4 8 11 12 16 9 6 -4 5 -9 -2 -14 -17 -11 -5 -40 16 -40 12 0 15 7
12 25 -3 14 -1 28 3 31 5 3 5 14 -1 24 -11 20 -4 50 11 50 12 0 11 -18 -1 -22
-7 -2 -5 -11 4 -23 11 -16 17 -17 27 -8 9 9 9 16 1 25 -13 16 9 50 29 46 9 -2
14 7 15 22 2 54 4 61 14 55 8 -5 7 -11 -1 -21 -10 -12 -9 -18 4 -32 23 -22 44
-3 28 25 -6 12 -6 24 -1 29 6 6 5 15 0 24 -8 12 -13 13 -30 3 -27 -18 -32 -16
-19 6 7 10 20 16 29 14 24 -6 35 14 18 35 -12 15 -11 16 5 3 11 -9 15 -21 11
-33 -3 -10 -1 -25 6 -33 7 -9 8 -15 0 -20 -7 -4 -7 -12 0 -26 13 -24 34 -14
27 13 -7 23 1 48 14 48 6 0 5 -8 0 -19 -8 -14 -7 -22 5 -32 22 -18 42 4 23 27
-11 13 -11 18 -2 21 17 6 -2 43 -22 43 -8 0 -15 4 -15 9 0 5 9 7 20 4 14 -4
20 0 20 11 0 10 5 14 10 11 8 -5 7 -11 -1 -21 -9 -11 -9 -17 1 -29 9 -11 10
-18 1 -29 -9 -10 -7 -16 5 -27 13 -10 17 -10 24 2 5 8 5 18 0 23 -5 5 -5 16 0
26 5 9 5 22 0 30 -5 9 -5 19 2 27 17 21 29 15 16 -7z m-1130 -13 c2 -10 -3
-17 -11 -17 -18 0 -39 24 -30 34 12 12 38 2 41 -17z m943 -14 c-12 -20 -14
-14 -5 12 4 9 9 14 11 11 3 -2 0 -13 -6 -23z m-993 -7 c3 -11 -1 -17 -9 -14
-7 2 -13 12 -15 22 -3 23 20 15 24 -8z m52 -31 c0 -19 -20 -29 -32 -17 -15 15
-2 43 17 36 8 -3 15 -12 15 -19z m1030 15 c0 -5 -2 -10 -4 -10 -3 0 -8 5 -11
10 -3 6 -1 10 4 10 6 0 11 -4 11 -10z m-1080 -35 c0 -8 -4 -15 -10 -15 -5 0
-10 7 -10 15 0 8 5 15 10 15 6 0 10 -7 10 -15z m954 -9 c-3 -9 -10 -16 -15
-16 -5 0 -4 9 3 20 14 22 21 20 12 -4z m-1124 -26 c0 -5 -5 -10 -11 -10 -5 0
-7 5 -4 10 3 6 8 10 11 10 2 0 4 -4 4 -10z m1030 -15 c-7 -8 -16 -15 -21 -15
-5 0 -1 8 9 18 20 22 31 19 12 -3z m105 5 c3 -5 1 -10 -4 -10 -6 0 -11 5 -11
10 0 6 2 10 4 10 3 0 8 -4 11 -10z m-154 -27 c-12 -20 -14 -14 -5 12 4 9 9 14
11 11 3 -2 0 -13 -6 -23z m-977 1 c4 -9 2 -22 -4 -29 -5 -6 -7 -15 -4 -18 6
-6 -19 -37 -30 -37 -3 0 -6 7 -6 15 0 8 -4 15 -10 15 -13 0 -13 -6 3 -31 10
-17 9 -22 -4 -29 -9 -6 -20 -21 -23 -35 -12 -47 -24 -25 -23 40 2 57 5 66 26
77 19 10 25 10 28 1 3 -7 9 -13 15 -13 6 0 6 6 -2 15 -15 18 -6 45 14 45 7 0
17 -7 20 -16z m1086 2 c0 -2 -7 -9 -15 -16 -13 -11 -14 -10 -9 4 5 14 24 23
24 12z m30 -6 c0 -5 -2 -10 -4 -10 -3 0 -8 5 -11 10 -3 6 -1 10 4 10 6 0 11
-4 11 -10z m-125 -30 c3 -5 1 -10 -4 -10 -6 0 -11 5 -11 10 0 6 2 10 4 10 3 0
8 -4 11 -10z m35 -10 c0 -5 -2 -10 -4 -10 -3 0 -8 5 -11 10 -3 6 -1 10 4 10 6
0 11 -4 11 -10z m-210 -14 c0 -3 -4 -8 -10 -11 -5 -3 -10 -1 -10 4 0 6 5 11
10 11 6 0 10 -2 10 -4z m214 -30 c-6 -15 -24 -23 -24 -11 0 8 24 34 28 30 1
-1 0 -10 -4 -19z m-219 -136 c3 -5 1 -10 -4 -10 -6 0 -11 5 -11 10 0 6 2 10 4
10 3 0 8 -4 11 -10z m-15 -30 c0 -5 -2 -10 -4 -10 -3 0 -8 5 -11 10 -3 6 -1
10 4 10 6 0 11 -4 11 -10z m58 -20 c-10 -15 -10 -22 0 -32 8 -8 9 -15 1 -25
-9 -9 -8 -17 1 -28 10 -11 9 -18 -3 -30 -20 -20 -33 -19 -16 1 10 12 10 20 1
34 -9 14 -8 20 1 23 9 3 9 9 1 23 -11 19 1 54 18 54 5 0 3 -9 -4 -20z m-38
-10 c0 -5 -2 -10 -4 -10 -3 0 -8 5 -11 10 -3 6 -1 10 4 10 6 0 11 -4 11 -10z
m-20 -20 c0 -5 -5 -10 -11 -10 -5 0 -7 5 -4 10 3 6 8 10 11 10 2 0 4 -4 4 -10z
m9 -46 c-9 -11 -9 -17 1 -29 10 -12 10 -18 0 -30 -7 -8 -18 -15 -24 -14 -7 0
-6 2 2 6 20 8 14 43 -10 53 l-23 9 23 0 c13 1 22 7 22 17 0 8 5 12 10 9 8 -5
7 -11 -1 -21z m-49 -34 c0 -5 -2 -10 -4 -10 -3 0 -8 5 -11 10 -3 6 -1 10 4 10
6 0 11 -4 11 -10z m-1125 -30 c-11 -5 -27 -9 -35 -9 -9 0 -8 4 5 9 11 5 27 9
35 9 9 0 8 -4 -5 -9z m1129 -14 c-3 -9 -10 -16 -15 -16 -5 0 -4 9 3 20 14 22
21 20 12 -4z m-39 -6 c3 -5 1 -10 -4 -10 -6 0 -11 5 -11 10 0 6 2 10 4 10 3 0
8 -4 11 -10z m-50 -20 c3 -5 1 -10 -4 -10 -6 0 -11 5 -11 10 0 6 2 10 4 10 3
0 8 -4 11 -10z m-788 -22 c-3 -8 -6 -5 -6 6 -1 11 2 17 5 13 3 -3 4 -12 1 -19z
m830 2 c9 -11 8 -19 -1 -32 -10 -14 -12 -12 -12 17 0 19 0 33 1 32 0 -1 6 -9
12 -17z m-40 -29 c6 -3 2 -15 -10 -26 -20 -20 -20 -20 -8 2 7 14 8 24 1 28 -5
3 -10 12 -10 18 0 8 3 7 9 -2 5 -7 13 -16 18 -20z m-1062 9 c3 -5 2 -10 -4
-10 -5 0 -13 5 -16 10 -3 6 -2 10 4 10 5 0 13 -4 16 -10z m309 -71 c1 -8 8
-25 15 -38 11 -19 11 -25 0 -32 -10 -6 -10 -11 -1 -22 10 -12 8 -15 -13 -19
-30 -6 -41 5 -20 22 13 10 13 14 -1 27 -11 12 -12 18 -3 29 9 11 9 18 -1 29
-14 16 -3 42 12 27 5 -5 10 -16 12 -23z m661 11 c3 -5 1 -10 -4 -10 -6 0 -11
5 -11 10 0 6 2 10 4 10 3 0 8 -4 11 -10z m-15 -30 c0 -5 -2 -10 -4 -10 -3 0
-8 5 -11 10 -3 6 -1 10 4 10 6 0 11 -4 11 -10z m55 -13 c-11 -9 -15 -19 -10
-28 6 -10 5 -11 -4 -3 -15 14 -4 44 17 44 13 0 13 -2 -3 -13z m105 -3 c0 -10
-28 -34 -41 -34 -6 0 -17 -6 -23 -14 -7 -9 -18 -11 -31 -6 -19 8 -19 9 3 9 12
1 25 7 28 15 3 8 12 12 20 9 7 -3 17 2 20 11 6 15 24 23 24 10z m-159 -31
c-12 -20 -14 -14 -5 12 4 9 9 14 11 11 3 -2 0 -13 -6 -23z m149 -48 c-19 -23
-29 -18 -17 9 7 15 16 21 21 16 6 -6 4 -15 -4 -25z m-135 15 c3 -5 1 -10 -4
-10 -6 0 -11 5 -11 10 0 6 2 10 4 10 3 0 8 -4 11 -10z m35 -10 c0 -5 -2 -10
-4 -10 -3 0 -8 5 -11 10 -3 6 -1 10 4 10 6 0 11 -4 11 -10z m-630 -19 c14 -27
13 -31 -9 -31 -20 0 -35 25 -25 41 9 15 23 10 34 -10z m684 -5 c-3 -9 -10 -16
-15 -16 -5 0 -4 9 3 20 14 22 21 20 12 -4z m-39 -6 c3 -5 1 -10 -4 -10 -6 0
-11 5 -11 10 0 6 2 10 4 10 3 0 8 -4 11 -10z m-56 -38 c-12 -19 -59 -24 -59
-6 0 7 10 9 25 6 19 -3 25 0 25 12 0 10 4 14 10 11 6 -4 6 -12 -1 -23z m46 1
c9 -12 10 -22 2 -34 -8 -12 -8 -21 0 -31 8 -10 8 -17 0 -28 -17 -21 -50 -19
-60 4 -9 24 1 59 15 50 7 -4 6 -9 -2 -14 -19 -11 -4 -40 20 -40 21 0 28 24 10
35 -8 5 -7 12 1 22 10 11 10 19 1 34 -15 24 -4 25 13 2z m-898 -25 c-3 -7 -5
-2 -5 12 0 14 2 19 5 13 2 -7 2 -19 0 -25z m808 -38 c3 -5 1 -10 -4 -10 -6 0
-11 5 -11 10 0 6 2 10 4 10 3 0 8 -4 11 -10z m-1 -55 c3 -8 1 -15 -4 -15 -6 0
-10 7 -10 15 0 8 2 15 4 15 2 0 6 -7 10 -15z m44 -55 c-15 -24 -19 -21 -11 8
3 12 9 19 14 16 5 -3 3 -14 -3 -24z m-528 -350 c0 -19 -20 -27 -33 -13 -8 7
11 33 24 33 5 0 9 -9 9 -20z m-1420 0 c0 -5 -4 -10 -9 -10 -6 0 -13 5 -16 10
-3 6 1 10 9 10 9 0 16 -4 16 -10z m1896 -28 c-17 -16 -18 -16 -5 5 7 12 15 20
18 17 3 -2 -3 -12 -13 -22z m-1838 -14 c-6 -18 -28 -21 -28 -4 0 9 7 16 16 16
9 0 14 -5 12 -12z m1312 8 c0 -3 -4 -8 -10 -11 -5 -3 -10 -1 -10 4 0 6 5 11
10 11 6 0 10 -2 10 -4z m39 -22 c-6 -8 -15 -14 -20 -14 -14 0 -11 28 4 33 20
7 29 -4 16 -19z m-43 -43 c-4 -6 -16 -11 -27 -11 -21 0 -27 35 -6 43 16 6 41
-18 33 -32z m-1256 19 c0 -5 -7 -10 -15 -10 -8 0 -15 5 -15 10 0 6 7 10 15 10
8 0 15 -4 15 -10z m1190 -55 c-7 -8 -16 -15 -21 -15 -13 0 -11 24 3 38 18 18
35 -3 18 -23z m-1124 -2 c-7 -7 -26 7 -26 19 0 6 6 6 15 -2 9 -7 13 -15 11
-17z m1162 -12 c-7 -11 -15 -18 -20 -15 -11 7 3 34 18 34 12 0 12 -4 2 -19z
m557 -1 c-3 -5 -12 -10 -18 -10 -7 0 -6 4 3 10 19 12 23 12 15 0z m-1655 -26
c0 -8 -4 -12 -10 -9 -5 3 -10 10 -10 16 0 5 5 9 10 9 6 0 10 -7 10 -16z m1066
4 c8 -12 -24 -40 -37 -32 -5 3 -9 14 -9 25 0 21 34 27 46 7z m-1003 -33 c8
-18 -11 -31 -25 -17 -11 11 -3 32 12 32 4 0 10 -7 13 -15z m985 -32 c-5 -25
-28 -28 -28 -4 0 12 6 21 16 21 9 0 14 -7 12 -17z m-928 -24 c0 -5 -4 -9 -10
-9 -5 0 -10 7 -10 16 0 8 5 12 10 9 6 -3 10 -10 10 -16z m1590 11 c0 -5 -2
-10 -4 -10 -3 0 -8 5 -11 10 -3 6 -1 10 4 10 6 0 11 -4 11 -10z m-1534 -47
c-10 -10 -19 5 -10 18 6 11 8 11 12 0 2 -7 1 -15 -2 -18z m1579 18 c-3 -5 -1
-12 5 -16 5 -3 10 -11 10 -18 0 -6 -6 -2 -14 8 -13 18 -13 35 0 35 3 0 3 -4
-1 -9z m-725 -21 c0 -5 -4 -10 -10 -10 -5 0 -10 5 -10 10 0 6 5 10 10 10 6 0
10 -4 10 -10z m730 -40 c0 -5 -5 -10 -11 -10 -5 0 -7 5 -4 10 3 6 8 10 11 10
2 0 4 -4 4 -10z m54 -22 c-8 -28 -12 -33 -20 -25 -4 4 -2 13 4 20 7 8 9 17 5
20 -3 4 -1 7 6 7 8 0 10 -8 5 -22z m46 12 c0 -5 -8 -10 -17 -10 -15 0 -16 2
-3 10 19 12 20 12 20 0z m-135 -50 c3 -5 1 -10 -4 -10 -6 0 -11 5 -11 10 0 6
2 10 4 10 3 0 8 -4 11 -10z m100 -10 c3 -5 1 -10 -4 -10 -6 0 -11 5 -11 10 0
6 2 10 4 10 3 0 8 -4 11 -10z m-50 -20 c3 -5 1 -10 -4 -10 -6 0 -11 5 -11 10
0 6 2 10 4 10 3 0 8 -4 11 -10z m50 -40 c3 -5 1 -10 -4 -10 -6 0 -11 5 -11 10
0 6 2 10 4 10 3 0 8 -4 11 -10z m35 0 c0 -5 -5 -10 -11 -10 -5 0 -7 5 -4 10 3
6 8 10 11 10 2 0 4 -4 4 -10z m-1439 -23 c-1 -12 -15 -9 -19 4 -3 6 1 10 8 8
6 -3 11 -8 11 -12z m1389 -7 c0 -5 -2 -10 -4 -10 -3 0 -8 5 -11 10 -3 6 -1 10
4 10 6 0 11 -4 11 -10z m70 -3 c0 -2 -10 -12 -21 -23 -22 -19 -22 -19 -8 4 12
19 29 30 29 19z m-850 -52 c0 -8 -4 -15 -10 -15 -5 0 -10 7 -10 15 0 8 5 15
10 15 6 0 10 -7 10 -15z m-615 -5 c3 -5 1 -10 -4 -10 -6 0 -11 5 -11 10 0 6 2
10 4 10 3 0 8 -4 11 -10z m625 -56 c0 -8 -4 -14 -10 -14 -5 0 -10 9 -10 21 0
11 5 17 10 14 6 -3 10 -13 10 -21z m17 -50 c6 -16 -15 -37 -29 -28 -4 3 -8 14
-8 25 0 23 28 26 37 3z m1058 -4 c3 -5 1 -10 -4 -10 -6 0 -11 5 -11 10 0 6 2
10 4 10 3 0 8 -4 11 -10z m-140 -20 c3 -5 1 -10 -4 -10 -6 0 -11 5 -11 10 0 6
2 10 4 10 3 0 8 -4 11 -10z m118 -17 c-7 -2 -19 -2 -25 0 -7 3 -2 5 12 5 14 0
19 -2 13 -5z m-1038 -28 c0 -11 -8 -21 -17 -23 -14 -3 -18 3 -18 23 0 20 4 26
18 23 9 -2 17 -12 17 -23z m970 5 c3 -5 1 -10 -4 -10 -6 0 -11 5 -11 10 0 6 2
10 4 10 3 0 8 -4 11 -10z m-915 -52 c0 -12 -28 -10 -35 2 -4 6 -4 19 0 28 6
16 8 15 21 -2 8 -11 14 -23 14 -28z m965 22 c3 -5 1 -10 -4 -10 -6 0 -11 5
-11 10 0 6 2 10 4 10 3 0 8 -4 11 -10z m-1027 -27 c-5 -25 -28 -28 -28 -4 0
12 6 21 16 21 9 0 14 -7 12 -17z m72 -40 c0 -20 -24 -11 -28 10 -2 12 1 15 12
11 9 -3 16 -13 16 -21z m40 -28 c7 -9 10 -18 7 -21 -10 -11 -37 5 -37 21 0 19
14 19 30 0z m1155 -15 c3 -5 1 -10 -4 -10 -6 0 -11 5 -11 10 0 6 2 10 4 10 3
0 8 -4 11 -10z m35 -10 c0 -5 -2 -10 -4 -10 -3 0 -8 5 -11 10 -3 6 -1 10 4 10
6 0 11 -4 11 -10z m-80 -20 c0 -5 -2 -10 -4 -10 -3 0 -8 5 -11 10 -3 6 -1 10
4 10 6 0 11 -4 11 -10z m30 0 c0 -5 -5 -10 -11 -10 -5 0 -7 5 -4 10 3 6 8 10
11 10 2 0 4 -4 4 -10z m-1125 -11 c11 -17 -1 -21 -15 -4 -8 9 -8 15 -2 15 6 0
14 -5 17 -11z m1190 1 c3 -5 1 -10 -4 -10 -6 0 -11 5 -11 10 0 6 2 10 4 10 3
0 8 -4 11 -10z m-265 -20 c0 -11 -4 -20 -9 -20 -4 0 -6 -11 -4 -24 6 -30 -13
-44 -22 -16 -7 22 -27 28 -24 8 3 -27 -2 -38 -16 -38 -8 0 -15 8 -15 18 0 22
37 55 52 46 7 -4 8 -3 4 5 -8 12 10 41 25 41 5 0 9 -9 9 -20z m-890 -21 c0
-11 -4 -17 -10 -14 -5 3 -10 13 -10 21 0 8 5 14 10 14 6 0 10 -9 10 -21z m970
0 c0 -6 -4 -7 -10 -4 -5 3 -10 11 -10 16 0 6 5 7 10 4 6 -3 10 -11 10 -16z
m-45 -9 c10 -11 14 -20 9 -20 -5 0 -15 9 -22 20 -7 11 -11 20 -9 20 2 0 12 -9
22 -20z m269 -26 c9 -24 2 -26 -12 -4 -7 11 -8 20 -3 20 5 0 12 -7 15 -16z
m-409 -44 c-3 -5 -12 -10 -18 -10 -7 0 -6 4 3 10 19 12 23 12 15 0z m-45 -40
c0 -5 -7 -10 -15 -10 -8 0 -15 5 -15 10 0 6 7 10 15 10 8 0 15 -4 15 -10z
m-502 -27 c6 -19 -25 -16 -32 3 -4 11 -1 14 11 12 9 -2 18 -9 21 -15z m462 7
c0 -12 -28 -25 -36 -17 -9 9 6 27 22 27 8 0 14 -5 14 -10z m-411 -19 c16 -10
6 -31 -14 -31 -17 0 -28 17 -20 30 8 12 16 12 34 1z m351 -1 c0 -5 -7 -10 -16
-10 -8 0 -12 5 -9 10 3 6 10 10 16 10 5 0 9 -4 9 -10z m-398 -29 c7 -10 22
-20 32 -22 30 -6 32 -29 2 -29 -14 0 -26 5 -26 10 0 6 -8 10 -17 8 -13 -2 -19
5 -21 25 -4 31 11 35 30 8z m98 -6 c10 -12 10 -19 2 -27 -15 -15 -48 14 -38
31 10 15 21 14 36 -4z m155 5 c3 -5 -3 -10 -15 -10 -12 0 -18 5 -15 10 3 6 10
10 15 10 5 0 12 -4 15 -10z m-49 -64 c4 -40 2 -46 -15 -46 -22 0 -33 21 -20
41 5 8 6 22 3 31 -3 10 -2 23 1 29 12 19 26 -6 31 -55z m89 31 c0 -26 -20 -25
-23 2 -3 16 1 22 10 19 7 -3 13 -12 13 -21z m-139 -12 c3 -8 3 -19 0 -24 -10
-16 -36 -1 -36 20 0 22 28 26 36 4z m104 -10 c0 -8 -4 -17 -10 -20 -6 -4 -5
-13 3 -25 9 -15 9 -24 0 -39 -9 -14 -9 -21 0 -30 8 -8 5 -11 -12 -11 -17 0
-22 4 -17 16 4 9 1 23 -5 30 -9 11 -8 18 1 29 10 12 10 18 0 30 -10 12 -10 18
0 29 13 17 40 10 40 -9z m-160 -40 c-8 -10 -8 -19 2 -34 10 -16 10 -23 0 -33
-19 -19 -50 15 -33 36 7 8 9 21 5 27 -5 9 -10 5 -16 -10 -10 -28 -43 -24 -43
4 0 16 7 20 33 22 19 1 36 4 39 7 12 11 24 -6 13 -19z m60 -21 c0 -13 -5 -24
-11 -24 -8 0 -8 -5 1 -15 10 -13 9 -15 -10 -15 -16 0 -21 4 -16 16 4 9 1 23
-5 30 -9 11 -8 18 1 28 16 21 40 9 40 -20z m147 21 c3 -9 2 -19 -1 -23 -8 -8
-38 10 -44 26 -6 18 38 14 45 -3z m48 -31 c0 -10 -8 -20 -17 -22 -18 -3 -26
27 -11 42 12 11 28 0 28 -20z m-351 0 c7 -18 0 -34 -15 -34 -5 0 -9 11 -9 25
0 28 15 34 24 9z m396 6 c0 -5 -4 -10 -10 -10 -5 0 -10 5 -10 10 0 6 5 10 10
10 6 0 10 -4 10 -10z m-192 -26 c4 -25 -22 -38 -37 -20 -15 18 -3 48 18 44 9
-2 17 -13 19 -24z m102 1 c22 -26 -12 -49 -37 -24 -14 14 -6 39 12 39 7 0 18
-7 25 -15z m141 0 c-1 -15 -24 -12 -29 3 -3 9 2 13 12 10 10 -1 17 -7 17 -13z
m-393 -18 c3 -12 -3 -17 -22 -17 -25 0 -35 18 -19 34 12 12 38 2 41 -17z m349
7 c8 -22 -15 -43 -27 -24 -5 8 -10 21 -10 28 0 17 30 15 37 -4z m98 -25 c-11
-17 -35 -9 -35 11 0 18 3 19 20 10 11 -6 18 -15 15 -21z m-147 -7 c3 -16 -2
-22 -16 -22 -24 0 -35 23 -19 39 16 16 31 8 35 -17z m-358 8 c0 -5 -2 -10 -4
-10 -3 0 -8 5 -11 10 -3 6 -1 10 4 10 6 0 11 -4 11 -10z m458 -18 c2 -14 -2
-22 -12 -22 -19 0 -29 17 -22 36 8 22 30 12 34 -14z m82 -7 c0 -8 -4 -15 -10
-15 -5 0 -10 7 -10 15 0 8 5 15 10 15 6 0 10 -7 10 -15z m-131 -9 c7 -9 8 -17
2 -20 -14 -9 -41 4 -41 20 0 18 24 18 39 0z m97 -48 c1 -43 0 -46 -17 -37 -11
5 -19 14 -19 18 0 5 -11 12 -25 15 -27 7 -32 20 -14 32 7 4 20 -4 30 -17 10
-13 21 -20 26 -15 4 5 2 11 -4 13 -21 7 -16 45 4 41 14 -2 18 -14 19 -50z
m-786 -32 c0 -3 -4 -8 -10 -11 -5 -3 -10 -1 -10 4 0 6 5 11 10 11 6 0 10 -2
10 -4z m-6 -45 c9 -15 -23 -36 -36 -23 -5 5 -7 15 -4 21 9 13 33 14 40 2z
m894 -25 c3 -12 -1 -17 -10 -14 -7 3 -15 13 -16 22 -3 12 1 17 10 14 7 -3 15
-13 16 -22z m-948 -21 c0 -16 -27 -32 -37 -21 -7 7 16 36 28 36 5 0 9 -7 9
-15z m997 -1 c8 -21 -13 -42 -28 -27 -13 13 -5 43 11 43 6 0 13 -7 17 -16z
m-1057 -33 c0 -6 -4 -13 -10 -16 -5 -3 -10 1 -10 9 0 9 5 16 10 16 6 0 10 -4
10 -9z m50 -10 c0 -21 -13 -41 -26 -41 -14 0 -19 31 -7 43 10 10 33 8 33 -2z
m1045 -1 c3 -5 1 -10 -4 -10 -6 0 -11 5 -11 10 0 6 2 10 4 10 3 0 8 -4 11 -10z
m-35 -27 c0 -13 -3 -13 -15 -3 -8 7 -12 16 -9 21 8 13 24 1 24 -18z m-1062
-26 c2 -10 -3 -17 -12 -17 -10 0 -16 9 -16 21 0 24 23 21 28 -4z m1102 -12
c10 -12 10 -15 -4 -15 -9 0 -16 7 -16 15 0 8 2 15 4 15 2 0 9 -7 16 -15z
m-162 -27 c40 -10 112 -44 112 -53 0 -1 -28 9 -62 23 -51 20 -79 25 -148 25
-136 -1 -180 -27 -180 -105 0 -95 55 -217 135 -299 58 -60 85 -63 142 -14 72
61 146 253 129 334 -5 26 -5 26 6 3 17 -34 -4 -152 -41 -226 -32 -66 -87 -128
-134 -153 -27 -13 -31 -13 -67 11 -93 61 -170 204 -183 340 -4 45 -2 51 26 77
16 15 46 32 66 37 51 14 144 14 199 0z m217 -6 c0 -18 -20 -15 -23 4 -3 10 1
15 10 12 7 -3 13 -10 13 -16z m-1158 -26 c-4 -9 -11 -16 -17 -16 -11 0 -14 33
-3 44 11 10 26 -11 20 -28z m1119 -13 c-4 -4 -11 -1 -16 7 -16 25 -11 35 7 17
9 -9 13 -20 9 -24z m86 2 c0 -5 -5 -11 -11 -13 -6 -2 -11 4 -11 13 0 9 5 15
11 13 6 -2 11 -8 11 -13z m-42 -26 c0 -20 -24 -26 -35 -9 -8 13 14 42 26 34 5
-3 9 -14 9 -25z m-297 -9 l41 0 -32 -29 c-17 -17 -32 -33 -32 -37 0 -4 10 2
23 13 33 31 89 63 111 63 14 0 16 -3 8 -13 -8 -10 -6 -16 9 -25 31 -20 23 -52
-26 -98 -46 -45 -119 -75 -179 -73 l-31 0 40 17 c76 32 82 38 64 59 -9 10 -19
25 -22 33 -3 9 -6 4 -6 -11 -1 -20 -8 -28 -27 -33 -32 -8 -41 -2 -25 17 11 14
6 47 -8 47 -4 0 -12 -5 -18 -11 -6 -6 -16 -8 -22 -5 -21 13 -11 36 28 60 22
14 43 31 47 38 6 9 9 9 12 0 2 -7 22 -12 45 -12z m-880 -10 c-3 -11 -9 -20
-14 -20 -10 0 -12 24 -2 33 13 13 21 7 16 -13z m1225 -13 c2 -10 -3 -17 -12
-17 -10 0 -16 9 -16 21 0 24 23 21 28 -4z m-50 -24 c-4 -22 -22 -20 -26 1 -2
10 3 16 13 16 10 0 15 -7 13 -17z m-1188 -28 c0 -14 -4 -25 -10 -25 -11 0 -14
33 -3 43 11 11 13 8 13 -18z m1238 -13 c2 -7 -3 -12 -12 -12 -9 0 -16 7 -16
16 0 17 22 14 28 -4z m-1238 -52 c0 -11 -4 -20 -10 -20 -5 0 -10 9 -10 20 0
11 5 20 10 20 6 0 10 -9 10 -20z m1240 -16 c0 -16 -16 -19 -25 -4 -8 13 4 32
16 25 5 -4 9 -13 9 -21z m-1240 -54 c0 -11 -4 -20 -10 -20 -5 0 -10 9 -10 20
0 11 5 20 10 20 6 0 10 -9 10 -20z m1250 -5 c0 -16 -27 -27 -36 -14 -3 5 -3
16 0 24 6 17 36 9 36 -10z m-377 -17 c4 -9 8 -10 14 -3 9 12 53 18 53 7 0 -4
21 -5 46 -3 36 2 45 0 42 -10 -4 -11 -30 -14 -104 -15 -81 -2 -101 1 -112 15
-11 14 -14 14 -22 1 -5 -8 -12 -11 -15 -8 -4 4 -4 11 0 17 9 15 92 14 98 -1z
m-863 -49 c0 -11 -4 -17 -10 -14 -5 3 -10 15 -10 26 0 11 5 17 10 14 6 -3 10
-15 10 -26z m1232 -11 c-16 -16 -37 4 -28 28 6 16 8 16 23 1 13 -13 15 -19 5
-29z m-1222 -48 c0 -11 -4 -20 -10 -20 -5 0 -10 9 -10 20 0 11 5 20 10 20 6 0
10 -9 10 -20z m1220 -6 c0 -8 -4 -12 -10 -9 -5 3 -10 13 -10 21 0 8 5 12 10 9
6 -3 10 -13 10 -21z m-1220 -59 c0 -8 -4 -15 -10 -15 -5 0 -10 7 -10 15 0 8 5
15 10 15 6 0 10 -7 10 -15z m1230 0 c0 -8 -7 -15 -15 -15 -8 0 -15 7 -15 15 0
8 7 15 15 15 8 0 15 -7 15 -15z m-50 -36 c0 -10 -7 -19 -15 -19 -16 0 -19 9
-9 34 8 20 24 11 24 -15z m-1146 5 c4 -9 4 -19 2 -21 -8 -8 -26 8 -26 23 0 19
16 18 24 -2z m-34 -36 c0 -16 -3 -19 -11 -11 -6 6 -8 16 -5 22 11 17 16 13 16
-11z m1228 5 c-4 -22 -22 -20 -26 1 -2 10 3 16 13 16 10 0 15 -7 13 -17z m-51
-14 c14 -14 6 -39 -13 -39 -8 0 -14 10 -14 25 0 27 9 32 27 14z m-1119 -27 c3
-16 -2 -22 -17 -22 -24 0 -35 15 -27 36 9 23 40 13 44 -14z m-58 -27 c0 -8 -2
-15 -4 -15 -2 0 -6 7 -10 15 -3 8 -1 15 4 15 6 0 10 -7 10 -15z m1224 0 c-4
-8 -7 -15 -9 -15 -2 0 -5 7 -9 15 -3 9 0 15 9 15 9 0 12 -6 9 -15z m-1164 -31
c0 -12 -2 -12 -14 -2 -8 7 -12 16 -9 21 7 11 23 -2 23 -19z m30 16 c0 -5 -2
-10 -4 -10 -3 0 -8 5 -11 10 -3 6 -1 10 4 10 6 0 11 -4 11 -10z m1081 -22
c-11 -10 -13 -10 -7 0 4 6 2 12 -4 12 -6 0 -8 5 -4 11 4 8 9 8 17 0 8 -8 7
-14 -2 -23z m-1054 -24 c3 -8 0 -21 -6 -27 -10 -9 -16 -8 -26 7 -8 10 -12 23
-9 27 9 15 34 10 41 -7z m1003 6 c0 -5 -4 -10 -10 -10 -5 0 -10 5 -10 10 0 6
5 10 10 10 6 0 10 -4 10 -10z m-30 -39 c0 -12 -20 -25 -27 -18 -7 7 6 27 18
27 5 0 9 -4 9 -9z m-940 -16 c7 -9 8 -15 2 -15 -5 0 -12 7 -16 15 -3 8 -4 15
-2 15 2 0 9 -7 16 -15z m973 -28 c-3 -5 -9 -3 -14 4 -4 7 -5 17 -2 22 3 5 9 3
14 -4 4 -7 5 -17 2 -22z m-38 -17 c0 -22 -29 -18 -33 3 -3 14 1 18 15 15 10
-2 18 -10 18 -18z m-899 -1 c11 -18 -13 -34 -31 -19 -8 7 -15 16 -15 21 0 13
38 11 46 -2z m849 -29 c0 -22 -29 -18 -33 3 -3 14 1 18 15 15 10 -2 18 -10 18
-18z m-805 -21 c0 -10 -7 -19 -15 -19 -15 0 -21 31 -9 43 11 10 24 -3 24 -24z
m700 -47 c0 -13 -12 -22 -22 -16 -10 6 -1 24 13 24 5 0 9 -4 9 -8z m-48 -44
c-9 -9 -15 -9 -24 0 -10 10 -10 15 2 22 20 12 38 -6 22 -22z m-52 -13 c0 -8
-7 -15 -15 -15 -16 0 -20 12 -8 23 11 12 23 8 23 -8z m-152 -37 c-3 -7 -11
-13 -18 -13 -7 0 -15 6 -17 13 -3 7 4 12 17 12 13 0 20 -5 18 -12z m52 -34 c0
-16 -16 -19 -25 -4 -8 13 4 32 16 25 5 -4 9 -13 9 -21z m-55 -24 c3 -5 -1 -10
-9 -10 -9 0 -16 5 -16 10 0 6 4 10 9 10 6 0 13 -4 16 -10z"/>
<path d="M1407 5763 c-4 -3 -7 -11 -7 -17 0 -6 5 -5 12 2 6 6 9 14 7 17 -3 3
-9 2 -12 -2z"/>
<path d="M1465 5760 c-3 -5 -2 -10 4 -10 5 0 13 5 16 10 3 6 2 10 -4 10 -5 0
-13 -4 -16 -10z"/>
<path d="M1430 5704 c0 -14 3 -14 15 -4 8 7 15 14 15 16 0 2 -7 4 -15 4 -8 0
-15 -7 -15 -16z"/>
<path d="M1370 5270 c0 -5 5 -10 10 -10 6 0 10 5 10 10 0 6 -4 10 -10 10 -5 0
-10 -4 -10 -10z"/>
<path d="M1360 4830 c0 -5 7 -10 15 -10 8 0 15 5 15 10 0 6 -7 10 -15 10 -8 0
-15 -4 -15 -10z"/>
<path d="M1440 4789 c0 -5 5 -7 10 -4 6 3 10 8 10 11 0 2 -4 4 -10 4 -5 0 -10
-5 -10 -11z"/>
<path d="M1424 4655 c-9 -14 -14 -29 -10 -33 4 -3 11 0 16 8 7 10 10 11 10 3
0 -7 8 -13 17 -13 13 0 14 3 6 11 -6 6 -9 17 -7 24 10 25 -15 25 -32 0z"/>
<path d="M1450 4590 c0 -5 7 -7 15 -4 8 4 15 8 15 10 0 2 -7 4 -15 4 -8 0 -15
-4 -15 -10z"/>
<path d="M2280 5119 c0 -5 5 -7 10 -4 6 3 10 8 10 11 0 2 -4 4 -10 4 -5 0 -10
-5 -10 -11z"/>
<path d="M2265 5090 c3 -5 11 -10 16 -10 6 0 7 5 4 10 -3 6 -11 10 -16 10 -6
0 -7 -4 -4 -10z"/>
<path d="M2345 5080 c28 -12 37 -12 30 0 -3 6 -16 10 -28 9 -21 0 -21 -1 -2
-9z"/>
<path d="M2458 5052 c20 -22 25 -21 16 2 -3 9 -12 16 -20 16 -11 0 -10 -4 4
-18z"/>
<path d="M2367 5036 c-17 -13 -17 -14 0 -20 10 -4 14 -4 10 0 -4 4 -2 13 4 21
14 17 9 16 -14 -1z"/>
<path d="M2405 5040 c3 -5 8 -10 11 -10 2 0 4 5 4 10 0 6 -5 10 -11 10 -5 0
-7 -4 -4 -10z"/>
<path d="M3072 4993 c2 -10 10 -18 18 -18 22 0 18 29 -3 33 -14 3 -18 -1 -15
-15z"/>
<path d="M3026 4982 c-2 -4 -1 -14 4 -21 11 -19 41 -6 34 14 -6 16 -29 20 -38
7z"/>
<path d="M2987 4963 c-8 -7 11 -33 24 -33 5 0 9 9 9 20 0 19 -20 27 -33 13z"/>
<path d="M3075 4950 c-9 -15 16 -43 27 -32 10 10 0 42 -12 42 -5 0 -12 -5 -15
-10z"/>
<path d="M2935 4940 c-4 -6 -14 -9 -23 -8 -23 4 -23 -36 1 -40 12 -2 17 3 17
18 0 19 2 21 15 10 18 -15 42 1 31 19 -9 14 -33 14 -41 1z"/>
<path d="M3030 4924 c0 -9 9 -18 20 -21 10 -3 22 -14 26 -25 6 -20 25 -20 32
0 2 7 -5 15 -15 19 -10 4 -24 15 -31 25 -16 22 -32 23 -32 2z"/>
<path d="M2986 4911 c-7 -10 22 -37 30 -28 9 8 -3 37 -15 37 -5 0 -12 -4 -15
-9z"/>
<path d="M2940 4881 c0 -21 26 -36 36 -20 9 15 -3 39 -21 39 -8 0 -15 -9 -15
-19z"/>
<path d="M2895 4870 c-4 -6 -1 -18 6 -26 10 -13 10 -17 -2 -24 -12 -8 -11 -12
3 -27 24 -23 49 -3 28 22 -9 11 -10 19 -2 27 6 6 8 17 5 24 -6 16 -29 18 -38
4z"/>
<path d="M3032 4863 c4 -21 33 -25 33 -3 0 8 -8 16 -18 18 -14 3 -18 -1 -15
-15z"/>
<path d="M2714 4849 c-8 -14 15 -39 31 -33 8 3 11 12 9 19 -7 18 -32 27 -40
14z"/>
<path d="M2853 4813 c1 -35 6 -48 17 -48 8 0 16 8 18 18 2 9 -2 17 -8 17 -10
0 -10 4 0 15 15 18 6 45 -14 45 -12 0 -15 -11 -13 -47z"/>
<path d="M2994 4844 c3 -9 6 -18 6 -21 0 -3 7 0 15 7 17 14 11 30 -12 30 -10
0 -13 -6 -9 -16z"/>
<path d="M2943 4834 c-7 -19 11 -39 26 -30 16 10 13 33 -4 40 -9 3 -18 -1 -22
-10z"/>
<path d="M3075 4841 c-8 -15 3 -31 21 -31 9 0 14 7 12 17 -4 20 -24 28 -33 14z"/>
<path d="M2680 4832 c0 -13 52 -72 64 -72 3 0 6 9 6 20 0 12 -7 20 -16 20 -9
0 -24 10 -35 23 -11 13 -18 17 -19 9z"/>
<path d="M3034 4819 c-8 -14 11 -33 25 -25 11 7 4 36 -9 36 -5 0 -12 -5 -16
-11z"/>
<path d="M2772 4804 c1 -9 9 -19 16 -22 9 -3 13 2 10 14 -1 9 -9 19 -16 22 -9
3 -13 -2 -10 -14z"/>
<path d="M2994 4799 c-8 -14 11 -33 25 -25 11 7 4 36 -9 36 -5 0 -12 -5 -16
-11z"/>
<path d="M2806 4781 c-9 -14 4 -41 19 -41 21 0 28 19 15 35 -14 17 -26 19 -34
6z"/>
<path d="M2945 4781 c-8 -15 3 -31 21 -31 9 0 14 7 12 17 -4 20 -24 28 -33 14z"/>
<path d="M3076 4781 c-7 -11 18 -33 27 -24 4 3 7 12 7 20 0 15 -26 18 -34 4z"/>
<path d="M2682 4769 c2 -7 10 -15 17 -17 8 -3 12 1 9 9 -2 7 -10 15 -17 17 -8
3 -12 -1 -9 -9z"/>
<path d="M2902 4753 c2 -10 10 -18 18 -18 22 0 18 29 -3 33 -14 3 -18 -1 -15
-15z"/>
<path d="M3030 4756 c0 -10 9 -16 21 -16 24 0 21 23 -4 28 -10 2 -17 -3 -17
-12z"/>
<path d="M2772 4749 c2 -7 10 -15 17 -17 8 -3 12 1 9 9 -2 7 -10 15 -17 17 -8
3 -12 -1 -9 -9z"/>
<path d="M2855 4741 c-8 -15 3 -31 21 -31 9 0 14 7 12 17 -4 20 -24 28 -33 14z"/>
<path d="M2992 4738 c3 -7 13 -15 22 -16 12 -3 17 1 14 10 -3 7 -13 15 -22 16
-12 3 -17 -1 -14 -10z"/>
<path d="M2725 4730 c3 -5 10 -10 16 -10 5 0 9 5 9 10 0 6 -7 10 -16 10 -8 0
-12 -4 -9 -10z"/>
<path d="M2945 4730 c-10 -16 16 -43 28 -31 11 11 2 41 -12 41 -5 0 -13 -5
-16 -10z"/>
<path d="M3082 4724 c1 -9 9 -19 16 -22 9 -3 13 2 10 14 -1 9 -9 19 -16 22 -9
3 -13 -2 -10 -14z"/>
<path d="M2816 4721 c-3 -5 1 -14 8 -20 16 -13 32 2 21 19 -8 12 -22 13 -29 1z"/>
<path d="M2903 4704 c-6 -17 15 -37 29 -28 13 9 9 32 -7 38 -9 3 -18 -1 -22
-10z"/>
<path d="M3036 4712 c-2 -4 -1 -14 4 -22 7 -11 12 -12 21 -3 6 6 8 16 5 22 -8
13 -23 14 -30 3z"/>
<path d="M2770 4701 c0 -5 7 -11 14 -14 10 -4 13 -1 9 9 -6 15 -23 19 -23 5z"/>
<path d="M2854 4686 c-7 -19 3 -36 22 -36 10 0 14 8 12 22 -4 26 -26 36 -34
14z"/>
<path d="M2994 4689 c-8 -14 18 -31 30 -19 9 9 0 30 -14 30 -5 0 -12 -5 -16
-11z"/>
<path d="M3085 4680 c-7 -12 2 -30 16 -30 12 0 12 27 0 35 -5 3 -12 1 -16 -5z"/>
<path d="M2945 4670 c-8 -14 3 -30 21 -30 8 0 14 9 14 20 0 21 -24 28 -35 10z"/>
<path d="M2670 4651 c0 -21 26 -36 36 -20 9 15 -3 39 -21 39 -8 0 -15 -9 -15
-19z"/>
<path d="M2820 4661 c0 -6 5 -13 10 -16 6 -3 10 1 10 9 0 9 -4 16 -10 16 -5 0
-10 -4 -10 -9z"/>
<path d="M2902 4644 c2 -11 11 -20 22 -22 13 -3 17 1 14 14 -2 11 -11 20 -22
22 -13 3 -17 -1 -14 -14z"/>
<path d="M3035 4650 c-3 -5 -15 -10 -26 -10 -24 0 -20 -23 4 -28 11 -2 17 3
17 13 0 14 3 15 13 6 15 -12 27 -5 27 16 0 15 -26 18 -35 3z"/>
<path d="M2860 4620 c0 -11 7 -20 15 -20 8 0 15 9 15 20 0 11 -7 20 -15 20 -8
0 -15 -9 -15 -20z"/>
<path d="M2950 4612 c0 -24 8 -32 26 -25 10 4 11 10 3 24 -12 24 -29 25 -29 1z"/>
<path d="M3080 4623 c0 -5 5 -15 10 -23 9 -13 11 -13 19 0 5 8 7 18 5 22 -6
10 -34 11 -34 1z"/>
<path d="M2820 4605 c0 -8 5 -15 10 -15 6 0 10 7 10 15 0 8 -4 15 -10 15 -5 0
-10 -7 -10 -15z"/>
<path d="M2672 4593 c5 -26 38 -29 38 -4 0 15 -6 21 -21 21 -14 0 -19 -5 -17
-17z"/>
<path d="M2904 4599 c-7 -12 15 -41 27 -33 14 8 11 31 -6 37 -8 4 -17 2 -21
-4z"/>
<path d="M3042 4593 c5 -25 28 -28 28 -4 0 12 -6 21 -16 21 -9 0 -14 -7 -12
-17z"/>
<path d="M2785 4580 c3 -5 8 -10 11 -10 2 0 4 5 4 10 0 6 -5 10 -11 10 -5 0
-7 -4 -4 -10z"/>
<path d="M2865 4580 c-4 -7 -1 -19 7 -27 14 -13 16 -13 21 0 7 20 -18 43 -28
27z"/>
<path d="M2995 4581 c-8 -15 3 -31 21 -31 9 0 14 7 12 17 -4 20 -24 28 -33 14z"/>
<path d="M2720 4561 c0 -15 6 -21 21 -21 14 0 19 5 17 17 -5 26 -38 29 -38 4z"/>
<path d="M3085 4570 c-8 -13 3 -30 21 -30 18 0 18 14 0 29 -10 8 -16 9 -21 1z"/>
<path d="M2952 4553 c4 -21 33 -25 33 -3 0 8 -8 16 -18 18 -14 3 -18 -1 -15
-15z"/>
<path d="M2673 4544 c-7 -18 17 -38 31 -24 11 11 1 40 -14 40 -6 0 -13 -7 -17
-16z"/>
<path d="M2820 4551 c0 -6 5 -13 10 -16 6 -3 10 1 10 9 0 9 -4 16 -10 16 -5 0
-10 -4 -10 -9z"/>
<path d="M3046 4553 c-12 -12 -6 -33 9 -33 8 0 15 6 15 14 0 17 -14 28 -24 19z"/>
<path d="M2906 4541 c-7 -10 22 -37 30 -28 9 8 -3 37 -15 37 -5 0 -12 -4 -15
-9z"/>
<path d="M2625 4530 c-4 -6 -1 -18 6 -26 9 -11 9 -18 1 -26 -15 -15 -4 -38 19
-38 22 0 25 20 7 38 -10 10 -10 15 1 22 12 7 12 11 2 24 -16 19 -27 20 -36 6z"/>
<path d="M2780 4531 c0 -5 5 -13 10 -16 6 -3 10 -2 10 4 0 5 -4 13 -10 16 -5
3 -10 2 -10 -4z"/>
<path d="M2995 4531 c-8 -15 3 -31 21 -31 9 0 14 7 12 17 -4 20 -24 28 -33 14z"/>
<path d="M2724 4516 c-9 -24 12 -44 28 -28 10 10 8 16 -5 29 -15 15 -17 15
-23 -1z"/>
<path d="M2872 4514 c3 -17 21 -21 26 -6 1 5 -4 12 -13 16 -11 4 -15 1 -13
-10z"/>
<path d="M2582 4498 c2 -12 10 -23 18 -23 22 0 19 39 -3 43 -15 3 -18 -1 -15
-20z"/>
<path d="M2954 4506 c-8 -21 16 -40 30 -26 7 7 4 16 -7 27 -15 15 -17 15 -23
-1z"/>
<path d="M3086 4511 c-3 -5 1 -14 8 -20 16 -13 32 2 21 19 -8 12 -22 13 -29 1z"/>
<path d="M2533 4484 c-7 -20 11 -38 32 -30 13 4 14 10 5 26 -13 24 -28 26 -37
4z"/>
<path d="M2672 4483 c5 -26 38 -29 38 -4 0 15 -6 21 -21 21 -14 0 -19 -5 -17
-17z"/>
<path d="M3042 4483 c5 -25 28 -28 28 -4 0 12 -6 21 -16 21 -9 0 -14 -7 -12
-17z"/>
<path d="M2907 4484 c-9 -10 2 -24 19 -24 8 0 14 7 14 15 0 15 -21 21 -33 9z"/>
<path d="M2997 4473 c-8 -7 11 -33 24 -33 5 0 9 9 9 20 0 19 -20 27 -33 13z"/>
<path d="M2725 4461 c-8 -15 3 -31 21 -31 9 0 14 7 12 17 -4 20 -24 28 -33 14z"/>
<path d="M2870 4456 c0 -9 7 -16 16 -16 17 0 14 22 -4 28 -7 2 -12 -3 -12 -12z"/>
<path d="M2580 4441 c0 -15 6 -21 21 -21 14 0 19 5 17 17 -5 26 -38 29 -38 4z"/>
<path d="M2952 4443 c4 -21 33 -25 33 -3 0 8 -8 16 -18 18 -14 3 -18 -1 -15
-15z"/>
<path d="M2675 4440 c-10 -16 16 -43 28 -31 11 11 2 41 -12 41 -5 0 -13 -5
-16 -10z"/>
<path d="M2830 4436 c0 -9 5 -16 10 -16 6 0 10 4 10 9 0 6 -4 13 -10 16 -5 3
-10 -1 -10 -9z"/>
<path d="M2530 4427 c0 -7 6 -19 12 -25 10 -10 10 -15 -1 -21 -17 -11 -7 -41
14 -41 9 0 18 6 21 14 3 8 13 12 25 9 14 -4 19 0 19 15 0 29 -21 39 -36 17 -8
-10 -17 -15 -21 -11 -4 4 -2 11 5 15 7 4 10 15 6 24 -7 20 -44 23 -44 4z"/>
<path d="M2904 4426 c-3 -9 -12 -16 -20 -16 -8 0 -14 -7 -14 -15 0 -8 7 -15
15 -15 8 0 15 7 15 16 0 11 6 14 21 9 16 -6 20 -3 17 11 -4 23 -26 30 -34 10z"/>
<path d="M3042 4428 c5 -15 28 -18 29 -3 0 6 -7 12 -17 13 -10 3 -15 -1 -12
-10z"/>
<path d="M2632 4417 c-10 -11 -9 -17 3 -27 24 -20 45 4 24 26 -14 13 -17 13
-27 1z"/>
<path d="M3007 4423 c-4 -3 -7 -12 -7 -20 0 -15 26 -18 34 -4 7 11 -18 33 -27
24z"/>
<path d="M2722 4394 c2 -11 11 -20 22 -22 13 -3 17 1 14 14 -2 11 -11 20 -22
22 -13 3 -17 -1 -14 -14z"/>
<path d="M2953 4394 c-6 -17 15 -37 29 -28 13 9 9 32 -7 38 -9 3 -18 -1 -22
-10z"/>
<path d="M2674 4379 c-9 -15 11 -33 30 -26 9 4 13 13 10 22 -7 17 -30 20 -40
4z"/>
<path d="M2822 4381 c2 -7 7 -12 11 -12 12 1 9 15 -3 20 -7 2 -11 -2 -8 -8z"/>
<path d="M3046 4382 c-2 -4 -1 -14 4 -21 10 -17 31 -5 23 14 -6 16 -19 20 -27
7z"/>
<path d="M2910 4366 c0 -10 9 -16 21 -16 24 0 21 23 -4 28 -10 2 -17 -3 -17
-12z"/>
<path d="M2630 4351 c0 -21 26 -36 36 -20 9 15 -3 39 -21 39 -8 0 -15 -9 -15
-19z"/>
<path d="M3002 4353 c4 -21 33 -25 33 -3 0 8 -8 16 -18 18 -14 3 -18 -1 -15
-15z"/>
<path d="M2725 4350 c-10 -16 16 -43 28 -31 11 11 2 41 -12 41 -5 0 -13 -5
-16 -10z"/>
<path d="M2872 4346 c1 -10 8 -17 13 -17 15 1 12 24 -3 29 -9 3 -13 -2 -10
-12z"/>
<path d="M2583 4334 c-7 -18 17 -38 31 -24 11 11 1 40 -14 40 -6 0 -13 -7 -17
-16z"/>
<path d="M2955 4341 c-8 -15 3 -31 21 -31 9 0 14 7 12 17 -4 20 -24 28 -33 14z"/>
<path d="M2826 4332 c-3 -6 -1 -14 5 -17 15 -10 25 3 12 16 -7 7 -13 7 -17 1z"/>
<path d="M2676 4321 c-9 -15 23 -36 36 -23 5 5 7 15 4 21 -9 13 -33 14 -40 2z"/>
<path d="M2914 4319 c-10 -17 13 -36 27 -22 12 12 4 33 -11 33 -5 0 -12 -5
-16 -11z"/>
<path d="M3050 4316 c0 -9 7 -16 16 -16 9 0 14 5 12 12 -6 18 -28 21 -28 4z"/>
<path d="M3004 4306 c-8 -21 16 -40 30 -26 7 7 4 16 -7 27 -15 15 -17 15 -23
-1z"/>
<path d="M2632 4294 c2 -11 11 -20 22 -22 13 -3 17 1 14 14 -2 11 -11 20 -22
22 -13 3 -17 -1 -14 -14z"/>
<path d="M2865 4301 c-8 -15 3 -31 21 -31 9 0 14 7 12 17 -4 20 -24 28 -33 14z"/>
<path d="M2725 4289 c-4 -6 -5 -13 -2 -16 7 -7 27 6 27 18 0 12 -17 12 -25 -2z"/>
<path d="M2582 4273 c5 -26 38 -29 38 -4 0 15 -6 21 -21 21 -14 0 -19 -5 -17
-17z"/>
<path d="M2956 4281 c-7 -11 18 -33 27 -24 4 3 7 12 7 20 0 15 -26 18 -34 4z"/>
<path d="M2680 4261 c0 -24 11 -32 28 -22 16 10 5 41 -14 41 -8 0 -14 -9 -14
-19z"/>
<path d="M3055 4270 c-7 -12 2 -30 16 -30 12 0 12 27 0 35 -5 3 -12 1 -16 -5z"/>
<path d="M2535 4260 c-4 -6 -1 -17 5 -25 10 -12 10 -18 0 -30 -13 -16 -6 -35
15 -35 21 0 28 19 14 36 -10 13 -10 17 1 24 7 4 10 15 7 24 -7 18 -32 21 -42
6z"/>
<path d="M2912 4253 c2 -10 10 -18 18 -18 22 0 18 29 -3 33 -14 3 -18 -1 -15
-15z"/>
<path d="M2633 4244 c-8 -21 13 -42 28 -27 13 13 5 43 -11 43 -6 0 -13 -7 -17
-16z"/>
<path d="M3005 4251 c-8 -15 3 -31 21 -31 9 0 14 7 12 17 -4 20 -24 28 -33 14z"/>
<path d="M2867 4244 c-9 -10 4 -34 19 -34 8 0 14 9 14 20 0 19 -19 27 -33 14z"/>
<path d="M2591 4230 c-17 -10 -7 -40 14 -40 8 0 15 9 15 19 0 24 -12 32 -29
21z"/>
<path d="M2960 4220 c0 -19 20 -27 33 -13 8 7 -11 33 -24 33 -5 0 -9 -9 -9
-20z"/>
<path d="M2830 4210 c0 -13 5 -20 13 -17 6 2 12 10 12 17 0 7 -6 15 -12 18 -8
2 -13 -5 -13 -18z"/>
<path d="M2680 4200 c0 -15 5 -20 18 -18 9 2 17 10 17 18 0 8 -8 16 -17 18
-13 2 -18 -3 -18 -18z"/>
<path d="M2915 4210 c-10 -16 16 -43 28 -31 11 11 2 41 -12 41 -5 0 -13 -5
-16 -10z"/>
<path d="M3052 4206 c1 -10 8 -17 13 -17 15 1 12 24 -3 29 -9 3 -13 -2 -10
-12z"/>
<path d="M2635 4191 c-8 -15 3 -31 21 -31 9 0 14 7 12 17 -4 20 -24 28 -33 14z"/>
<path d="M2780 4190 c0 -5 5 -10 10 -10 6 0 10 5 10 10 0 6 -4 10 -10 10 -5 0
-10 -4 -10 -10z"/>
<path d="M3000 4191 c0 -13 26 -32 33 -24 14 13 6 33 -13 33 -11 0 -20 -4 -20
-9z"/>
<path d="M2490 4171 c0 -15 6 -21 21 -21 14 0 19 5 17 17 -5 26 -38 29 -38 4z"/>
<path d="M2860 4181 c0 -13 26 -32 33 -24 14 13 6 33 -13 33 -11 0 -20 -4 -20
-9z"/>
<path d="M2585 4170 c-4 -6 -1 -17 5 -26 10 -11 16 -12 26 -3 11 9 11 15 3 25
-14 17 -25 18 -34 4z"/>
<path d="M2740 4165 c0 -8 5 -15 10 -15 6 0 10 7 10 15 0 8 -4 15 -10 15 -5 0
-10 -7 -10 -15z"/>
<path d="M2962 4163 c4 -21 33 -25 33 -3 0 8 -8 16 -18 18 -14 3 -18 -1 -15
-15z"/>
<path d="M2440 4151 c0 -11 5 -23 11 -27 8 -5 7 -9 -1 -14 -7 -4 -10 -16 -6
-25 7 -20 43 -15 37 6 -2 8 -4 27 -5 44 -1 35 -36 51 -36 16z"/>
<path d="M2822 4153 c4 -21 33 -25 33 -3 0 8 -8 16 -18 18 -14 3 -18 -1 -15
-15z"/>
<path d="M3052 4154 c1 -9 9 -19 16 -22 9 -3 13 2 10 14 -1 9 -9 19 -16 22 -9
3 -13 -2 -10 -14z"/>
<path d="M2537 4146 c-8 -20 20 -43 35 -28 8 8 8 15 -2 27 -16 19 -26 19 -33
1z"/>
<path d="M2680 4151 c0 -5 7 -11 14 -14 10 -4 13 -1 9 9 -6 15 -23 19 -23 5z"/>
<path d="M2915 4151 c-8 -15 3 -31 21 -31 9 0 14 7 12 17 -4 20 -24 28 -33 14z"/>
<path d="M2780 4131 c0 -12 6 -21 16 -21 9 0 14 7 12 17 -5 25 -28 28 -28 4z"/>
<path d="M3005 4141 c-8 -15 3 -31 21 -31 9 0 14 7 12 17 -4 20 -24 28 -33 14z"/>
<path d="M2494 4125 c-3 -8 -3 -19 1 -25 11 -17 35 -11 35 9 0 23 -29 36 -36
16z"/>
<path d="M2632 4123 c2 -10 10 -18 18 -18 8 0 16 8 18 18 2 12 -3 17 -18 17
-15 0 -20 -5 -18 -17z"/>
<path d="M2870 4120 c0 -19 20 -27 33 -13 8 7 -11 33 -24 33 -5 0 -9 -9 -9
-20z"/>
<path d="M2737 4123 c-3 -5 1 -14 9 -21 12 -10 14 -10 14 2 0 17 -16 30 -23
19z"/>
<path d="M2964 4116 c-8 -21 16 -40 30 -26 7 7 4 16 -7 27 -15 15 -17 15 -23
-1z"/>
<path d="M2584 4109 c-9 -15 11 -33 30 -26 9 4 13 13 10 22 -7 17 -30 20 -40
4z"/>
<path d="M2823 4104 c-7 -18 17 -38 31 -24 11 11 1 40 -14 40 -6 0 -13 -7 -17
-16z"/>
<path d="M3050 4101 c0 -5 7 -14 15 -21 13 -10 15 -9 15 9 0 12 -6 21 -15 21
-8 0 -15 -4 -15 -9z"/>
<path d="M2542 4078 c2 -12 10 -23 18 -23 22 0 19 39 -3 43 -15 3 -18 -1 -15
-20z"/>
<path d="M2695 4090 c3 -5 11 -10 16 -10 6 0 7 5 4 10 -3 6 -11 10 -16 10 -6
0 -7 -4 -4 -10z"/>
<path d="M2781 4087 c-9 -11 -8 -17 4 -27 12 -10 16 -9 21 5 9 23 -10 40 -25
22z"/>
<path d="M2910 4091 c0 -13 26 -32 33 -24 14 13 6 33 -13 33 -11 0 -20 -4 -20
-9z"/>
<path d="M2394 4079 c-10 -17 23 -46 37 -32 7 7 9 19 6 27 -7 18 -33 21 -43 5z"/>
<path d="M3010 4071 c0 -12 6 -21 16 -21 9 0 14 7 12 17 -5 25 -28 28 -28 4z"/>
<path d="M2494 4066 c-7 -19 3 -36 22 -36 10 0 14 8 12 22 -4 26 -26 36 -34
14z"/>
<path d="M2872 4063 c2 -10 10 -18 18 -18 22 0 18 29 -3 33 -14 3 -18 -1 -15
-15z"/>
<path d="M2597 4063 c-4 -3 -7 -11 -7 -17 0 -6 5 -5 12 2 6 6 9 14 7 17 -3 3
-9 2 -12 -2z"/>
<path d="M2655 4060 c-3 -5 -1 -10 4 -10 6 0 11 5 11 10 0 6 -2 10 -4 10 -3 0
-8 -4 -11 -10z"/>
<path d="M2732 4053 c2 -10 10 -18 18 -18 22 0 18 29 -3 33 -14 3 -18 -1 -15
-15z"/>
<path d="M2962 4054 c2 -11 11 -20 22 -22 13 -3 17 1 14 14 -2 11 -11 20 -22
22 -13 3 -17 -1 -14 -14z"/>
<path d="M2444 4045 c-7 -18 3 -35 21 -35 21 0 28 19 15 35 -16 19 -29 19 -36
0z"/>
<path d="M2825 4051 c-8 -15 3 -31 21 -31 9 0 14 7 12 17 -4 20 -24 28 -33 14z"/>
<path d="M3055 4050 c-10 -17 12 -37 25 -24 8 8 6 15 -4 23 -10 9 -16 9 -21 1z"/>
<path d="M2690 4031 c0 -12 6 -21 16 -21 9 0 14 7 12 17 -5 25 -28 28 -28 4z"/>
<path d="M2915 4041 c-8 -15 3 -31 21 -31 9 0 14 7 12 17 -4 20 -24 28 -33 14z"/>
<path d="M2537 4026 c-4 -9 -14 -12 -26 -9 -15 4 -21 1 -21 -11 0 -9 8 -16 20
-16 11 0 20 5 20 10 0 6 12 10 26 10 16 0 24 5 22 13 -7 18 -35 20 -41 3z"/>
<path d="M2778 4034 c-11 -10 3 -34 19 -34 8 0 13 7 11 17 -3 18 -20 27 -30
17z"/>
<path d="M2395 4020 c-4 -6 -2 -17 4 -24 7 -9 7 -16 -1 -24 -9 -9 -8 -16 5
-30 15 -15 19 -15 27 -2 5 9 5 19 -2 28 -9 10 -8 16 2 22 7 4 10 15 7 24 -7
18 -32 21 -42 6z"/>
<path d="M3012 4014 c4 -21 22 -23 26 -1 2 10 -3 17 -13 17 -10 0 -15 -6 -13
-16z"/>
<path d="M2644 4004 c3 -9 6 -18 6 -21 0 -3 7 0 15 7 17 14 11 30 -12 30 -10
0 -13 -6 -9 -16z"/>
<path d="M2737 4013 c-14 -13 -6 -33 13 -33 22 0 23 1 14 24 -7 17 -16 20 -27
9z"/>
<path d="M2872 4003 c4 -21 33 -25 33 -3 0 8 -8 16 -18 18 -14 3 -18 -1 -15
-15z"/>
<path d="M2345 4000 c-3 -5 0 -19 8 -30 12 -18 16 -19 27 -5 7 8 10 22 6 30
-6 17 -32 20 -41 5z"/>
<path d="M2964 3999 c-10 -17 13 -36 27 -22 12 12 4 33 -11 33 -5 0 -12 -5
-16 -11z"/>
<path d="M2447 3994 c-14 -15 -6 -34 14 -34 14 0 19 5 17 17 -3 18 -20 27 -31
17z"/>
<path d="M2590 3991 c0 -12 26 -32 33 -25 9 10 -4 34 -19 34 -8 0 -14 -4 -14
-9z"/>
<path d="M2824 3984 c3 -9 6 -18 6 -20 0 -2 7 -4 15 -4 8 0 15 9 15 20 0 14
-7 20 -21 20 -15 0 -19 -4 -15 -16z"/>
<path d="M3056 3991 c-3 -5 1 -14 8 -20 16 -13 32 2 21 19 -8 12 -22 13 -29 1z"/>
<path d="M1996 3977 c3 -10 9 -15 12 -12 3 3 0 11 -7 18 -10 9 -11 8 -5 -6z"/>
<path d="M2682 3973 c5 -26 38 -29 38 -4 0 15 -6 21 -21 21 -14 0 -19 -5 -17
-17z"/>
<path d="M2920 3970 c0 -11 6 -20 13 -20 19 0 27 10 20 26 -8 21 -33 17 -33
-6z"/>
<path d="M2552 3969 c2 -7 10 -15 17 -17 8 -3 12 1 9 9 -2 7 -10 15 -17 17 -8
3 -12 -1 -9 -9z"/>
<path d="M2780 3966 c0 -18 16 -29 30 -21 13 8 1 35 -16 35 -8 0 -14 -6 -14
-14z"/>
<path d="M3010 3961 c0 -12 6 -21 16 -21 9 0 14 7 12 17 -5 25 -28 28 -28 4z"/>
<path d="M2636 3962 c-2 -4 -1 -14 4 -21 11 -19 41 -6 34 14 -6 16 -29 20 -38
7z"/>
<path d="M2875 3961 c-8 -15 3 -31 21 -31 9 0 14 7 12 17 -4 20 -24 28 -33 14z"/>
<path d="M2130 3950 c0 -5 5 -10 11 -10 5 0 7 5 4 10 -3 6 -8 10 -11 10 -2 0
-4 -4 -4 -10z"/>
<path d="M2495 3950 c-3 -5 3 -10 15 -10 12 0 18 5 15 10 -3 6 -10 10 -15 10
-5 0 -12 -4 -15 -10z"/>
<path d="M2965 3950 c-10 -16 16 -43 28 -31 11 11 2 41 -12 41 -5 0 -13 -5
-16 -10z"/>
<path d="M2592 3928 c2 -12 10 -23 18 -23 22 0 19 39 -3 43 -15 3 -18 -1 -15
-20z"/>
<path d="M2730 3941 c0 -11 26 -22 34 -14 12 12 5 23 -14 23 -11 0 -20 -4 -20
-9z"/>
<path d="M2830 3940 c-13 -8 -13 -11 2 -26 16 -17 18 -17 24 0 9 23 -7 38 -26
26z"/>
<path d="M2370 3930 c0 -5 5 -10 10 -10 6 0 10 5 10 10 0 6 -4 10 -10 10 -5 0
-10 -4 -10 -10z"/>
<path d="M2450 3930 c0 -5 7 -10 15 -10 8 0 15 5 15 10 0 6 -7 10 -15 10 -8 0
-15 -4 -15 -10z"/>
<path d="M2690 3930 c-13 -8 -13 -11 2 -26 16 -17 18 -17 24 0 9 23 -7 38 -26
26z"/>
<path d="M3062 3926 c1 -10 8 -17 13 -17 15 1 12 24 -3 29 -9 3 -13 -2 -10
-12z"/>
<path d="M2542 3908 c2 -12 10 -23 18 -23 22 0 19 39 -3 43 -15 3 -18 -1 -15
-20z"/>
<path d="M2920 3916 c0 -21 21 -31 30 -15 5 7 6 17 4 21 -9 14 -34 9 -34 -6z"/>
<path d="M2641 3906 c-14 -17 -7 -36 14 -36 22 0 29 20 13 36 -13 13 -16 13
-27 0z"/>
<path d="M2782 3903 c2 -10 10 -18 18 -18 22 0 18 29 -3 33 -14 3 -18 -1 -15
-15z"/>
<path d="M3012 3903 c5 -25 28 -28 28 -4 0 12 -6 21 -16 21 -9 0 -14 -7 -12
-17z"/>
<path d="M2408 3903 c7 -3 16 -2 19 1 4 3 -2 6 -13 5 -11 0 -14 -3 -6 -6z"/>
<path d="M2875 3901 c-8 -15 3 -31 21 -31 9 0 14 7 12 17 -4 20 -24 28 -33 14z"/>
<path d="M2490 3886 c0 -8 5 -18 10 -21 8 -5 7 -11 0 -20 -15 -18 -4 -35 21
-35 22 0 24 11 7 28 -9 9 -9 15 -1 23 6 6 9 18 6 25 -7 19 -43 18 -43 0z"/>
<path d="M2737 3894 c-13 -13 -7 -24 14 -24 11 0 19 5 17 12 -5 14 -22 21 -31
12z"/>
<path d="M2965 3891 c-8 -15 3 -31 21 -31 9 0 14 7 12 17 -4 20 -24 28 -33 14z"/>
<path d="M2410 3880 c0 -5 5 -10 10 -10 6 0 10 5 10 10 0 6 -4 10 -10 10 -5 0
-10 -4 -10 -10z"/>
<path d="M2590 3871 c0 -21 26 -36 36 -20 9 15 -3 39 -21 39 -8 0 -15 -9 -15
-19z"/>
<path d="M2825 3881 c-8 -15 3 -31 21 -31 9 0 14 7 12 17 -4 20 -24 28 -33 14z"/>
<path d="M3060 3871 c0 -12 6 -21 16 -21 9 0 14 7 12 17 -5 25 -28 28 -28 4z"/>
<path d="M2375 3870 c3 -5 8 -10 11 -10 2 0 4 5 4 10 0 6 -5 10 -11 10 -5 0
-7 -4 -4 -10z"/>
<path d="M2444 3869 c-9 -15 11 -33 30 -26 9 4 13 13 10 22 -7 17 -30 20 -40
4z"/>
<path d="M2684 3869 c-9 -16 12 -33 31 -25 14 5 15 9 5 21 -15 18 -26 19 -36
4z"/>
<path d="M2927 3874 c-14 -15 -6 -34 14 -34 14 0 19 5 17 17 -3 18 -20 27 -31
17z"/>
<path d="M2540 3851 c0 -21 26 -36 36 -20 9 15 -3 39 -21 39 -8 0 -15 -9 -15
-19z"/>
<path d="M2637 3846 c-7 -17 18 -40 33 -31 15 9 12 32 -6 39 -21 8 -21 8 -27
-8z"/>
<path d="M2782 3848 c3 -7 13 -15 22 -16 12 -3 17 1 14 10 -3 7 -13 15 -22 16
-12 3 -17 -1 -14 -10z"/>
<path d="M2880 3850 c-13 -8 -13 -11 2 -26 16 -17 18 -17 24 0 9 23 -7 38 -26
26z"/>
<path d="M3010 3851 c0 -5 7 -14 15 -21 13 -10 15 -9 15 9 0 12 -6 21 -15 21
-8 0 -15 -4 -15 -9z"/>
<path d="M2735 3830 c-3 -6 1 -13 10 -16 19 -8 30 0 20 15 -8 14 -22 14 -30 1z"/>
<path d="M2967 3833 c-8 -7 11 -33 24 -33 5 0 9 9 9 20 0 19 -20 27 -33 13z"/>
<path d="M2592 3813 c2 -10 10 -18 18 -18 8 0 16 8 18 18 2 12 -3 17 -18 17
-15 0 -20 -5 -18 -17z"/>
<path d="M2827 3823 c-8 -7 11 -33 24 -33 5 0 9 9 9 20 0 19 -20 27 -33 13z"/>
<path d="M3062 3814 c1 -9 9 -19 16 -22 9 -3 13 2 10 14 -1 9 -9 19 -16 22 -9
3 -13 -2 -10 -14z"/>
<path d="M2685 3810 c-4 -7 -3 -16 3 -22 14 -14 45 -2 40 15 -6 16 -34 21 -43
7z"/>
<path d="M2922 3804 c2 -11 11 -20 22 -22 13 -3 17 1 14 14 -2 11 -11 20 -22
22 -13 3 -17 -1 -14 -14z"/>
<path d="M2550 3802 c0 -5 7 -16 16 -23 14 -12 16 -11 13 5 -4 20 -29 35 -29
18z"/>
<path d="M2788 3804 c-11 -10 3 -34 19 -34 8 0 13 7 11 17 -3 18 -20 27 -30
17z"/>
<path d="M3015 3800 c-7 -12 2 -30 16 -30 12 0 12 27 0 35 -5 3 -12 1 -16 -5z"/>
<path d="M2642 3778 c2 -12 10 -23 18 -23 22 0 19 39 -3 43 -15 3 -18 -1 -15
-20z"/>
<path d="M2875 3790 c-10 -16 16 -43 28 -31 11 11 2 41 -12 41 -5 0 -13 -5
-16 -10z"/>
<path d="M2736 3775 c-5 -15 17 -39 27 -28 12 11 8 31 -7 36 -8 3 -17 0 -20
-8z"/>
<path d="M2974 3775 c-9 -23 10 -40 25 -22 9 11 8 17 -4 27 -12 10 -16 9 -21
-5z"/>
<path d="M2598 3774 c-11 -10 3 -34 19 -34 8 0 13 7 11 17 -3 18 -20 27 -30
17z"/>
<path d="M2834 3766 c-9 -24 12 -44 28 -28 10 10 8 16 -5 29 -15 15 -17 15
-23 -1z"/>
<path d="M3060 3756 c0 -8 7 -16 15 -20 10 -4 15 1 15 14 0 11 -7 20 -15 20
-8 0 -15 -6 -15 -14z"/>
<path d="M2690 3740 c0 -15 5 -20 18 -18 9 2 17 10 17 18 0 8 -8 16 -17 18
-13 2 -18 -3 -18 -18z"/>
<path d="M2920 3753 c0 -5 5 -15 10 -23 7 -11 12 -12 21 -3 6 6 8 16 5 22 -8
12 -36 15 -36 4z"/>
<path d="M2785 3741 c-8 -15 3 -31 21 -31 9 0 14 7 12 17 -4 20 -24 28 -33 14z"/>
<path d="M3017 3744 c-9 -10 4 -34 19 -34 16 0 16 2 8 24 -6 17 -16 20 -27 10z"/>
<path d="M2640 3721 c0 -15 6 -21 21 -21 25 0 22 33 -4 38 -12 2 -17 -3 -17
-17z"/>
<path d="M2876 3732 c-2 -4 -1 -14 4 -21 11 -19 41 -6 34 14 -6 16 -29 20 -38
7z"/>
<path d="M2735 3720 c-4 -6 -1 -17 5 -26 10 -11 16 -12 26 -3 11 9 11 15 3 25
-14 17 -25 18 -34 4z"/>
<path d="M2977 3724 c-14 -14 -7 -35 11 -32 9 2 17 10 17 17 0 16 -18 25 -28
15z"/>
<path d="M2602 3699 c1 -13 8 -23 13 -21 15 3 12 35 -3 40 -9 3 -13 -3 -10
-19z"/>
<path d="M2833 3704 c-7 -18 17 -38 31 -24 11 11 1 40 -14 40 -6 0 -13 -7 -17
-16z"/>
<path d="M3065 3710 c-7 -12 2 -30 16 -30 12 0 12 27 0 35 -5 3 -12 1 -16 -5z"/>
<path d="M2694 3696 c-9 -24 12 -44 28 -28 10 10 8 16 -5 29 -15 15 -17 15
-23 -1z"/>
<path d="M2925 3700 c-10 -16 16 -43 28 -31 11 11 2 41 -12 41 -5 0 -13 -5
-16 -10z"/>
<path d="M2447 3694 c-3 -3 -3 -12 0 -20 6 -16 43 -19 43 -4 0 12 -35 31 -43
24z"/>
<path d="M2784 3674 c3 -9 6 -18 6 -20 0 -2 7 -4 15 -4 8 0 15 9 15 20 0 14
-7 20 -21 20 -15 0 -19 -4 -15 -16z"/>
<path d="M2887 3684 c-4 -4 -7 -16 -7 -26 0 -20 25 -25 36 -7 8 13 -19 43 -29
33z"/>
<path d="M3022 3676 c1 -10 8 -17 13 -17 15 1 12 24 -3 29 -9 3 -13 -2 -10
-12z"/>
<path d="M2642 3663 c4 -21 33 -25 33 -3 0 8 -8 16 -18 18 -14 3 -18 -1 -15
-15z"/>
<path d="M2734 3659 c-9 -15 11 -33 30 -26 9 4 13 13 10 22 -7 17 -30 20 -40
4z"/>
<path d="M2972 3653 c4 -21 33 -25 33 -3 0 8 -8 16 -18 18 -14 3 -18 -1 -15
-15z"/>
<path d="M2490 3651 c0 -12 29 -35 36 -28 11 10 -5 37 -21 37 -8 0 -15 -4 -15
-9z"/>
<path d="M2597 3646 c-7 -16 1 -26 20 -26 7 0 13 9 13 20 0 23 -25 27 -33 6z"/>
<path d="M2832 3644 c2 -11 11 -20 22 -22 13 -3 17 1 14 14 -2 11 -11 20 -22
22 -13 3 -17 -1 -14 -14z"/>
<path d="M3066 3652 c-2 -4 -1 -14 4 -21 10 -17 31 -5 23 14 -6 16 -19 20 -27
7z"/>
<path d="M2447 3636 c-8 -20 20 -43 35 -28 14 14 3 42 -16 42 -7 0 -16 -6 -19
-14z"/>
<path d="M2695 3640 c-10 -17 12 -37 25 -24 8 8 6 15 -4 23 -10 9 -16 9 -21 1z"/>
<path d="M2925 3641 c-8 -15 3 -31 21 -31 9 0 14 7 12 17 -4 20 -24 28 -33 14z"/>
<path d="M2785 3630 c-7 -12 12 -40 27 -40 13 0 6 43 -9 47 -6 2 -14 -1 -18
-7z"/>
<path d="M2545 3620 c-4 -7 -3 -16 3 -22 14 -14 45 -2 40 15 -6 16 -34 21 -43
7z"/>
<path d="M2884 3616 c-9 -24 12 -44 28 -28 10 10 8 16 -5 29 -15 15 -17 15
-23 -1z"/>
<path d="M3020 3615 c0 -8 7 -15 15 -15 8 0 15 7 15 15 0 8 -7 15 -15 15 -8 0
-15 -7 -15 -15z"/>
<path d="M2650 3616 c0 -2 7 -7 16 -10 8 -3 12 -2 9 4 -6 10 -25 14 -25 6z"/>
<path d="M2497 3603 c-3 -5 -2 -15 3 -22 10 -17 43 -6 38 12 -6 15 -34 22 -41
10z"/>
<path d="M2742 3593 c5 -25 28 -28 28 -4 0 12 -6 21 -16 21 -9 0 -14 -7 -12
-17z"/>
<path d="M2972 3593 c2 -10 10 -18 18 -18 8 0 16 8 18 18 2 12 -3 17 -18 17
-15 0 -20 -5 -18 -17z"/>
<path d="M2595 3590 c-4 -6 -1 -17 5 -26 15 -18 42 0 33 22 -6 16 -29 19 -38
4z"/>
<path d="M2832 3584 c2 -11 11 -20 22 -22 13 -3 17 1 14 14 -2 11 -11 20 -22
22 -13 3 -17 -1 -14 -14z"/>
<path d="M3072 3586 c1 -10 8 -17 13 -17 15 1 12 24 -3 29 -9 3 -13 -2 -10
-12z"/>
<path d="M2452 3568 c2 -12 10 -23 18 -23 22 0 19 39 -3 43 -15 3 -18 -1 -15
-20z"/>
<path d="M2927 3583 c-3 -5 -2 -15 3 -22 10 -17 43 -6 38 12 -6 15 -34 22 -41
10z"/>
<path d="M2544 3569 c-10 -16 23 -46 36 -33 6 6 8 18 4 27 -7 19 -29 22 -40 6z"/>
<path d="M2790 3560 c0 -19 20 -27 33 -13 8 7 -11 33 -24 33 -5 0 -9 -9 -9
-20z"/>
<path d="M3022 3564 c1 -9 9 -19 16 -22 9 -3 13 2 10 14 -1 9 -9 19 -16 22 -9
3 -13 -2 -10 -14z"/>
<path d="M2883 3554 c-7 -18 17 -38 31 -24 11 11 1 40 -14 40 -6 0 -13 -7 -17
-16z"/>
<path d="M2500 3546 c-15 -19 -5 -36 21 -36 22 0 25 22 5 39 -10 9 -16 8 -26
-3z"/>
<path d="M2975 3550 c-10 -16 16 -43 28 -31 11 11 2 41 -12 41 -5 0 -13 -5
-16 -10z"/>
<path d="M2640 3542 c0 -6 -8 -8 -19 -5 -25 6 -37 -15 -19 -33 12 -12 17 -11
36 10 12 14 17 28 12 31 -6 4 -10 2 -10 -3z"/>
<path d="M2746 3541 c-3 -5 1 -14 8 -20 16 -13 32 2 21 19 -8 12 -22 13 -29 1z"/>
<path d="M2832 3523 c5 -26 38 -29 38 -4 0 15 -6 21 -21 21 -14 0 -19 -5 -17
-17z"/>
<path d="M3072 3524 c1 -9 9 -19 16 -22 9 -3 13 2 10 14 -1 9 -9 19 -16 22 -9
3 -13 -2 -10 -14z"/>
<path d="M2452 3508 c2 -12 10 -23 18 -23 22 0 19 39 -3 43 -15 3 -18 -1 -15
-20z"/>
<path d="M2932 3513 c2 -10 10 -18 18 -18 22 0 18 29 -3 33 -14 3 -18 -1 -15
-15z"/>
<path d="M2544 3506 c-4 -9 -14 -15 -23 -14 -10 2 -17 -5 -19 -19 -3 -18 2
-23 17 -23 12 0 21 6 21 15 0 9 8 14 23 12 16 -1 22 3 22 18 0 24 -33 33 -41
11z"/>
<path d="M2795 3510 c-4 -6 -3 -16 3 -22 6 -6 12 -6 17 2 4 6 3 16 -3 22 -6 6
-12 6 -17 -2z"/>
<path d="M3020 3506 c0 -18 16 -29 30 -21 13 8 1 35 -16 35 -8 0 -14 -6 -14
-14z"/>
<path d="M2644 3495 c-7 -18 3 -35 21 -35 18 0 26 25 12 39 -15 15 -27 14 -33
-4z"/>
<path d="M2885 3501 c-8 -15 3 -31 21 -31 9 0 14 7 12 17 -4 20 -24 28 -33 14z"/>
<path d="M2982 3479 c1 -13 8 -23 13 -21 15 3 12 35 -3 40 -9 3 -13 -3 -10
-19z"/>
<path d="M2752 3481 c4 -13 18 -16 19 -4 0 4 -5 9 -11 12 -7 2 -11 -2 -8 -8z"/>
<path d="M2845 3480 c-8 -13 3 -30 21 -30 18 0 18 14 0 29 -10 8 -16 9 -21 1z"/>
<path d="M3076 3483 c-12 -12 -6 -33 9 -33 8 0 15 6 15 14 0 17 -14 28 -24 19z"/>
<path d="M2592 3463 c4 -22 43 -25 43 -3 0 8 -11 16 -23 18 -19 3 -23 0 -20
-15z"/>
<path d="M2934 3466 c-9 -24 12 -44 28 -28 10 10 8 16 -5 29 -15 15 -17 15
-23 -1z"/>
<path d="M2544 3449 c-10 -17 23 -46 37 -32 7 7 9 19 6 27 -7 18 -33 21 -43 5z"/>
<path d="M2690 3445 c0 -8 7 -15 15 -15 9 0 12 6 9 15 -4 8 -10 15 -15 15 -5
0 -9 -7 -9 -15z"/>
<path d="M3020 3453 c0 -5 5 -15 10 -23 7 -11 12 -12 21 -3 6 6 8 16 5 22 -8
12 -36 15 -36 4z"/>
<path d="M2644 3435 c-4 -10 -1 -21 7 -26 23 -14 31 -10 27 13 -4 27 -26 35
-34 13z"/>
<path d="M2885 3441 c-8 -15 3 -31 21 -31 9 0 14 7 12 17 -4 20 -24 28 -33 14z"/>
<path d="M2980 3420 c0 -11 6 -20 13 -20 19 0 27 10 20 26 -8 21 -33 17 -33
-6z"/>
<path d="M2601 3416 c-14 -17 -7 -36 14 -36 22 0 29 20 13 36 -13 13 -16 13
-27 0z"/>
<path d="M3075 3420 c-7 -12 2 -30 16 -30 12 0 12 27 0 35 -5 3 -12 1 -16 -5z"/>
<path d="M2933 3404 c-7 -18 17 -38 31 -24 11 11 1 40 -14 40 -6 0 -13 -7 -17
-16z"/>
<path d="M2692 3393 c4 -22 43 -25 43 -3 0 8 -11 16 -23 18 -19 3 -23 0 -20
-15z"/>
<path d="M3027 3396 c-7 -17 18 -42 27 -27 7 11 -3 41 -14 41 -4 0 -10 -6 -13
-14z"/>
<path d="M2544 3389 c-10 -17 23 -46 37 -32 7 7 9 19 6 27 -7 18 -33 21 -43 5z"/>
<path d="M2644 3379 c-10 -17 23 -46 37 -32 7 7 9 19 6 27 -7 18 -33 21 -43 5z"/>
<path d="M2892 3373 c5 -25 28 -28 28 -4 0 12 -6 21 -16 21 -9 0 -14 -7 -12
-17z"/>
<path d="M2980 3360 c0 -15 5 -20 18 -18 9 2 17 10 17 18 0 8 -8 16 -17 18
-13 2 -18 -3 -18 -18z"/>
<path d="M2850 3362 c0 -12 19 -26 26 -19 2 2 -2 10 -11 17 -9 8 -15 8 -15 2z"/>
<path d="M3072 3353 c2 -10 10 -18 18 -18 22 0 18 29 -3 33 -14 3 -18 -1 -15
-15z"/>
<path d="M2693 3344 c-7 -20 11 -38 32 -30 13 4 14 10 5 26 -13 24 -28 26 -37
4z"/>
<path d="M2740 3350 c0 -5 5 -10 11 -10 5 0 7 5 4 10 -3 6 -8 10 -11 10 -2 0
-4 -4 -4 -10z"/>
<path d="M2933 3344 c-7 -18 17 -38 31 -24 11 11 1 40 -14 40 -6 0 -13 -7 -17
-16z"/>
<path d="M3027 3344 c-3 -4 -2 -16 4 -26 13 -24 35 -9 26 16 -7 17 -19 21 -30
10z"/>
<path d="M2644 3319 c-10 -17 23 -46 37 -32 7 7 9 19 6 27 -7 18 -33 21 -43 5z"/>
<path d="M2890 3321 c0 -10 30 -24 37 -17 3 3 2 9 -2 15 -8 13 -35 15 -35 2z"/>
<path d="M2984 3316 c-9 -24 12 -44 28 -28 10 10 8 16 -5 29 -15 15 -17 15
-23 -1z"/>
<path d="M2745 3310 c-4 -6 -1 -17 5 -26 10 -11 16 -12 26 -3 11 9 11 15 3 25
-14 17 -25 18 -34 4z"/>
<path d="M3074 3295 c3 -9 6 -19 6 -21 0 -2 7 -4 16 -4 22 0 13 34 -10 38 -14
3 -17 0 -12 -13z"/>
<path d="M2701 3291 c-17 -11 -7 -41 13 -41 22 0 30 20 15 36 -9 8 -19 10 -28
5z"/>
<path d="M2856 3285 c4 -8 10 -12 15 -9 11 6 2 24 -11 24 -5 0 -7 -7 -4 -15z"/>
<path d="M2935 3291 c-8 -15 3 -31 21 -31 9 0 14 7 12 17 -4 20 -24 28 -33 14z"/>
<path d="M3030 3271 c0 -12 6 -21 16 -21 9 0 14 7 12 17 -5 25 -28 28 -28 4z"/>
<path d="M2790 3265 c0 -8 4 -15 9 -15 5 0 11 7 15 15 3 9 0 15 -9 15 -8 0
-15 -7 -15 -15z"/>
<path d="M2644 3259 c-10 -17 23 -46 37 -32 7 7 9 19 6 27 -7 18 -33 21 -43 5z"/>
<path d="M2903 3255 c0 -8 4 -15 9 -15 4 0 8 7 8 15 0 8 -4 15 -8 15 -5 0 -9
-7 -9 -15z"/>
<path d="M2983 3254 c-7 -19 11 -39 26 -30 16 10 13 33 -4 40 -9 3 -18 -1 -22
-10z"/>
<path d="M2745 3250 c-4 -6 -1 -17 5 -25 10 -12 10 -18 0 -30 -15 -18 -5 -35
20 -35 10 0 20 -6 23 -12 2 -7 8 -9 13 -5 5 4 4 11 -1 15 -21 15 -37 54 -27
64 6 6 8 17 5 24 -6 16 -29 18 -38 4z"/>
<path d="M2850 3246 c0 -2 7 -7 16 -10 8 -3 12 -2 9 4 -6 10 -25 14 -25 6z"/>
<path d="M2696 3231 c-9 -14 5 -41 20 -41 20 0 30 30 13 41 -18 11 -26 11 -33
0z"/>
<path d="M2935 3230 c-8 -14 3 -30 21 -30 8 0 14 9 14 20 0 21 -24 28 -35 10z"/>
<path d="M3030 3210 c0 -11 6 -20 13 -20 19 0 27 10 20 26 -8 21 -33 17 -33
-6z"/>
<path d="M2790 3205 c0 -8 4 -15 9 -15 5 0 11 7 15 15 3 9 0 15 -9 15 -8 0
-15 -7 -15 -15z"/>
<path d="M2890 3205 c0 -2 6 -8 13 -14 10 -8 14 -7 14 2 0 8 -6 14 -14 14 -7
0 -13 -1 -13 -2z"/>
<path d="M2983 3194 c-7 -18 17 -38 31 -24 11 11 1 40 -14 40 -6 0 -13 -7 -17
-16z"/>
<path d="M2696 3171 c-10 -16 5 -42 23 -39 21 4 21 42 -1 46 -9 2 -19 -1 -22
-7z"/>
<path d="M2935 3170 c-4 -7 -3 -16 3 -22 14 -14 45 -2 40 15 -6 16 -34 21 -43
7z"/>
<path d="M3030 3156 c0 -8 5 -18 10 -21 8 -5 7 -11 -1 -21 -14 -17 -5 -44 16
-44 17 0 21 25 5 35 -7 4 -7 13 0 26 6 11 8 24 5 29 -9 15 -35 12 -35 -4z"/>
<path d="M2905 3140 c3 -5 11 -10 16 -10 6 0 7 5 4 10 -3 6 -11 10 -16 10 -6
0 -7 -4 -4 -10z"/>
<path d="M2983 3134 c-7 -18 17 -38 31 -24 11 11 1 40 -14 40 -6 0 -13 -7 -17
-16z"/>
<path d="M2698 3108 c-8 -21 2 -38 24 -38 14 0 19 6 16 22 -3 25 -33 36 -40
16z"/>
<path d="M2938 3114 c-12 -11 4 -34 24 -34 13 0 18 6 16 17 -3 18 -29 29 -40
17z"/>
<path d="M2906 3092 c-2 -4 -1 -14 5 -22 7 -12 9 -10 9 8 0 23 -5 28 -14 14z"/>
<path d="M2985 3080 c-7 -12 12 -40 26 -40 5 0 9 11 9 25 0 25 -23 35 -35 15z"/>
<path d="M2862 3061 c2 -7 7 -12 11 -12 12 1 9 15 -3 20 -7 2 -11 -2 -8 -8z"/>
<path d="M2940 3055 c-15 -18 -5 -35 21 -35 12 0 19 7 19 19 0 24 -25 34 -40
16z"/>
<path d="M3035 3051 c-3 -6 -1 -19 4 -29 7 -13 7 -22 0 -29 -12 -12 -1 -43 16
-43 10 0 13 15 12 52 -2 48 -17 72 -32 49z"/>
<path d="M2820 3035 c7 -9 15 -13 17 -11 7 7 -7 26 -19 26 -6 0 -6 -6 2 -15z"/>
<path d="M2907 3033 c-10 -16 11 -39 23 -27 8 8 7 14 -4 23 -8 7 -17 8 -19 4z"/>
<path d="M2985 3020 c-4 -7 0 -19 9 -28 15 -15 18 -15 26 -2 5 8 8 20 7 25 -5
15 -34 18 -42 5z"/>
<path d="M2870 2995 c7 -9 15 -13 17 -11 7 7 -7 26 -19 26 -6 0 -6 -6 2 -15z"/>
<path d="M2944 2996 c-7 -19 3 -36 22 -36 10 0 14 8 12 22 -4 26 -26 36 -34
14z"/>
<path d="M2984 2959 c-10 -17 23 -46 37 -32 7 7 9 19 6 27 -7 18 -33 21 -43 5z"/>
<path d="M2870 2951 c0 -6 4 -13 10 -16 6 -3 7 1 4 9 -7 18 -14 21 -14 7z"/>
<path d="M3034 2929 c-10 -16 23 -46 36 -33 6 6 8 18 4 27 -7 19 -29 22 -40 6z"/>
<path d="M2825 2920 c3 -5 8 -10 11 -10 2 0 4 5 4 10 0 6 -5 10 -11 10 -5 0
-7 -4 -4 -10z"/>
<path d="M3034 2869 c-10 -16 23 -46 36 -33 6 6 8 18 4 27 -7 19 -29 22 -40 6z"/>
</g>
</svg>
