<?xml version="1.0" standalone="no"?>
<!DOCTYPE svg PUBLIC "-//W3C//DTD SVG 20010904//EN"
 "http://www.w3.org/TR/2001/REC-SVG-20010904/DTD/svg10.dtd">
<svg version="1.0" xmlns="http://www.w3.org/2000/svg"
 width="1024.000000pt" height="1024.000000pt" viewBox="0 0 1024.000000 1024.000000"
 preserveAspectRatio="xMidYMid meet">

<g transform="translate(0.000000,1024.000000) scale(0.100000,-0.100000)"
fill="#000000" stroke="none">
<path d="M3285 9999 c-154 -4 -381 -12 -505 -18 -124 -6 -304 -11 -400 -12
-237 -1 -348 -10 -361 -29 -6 -10 -8 -74 -4 -175 7 -198 12 -235 33 -241 10
-3 30 -12 45 -20 16 -7 35 -14 42 -14 7 0 15 -3 17 -7 2 -5 61 -37 133 -73 71
-36 136 -71 143 -77 7 -7 20 -13 28 -13 8 0 14 -5 14 -12 0 -6 2 -9 5 -6 4 3
41 -12 83 -34 42 -22 122 -63 177 -91 55 -28 102 -54 105 -57 3 -3 46 -26 95
-51 50 -24 92 -46 95 -49 3 -3 34 -20 70 -38 36 -18 90 -46 120 -63 30 -17
112 -61 183 -96 70 -36 130 -69 133 -74 3 -5 14 -9 24 -9 10 0 20 -3 22 -7 2
-5 35 -24 73 -44 187 -96 240 -124 245 -129 3 -3 24 -14 47 -25 24 -11 43 -23
43 -27 0 -5 6 -8 12 -8 12 0 118 -50 128 -60 3 -3 43 -24 90 -48 47 -24 100
-52 119 -63 19 -11 75 -42 125 -68 200 -106 252 -134 278 -152 14 -11 31 -19
36 -19 6 0 36 -15 69 -33 32 -17 76 -41 98 -52 22 -11 42 -22 45 -25 3 -3 32
-19 65 -35 33 -16 76 -39 95 -50 19 -12 89 -50 155 -85 108 -57 140 -74 225
-120 37 -20 50 -26 110 -56 30 -15 57 -30 60 -33 3 -4 25 -15 50 -26 25 -10
62 -29 82 -42 21 -13 44 -23 52 -23 8 0 16 -4 18 -9 5 -13 194 -111 215 -111
10 0 29 -9 43 -20 22 -17 25 -28 31 -107 3 -48 5 -91 3 -94 -2 -3 -34 1 -71 8
-55 12 -81 13 -135 3 -38 -7 -68 -15 -68 -20 0 -4 15 -15 33 -23 43 -21 61
-44 76 -100 16 -56 7 -137 -15 -137 -8 0 -14 5 -14 11 0 6 -17 48 -39 93 -21
44 -41 91 -45 104 -5 13 -15 22 -27 22 -27 0 -22 -15 67 -207 28 -61 28 -62 9
-77 -10 -7 -12 -16 -6 -25 8 -12 16 -13 51 -2 23 7 69 12 103 11 34 0 76 2 92
5 l31 7 12 -119 c25 -243 26 -297 7 -326 -32 -50 -65 -44 -133 21 -16 15 -42
38 -59 52 -40 32 -178 157 -214 193 -15 15 -30 27 -33 27 -3 0 -27 21 -53 48
-27 26 -80 74 -118 107 -38 33 -96 86 -129 118 -33 31 -65 57 -71 57 -6 0 -20
10 -32 23 -11 12 -48 47 -83 77 -35 30 -86 76 -113 103 -28 26 -51 47 -53 47
-1 0 -22 19 -46 43 -24 24 -52 49 -64 57 -12 8 -42 33 -67 55 -58 52 -79 69
-157 134 -36 29 -92 79 -126 110 -82 76 -162 142 -196 164 -35 21 -106 22
-144 2 -16 -8 -37 -15 -46 -15 -9 0 -20 -4 -23 -10 -3 -5 -16 -10 -29 -10 -12
0 -26 -4 -31 -9 -6 -4 -35 -16 -65 -25 -30 -9 -64 -21 -75 -25 -11 -5 -47 -17
-80 -26 -33 -9 -70 -20 -82 -25 -15 -6 -23 -6 -23 0 0 6 -11 10 -24 10 -13 0
-29 7 -36 15 -7 8 -17 15 -23 15 -5 0 -31 20 -56 45 -93 91 -154 145 -162 145
-5 0 -9 5 -9 11 0 11 -25 39 -35 39 -6 0 -40 31 -159 144 -28 26 -87 80 -131
119 -44 39 -92 83 -106 99 -14 15 -31 28 -37 28 -7 0 -12 7 -12 15 0 8 -4 15
-10 15 -5 0 -18 8 -28 18 -31 29 -115 104 -177 158 -33 28 -111 102 -174 163
-63 61 -117 111 -119 111 -3 0 -13 7 -23 16 -17 15 -17 18 4 46 32 44 32 159
-1 206 -41 57 -115 78 -177 50 -27 -12 -33 -28 -11 -28 8 0 26 -15 40 -33 21
-28 26 -45 26 -95 0 -66 -12 -80 -28 -34 -25 72 -67 152 -79 152 -15 0 -17
-22 -4 -48 5 -9 17 -37 27 -62 10 -25 21 -47 24 -50 11 -9 20 -42 14 -51 -6
-10 -40 5 -62 27 -7 8 -17 39 -22 70 -20 122 -30 123 -80 14 -11 -25 -24 -52
-29 -60 -5 -8 -15 -28 -22 -45 -22 -48 -30 -51 -128 -58 -102 -6 -115 -3 -166
45 -29 28 -71 46 -81 35 -6 -5 3 -14 59 -60 65 -53 108 -92 202 -182 57 -55
119 -113 137 -128 31 -27 174 -161 334 -314 40 -37 118 -111 174 -163 57 -52
146 -136 199 -186 53 -50 114 -106 136 -125 80 -68 265 -260 265 -274 0 -8 4
-15 8 -15 4 0 16 -24 26 -52 10 -29 22 -62 26 -73 5 -11 16 -42 25 -70 8 -27
19 -59 24 -70 5 -11 16 -42 24 -70 23 -72 38 -118 48 -137 5 -10 9 -24 9 -32
0 -7 7 -27 15 -42 8 -16 15 -37 15 -46 0 -9 5 -20 10 -23 6 -3 10 -15 10 -26
0 -10 4 -27 10 -37 5 -9 27 -73 50 -142 22 -69 45 -134 50 -145 4 -11 10 -29
13 -40 5 -19 41 -126 57 -170 4 -11 15 -42 25 -70 9 -27 20 -59 24 -70 5 -11
16 -45 26 -75 10 -30 22 -59 26 -65 5 -5 9 -19 9 -32 0 -13 4 -31 9 -41 21
-42 41 -94 41 -107 0 -9 4 -23 9 -33 5 -9 17 -39 26 -67 9 -27 20 -59 25 -70
5 -11 11 -29 13 -40 5 -17 28 -84 109 -315 3 -8 13 -37 23 -65 9 -27 20 -59
25 -70 4 -11 20 -58 35 -105 15 -47 31 -94 35 -105 5 -11 16 -42 25 -70 10
-27 21 -59 26 -70 4 -11 16 -45 25 -75 9 -30 21 -59 25 -65 5 -5 9 -17 9 -27
0 -10 4 -26 9 -36 5 -9 17 -36 27 -59 11 -24 22 -43 27 -43 4 0 7 -6 7 -14 0
-8 90 -106 199 -218 445 -453 455 -464 494 -533 20 -37 37 -76 37 -86 0 -11 4
-19 9 -19 5 0 11 -12 14 -27 5 -30 24 -87 38 -115 5 -10 9 -29 9 -42 0 -14 4
-27 9 -30 5 -3 11 -20 14 -38 6 -38 26 -114 38 -143 4 -11 15 -51 24 -90 9
-38 21 -79 25 -90 5 -11 11 -31 13 -45 3 -14 15 -56 26 -95 12 -38 21 -80 21
-92 0 -13 4 -23 9 -23 5 0 11 -15 14 -32 3 -18 13 -58 22 -88 9 -30 19 -66 22
-80 2 -14 8 -34 12 -45 21 -53 41 -125 41 -143 0 -12 5 -24 10 -27 6 -3 10
-14 10 -23 0 -16 13 -65 70 -262 12 -41 24 -86 27 -100 2 -14 8 -34 13 -45 5
-11 11 -31 14 -45 22 -102 32 -140 39 -146 4 -4 7 -18 7 -30 0 -13 5 -26 10
-29 6 -3 10 -17 10 -31 0 -13 4 -24 9 -24 5 0 8 -11 7 -25 -2 -14 2 -29 9 -35
6 -5 10 -24 9 -42 -3 -30 -3 -30 5 -8 7 22 9 23 16 7 4 -9 5 -32 2 -50 -4 -33
10 -80 23 -72 5 3 13 -9 19 -25 7 -20 17 -30 30 -30 12 0 21 5 21 10 0 6 11
10 25 10 14 0 25 5 25 10 0 6 5 10 12 10 7 0 38 12 70 27 93 43 93 91 0 138
-31 17 -60 34 -64 39 -10 14 2 36 21 36 9 0 21 4 26 8 6 5 33 17 60 26 28 10
59 21 70 26 90 36 167 61 172 56 7 -7 33 -98 40 -141 3 -16 9 -35 14 -41 14
-17 -2 -54 -22 -54 -11 0 -27 -4 -37 -9 -9 -5 -37 -17 -62 -26 -25 -10 -54
-21 -65 -25 -11 -5 -42 -16 -70 -25 -57 -19 -75 -27 -127 -49 -20 -9 -40 -16
-45 -16 -6 0 -23 -7 -40 -15 -27 -14 -29 -18 -28 -69 0 -31 7 -61 15 -71 12
-14 14 -43 12 -139 -2 -66 -8 -128 -13 -138 -5 -9 -9 -26 -9 -37 0 -21 -30
-84 -42 -89 -5 -2 -8 -8 -8 -13 0 -16 -26 -46 -123 -137 -56 -52 -97 -112 -77
-112 5 0 10 5 10 11 0 5 5 7 10 4 6 -3 10 -2 10 2 0 5 9 14 20 21 16 10 27 8
67 -15 27 -14 50 -29 53 -32 8 -10 44 -31 63 -37 9 -4 17 -10 17 -15 0 -5 5
-9 12 -9 6 0 26 -11 44 -25 18 -14 35 -25 38 -25 3 0 48 -27 100 -60 53 -33
100 -60 106 -60 5 0 10 -4 10 -10 0 -5 4 -10 9 -10 4 0 42 -23 84 -50 42 -28
81 -50 86 -50 6 0 11 -4 11 -9 0 -5 11 -12 25 -15 14 -4 25 -11 25 -16 0 -6 7
-10 15 -10 8 0 15 -4 15 -10 0 -5 6 -10 13 -10 7 0 23 -10 37 -22 41 -38 75
-51 96 -40 46 25 136 62 149 62 8 0 15 5 15 10 0 6 4 10 9 10 6 0 49 18 96 40
47 22 88 40 90 40 3 0 35 14 72 31 38 17 84 38 103 46 19 8 57 26 83 39 27 13
55 24 63 24 8 0 14 5 14 10 0 6 5 10 11 10 6 0 25 6 42 14 18 7 52 23 77 33
25 11 78 24 119 27 52 5 96 18 148 42 41 19 79 34 84 34 5 0 9 5 9 10 0 6 7
10 15 10 8 0 36 11 63 25 26 13 97 47 157 75 61 29 141 67 179 86 37 19 74 34
82 34 8 0 14 4 14 8 0 10 65 42 85 42 8 0 15 5 15 10 0 6 5 10 12 10 11 0 180
79 253 118 35 18 41 21 120 59 33 15 62 31 63 36 2 4 12 7 23 7 10 0 37 12 59
28 l41 27 -5 135 c-3 74 -9 207 -14 295 -6 88 -15 266 -21 395 -7 129 -16 263
-21 296 -6 34 -10 113 -10 175 0 63 -4 157 -10 209 -5 52 -15 190 -21 305 -6
116 -16 289 -21 385 -5 96 -13 238 -17 315 -5 77 -14 255 -20 395 -6 140 -16
274 -21 298 -6 23 -10 107 -10 187 0 80 -4 164 -10 187 -5 24 -16 198 -25 388
-8 190 -18 381 -21 425 -3 44 -7 118 -10 165 -2 47 -11 177 -19 290 -8 113
-17 257 -19 320 -11 260 -17 301 -56 405 -4 11 -13 36 -19 55 -33 94 -45 127
-56 155 -7 17 -19 48 -26 70 -7 22 -17 44 -21 49 -4 6 -8 20 -8 32 0 13 -4 26
-10 29 -5 3 -10 13 -10 22 0 13 -19 63 -40 103 -4 9 -11 30 -14 48 -4 17 -12
34 -17 37 -5 4 -9 15 -9 26 0 10 -4 27 -9 37 -5 9 -22 49 -36 87 -15 39 -31
79 -36 90 -5 11 -13 41 -18 67 -5 27 -21 63 -40 86 -17 22 -31 44 -31 50 0 6
-4 12 -8 14 -5 2 -28 30 -52 62 -41 57 -52 70 -92 118 -10 12 -18 24 -18 28 0
3 -8 15 -18 26 -9 10 -33 39 -52 64 -19 25 -37 47 -40 50 -3 3 -23 30 -45 60
-22 30 -45 61 -52 68 -7 7 -13 17 -13 21 0 4 -8 16 -18 27 -9 10 -36 44 -59
74 -23 30 -53 68 -67 84 -14 16 -26 32 -26 35 0 3 -16 24 -35 46 -19 22 -58
72 -87 112 -29 40 -56 73 -60 73 -4 0 -31 11 -60 24 -29 13 -80 32 -113 42
-33 10 -64 22 -70 26 -5 4 -22 8 -37 8 -15 0 -28 5 -28 10 0 6 -8 10 -17 10
-16 0 -88 22 -243 75 -36 12 -92 31 -125 41 -33 10 -64 22 -69 26 -6 4 -18 8
-28 8 -10 0 -26 4 -36 9 -9 5 -44 17 -77 27 -33 10 -64 22 -69 26 -6 4 -22 8
-37 8 -15 0 -31 5 -34 10 -3 6 -14 10 -23 10 -9 0 -30 7 -46 15 -15 8 -35 15
-42 15 -8 0 -22 4 -32 9 -9 5 -42 16 -72 26 -30 9 -64 20 -75 24 -85 34 -149
38 -281 21 -106 -14 -329 -17 -345 -4 -8 5 -41 18 -74 28 -33 10 -69 22 -80
26 -11 4 -94 31 -185 60 -91 29 -174 56 -185 61 -11 4 -50 17 -87 28 -37 11
-85 29 -108 41 -40 20 -140 114 -227 213 -33 36 -49 47 -73 47 -20 0 -38 9
-52 25 -12 14 -30 25 -40 25 -10 0 -26 4 -36 9 -9 5 -44 17 -77 26 -33 10 -68
21 -77 26 -10 5 -25 9 -33 9 -8 0 -23 4 -33 9 -9 5 -44 17 -77 27 -33 10 -64
22 -70 26 -5 4 -17 8 -27 8 -9 0 -32 6 -50 14 -44 19 -256 84 -288 88 -14 2
-151 1 -305 -3z m-307 -159 c2 -5 10 -6 18 -3 8 3 21 0 29 -7 8 -7 26 -9 42
-6 27 6 116 -8 238 -37 147 -35 251 -57 274 -57 18 0 22 -3 14 -11 -6 -6 -90
-17 -190 -25 -98 -8 -232 -19 -299 -25 -119 -11 -122 -11 -200 15 -43 15 -88
31 -99 36 -11 5 -58 21 -105 37 -47 15 -86 31 -88 36 -2 4 -12 7 -22 7 -16 0
-64 16 -79 27 -2 1 1 8 7 15 8 10 62 12 234 10 122 -2 224 -7 226 -12z m896
-177 c56 -102 104 -218 95 -228 -3 -3 -46 3 -95 12 -100 20 -457 25 -726 10
-131 -7 -148 -6 -148 7 0 9 -5 16 -10 16 -7 0 -10 29 -8 78 l3 77 85 7 c166
14 623 43 722 46 64 2 68 1 82 -25z m168 -364 c27 -20 28 -22 12 -40 -15 -17
-15 -19 2 -36 17 -17 17 -18 -7 -21 -13 -2 -28 -8 -33 -13 -6 -5 -67 -9 -137
-9 -70 0 -130 -4 -133 -8 -3 -5 -52 -7 -108 -5 -91 4 -121 11 -255 55 -189 63
-197 78 -45 79 59 0 130 4 157 9 28 4 155 8 283 9 223 1 235 0 264 -20z m773
-190 c-4 -5 -16 -9 -28 -9 -21 1 -21 1 -3 15 20 15 41 11 31 -6z m-59 -14 c9
-8 29 -15 45 -15 17 0 45 -11 63 -25 18 -14 45 -25 59 -25 15 0 27 -4 27 -10
0 -19 -56 -8 -137 27 -17 7 -37 13 -44 13 -17 0 -83 23 -89 31 -3 4 -14 9 -25
12 -11 2 4 5 33 6 35 1 58 -4 68 -14z m-869 -11 c-3 -3 -12 -4 -19 -1 -8 3 -5
6 6 6 11 1 17 -2 13 -5z m1118 -84 c-3 -6 4 -10 17 -10 13 0 46 -9 73 -20 l50
-20 -45 7 c-25 3 -67 16 -95 29 -44 20 -47 22 -22 23 16 1 26 -3 22 -9z m178
-67 c-7 -2 -19 -2 -25 0 -7 3 -2 5 12 5 14 0 19 -2 13 -5z m64 -19 c-3 -3 -12
-4 -19 -1 -8 3 -5 6 6 6 11 1 17 -2 13 -5z m1270 -270 c-3 -3 -12 -4 -19 -1
-8 3 -5 6 6 6 11 1 17 -2 13 -5z m-139 -21 c-15 -2 -42 -2 -60 0 -18 2 -6 4
27 4 33 0 48 -2 33 -4z m-101 -10 c-8 -7 -88 -6 -95 2 -3 3 19 5 48 5 29 0 50
-3 47 -7z m-107 -284 c0 -5 6 -7 13 -3 9 5 9 4 -1 -7 -10 -11 -15 -10 -29 4
-16 16 -16 17 0 17 9 0 17 -5 17 -11z m325 -320 c4 -6 4 -13 0 -17 -3 -3 -10
0 -14 7 -5 7 -14 10 -20 7 -6 -4 -11 -2 -11 3 0 14 37 14 45 0z m-205 -49 c0
-5 15 -10 34 -10 19 0 38 -5 42 -12 5 -8 2 -9 -10 -5 -10 4 -30 7 -45 7 -15 0
-36 7 -47 15 -19 14 -18 14 4 15 12 0 22 -4 22 -10z m170 -14 c0 -8 -7 -16
-15 -20 -10 -4 -15 1 -15 14 0 11 7 20 15 20 8 0 15 -6 15 -14z m225 -32 c18
-8 41 -25 52 -36 l18 -21 -52 7 c-42 5 -53 4 -53 -7 0 -30 -25 -38 -76 -24
-66 17 -81 27 -90 61 -7 28 -6 28 27 23 80 -14 104 -20 110 -30 9 -12 29 0 29
18 0 7 -8 16 -17 18 -16 4 -16 5 0 6 11 0 34 -6 52 -15z m-205 -40 c0 -8 -5
-12 -10 -9 -6 4 -8 11 -5 16 9 14 15 11 15 -7z m20 -148 c0 -3 -4 -8 -10 -11
-5 -3 -10 -1 -10 4 0 6 5 11 10 11 6 0 10 -2 10 -4z m463 -17 c-6 -6 -17 -8
-24 -3 -9 5 -8 9 7 14 23 9 31 3 17 -11z m-33 -71 c0 -4 -9 -12 -19 -18 -28
-15 -55 13 -39 40 11 17 13 17 35 2 12 -10 23 -20 23 -24z m-2613 -84 c-3 -3
-12 -4 -19 -1 -8 3 -5 6 6 6 11 1 17 -2 13 -5z m238 -42 c-3 -3 -11 0 -18 7
-9 10 -8 11 6 5 10 -3 15 -9 12 -12z m-529 -99 c-10 -10 -19 5 -10 18 6 11 8
11 12 0 2 -7 1 -15 -2 -18z m694 -33 c0 -5 -4 -10 -10 -10 -5 0 -10 5 -10 10
0 6 5 10 10 10 6 0 10 -4 10 -10z m-287 -37 c-7 -2 -19 -2 -25 0 -7 3 -2 5 12
5 14 0 19 -2 13 -5z m347 -28 c0 -8 -2 -15 -4 -15 -2 0 -6 7 -10 15 -3 8 -1
15 4 15 6 0 10 -7 10 -15z m-593 -21 c-3 -3 -12 -4 -19 -1 -8 3 -5 6 6 6 11 1
17 -2 13 -5z m2936 -12 c-2 -6 2 -12 7 -12 15 0 12 -27 -4 -33 -9 -4 -17 2
-21 14 -4 10 -11 19 -16 19 -5 0 -9 7 -9 16 0 10 7 14 23 12 12 -2 21 -9 20
-16z m-2953 -32 c0 -5 -5 -10 -11 -10 -5 0 -7 5 -4 10 3 6 8 10 11 10 2 0 4
-4 4 -10z m690 0 c0 -5 -2 -10 -4 -10 -3 0 -8 5 -11 10 -3 6 -1 10 4 10 6 0
11 -4 11 -10z m-693 -52 c-3 -7 -5 -2 -5 12 0 14 2 19 5 13 2 -7 2 -19 0 -25z
m-120 -20 c-3 -8 -6 -5 -6 6 -1 11 2 17 5 13 3 -3 4 -12 1 -19z m160 -40 c-3
-8 -6 -5 -6 6 -1 11 2 17 5 13 3 -3 4 -12 1 -19z m-134 -23 c-3 -9 -8 -14 -10
-11 -3 3 -2 9 2 15 9 16 15 13 8 -4z m624 -37 c-3 -8 -6 -5 -6 6 -1 11 2 17 5
13 3 -3 4 -12 1 -19z m-403 -23 c-4 -8 -8 -15 -10 -15 -2 0 -4 7 -4 15 0 8 4
15 10 15 5 0 7 -7 4 -15z m1803 -87 c-3 -8 -6 -5 -6 6 -1 11 2 17 5 13 3 -3 4
-12 1 -19z m-1717 2 c0 -5 -7 -7 -15 -4 -8 4 -15 8 -15 10 0 2 7 4 15 4 8 0
15 -4 15 -10z m-222 -25 c-3 -3 -9 2 -12 12 -6 14 -5 15 5 6 7 -7 10 -15 7
-18z m269 -37 c-3 -8 -6 -5 -6 6 -1 11 2 17 5 13 3 -3 4 -12 1 -19z m33 -34
c0 -8 -5 -12 -10 -9 -6 4 -8 11 -5 16 9 14 15 11 15 -7z m105 -104 c3 -5 1
-10 -4 -10 -6 0 -11 5 -11 10 0 6 2 10 4 10 3 0 8 -4 11 -10z m172 -27 c-3
-10 -5 -4 -5 12 0 17 2 24 5 18 2 -7 2 -21 0 -30z m3497 -5 c12 -11 35 -31 52
-44 20 -16 34 -37 37 -57 3 -18 9 -45 13 -61 9 -36 -14 -56 -66 -56 -20 0 -41
-5 -48 -12 -8 -8 -15 -9 -22 -2 -11 11 -30 155 -30 232 0 41 1 42 22 31 12 -6
31 -21 42 -31z m-3646 3 c11 -7 10 -9 -3 -14 -9 -4 -14 -3 -10 2 3 5 -1 12 -7
14 -7 3 -8 6 -3 6 6 0 16 -3 23 -8z m-43 -11 c3 -5 1 -10 -4 -10 -6 0 -11 5
-11 10 0 6 2 10 4 10 3 0 8 -4 11 -10z m241 -176 c-4 -9 -9 -15 -11 -12 -3 3
-3 13 1 22 4 9 9 15 11 12 3 -3 3 -13 -1 -22z m-479 -116 c-3 -8 -6 -5 -6 6
-1 11 2 17 5 13 3 -3 4 -12 1 -19z m3819 5 c-11 -3 -26 -11 -33 -18 -14 -15
-18 -105 -5 -105 11 0 3 -58 -9 -66 -5 -2 -6 -19 -2 -36 4 -22 2 -33 -10 -39
-14 -8 -14 -12 -1 -37 17 -32 18 -72 3 -72 -6 0 -13 9 -16 20 -11 43 -33 13
-33 -46 0 -31 3 -35 20 -29 11 4 20 2 20 -4 0 -6 -4 -11 -10 -11 -13 0 -13
-155 0 -180 7 -13 6 -21 -5 -30 -19 -16 -21 -110 -2 -110 7 0 18 5 25 12 14
14 14 19 12 -102 -1 -52 -6 -100 -11 -106 -5 -6 -12 -72 -15 -145 -3 -74 -10
-135 -15 -137 -15 -6 -9 -36 12 -61 17 -20 22 -22 29 -11 5 8 12 11 17 7 4 -5
1 -12 -7 -17 -13 -8 -12 -11 4 -23 29 -21 10 -37 -45 -37 -42 0 -49 -3 -49
-19 0 -20 54 -81 71 -81 5 0 9 7 9 16 0 8 5 12 10 9 6 -3 10 -28 10 -56 0 -39
-3 -49 -16 -49 -14 0 -16 -8 -11 -55 3 -30 2 -55 -3 -55 -5 0 -12 -10 -16 -22
-4 -13 -10 -25 -15 -28 -5 -3 -6 -23 -2 -43 4 -28 10 -37 25 -37 17 0 19 5 14
34 -4 18 -2 44 2 57 9 23 9 23 20 3 14 -26 18 -98 8 -142 -7 -28 -11 -32 -29
-27 -15 4 -12 -1 11 -15 37 -25 40 -35 12 -50 -20 -11 -28 -50 -11 -50 5 0 14
-14 20 -30 9 -27 7 -33 -14 -51 -21 -19 -23 -27 -18 -75 4 -37 2 -54 -6 -54
-6 0 -11 -17 -11 -40 0 -30 4 -40 16 -40 8 0 25 -5 36 -11 21 -11 21 -12 2
-26 -19 -14 -19 -14 0 -29 11 -8 14 -14 8 -14 -8 0 -12 -19 -12 -55 0 -46 -4
-58 -27 -80 l-28 -25 29 0 28 0 -7 -76 c-5 -55 -4 -79 5 -84 18 -11 3 -160
-16 -160 -18 0 -18 -18 1 -36 17 -17 20 -62 5 -84 -8 -13 -11 -13 -19 -1 -7
11 -10 9 -16 -9 -5 -15 -2 -25 6 -31 10 -6 5 -11 -18 -20 -18 -6 -33 -15 -33
-19 0 -4 15 -13 33 -19 19 -7 27 -15 21 -19 -6 -4 -14 -17 -18 -29 -4 -14 -18
-25 -34 -29 -46 -10 -53 -14 -48 -23 3 -5 -1 -26 -10 -46 -14 -35 -14 -39 5
-59 14 -15 17 -26 11 -36 -5 -8 -10 -34 -10 -57 0 -36 3 -43 19 -43 26 0 51
-10 51 -21 0 -4 -12 -14 -27 -21 -35 -17 -42 -39 -12 -36 28 4 37 -23 14 -45
-8 -9 -15 -27 -15 -41 0 -14 -4 -26 -10 -26 -5 0 -12 -11 -16 -25 -3 -14 -10
-25 -15 -25 -5 0 -9 -18 -9 -40 0 -22 5 -40 10 -40 6 0 10 -22 10 -49 0 -43
-4 -52 -37 -80 -20 -17 -31 -31 -25 -31 7 0 12 -16 12 -40 0 -29 -4 -40 -15
-40 -12 0 -15 -16 -15 -80 l0 -80 36 0 c32 0 35 -2 24 -15 -7 -9 -19 -14 -26
-11 -7 3 -17 -1 -24 -8 -13 -17 -40 -118 -33 -128 8 -15 -9 -50 -22 -45 -31
12 -46 -43 -24 -85 8 -15 8 -22 -1 -28 -7 -4 -9 -16 -6 -27 7 -22 -7 -38 -39
-46 -15 -3 -13 -5 8 -6 24 -1 26 -3 17 -20 -5 -11 -18 -22 -29 -26 -15 -5 -18
-13 -13 -50 3 -30 1 -45 -7 -45 -6 0 -11 -18 -11 -43 0 -24 -6 -65 -14 -90 -8
-25 -10 -47 -6 -49 4 -2 10 -20 14 -41 6 -33 5 -37 -14 -37 -18 0 -20 -6 -20
-80 l0 -80 -41 0 c-34 0 -40 -3 -35 -16 19 -50 18 -65 -2 -71 -22 -5 -27 -14
-38 -75 -4 -25 -2 -38 5 -38 6 0 11 -4 11 -10 0 -5 -7 -10 -15 -10 -9 0 -16
-10 -16 -27 -1 -16 -3 -44 -5 -63 -1 -19 -5 -81 -9 -138 -7 -102 -19 -136 -31
-87 -14 57 16 4028 36 4625 5 168 10 449 10 625 0 313 1 321 20 322 11 1 22
-2 25 -8 8 -12 148 -12 161 0 5 5 29 11 54 14 68 7 182 28 205 37 11 5 40 8
65 8 25 0 36 -3 26 -5z m-3 -40 c-7 -2 -19 -2 -25 0 -7 3 -2 5 12 5 14 0 19
-2 13 -5z m-3768 -78 c9 -40 -3 -27 -15 15 -5 19 -6 29 -1 24 5 -5 12 -22 16
-39z m2008 4 c4 -15 1 -19 -11 -17 -21 4 -29 38 -9 38 8 0 17 -9 20 -21z m31
-64 c-4 -8 -8 -15 -10 -15 -2 0 -4 7 -4 15 0 8 4 15 10 15 5 0 7 -7 4 -15z
m-1857 -57 c-3 -8 -6 -5 -6 6 -1 11 2 17 5 13 3 -3 4 -12 1 -19z m43 -18 c0
-5 -2 -10 -4 -10 -3 0 -8 5 -11 10 -3 6 -1 10 4 10 6 0 11 -4 11 -10z m-173
-22 c-3 -8 -6 -5 -6 6 -1 11 2 17 5 13 3 -3 4 -12 1 -19z m130 -134 c-3 -3
-12 -4 -19 -1 -8 3 -5 6 6 6 11 1 17 -2 13 -5z m1841 -36 c28 2 32 -1 32 -24
0 -14 -7 -33 -16 -42 -13 -13 -15 -28 -9 -86 24 -247 29 -299 29 -358 1 -31 4
-54 9 -51 4 2 7 -20 7 -49 1 -29 7 -89 15 -133 8 -44 15 -106 15 -138 0 -32 4
-77 10 -100 5 -23 14 -105 20 -182 11 -143 21 -258 40 -425 17 -154 41 -398
50 -500 5 -52 11 -120 14 -150 4 -30 13 -122 21 -205 8 -82 17 -175 21 -205 3
-30 9 -95 14 -145 4 -49 15 -160 24 -245 24 -229 35 -342 46 -465 5 -60 14
-139 19 -175 6 -36 11 -95 11 -132 0 -38 4 -68 8 -68 5 0 12 -62 15 -137 4
-76 16 -191 27 -256 11 -65 20 -142 20 -172 0 -29 5 -87 10 -127 10 -71 22
-186 39 -378 5 -52 14 -124 20 -160 15 -89 14 -90 -14 -90 -14 0 -25 5 -25 10
0 6 -7 10 -15 10 -12 0 -15 19 -15 110 0 61 -4 110 -9 110 -4 0 -11 33 -14 73
-3 39 -17 185 -31 322 -13 138 -27 291 -31 340 -3 50 -10 110 -15 135 -5 25
-16 124 -25 220 -9 96 -18 186 -20 200 -10 81 -26 246 -30 310 -5 70 -23 230
-60 560 -9 74 -20 198 -25 275 -5 77 -14 169 -19 205 -13 87 -45 406 -45 453
-1 20 -4 37 -7 37 -4 0 -7 36 -8 80 -1 43 -6 91 -11 105 -6 15 -10 61 -10 103
0 42 -5 106 -11 142 -5 36 -12 90 -15 120 -2 30 -9 96 -14 145 -5 50 -12 116
-14 147 -3 32 -14 133 -25 225 -11 93 -27 240 -36 328 -9 88 -23 213 -31 277
-20 163 -19 171 9 162 12 -5 37 -7 55 -6z m-1901 -50 c-3 -8 -6 -5 -6 6 -1 11
2 17 5 13 3 -3 4 -12 1 -19z m1980 -435 c-3 -10 -5 -4 -5 12 0 17 2 24 5 18 2
-7 2 -21 0 -30z m-1710 -335 c-3 -8 -6 -5 -6 6 -1 11 2 17 5 13 3 -3 4 -12 1
-19z m3363 -978 c0 -4 -7 -10 -15 -14 -10 -4 -15 1 -15 14 0 13 5 18 15 14 8
-4 15 -10 15 -14z m75 0 c-3 -5 -10 -10 -16 -10 -5 0 -9 5 -9 10 0 6 7 10 16
10 8 0 12 -4 9 -10z m-5 -164 c0 -8 -4 -18 -10 -21 -5 -3 -10 3 -10 14 0 12 5
21 10 21 6 0 10 -6 10 -14z m-146 -770 c-9 -24 -34 -28 -34 -6 0 13 7 20 20
20 13 0 17 -5 14 -14z m-2524 -381 c34 -19 66 -35 71 -35 5 0 26 -10 47 -23
20 -13 122 -65 225 -117 104 -51 191 -100 194 -109 3 -9 9 -25 13 -36 5 -11
11 -39 13 -61 5 -44 -4 -54 -58 -67 -19 -5 -126 -41 -170 -57 -11 -4 -42 -15
-70 -25 -27 -9 -59 -20 -70 -25 -46 -18 -121 -37 -132 -33 -7 3 -13 16 -13 29
0 13 -4 32 -9 42 -13 23 -61 207 -61 230 0 10 -3 22 -7 26 -10 10 -43 118 -43
143 0 12 -4 24 -9 27 -5 3 -11 23 -14 43 -3 21 -9 51 -13 67 -6 27 -5 29 18
23 14 -4 54 -23 88 -42z m2497 -187 c-3 -8 -6 -5 -6 6 -1 11 2 17 5 13 3 -3 4
-12 1 -19z m-1917 -295 c0 -5 -42 -21 -93 -38 -50 -16 -96 -33 -101 -37 -6 -4
-20 -8 -33 -8 -13 0 -32 -5 -42 -12 -11 -6 -26 -8 -37 -3 -18 8 -18 8 1 12 11
2 29 8 40 13 11 4 45 16 75 26 30 10 59 22 65 26 5 4 21 8 36 8 15 0 31 5 34
10 7 12 55 14 55 3z m16 -68 c-8 -8 -24 -15 -35 -15 -11 0 -37 -7 -58 -16 -69
-30 -145 -55 -151 -49 -9 9 10 24 46 35 20 6 46 15 57 19 59 23 113 40 133 40
21 1 22 -1 8 -14z m28 -52 c7 -7 -56 -39 -89 -45 -11 -1 -22 -6 -25 -9 -3 -3
-19 -9 -37 -12 -37 -7 -54 8 -21 18 13 4 37 13 53 20 78 32 108 39 119 28z
m-464 -23 c0 -11 -61 -30 -73 -23 -5 3 0 11 10 19 21 15 63 19 63 4z m73 -50
c-14 -12 -92 -40 -113 -40 -30 0 -24 19 8 26 15 3 36 9 47 14 33 14 50 18 58
13 5 -3 5 -9 0 -13z m403 1 c-10 -16 -73 -41 -103 -41 -27 1 -27 1 -9 15 11 8
30 15 43 15 13 0 23 5 23 10 0 6 12 10 26 10 14 0 23 -4 20 -9z m-312 -46 c-4
-8 -16 -15 -29 -15 -12 0 -36 -7 -51 -15 -16 -8 -37 -15 -46 -15 -9 0 -20 -4
-23 -10 -7 -12 -65 -14 -65 -2 0 4 26 16 58 26 31 10 71 25 87 32 42 19 76 18
69 -1z m322 -30 c-25 -19 -36 -19 -36 0 0 10 10 15 28 15 26 -1 26 -1 8 -15z
m-236 -4 c0 -5 -15 -14 -32 -21 -18 -7 -42 -16 -53 -20 -11 -5 -45 -16 -75
-26 -30 -10 -59 -22 -64 -26 -6 -4 -21 -8 -34 -8 -37 0 -12 24 40 39 44 14 53
17 123 44 35 14 61 22 88 26 4 0 7 -3 7 -8z m80 -44 c0 -8 -19 -20 -42 -27
-24 -8 -47 -16 -53 -20 -5 -3 -37 -14 -70 -25 -33 -10 -64 -22 -69 -27 -6 -4
-20 -8 -32 -8 -13 0 -26 -4 -29 -10 -7 -12 -42 -13 -49 -2 -3 5 34 22 82 37
48 16 94 32 102 36 17 8 79 31 125 47 17 5 31 10 33 11 1 1 2 -5 2 -12z m100
-45 c0 -8 -27 -20 -105 -46 -27 -10 -59 -21 -70 -26 -11 -4 -42 -15 -70 -25
-53 -18 -89 -32 -117 -46 -22 -11 -58 -12 -58 -1 0 13 88 49 143 59 15 3 27 9
27 14 0 5 10 9 23 9 13 0 27 4 33 8 5 4 34 16 64 26 30 11 59 23 65 27 11 11
65 12 65 1z m2326 -6 c8 -8 14 -19 14 -25 0 -6 5 -11 10 -11 13 0 13 -153 0
-194 -5 -17 -17 -61 -27 -98 -10 -38 -21 -68 -25 -68 -5 0 -8 -8 -8 -17 0 -10
-10 -38 -23 -63 -65 -128 -111 -166 -166 -139 -37 19 -101 84 -101 102 0 8 -3
17 -7 19 -13 5 -43 78 -43 103 0 14 -4 25 -10 25 -6 0 -10 35 -10 85 0 50 4
85 10 85 6 0 10 5 10 10 0 44 118 142 215 179 61 23 141 27 161 7z m-2236 -46
c0 -5 -11 -10 -24 -10 -13 0 -26 -3 -28 -7 -4 -10 -100 -43 -122 -43 -9 0 -16
-4 -16 -10 0 -5 -11 -10 -25 -10 -14 0 -25 -4 -25 -10 0 -5 -16 -12 -35 -16
-19 -3 -38 -10 -41 -15 -3 -5 -15 -9 -28 -9 -12 0 -26 -3 -30 -7 -10 -10 -98
-43 -115 -43 -10 0 -7 8 9 25 13 14 31 25 39 25 18 0 107 32 117 43 4 4 16 7
26 7 10 0 26 4 36 9 34 19 90 41 101 41 10 0 21 5 71 31 22 11 90 11 90 -1z
m45 -50 c3 -5 -1 -10 -9 -10 -9 0 -16 -4 -16 -9 0 -5 -10 -11 -22 -14 -24 -5
-209 -71 -243 -86 -11 -5 -36 -14 -55 -21 -19 -7 -49 -19 -67 -26 -17 -8 -38
-14 -46 -14 -9 0 -19 -4 -22 -10 -3 -5 -15 -10 -25 -10 -27 0 -15 26 18 38 74
27 150 56 177 67 17 7 55 20 85 30 30 10 60 21 65 25 6 3 30 12 55 20 25 7 49
17 55 22 13 11 43 10 50 -2z m9 -69 c8 -12 -11 -25 -69 -45 -27 -10 -59 -21
-70 -26 -11 -4 -40 -15 -65 -25 -25 -9 -53 -21 -62 -26 -10 -5 -24 -9 -31 -9
-13 0 -59 -19 -99 -41 -10 -5 -27 -9 -37 -9 -11 0 -23 -4 -26 -10 -3 -5 -15
-10 -25 -10 -10 0 -21 -8 -23 -17 -3 -11 -5 -7 -6 10 -1 18 4 27 14 27 8 0 15
3 15 8 0 4 28 16 62 26 59 19 102 36 140 57 10 5 26 9 36 9 10 0 22 4 28 8 5
4 34 16 64 26 30 11 59 23 65 27 5 5 19 9 32 9 13 0 23 5 23 10 0 12 27 13 34
1z m1546 -141 c-20 -13 -33 -13 -25 0 3 6 14 10 23 10 15 0 15 -2 2 -10z
m-2019 -213 c-10 -9 -11 -8 -5 6 3 10 9 15 12 12 3 -3 0 -11 -7 -18z"/>
<path d="M8000 3989 c0 -5 5 -7 10 -4 6 3 10 8 10 11 0 2 -4 4 -10 4 -5 0 -10
-5 -10 -11z"/>
<path d="M7905 2630 c3 -5 8 -10 11 -10 2 0 4 5 4 10 0 6 -5 10 -11 10 -5 0
-7 -4 -4 -10z"/>
<path d="M7826 2175 c-3 -8 -1 -15 4 -15 6 0 10 7 10 15 0 8 -2 15 -4 15 -2 0
-6 -7 -10 -15z"/>
<path d="M7665 1521 c-3 -5 -1 -12 5 -16 5 -3 10 1 10 9 0 18 -6 21 -15 7z"/>
<path d="M7572 1220 c0 -14 2 -19 5 -12 2 6 2 18 0 25 -3 6 -5 1 -5 -13z"/>
<path d="M8280 2004 c-71 -25 -150 -83 -195 -145 -34 -45 -36 -54 -32 -102 5
-60 24 -138 37 -151 5 -5 18 1 31 13 13 11 27 21 31 21 11 0 58 50 58 61 0 5
-4 9 -10 9 -5 0 -10 -4 -10 -10 0 -5 -7 -10 -16 -10 -9 0 -13 -5 -9 -12 4 -7
-4 -1 -17 15 -13 15 -29 27 -36 27 -22 0 -14 73 11 100 13 14 30 40 38 58 11
25 20 32 42 32 16 0 35 7 43 15 9 8 23 15 32 15 9 0 31 14 49 30 32 30 57 38
67 21 3 -5 -1 -11 -9 -15 -17 -6 -21 -36 -5 -36 6 0 10 -19 10 -43 0 -42 -9
-60 -86 -177 -9 -14 -32 -37 -50 -50 -50 -38 -48 -50 4 -24 26 13 55 24 65 24
9 0 17 5 17 10 0 6 10 10 23 10 29 0 43 42 59 178 15 129 12 136 -68 139 -32
1 -66 0 -74 -3z"/>
<path d="M8340 1630 c0 -5 -6 -10 -12 -10 -11 0 -99 -40 -138 -62 -8 -5 -23
-11 -32 -14 -10 -4 -18 -10 -18 -15 0 -12 53 -59 67 -59 7 0 13 -4 13 -10 0
-24 32 -7 60 33 17 23 37 50 45 59 15 18 32 88 21 88 -3 0 -6 -4 -6 -10z"/>
<path d="M8100 1580 c0 -5 5 -10 11 -10 5 0 7 5 4 10 -3 6 -8 10 -11 10 -2 0
-4 -4 -4 -10z"/>
<path d="M1775 8842 c-84 -4 -104 -16 -76 -46 20 -22 45 -121 35 -137 -3 -6
-11 -5 -20 2 -9 7 -14 8 -14 1 0 -6 5 -14 10 -17 13 -8 13 -45 0 -45 -5 0 -7
-7 -3 -16 5 -13 19 -14 97 -9 119 9 124 10 141 52 20 49 19 106 -4 152 -32 62
-48 68 -166 63z"/>
<path d="M1658 8735 c5 -11 12 -27 15 -35 5 -13 6 -13 6 1 1 8 -6 24 -15 35
-15 19 -15 19 -6 -1z"/>
<path d="M3695 8441 c-27 -10 -70 -28 -94 -39 -25 -12 -50 -22 -56 -22 -24 0
-55 -46 -55 -81 0 -30 30 -95 50 -109 14 -10 112 -96 158 -138 65 -60 79 -67
91 -44 13 24 -17 422 -33 439 -8 9 -22 8 -61 -6z"/>
<path d="M3869 8353 c-3 -69 4 -267 12 -307 5 -27 9 -66 9 -86 0 -25 5 -40 15
-44 15 -6 77 12 145 41 63 27 75 31 100 37 42 9 61 29 62 65 1 27 -7 40 -39
70 -84 75 -196 176 -207 186 -59 54 -95 68 -97 38z"/>
<path d="M1137 7023 c-4 -3 -35 -9 -69 -12 -56 -5 -63 -9 -66 -28 -2 -13 1
-23 6 -23 12 0 32 -46 32 -75 0 -26 -15 -34 -23 -12 -2 7 -8 8 -13 3 -5 -5 1
-15 14 -23 24 -17 30 -58 10 -66 -23 -9 15 -28 42 -22 14 4 51 10 83 15 78 11
87 20 87 92 0 85 -37 157 -81 158 -9 0 -19 -3 -22 -7z"/>
<path d="M970 6878 c0 -19 2 -20 10 -8 13 19 13 30 0 30 -5 0 -10 -10 -10 -22z"/>
<path d="M3560 5198 c-52 -11 -97 -23 -100 -27 -3 -3 -25 -7 -49 -9 -24 -1
-52 -7 -63 -13 -26 -14 -60 -5 -97 27 -24 20 -38 25 -59 20 -15 -4 -47 -11
-72 -16 -25 -5 -85 -19 -135 -30 -49 -12 -115 -24 -145 -27 -30 -3 -64 -12
-75 -19 -11 -8 -30 -14 -42 -14 -13 0 -31 -4 -41 -10 -9 -5 -37 -15 -62 -22
-32 -8 -39 -13 -24 -15 12 -2 30 -13 40 -24 16 -18 16 -19 -4 -19 -34 0 -26
-18 11 -25 17 -4 37 -12 44 -17 16 -13 99 -5 188 16 39 10 89 20 113 23 23 3
42 9 42 13 0 4 6 7 13 7 23 0 182 36 200 45 11 6 35 12 55 14 21 2 53 8 72 13
86 25 154 37 180 33 25 -3 29 -9 33 -45 3 -23 26 -100 51 -172 50 -139 60
-172 99 -305 23 -79 57 -177 77 -225 4 -11 16 -47 25 -80 9 -33 20 -69 24 -80
5 -11 14 -38 21 -60 7 -22 18 -53 25 -70 20 -50 47 -128 59 -170 6 -22 14 -44
17 -50 3 -5 14 -37 24 -70 10 -33 21 -69 25 -80 34 -88 33 -86 19 -99 -8 -7
-45 -20 -84 -30 -38 -10 -74 -22 -80 -27 -5 -5 -21 -9 -35 -9 -14 0 -30 -4
-35 -8 -6 -5 -46 -17 -90 -27 -44 -10 -84 -22 -90 -26 -5 -5 -17 -9 -28 -9
-17 0 -100 -23 -142 -40 -11 -4 -40 -13 -65 -20 -75 -20 -154 -42 -175 -50
-29 -11 -131 -40 -139 -40 -14 0 -45 91 -40 118 8 39 -13 110 -36 122 -23 12
-44 81 -37 124 5 35 -23 100 -48 109 -8 4 -15 12 -15 19 0 7 -7 26 -16 43 -8
16 -14 43 -13 60 4 62 -2 87 -25 108 -27 25 -59 109 -50 132 11 29 -7 83 -37
113 -27 26 -31 39 -38 104 -4 44 -14 86 -24 102 l-18 27 -24 -23 c-30 -28 -32
-48 -5 -48 11 0 20 -7 20 -15 0 -8 -4 -15 -9 -15 -13 0 23 -161 63 -282 8 -23
20 -65 26 -93 6 -27 17 -63 24 -80 8 -16 19 -50 25 -75 18 -67 92 -300 107
-338 8 -18 14 -43 14 -56 0 -13 9 -41 19 -63 11 -21 34 -81 52 -133 18 -52 40
-100 48 -107 18 -13 78 -8 127 12 17 7 50 16 72 20 23 4 44 11 48 16 3 5 13 9
22 9 18 -1 233 66 264 81 10 5 24 9 32 9 17 0 115 29 138 41 10 5 25 9 34 9
15 0 84 20 139 41 11 4 61 19 110 33 183 54 260 80 270 88 14 13 23 10 35 -12
14 -27 -11 -65 -59 -87 -20 -9 -52 -27 -71 -38 -19 -12 -48 -25 -65 -28 -16
-3 -46 -10 -65 -16 -19 -5 -55 -15 -80 -22 -25 -6 -53 -15 -62 -20 -10 -5 -29
-9 -42 -9 -14 0 -27 -4 -30 -9 -3 -5 -26 -12 -51 -15 -24 -4 -47 -11 -50 -17
-4 -5 -24 -9 -46 -9 -21 0 -39 -4 -39 -9 0 -5 -15 -11 -32 -14 -18 -3 -58 -12
-88 -20 -84 -23 -237 -66 -315 -88 -38 -12 -92 -26 -118 -32 -42 -10 -47 -14
-42 -32 34 -107 28 -180 -17 -225 -58 -58 -133 -74 -214 -45 -56 19 -107 48
-105 60 0 5 28 10 61 10 72 0 100 19 78 54 -7 12 -21 24 -30 27 -10 3 -18 10
-18 16 0 5 -17 9 -37 7 -59 -3 -63 -1 -63 31 0 37 -12 37 -65 5 -22 -14 -48
-28 -57 -31 -10 -4 -18 -10 -18 -14 0 -15 -62 -40 -100 -40 -20 0 -40 -4 -45
-9 -12 -10 -87 -36 -97 -33 -5 1 -8 -5 -8 -13 0 -8 5 -15 10 -15 6 0 10 -9 10
-21 l0 -21 -33 21 c-32 20 -33 20 -45 1 -14 -24 -16 -100 -2 -100 6 0 10 -8
10 -19 0 -23 20 -62 42 -84 19 -19 73 -23 84 -6 10 16 82 2 113 -22 25 -20 83
-61 198 -142 29 -20 55 -37 58 -37 3 0 11 -5 18 -10 41 -36 121 -90 133 -90 8
0 14 -5 14 -10 0 -6 11 -15 25 -20 14 -5 25 -14 25 -20 0 -5 8 -10 18 -10 27
0 32 -9 21 -37 -8 -22 -7 -24 8 -18 10 4 27 10 38 13 11 3 23 10 26 15 4 5 53
-21 109 -58 99 -65 103 -67 148 -60 26 4 58 13 72 20 15 7 33 9 45 4 28 -11
37 -11 30 1 -3 6 4 10 17 10 13 0 28 4 33 8 6 5 39 17 75 26 36 10 74 22 85
26 47 17 91 31 110 35 11 3 21 9 23 15 2 5 13 10 23 10 12 0 17 5 14 10 -4 6
-1 17 5 25 10 12 10 15 -2 15 -8 0 -19 -5 -25 -11 -7 -7 -17 -7 -29 -1 -11 6
-36 18 -57 27 -22 9 -46 23 -55 31 -10 7 -33 24 -52 36 -32 21 -34 27 -33 68
2 34 0 39 -5 20 -5 -15 -17 -26 -30 -28 -22 -3 -126 47 -159 77 -10 9 -26 20
-37 24 -12 5 -17 14 -13 27 4 17 0 20 -33 20 -27 0 -53 10 -90 35 -29 19 -56
35 -61 35 -5 0 -9 4 -9 8 0 5 -11 14 -25 20 -25 12 -25 13 -19 94 8 103 16
118 56 118 28 0 97 -40 106 -62 2 -4 12 -8 23 -8 10 0 19 -4 19 -10 0 -5 7
-10 15 -10 15 0 20 -16 17 -52 -2 -21 11 -23 37 -7 14 9 25 9 47 -3 40 -20 78
-42 84 -49 3 -3 22 -15 43 -28 27 -17 37 -30 38 -49 0 -15 4 -36 9 -47 8 -18
9 -17 9 8 1 22 6 27 26 27 28 0 28 3 25 -105 -1 -80 -1 -80 30 -98 57 -31 59
-29 75 81 7 46 13 49 55 27 23 -12 30 -22 30 -45 0 -29 1 -30 23 -16 22 15 67
12 67 -5 0 -5 7 -9 15 -9 8 0 15 -4 15 -10 0 -5 7 -10 16 -10 8 0 30 -11 48
-25 18 -14 38 -25 44 -25 7 0 12 -7 12 -16 0 -9 6 -14 13 -11 6 2 20 0 30 -5
9 -5 17 -5 17 0 0 5 19 14 43 21 23 7 50 17 59 22 10 5 26 9 36 9 10 0 27 7
38 15 10 8 33 15 49 15 17 0 35 4 40 8 6 5 37 17 70 26 33 10 69 22 80 26 11
5 45 17 75 26 30 9 60 20 65 24 6 4 24 10 40 13 38 6 132 42 151 58 16 13 19
69 4 69 -5 0 -10 6 -10 14 0 8 -22 58 -50 113 -71 140 -70 142 47 83 149 -76
179 -77 253 -8 25 22 60 47 78 55 35 15 36 16 23 41 -5 9 -17 46 -26 82 -9 36
-21 75 -26 88 -5 13 -9 33 -9 45 0 13 -4 27 -9 33 -5 5 -16 43 -26 84 -10 41
-28 95 -40 120 -15 30 -23 63 -23 98 0 30 -5 59 -11 65 -6 6 -11 17 -11 25 0
13 -15 52 -43 111 -7 13 -29 42 -49 64 -21 21 -38 43 -38 48 0 4 -9 11 -20 14
-11 4 -18 10 -16 14 3 4 -8 20 -25 35 -16 15 -29 32 -29 37 0 5 -4 9 -10 9
-12 0 -400 388 -400 401 0 5 -7 9 -15 9 -8 0 -20 10 -26 22 -16 29 -35 48 -42
42 -3 -3 -8 4 -12 15 -3 12 -13 21 -21 21 -8 0 -12 4 -9 10 3 5 -5 21 -19 35
-15 14 -26 35 -26 46 0 11 -7 22 -15 25 -10 4 -13 14 -9 30 6 24 -11 35 -19
12 -2 -7 -5 5 -5 27 -2 61 -5 75 -14 75 -4 0 -8 11 -8 25 0 14 -4 25 -10 25
-5 0 -10 -4 -10 -10 0 -15 -17 -12 -24 5 -3 8 -2 23 1 32 6 15 7 15 14 -3 5
-12 8 -14 8 -4 0 8 -6 29 -14 45 l-13 30 -1 -27 c-1 -41 -21 -45 -21 -4 0 20
5 36 10 36 6 0 10 5 10 10 0 20 -20 9 -26 -15 -3 -13 -11 -23 -16 -22 -6 1
-14 -10 -19 -25 -4 -16 -3 -28 2 -28 5 0 9 -16 9 -35 0 -41 -36 -87 -51 -64
-6 10 -2 15 13 17 19 3 20 8 15 55 -7 65 -28 129 -45 135 -7 2 -10 -2 -6 -12
4 -11 0 -16 -14 -16 -11 0 -23 -6 -26 -12 -5 -10 -7 -10 -12 0 -3 6 -14 12
-25 12 -17 0 -18 5 -13 40 6 36 5 40 -15 40 -14 0 -21 -6 -21 -20 0 -11 -5
-20 -11 -20 -7 0 -9 10 -7 25 3 14 -1 30 -8 36 -8 6 -14 16 -14 21 0 13 -26
38 -39 38 -6 0 -11 7 -11 15 0 8 -9 23 -20 32 -13 12 -18 25 -15 42 5 23 4 23
-4 6 -8 -16 -10 -12 -10 21 -1 47 -26 79 -42 53 -9 -15 -12 -59 -4 -59 3 0 10
10 16 23 7 17 8 10 5 -30 -4 -41 -2 -51 9 -47 22 9 25 -11 5 -43 -15 -26 -27
-32 -70 -38 -28 -4 -52 -5 -53 -4 -1 2 -9 18 -18 34 -38 69 -31 112 18 119 11
2 18 12 20 28 2 32 -17 32 -147 6z m274 -254 c9 -3 16 -16 16 -28 0 -12 4 -26
9 -31 16 -18 22 -63 9 -72 -26 -16 -81 -31 -95 -26 -15 6 -42 63 -49 105 -5
29 4 37 50 49 43 10 42 10 60 3z m275 -81 c0 -10 -4 -27 -9 -38 -7 -16 -9 -13
-9 18 -1 20 4 37 9 37 6 0 10 -8 9 -17z m-189 -173 c0 -9 4 -20 9 -25 5 -6 12
-25 16 -43 6 -30 4 -33 -31 -48 -53 -22 -78 -12 -98 39 -9 23 -16 49 -16 58 0
22 21 39 46 39 13 0 26 4 29 10 8 14 45 -11 45 -30z m330 9 c0 -5 -4 -9 -10
-9 -5 0 -10 7 -10 16 0 8 5 12 10 9 6 -3 10 -10 10 -16z m7 -81 c-3 -8 -6 -5
-6 6 -1 11 2 17 5 13 3 -3 4 -12 1 -19z m43 -58 c0 -11 -4 -20 -10 -20 -5 0
-10 9 -10 20 0 11 5 20 10 20 6 0 10 -9 10 -20z m27 -55 c0 -11 -4 -12 -14 -4
-7 6 -13 15 -13 20 0 5 6 6 13 3 8 -3 14 -11 14 -19z m-340 -27 c5 -7 15 -33
22 -57 15 -52 6 -66 -52 -76 -35 -7 -38 -6 -51 27 -32 75 -31 87 5 103 42 18
64 19 76 3z m68 -226 c16 -11 35 -60 35 -91 0 -23 -6 -30 -39 -41 -21 -7 -43
-10 -49 -6 -5 3 -17 29 -26 57 -22 65 -12 79 59 87 6 1 15 -2 20 -6z m103
-270 c8 -24 11 -54 8 -68 -6 -23 -11 -25 -52 -22 -44 3 -47 5 -60 43 -7 22
-14 48 -14 58 0 21 34 37 74 34 25 -2 32 -8 44 -45z m59 -194 c16 -22 36 -95
29 -107 -4 -6 -15 -11 -25 -11 -9 0 -22 -5 -28 -11 -20 -20 -40 -3 -57 47 -22
64 -20 82 7 87 43 8 65 7 74 -5z m653 -35 c-1 -18 -17 -31 -47 -35 -32 -4 -33
0 -10 30 10 13 57 17 57 5z m134 -168 c-4 -8 -8 -15 -10 -15 -2 0 -4 7 -4 15
0 8 4 15 10 15 5 0 7 -7 4 -15z m37 -257 c23 -41 35 -118 18 -118 -4 0 -29 11
-56 25 l-48 26 48 -3 c45 -3 56 4 39 28 -12 18 -42 25 -42 9 0 -11 -8 -13 -32
-9 -25 4 -29 3 -18 -5 12 -9 10 -11 -12 -11 -18 0 -28 5 -28 15 0 8 7 15 15
15 8 0 15 5 15 10 0 6 -4 10 -10 10 -5 0 -10 5 -10 10 0 6 9 10 20 10 11 0 20
-4 20 -9 0 -5 7 -12 16 -15 13 -5 15 -1 12 24 -7 46 23 39 53 -12z m-141 -18
c0 -5 -9 -10 -19 -10 -11 0 -23 5 -26 10 -4 6 5 10 19 10 14 0 26 -4 26 -10z
m214 -119 c-7 -8 -33 33 -27 43 3 5 12 -2 19 -15 7 -13 10 -26 8 -28z"/>
<path d="M4162 5000 c0 -14 2 -19 5 -12 2 6 2 18 0 25 -3 6 -5 1 -5 -13z"/>
<path d="M2550 5000 c0 -13 18 -22 24 -11 3 5 -1 11 -9 15 -8 3 -15 1 -15 -4z"/>
<path d="M4181 4954 c0 -11 3 -14 6 -6 3 7 2 16 -1 19 -3 4 -6 -2 -5 -13z"/>
<path d="M4110 4924 c0 -8 5 -12 10 -9 6 3 10 10 10 16 0 5 -4 9 -10 9 -5 0
-10 -7 -10 -16z"/>
<path d="M4143 4913 c-14 -29 -9 -43 8 -26 6 6 9 20 7 32 -3 19 -4 19 -15 -6z"/>
<path d="M4195 4920 c3 -5 8 -10 11 -10 2 0 4 5 4 10 0 6 -5 10 -11 10 -5 0
-7 -4 -4 -10z"/>
<path d="M2614 4644 c4 -88 22 -144 47 -144 13 0 11 12 -7 55 -8 21 -14 52
-13 69 3 51 0 71 -16 92 -13 17 -14 10 -11 -72z"/>
<path d="M3247 2843 c-2 -5 -7 -24 -11 -44 -7 -39 0 -69 16 -69 5 0 16 -7 24
-15 9 -8 31 -15 50 -15 34 0 72 -15 86 -35 7 -10 9 -4 13 58 2 28 -9 37 -18
15 -4 -9 -8 -10 -14 -2 -4 6 -16 13 -25 17 -10 3 -20 16 -23 29 -4 13 -22 33
-41 46 -37 23 -50 27 -57 15z"/>
<path d="M3487 2693 c-4 -3 -7 -26 -7 -51 0 -51 27 -81 73 -82 26 0 27 2 27
48 0 46 -2 50 -39 70 -43 24 -45 25 -54 15z"/>
<path d="M3990 2359 c0 -21 0 -41 0 -44 0 -3 3 -6 8 -7 4 -2 8 9 10 25 2 19 9
27 22 27 10 0 22 -4 25 -10 3 -5 14 -10 23 -10 15 1 14 3 -3 15 -11 8 -25 18
-30 23 -6 5 -20 11 -33 14 -20 6 -22 3 -22 -33z"/>
<path d="M5456 2241 c-3 -5 -23 -12 -43 -16 -52 -9 -196 -55 -207 -66 -6 -5
-19 -9 -30 -9 -11 0 -50 -11 -86 -24 -36 -13 -90 -31 -121 -40 -137 -41 -132
-95 15 -171 42 -21 76 -43 76 -47 0 -4 8 -8 18 -8 10 0 22 -4 28 -9 5 -5 54
-33 109 -62 55 -28 118 -62 141 -74 22 -12 55 -26 72 -30 18 -3 34 -11 37 -16
4 -5 17 -9 31 -9 18 0 24 6 25 23 0 12 3 16 6 10 7 -20 23 -15 23 7 0 10 8 24
18 30 16 11 16 11 -1 6 -51 -16 -64 -16 -76 -2 -18 22 -7 33 65 67 73 35 80
48 13 25 -24 -9 -52 -16 -61 -16 -10 0 -18 -4 -18 -10 0 -5 -18 -10 -40 -10
-22 0 -40 4 -40 8 0 17 35 39 83 53 26 7 47 17 47 21 0 4 9 8 19 8 10 0 21 7
25 15 3 9 0 15 -8 15 -8 0 -16 -4 -18 -8 -4 -11 -149 -52 -203 -58 l-40 -5 24
21 c13 11 31 20 42 20 10 0 20 4 24 9 3 5 19 12 35 16 41 9 90 34 90 46 0 6 4
8 9 5 12 -8 41 3 41 15 0 5 -16 9 -36 9 -19 0 -33 -4 -30 -9 3 -5 -7 -11 -22
-14 -84 -18 -132 -32 -132 -39 0 -4 -11 -8 -24 -8 -14 0 -28 -4 -31 -10 -3 -5
-17 -10 -30 -10 -13 0 -27 5 -30 10 -3 6 3 10 14 10 12 0 21 5 21 10 0 6 11
10 24 10 14 0 27 4 30 9 4 5 24 12 46 16 22 4 42 11 46 16 3 5 14 9 25 9 10 0
19 4 19 9 0 5 20 15 45 22 51 15 61 39 15 39 -16 0 -30 -4 -30 -10 0 -5 -10
-10 -21 -10 -19 0 -84 -18 -144 -40 -51 -19 -159 -49 -163 -46 -5 5 50 30 108
49 25 8 59 21 75 27 17 7 39 16 50 21 11 4 36 14 55 23 19 8 45 17 58 21 13 4
22 14 22 25 0 18 -3 18 -67 -4 -112 -38 -238 -76 -252 -76 -7 0 -28 -7 -46
-16 -19 -9 -42 -14 -52 -11 -12 3 -8 5 10 6 16 0 26 5 22 11 -3 6 5 10 19 10
14 0 28 5 31 10 3 6 17 10 30 10 13 0 25 5 27 10 2 6 17 13 33 16 31 5 147 47
177 64 10 6 24 10 32 10 15 0 28 24 19 34 -10 10 -51 7 -58 -4 -3 -5 -17 -10
-31 -10 -13 0 -24 -4 -24 -8 0 -4 -36 -16 -80 -26 -44 -10 -82 -22 -86 -27 -3
-5 -20 -8 -37 -8 -31 2 -31 2 -4 6 15 2 25 8 23 12 -3 4 19 13 49 20 30 7 57
16 60 21 3 4 21 11 40 14 19 4 35 11 35 16 0 6 11 10 24 10 14 0 28 5 31 10 3
6 14 10 24 10 10 0 18 7 18 15 0 16 -42 21 -51 6z m-286 -151 c0 -11 -68 -25
-77 -16 -4 3 5 6 20 6 14 0 29 5 32 10 8 13 25 13 25 0z m-97 -37 c-7 -2 -19
-2 -25 0 -7 3 -2 5 12 5 14 0 19 -2 13 -5z"/>
<path d="M5610 1760 c0 -5 5 -10 11 -10 5 0 7 5 4 10 -3 6 -8 10 -11 10 -2 0
-4 -4 -4 -10z"/>
<path d="M5780 1399 c0 -6 7 -17 15 -25 16 -16 19 -7 9 20 -7 18 -24 22 -24 5z"/>
<path d="M5378 1203 c7 -3 16 -2 19 1 4 3 -2 6 -13 5 -11 0 -14 -3 -6 -6z"/>
<path d="M5295 1170 c-3 -5 1 -10 9 -10 9 0 16 5 16 10 0 6 -4 10 -9 10 -6 0
-13 -4 -16 -10z"/>
<path d="M5230 1151 c0 -5 -17 -12 -37 -16 -51 -9 -194 -65 -213 -82 -13 -13
-11 -17 14 -38 17 -13 41 -26 54 -30 13 -3 41 -17 63 -30 21 -14 41 -25 44
-25 13 0 44 -41 56 -74 7 -19 23 -47 36 -61 13 -14 19 -25 13 -25 -5 0 -10 -4
-10 -10 0 -5 6 -10 14 -10 8 0 21 -7 30 -15 14 -14 19 -14 52 0 20 8 47 15 60
15 12 0 25 4 28 9 4 5 31 17 61 27 33 10 64 27 75 42 39 48 18 205 -33 256
-31 30 -104 53 -119 38 -7 -7 -24 -12 -39 -12 -15 0 -32 -6 -39 -14 -6 -8 -28
-16 -48 -18 -42 -3 -52 -31 -14 -36 12 -2 22 -10 22 -18 0 -16 -26 -19 -35 -3
-4 5 -18 15 -32 20 l-26 10 23 24 c13 14 29 25 36 25 7 0 16 5 20 11 4 8 -4 9
-27 5 l-34 -6 30 14 c24 12 26 15 10 16 l-20 1 20 9 c18 8 17 9 -7 9 -16 1
-28 -3 -28 -8z m-55 -201 c3 -5 1 -10 -4 -10 -6 0 -11 5 -11 10 0 6 2 10 4 10
3 0 8 -4 11 -10z"/>
<path d="M5378 678 c5 -5 16 -8 23 -6 8 3 3 7 -10 11 -17 4 -21 3 -13 -5z"/>
<path d="M5440 641 c0 -8 41 -23 47 -17 2 1 -8 8 -22 14 -14 6 -25 8 -25 3z"/>
<path d="M5498 603 c6 -2 18 -2 25 0 6 3 1 5 -13 5 -14 0 -19 -2 -12 -5z"/>
</g>
</svg>
