<?xml version="1.0" standalone="no"?>
<!DOCTYPE svg PUBLIC "-//W3C//DTD SVG 20010904//EN"
 "http://www.w3.org/TR/2001/REC-SVG-20010904/DTD/svg10.dtd">
<svg version="1.0" xmlns="http://www.w3.org/2000/svg"
 width="568.000000pt" height="568.000000pt" viewBox="0 0 568.000000 568.000000"
 preserveAspectRatio="xMidYMid meet">

<g transform="translate(0.000000,568.000000) scale(0.100000,-0.100000)"
fill="#000000" stroke="none">
<path d="M3262 5648 c-5 -7 -13 -23 -17 -36 -6 -22 -10 -23 -58 -16 -82 13
-101 9 -166 -30 -56 -34 -66 -37 -109 -31 -44 6 -53 3 -102 -30 l-54 -36 -112
30 c-61 17 -122 31 -134 31 -13 0 -54 10 -91 22 l-68 21 -35 -27 -35 -27 20
-57 c12 -31 25 -60 28 -64 4 -5 65 -24 136 -44 72 -20 134 -40 139 -44 5 -5
-63 -56 -155 -116 -274 -179 -971 -625 -985 -631 -8 -3 -14 -13 -14 -23 0 -11
-4 -21 -9 -25 -5 -3 -10 -99 -10 -218 -1 -116 -3 -288 -6 -382 -3 -93 -10
-417 -15 -720 -15 -760 -38 -1986 -46 -2365 -6 -264 -5 -317 7 -326 8 -7 38
-16 68 -20 l55 -9 54 -93 c70 -119 83 -127 222 -127 58 1 114 6 125 12 11 6
36 38 55 72 19 33 40 61 45 61 18 0 567 -88 570 -92 2 -2 28 -46 58 -98 71
-122 100 -146 213 -172 77 -17 98 -18 157 -9 97 16 121 31 164 106 36 62 40
66 68 61 17 -3 111 -10 210 -17 165 -10 207 -9 500 14 255 21 323 23 335 13
29 -24 66 -35 155 -48 173 -24 246 -8 289 66 26 44 27 45 165 90 77 25 152 46
168 46 58 0 58 2 58 212 l0 193 33 3 32 3 0 143 c0 78 3 146 7 150 4 4 6 91 5
194 -3 186 -3 187 -31 227 l-28 41 -17 889 c-24 1229 -34 1654 -41 1665 -4 6
-15 10 -27 10 -18 0 -19 4 -13 38 8 45 11 48 29 33 8 -7 19 -10 24 -7 5 3 13
54 17 112 9 131 -4 489 -16 456 -5 -13 -13 -20 -19 -17 -17 10 -12 63 8 74 14
9 11 10 -15 11 l-33 0 -1 88 c-1 120 -13 74 -35 -138 -10 -94 -21 -175 -25
-182 -5 -8 -39 -5 -119 10 -62 12 -115 23 -117 26 -3 2 28 60 68 128 39 68 97
166 127 218 30 52 63 107 73 122 37 52 27 70 -56 95 -25 7 -29 13 -27 36 2 14
1 31 -2 36 -5 8 -58 -43 -121 -115 -5 -6 -32 -35 -58 -63 -47 -50 -51 -51 -90
-46 -23 4 -48 10 -57 14 -8 5 -33 12 -55 15 -22 4 -94 20 -160 36 -147 34
-198 44 -170 31 11 -5 15 -10 8 -10 -19 -1 -43 11 -38 19 3 4 -12 11 -33 14
-20 4 -46 9 -57 12 -16 4 -17 3 -5 -5 13 -10 13 -11 0 -11 -32 0 -62 13 -49
21 7 4 -10 7 -36 7 -29 -1 -51 4 -53 10 -2 7 -9 12 -15 12 -17 0 -83 60 -79
72 1 5 -2 7 -7 3 -6 -3 -54 29 -107 72 -53 43 -121 96 -150 118 -30 22 -54 44
-54 48 0 5 10 1 21 -7 19 -13 23 -13 36 0 13 13 18 13 37 1 11 -8 21 -23 21
-33 0 -14 11 -22 44 -30 28 -6 50 -20 63 -37 14 -20 16 -25 5 -21 -8 3 -18 0
-23 -7 -4 -8 -3 -10 5 -5 15 9 81 -31 81 -50 0 -8 -6 -14 -12 -14 -9 0 -8 -4
2 -10 8 -5 20 -10 25 -10 6 0 3 5 -5 10 -12 7 -10 9 7 7 12 0 19 -5 17 -9 -3
-4 0 -8 5 -8 6 0 11 -7 11 -15 0 -8 11 -17 25 -21 23 -6 30 -15 26 -37 -1 -5
3 -6 9 -2 7 4 7 12 0 25 -13 23 -13 33 -1 25 5 -3 12 -1 16 5 13 21 27 9 22
-19 -5 -25 -3 -29 17 -27 16 1 22 6 19 16 -3 10 1 8 11 -4 8 -10 13 -23 10
-27 -3 -5 3 -9 14 -9 10 0 82 -16 158 -36 237 -60 418 -105 450 -111 28 -5 36
0 85 57 30 35 73 85 97 112 24 28 42 52 40 54 -2 2 -91 26 -198 53 -107 28
-210 54 -227 60 -31 9 -37 7 -34 -12 1 -5 -3 -6 -9 -2 -6 3 -8 10 -5 15 3 5
-7 12 -22 15 -15 3 -42 10 -59 16 -17 5 -39 6 -49 2 -12 -4 -16 -3 -12 4 5 7
-9 14 -35 19 -49 9 -48 9 -68 17 -8 3 -46 13 -85 21 -38 8 -95 21 -127 30 -31
8 -67 18 -80 20 -12 3 -57 14 -98 25 -77 21 -138 17 -133 -8 2 -6 -2 -11 -7
-11 -5 0 -10 5 -10 10 0 15 -19 12 -38 -6 -15 -15 -14 -16 8 -9 23 7 23 7 7
-9 -12 -12 -22 -14 -34 -8 -10 5 -22 8 -28 6 -5 -2 -21 5 -35 16 -14 11 -20
20 -13 20 6 0 15 -4 18 -10 3 -5 11 -10 17 -10 7 0 6 6 -2 15 -7 8 -23 15 -36
15 -16 0 -22 4 -18 14 6 14 -22 30 -37 20 -5 -3 -9 -2 -9 3 0 4 -14 14 -31 22
-19 8 -28 18 -25 28 3 8 1 11 -4 8 -6 -4 -17 1 -26 9 -19 19 -38 20 -52 4z
m441 -192 c5 -13 -31 -31 -42 -21 -2 3 1 5 7 5 7 0 12 7 12 15 0 19 16 20 23
1z m147 -131 c0 -5 -5 -3 -10 5 -5 8 -10 20 -10 25 0 6 5 3 10 -5 5 -8 10 -19
10 -25z m71 -53 c-11 -21 -41 -48 -41 -37 0 7 42 54 48 55 1 0 -2 -8 -7 -18z
m469 -12 c0 -5 -2 -10 -4 -10 -3 0 -8 5 -11 10 -3 6 -1 10 4 10 6 0 11 -4 11
-10z m397 -36 c-3 -3 -12 -4 -19 -1 -8 3 -5 6 6 6 11 1 17 -2 13 -5z m-7 -18
c0 -2 -7 -7 -16 -10 -8 -3 -12 -2 -9 4 6 10 25 14 25 6z m30 -6 c0 -5 -5 -10
-11 -10 -5 0 -7 5 -4 10 3 6 8 10 11 10 2 0 4 -4 4 -10z m50 -34 c0 -2 -8 -10
-17 -17 -16 -13 -17 -12 -4 4 13 16 21 21 21 13z m-30 -40 c0 -2 -7 -9 -15
-16 -13 -11 -14 -10 -9 4 5 14 24 23 24 12z m-695 -16 c13 -6 15 -9 5 -9 -8 0
-22 4 -30 9 -18 12 -2 12 25 0z m118 -27 c-7 -2 -19 -2 -25 0 -7 3 -2 5 12 5
14 0 19 -2 13 -5z m364 -89 c-3 -3 -12 -4 -19 -1 -8 3 -5 6 6 6 11 1 17 -2 13
-5z m-3003 -590 c9 -24 7 -54 -4 -54 -5 0 -10 9 -10 20 0 11 -4 20 -10 20 -5
0 -10 -11 -10 -24 0 -14 -5 -28 -11 -31 -17 -11 -20 1 -8 31 11 27 14 34 18
49 3 12 29 4 35 -11z m206 -193 c0 -14 -18 -23 -31 -15 -8 4 -7 9 2 15 18 11
29 11 29 0z m960 5 c0 -3 -4 -8 -10 -11 -5 -3 -10 -1 -10 4 0 6 5 11 10 11 6
0 10 -2 10 -4z m-900 -31 c0 -34 -34 -46 -49 -17 -14 26 5 45 31 31 10 -5 18
-11 18 -14z m-110 1 c0 -3 -4 -8 -10 -11 -5 -3 -10 -1 -10 4 0 6 5 11 10 11 6
0 10 -2 10 -4z m48 -34 c2 -14 -2 -22 -11 -22 -19 0 -40 26 -32 40 11 18 40 6
43 -18z m949 6 c-3 -8 -6 -5 -6 6 -1 11 2 17 5 13 3 -3 4 -12 1 -19z m-679
-16 c3 -19 -1 -23 -15 -20 -10 2 -19 14 -21 26 -3 19 1 23 15 20 10 -2 19 -14
21 -26z m57 18 c-3 -5 -12 -10 -20 -10 -8 0 -17 5 -20 10 -4 6 5 10 20 10 15
0 24 -4 20 -10z m-445 -10 c0 -5 -5 -10 -11 -10 -5 0 -7 5 -4 10 3 6 8 10 11
10 2 0 4 -4 4 -10z m228 -13 c4 -20 -25 -34 -40 -19 -15 15 -1 44 19 40 10 -2
19 -11 21 -21z m262 -7 c0 -26 -15 -33 -30 -15 -10 12 -10 18 0 30 15 18 30
11 30 -15z m-321 -9 c8 -14 7 -22 -5 -32 -14 -11 -18 -10 -30 6 -10 13 -11 22
-3 32 16 18 26 16 38 -6z m-179 0 c0 -12 -26 -32 -33 -25 -9 10 4 34 19 34 8
0 14 -4 14 -9z m454 -7 c7 -19 -1 -34 -19 -34 -18 0 -28 17 -21 35 7 20 32 19
40 -1z m-166 -22 c3 -16 -2 -22 -16 -22 -22 0 -32 17 -24 38 7 20 37 9 40 -16z
m717 -11 l80 -16 0 -35 c0 -26 -6 -37 -22 -45 -12 -7 -31 -23 -42 -36 -11 -14
-41 -36 -68 -49 -26 -13 -60 -35 -75 -49 l-28 -25 0 142 0 141 38 -6 c20 -4
73 -13 117 -22z m-1045 -12 c0 -10 -7 -19 -15 -19 -15 0 -21 31 -9 43 11 10
24 -3 24 -24z m280 -5 c0 -17 -15 -25 -34 -18 -19 7 -21 40 -3 47 15 5 37 -11
37 -29z m160 15 c0 -11 -4 -17 -10 -14 -5 3 -10 13 -10 21 0 8 5 14 10 14 6 0
10 -9 10 -21z m105 -14 c0 -11 -7 -21 -16 -23 -18 -3 -33 23 -23 39 10 17 39
5 39 -16z m-177 -31 c-10 -10 -28 6 -28 24 0 15 1 15 17 -1 9 -9 14 -19 11
-23z m122 0 c0 -33 -33 -30 -38 4 -3 17 2 22 17 22 16 0 21 -6 21 -26z m-160
-3 c0 -27 -19 -36 -37 -18 -18 18 -9 37 18 37 12 0 19 -7 19 -19z m1957 -5
c-4 -11 -1 -13 10 -9 12 5 14 3 7 -8 -12 -20 -14 -39 -3 -39 6 0 7 -5 4 -11
-10 -16 -45 20 -45 46 0 23 8 35 23 35 5 0 7 -7 4 -14z m-2289 -24 c-5 -27
-28 -26 -28 2 0 19 4 24 15 19 9 -3 15 -12 13 -21z m276 13 c3 -8 1 -15 -4
-15 -6 0 -10 7 -10 15 0 8 2 15 4 15 2 0 6 -7 10 -15z m273 -11 c3 -8 1 -20
-6 -27 -14 -14 -47 15 -37 32 10 16 36 13 43 -5z m-437 -12 c0 -26 -10 -33
-31 -21 -28 14 -24 39 6 39 18 0 25 -5 25 -18z m273 5 c8 -20 -9 -41 -27 -34
-23 9 -21 47 3 47 10 0 21 -6 24 -13z m105 -25 c3 -17 -2 -22 -17 -22 -16 0
-21 6 -21 26 0 33 33 30 38 -4z m-435 6 c7 -21 -4 -38 -23 -38 -19 0 -34 25
-24 41 8 13 42 11 47 -3z m274 -3 c3 -9 3 -19 -1 -22 -8 -9 -37 18 -30 28 8
14 24 11 31 -6z m-163 -18 c8 -13 7 -20 -3 -26 -19 -12 -41 -3 -41 18 0 35 25
39 44 8z m49 8 c-3 -17 -30 -17 -37 0 -4 13 -1 16 17 13 12 -2 21 -7 20 -13z
m-215 -28 c3 -12 -3 -17 -22 -17 -28 0 -29 1 -20 25 8 20 38 15 42 -8z m412 7
c0 -8 -4 -12 -10 -9 -5 3 -10 10 -10 16 0 5 5 9 10 9 6 0 10 -7 10 -16z m128
-12 c2 -14 -2 -22 -12 -22 -19 0 -29 17 -22 36 8 22 30 12 34 -14z m-431 3 c7
-21 2 -25 -25 -18 -12 3 -22 12 -22 19 0 19 39 18 47 -1z m161 -9 c3 -13 -1
-17 -14 -14 -11 2 -20 11 -22 22 -3 13 1 17 14 14 11 -2 20 -11 22 -22z m102
14 c0 -5 -4 -10 -10 -10 -5 0 -10 5 -10 10 0 6 5 10 10 10 6 0 10 -4 10 -10z
m-150 -31 c0 -12 -7 -19 -19 -19 -26 0 -36 17 -21 35 15 18 40 8 40 -16z m268
-2 c3 -16 1 -17 -17 -5 -25 16 -27 31 -4 26 10 -2 19 -11 21 -21z m1760 11
c17 -17 15 -68 -2 -68 -14 0 -46 26 -46 36 0 11 21 44 28 44 5 0 13 -5 20 -12z
m132 -64 c0 -32 -16 -39 -45 -20 -29 19 -33 51 -8 65 23 12 53 -13 53 -45z
m-1850 26 c0 -5 -4 -10 -10 -10 -5 0 -10 5 -10 10 0 6 5 10 10 10 6 0 10 -4
10 -10z m1970 -43 c0 -14 -4 -16 -19 -7 -29 15 -38 12 -15 -6 18 -14 18 -15
-3 -4 -31 15 -31 44 -1 34 21 -6 22 -5 8 11 -14 17 -14 17 8 4 12 -8 22 -22
22 -32z m-2345 -37 c-3 -5 -13 -10 -21 -10 -8 0 -14 5 -14 10 0 6 9 10 21 10
11 0 17 -4 14 -10z m2153 -2 c21 -21 15 -65 -10 -72 -38 -10 -64 44 -36 72 7
7 17 12 23 12 6 0 16 -5 23 -12z m-2205 -29 c-13 -13 -43 -5 -43 10 0 13 33
20 45 9 5 -5 5 -12 -2 -19z m2320 4 c14 -17 13 -18 -14 -19 -22 -1 -29 3 -29
17 0 24 22 24 43 2z m-2373 -18 c0 -8 -9 -15 -20 -15 -22 0 -27 15 -7 23 21 9
27 7 27 -8z m30 -15 c0 -5 -5 -10 -11 -10 -5 0 -7 5 -4 10 3 6 8 10 11 10 2 0
4 -4 4 -10z m-150 -41 c0 -10 -4 -19 -10 -19 -5 0 -10 12 -10 26 0 14 4 23 10
19 6 -3 10 -15 10 -26z m60 22 c0 -6 -4 -13 -10 -16 -5 -3 -10 1 -10 9 0 9 5
16 10 16 6 0 10 -4 10 -9z m37 -18 c-9 -9 -19 -14 -23 -11 -10 10 6 28 24 28
15 0 15 -1 -1 -17z m-37 -27 c0 -7 -7 -19 -15 -26 -19 -16 -41 1 -32 24 8 20
47 21 47 2z m2253 -5 c-2 -6 2 -11 7 -11 6 0 10 -4 10 -9 0 -6 -12 -6 -30 0
-32 12 -38 24 -17 32 17 7 32 1 30 -12z m-2313 -36 c0 -14 -4 -25 -10 -25 -5
0 -10 11 -10 25 0 14 5 25 10 25 6 0 10 -11 10 -25z m197 -167 c-3 -8 -6 -5
-6 6 -1 11 2 17 5 13 3 -3 4 -12 1 -19z m-83 -43 c3 -8 2 -15 -3 -15 -5 0 -14
7 -21 15 -10 12 -10 15 3 15 8 0 17 -7 21 -15z m86 -21 c0 -8 -4 -14 -10 -14
-5 0 -10 9 -10 21 0 11 5 17 10 14 6 -3 10 -13 10 -21z m-32 -27 c2 -10 -3
-17 -11 -17 -18 0 -39 24 -30 34 12 12 38 2 41 -17z m32 -38 c0 -11 -4 -17
-10 -14 -5 3 -10 13 -10 21 0 8 5 14 10 14 6 0 10 -9 10 -21z m130 -69 c0 -5
-4 -10 -9 -10 -6 0 -13 5 -16 10 -3 6 1 10 9 10 9 0 16 -4 16 -10z m-369 -95
c-4 -68 -4 -70 -26 -62 -11 5 -15 22 -15 67 0 58 1 61 23 58 20 -3 22 -7 18
-63z m147 32 c3 -14 -1 -18 -20 -15 -12 2 -24 11 -26 21 -3 14 1 18 20 15 12
-2 24 -11 26 -21z m-58 -28 c0 -10 -4 -19 -10 -19 -5 0 -10 12 -10 26 0 14 4
23 10 19 6 -3 10 -15 10 -26z m170 15 c0 -10 -7 -14 -22 -12 -32 5 -35 28 -4
28 17 0 26 -5 26 -16z m-61 -13 c12 -21 5 -31 -21 -31 -11 0 -18 7 -18 18 0
35 23 43 39 13z m171 6 c0 -19 -10 -27 -26 -20 -21 8 -17 33 6 33 11 0 20 -6
20 -13z m-50 -32 c0 -18 -25 -26 -39 -12 -15 15 -14 34 2 40 15 5 37 -11 37
-28z m160 20 c0 -8 -9 -15 -20 -15 -11 0 -20 7 -20 15 0 8 9 15 20 15 11 0 20
-7 20 -15z m-336 -21 c4 -9 1 -23 -5 -31 -11 -12 -14 -12 -27 1 -17 17 -10 46
12 46 7 0 17 -7 20 -16z m280 1 c3 -9 -1 -18 -10 -22 -19 -7 -39 11 -30 26 10
16 33 13 40 -4z m-166 -19 c5 -26 -11 -38 -32 -23 -11 8 -15 19 -10 30 8 23
38 18 42 -7z m110 -15 c-5 -24 -38 -27 -38 -3 0 10 3 21 6 25 11 11 35 -5 32
-22z m-278 -12 c0 -10 -4 -19 -10 -19 -5 0 -10 12 -10 26 0 14 4 23 10 19 6
-3 10 -15 10 -26z m108 -7 c3 -16 -2 -22 -17 -22 -26 0 -36 17 -20 36 16 19
33 13 37 -14z m272 8 c0 -11 -7 -20 -15 -20 -8 0 -15 9 -15 20 0 11 7 20 15
20 8 0 15 -9 15 -20z m-160 -5 c13 -16 6 -35 -15 -35 -18 0 -28 17 -21 35 7
19 20 19 36 0z m108 -23 c2 -14 -2 -22 -12 -22 -19 0 -29 17 -22 36 8 22 30
12 34 -14z m-280 0 c2 -7 -6 -12 -17 -12 -21 0 -27 11 -14 24 9 9 26 2 31 -12z
m111 -1 c9 -6 10 -10 2 -16 -16 -9 -44 2 -36 15 8 12 16 12 34 1z m111 -11 c8
-5 11 -12 8 -16 -10 -9 -38 3 -38 16 0 12 10 13 30 0z m-350 -210 c0 -13 -20
-13 -40 0 -12 8 -9 10 13 10 15 0 27 -4 27 -10z m-25 -40 c3 -5 -1 -10 -9 -10
-9 0 -16 5 -16 10 0 6 4 10 9 10 6 0 13 -4 16 -10z m2675 -115 c0 -8 -7 -15
-15 -15 -8 0 -15 7 -15 15 0 8 7 15 15 15 8 0 15 -7 15 -15z m36 -88 c1 -20
-3 -37 -7 -37 -5 0 -9 -8 -9 -17 0 -14 -3 -14 -20 5 -22 24 -27 77 -7 85 29
13 42 1 43 -36z m-245 -21 c-13 -15 -45 -11 -36 5 3 4 12 6 20 2 8 -3 15 1 15
8 0 7 3 9 6 6 4 -4 1 -13 -5 -21z m-41 -81 c0 -30 -4 -31 -42 -3 -29 20 -29
22 -13 34 24 18 55 1 55 -31z m96 26 c-3 -5 1 -11 9 -15 19 -7 19 -36 2 -60
-12 -16 -16 -17 -35 -5 -28 18 -31 75 -4 82 29 8 33 7 28 -2z m144 -28 c0 -8
-5 -11 -12 -7 -8 5 -9 2 -5 -9 4 -11 1 -17 -7 -17 -8 0 -21 -2 -28 -5 -9 -4
-14 4 -16 23 -2 22 4 32 20 39 26 12 48 0 48 -24z m-273 -999 c3 -8 2 -24 -3
-35 -8 -17 -11 -18 -28 -6 -15 11 -17 17 -7 35 14 26 29 28 38 6z m131 -14 c5
-30 -25 -55 -45 -39 -16 14 -17 41 -1 57 19 19 43 10 46 -18z m103 20 c23 -13
25 -43 4 -60 -21 -17 -35 -3 -35 36 0 37 2 39 31 24z m-361 -27 c0 -20 -3 -24
-11 -16 -7 7 -9 19 -6 27 10 24 17 19 17 -11z m187 -117 c-4 -9 -11 -16 -17
-16 -11 0 -14 33 -3 44 11 10 26 -11 20 -28z m241 7 c4 -24 -26 -40 -34 -18
-8 21 3 47 19 43 6 -3 13 -14 15 -25z m-492 -20 c-11 -11 -19 6 -11 24 8 17 8
17 12 0 3 -10 2 -21 -1 -24z m134 18 c0 -19 -23 -35 -34 -24 -14 15 -5 43 14
43 13 0 20 -7 20 -19z m50 -137 c0 -15 -6 -24 -15 -24 -21 0 -30 27 -15 45 16
19 30 10 30 -21z m-128 -6 c-15 -15 -26 -4 -18 18 5 13 9 15 18 6 9 -9 9 -15
0 -24z m465 10 c-3 -8 -6 -5 -6 6 -1 11 2 17 5 13 3 -3 4 -12 1 -19z"/>
<path d="M4155 2529 c-4 -6 -5 -12 -2 -15 2 -3 7 2 10 11 7 17 1 20 -8 4z"/>
<path d="M3517 5539 c7 -7 15 -10 18 -7 3 3 -2 9 -12 12 -14 6 -15 5 -6 -5z"/>
<path d="M3591 5464 c0 -11 3 -14 6 -6 3 7 2 16 -1 19 -3 4 -6 -2 -5 -13z"/>
<path d="M3640 5406 c0 -2 7 -9 15 -16 9 -7 15 -8 15 -2 0 5 -7 12 -15 16 -8
3 -15 4 -15 2z"/>
</g>
</svg>
