<?xml version="1.0" standalone="no"?>
<!DOCTYPE svg PUBLIC "-//W3C//DTD SVG 20010904//EN"
 "http://www.w3.org/TR/2001/REC-SVG-20010904/DTD/svg10.dtd">
<svg version="1.0" xmlns="http://www.w3.org/2000/svg"
 width="600.000000pt" height="480.000000pt" viewBox="0 0 600.000000 480.000000"
 preserveAspectRatio="xMidYMid meet">

<g transform="translate(0.000000,480.000000) scale(0.100000,-0.100000)"
fill="#000000" stroke="none">
<path d="M3329 4570 c-94 -21 -750 -243 -739 -250 8 -6 5 23 75 -740 30 -333
73 -802 95 -1043 22 -241 40 -443 40 -449 0 -7 -5 -6 -15 2 -12 10 -15 10 -15
0 0 -10 -3 -10 -15 0 -8 6 -18 9 -23 6 -5 -3 -51 1 -103 9 -51 7 -97 11 -101
9 -10 -7 -10 -55 1 -72 5 -9 17 -11 35 -6 20 5 31 2 41 -12 14 -18 14 -18 15
-1 0 16 8 18 68 15 56 -2 67 -6 64 -20 -2 -11 6 -18 20 -21 21 -3 21 -4 4 -12
-12 -5 -21 -3 -26 5 -6 10 -12 11 -22 3 -9 -8 -28 -8 -63 -2 -28 5 -60 7 -72
4 -17 -4 -23 -1 -23 11 0 15 -2 15 -20 -1 -18 -17 -20 -17 -14 -2 3 10 1 17
-5 17 -6 0 -12 -22 -13 -52 -1 -42 -2 -45 -5 -16 -3 29 -10 38 -34 49 l-31 12
30 24 c36 27 34 56 -6 90 l-25 21 26 25 c35 32 34 57 -3 82 -32 22 -40 45 -14
45 8 0 13 4 10 9 -4 5 -2 11 3 13 4 1 11 13 15 25 6 18 4 20 -14 16 -14 -4
-20 -1 -20 11 0 10 -8 16 -21 16 -15 0 -19 5 -15 15 3 8 -4 21 -17 30 -22 15
-19 18 18 16 14 0 16 1 5 6 -8 3 -21 13 -28 22 -8 9 -11 10 -7 4 8 -17 -3 -16
-20 1 -10 10 -11 16 -2 25 8 8 8 11 -2 11 -7 0 -15 -9 -18 -21 -4 -14 -8 -17
-13 -9 -5 8 -50 16 -111 22 -57 5 -105 10 -106 12 -1 1 -4 43 -7 94 -4 71 -2
92 8 92 41 0 62 81 26 100 -11 6 -20 17 -20 25 0 8 -2 15 -5 15 -5 0 -65 -33
-110 -61 -17 -10 -51 -21 -75 -24 -38 -5 -42 -4 -23 6 25 13 40 47 26 58 -4 4
-28 14 -53 21 -25 8 -53 21 -62 31 -9 9 -21 19 -25 20 -20 9 -133 152 -133
169 0 10 -16 36 -35 57 -31 34 -35 44 -35 92 0 30 -5 69 -12 86 -8 25 -8 42 3
79 7 25 17 46 21 46 4 0 5 6 2 13 -4 12 39 66 55 68 54 7 59 14 31 44 -13 14
-24 36 -25 49 0 14 -7 33 -16 43 -8 10 -20 29 -26 43 -6 14 -18 41 -27 62 -9
20 -16 44 -16 55 -1 10 -16 43 -34 73 -27 45 -38 55 -57 52 -20 -2 -21 0 -9 9
13 10 13 10 0 6 -8 -2 -40 -12 -71 -22 l-55 -17 2 -1574 c1 -865 5 -1577 8
-1582 3 -5 55 -15 116 -22 105 -11 186 -27 147 -29 -16 -1 -56 3 -254 24 -24
2 -43 2 -43 -1 0 -3 109 -223 114 -231 1 -1 26 -8 56 -16 44 -11 82 -12 190
-4 74 5 137 14 140 18 8 12 340 38 547 43 104 3 191 9 202 16 31 16 110 29
108 18 -2 -12 430 -311 491 -339 82 -39 146 -44 309 -25 81 10 150 22 154 27
8 13 394 59 499 59 107 0 300 20 300 32 0 5 11 13 25 18 16 6 35 31 56 72 17
35 49 88 70 119 l38 56 71 5 c39 3 73 8 76 10 3 3 -4 178 -15 389 -12 211 -30
566 -41 789 -11 223 -32 617 -45 875 -14 259 -30 556 -35 660 -5 105 -12 233
-14 285 -3 52 -8 169 -11 260 -13 409 -15 431 -39 441 -11 5 -149 40 -306 78
-157 39 -413 102 -570 140 -156 39 -287 70 -290 70 -3 -1 -39 -9 -81 -19z
m473 -118 c8 -6 17 -10 20 -7 3 3 11 -3 19 -12 13 -16 12 -17 -3 -4 -10 7 -18
10 -18 6 0 -5 -8 -1 -18 8 -10 10 -21 14 -24 11 -3 -3 -9 -1 -12 4 -8 14 18 9
36 -6z m621 -169 c-7 -2 -19 -2 -25 0 -7 3 -2 5 12 5 14 0 19 -2 13 -5z m-85
-10 c-10 -2 -28 -2 -40 0 -13 2 -5 4 17 4 22 1 32 -1 23 -4z m-141 -135 c-2
-13 -4 -3 -4 22 0 25 2 35 4 23 2 -13 2 -33 0 -45z m31 -100 c2 34 6 42 21 42
10 0 21 -6 24 -14 3 -8 20 -16 37 -18 l31 -3 -20 -22 c-17 -18 -18 -22 -5 -27
12 -5 15 -17 12 -45 -2 -22 -1 -38 1 -35 5 5 35 -57 33 -68 -1 -5 7 -8 18 -8
25 0 26 16 3 29 -10 6 -13 11 -6 11 6 0 15 -5 18 -10 4 -6 11 -7 17 -4 6 4 5
-3 -2 -16 -17 -31 -6 -36 26 -11 25 19 29 20 37 6 4 -9 6 -29 2 -44 -3 -17 -2
-32 4 -36 15 -8 14 -85 0 -85 -8 0 -9 -22 -4 -74 6 -69 5 -78 -19 -119 -14
-24 -23 -47 -20 -50 4 -4 -11 -26 -32 -49 -22 -24 -45 -57 -53 -75 -9 -23 -26
-37 -62 -52 -47 -21 -49 -23 -51 -64 -1 -48 -11 140 -28 531 -6 150 -7 300 -3
335 l8 62 6 -65 c4 -50 6 -55 7 -22z m175 -15 c-13 -2 -23 -8 -23 -13 0 -4
-10 -10 -22 -13 l-23 -6 24 20 c13 10 33 18 45 18 20 -2 20 -2 -1 -6z m-45
-78 c-3 -3 -9 2 -12 12 -6 14 -5 15 5 6 7 -7 10 -15 7 -18z m89 19 c-3 -3 -12
-4 -19 -1 -8 3 -5 6 6 6 11 1 17 -2 13 -5z m-37 -24 c0 -5 -5 -10 -11 -10 -5
0 -7 5 -4 10 3 6 8 10 11 10 2 0 4 -4 4 -10z m-42 -41 c-3 -8 -7 -3 -11 10 -4
17 -3 21 5 13 5 -5 8 -16 6 -23z m109 -11 c-3 -8 -6 -5 -6 6 -1 11 2 17 5 13
3 -3 4 -12 1 -19z m-700 -190 c-3 -7 -5 -2 -5 12 0 14 2 19 5 13 2 -7 2 -19 0
-25z m0 -55 c-3 -10 -5 -4 -5 12 0 17 2 24 5 18 2 -7 2 -21 0 -30z m140 -15
c-3 -7 -5 -2 -5 12 0 14 2 19 5 13 2 -7 2 -19 0 -25z m-170 -20 c-3 -7 -5 -2
-5 12 0 14 2 19 5 13 2 -7 2 -19 0 -25z m40 -55 c-2 -16 -4 -5 -4 22 0 28 2
40 4 28 2 -13 2 -35 0 -50z m100 35 c-3 -8 -6 -5 -6 6 -1 11 2 17 5 13 3 -3 4
-12 1 -19z m-140 -45 c-3 -10 -5 -2 -5 17 0 19 2 27 5 18 2 -10 2 -26 0 -35z
m-100 -40 c-2 -16 -4 -5 -4 22 0 28 2 40 4 28 2 -13 2 -35 0 -50z m252 -25 c1
-27 -3 -48 -9 -48 -6 0 -10 29 -9 68 1 77 17 59 18 -20z m31 20 c0 -49 -5 -47
-14 5 -4 23 -3 37 4 37 5 0 10 -19 10 -42z m38 2 c2 -23 -2 -40 -8 -40 -5 0
-10 18 -10 40 0 22 4 40 8 40 4 0 9 -18 10 -40z m29 -37 c-2 -16 -4 -3 -4 27
0 30 2 43 4 28 2 -16 2 -40 0 -55z m-198 -90 c1 -36 -3 -63 -9 -63 -6 0 -10
42 -9 108 1 87 3 99 10 62 4 -25 8 -73 8 -107z m-38 40 c0 -43 2 -88 5 -100 2
-13 -1 -23 -6 -23 -6 0 -10 35 -11 83 0 45 -2 90 -4 100 -2 9 1 17 6 17 5 0 9
-35 10 -77z m68 -18 c-1 -81 -6 -69 -11 27 -2 37 0 62 4 55 4 -6 7 -43 7 -82z
m-182 23 c-3 -7 -5 -2 -5 12 0 14 2 19 5 13 2 -7 2 -19 0 -25z m10 -90 c-3 -7
-5 -2 -5 12 0 14 2 19 5 13 2 -7 2 -19 0 -25z m70 0 c-3 -7 -5 -2 -5 12 0 14
2 19 5 13 2 -7 2 -19 0 -25z m-2150 -70 c-3 -7 -5 -2 -5 12 0 14 2 19 5 13 2
-7 2 -19 0 -25z m2302 -70 c1 -39 -3 -68 -9 -68 -5 0 -10 8 -10 18 0 9 -3 41
-6 69 -4 29 -3 61 1 70 7 17 8 16 15 -2 5 -11 9 -50 9 -87z m-109 66 c0 -8 -4
-14 -10 -14 -5 0 -10 9 -10 21 0 11 5 17 10 14 6 -3 10 -13 10 -21z m140 -49
c4 -52 0 -75 -10 -75 -6 0 -10 27 -10 62 0 62 16 73 20 13z m-70 -12 c0 -55
-11 -51 -17 7 -2 24 0 40 7 40 5 0 10 -21 10 -47z m170 20 c0 -19 -3 -24 -10
-17 -6 6 -8 18 -4 27 9 24 14 21 14 -10z m-213 -15 c-3 -8 -6 -5 -6 6 -1 11 2
17 5 13 3 -3 4 -12 1 -19z m140 -35 c-3 -10 -5 -4 -5 12 0 17 2 24 5 18 2 -7
2 -21 0 -30z m-170 -65 c-2 -18 -4 -4 -4 32 0 36 2 50 4 33 2 -18 2 -48 0 -65z
m212 -35 l-2 -88 -7 80 c-7 74 -6 95 6 95 2 0 3 -39 3 -87z m-142 45 c-3 -7
-5 -2 -5 12 0 14 2 19 5 13 2 -7 2 -19 0 -25z m70 -80 c-2 -18 -4 -6 -4 27 0
33 2 48 4 33 2 -15 2 -42 0 -60z m-27 42 c0 -11 -2 -20 -4 -20 -2 0 -6 9 -9
20 -3 11 -1 20 4 20 5 0 9 -9 9 -20z m107 -192 c-3 -7 -5 -2 -5 12 0 14 2 19
5 13 2 -7 2 -19 0 -25z m0 -120 c-2 -13 -4 -5 -4 17 -1 22 1 32 4 23 2 -10 2
-28 0 -40z m-70 -5 c-3 -10 -5 -4 -5 12 0 17 2 24 5 18 2 -7 2 -21 0 -30z
m-1770 5 c-3 -8 -6 -5 -6 6 -1 11 2 17 5 13 3 -3 4 -12 1 -19z m1709 -48 c1
-79 -12 -68 -15 12 -1 34 1 59 6 54 4 -4 8 -34 9 -66z m33 8 c-1 -51 -2 -58
-9 -35 -7 24 -8 47 -1 90 0 4 3 7 6 7 3 0 5 -28 4 -62z m-69 10 c0 -49 -11
-44 -17 7 -2 20 1 35 7 35 5 0 10 -19 10 -42z m-35 12 c3 -5 1 -10 -4 -10 -6
0 -11 5 -11 10 0 6 2 10 4 10 3 0 8 -4 11 -10z m-2278 -22 c-3 -8 -6 -5 -6 6
-1 11 2 17 5 13 3 -3 4 -12 1 -19z m35 -10 c-9 -9 -12 -7 -12 12 0 19 3 21 12
12 9 -9 9 -15 0 -24z m38 6 c0 -8 -4 -14 -10 -14 -5 0 -10 9 -10 21 0 11 5 17
10 14 6 -3 10 -13 10 -21z m166 1 c1 -15 -3 -24 -9 -22 -14 4 -17 47 -3 47 6
0 12 -11 12 -25z m31 -5 c2 -11 -2 -20 -7 -20 -6 0 -10 12 -10 27 0 29 12 24
17 -7z m-171 -7 c-10 -10 -19 5 -10 18 6 11 8 11 12 0 2 -7 1 -15 -2 -18z m41
1 c-9 -9 -28 6 -21 18 4 6 10 6 17 -1 6 -6 8 -13 4 -17z m260 -7 c2 -15 -1
-27 -7 -27 -5 0 -10 5 -10 11 0 8 -5 8 -15 -1 -8 -7 -16 -11 -16 -9 -1 2 -3
16 -5 32 -2 25 0 27 23 24 20 -3 27 -10 30 -30z m-227 8 c0 -8 -4 -15 -10 -15
-5 0 -10 7 -10 15 0 8 5 15 10 15 6 0 10 -7 10 -15z m30 0 c0 -8 -4 -15 -10
-15 -5 0 -10 7 -10 15 0 8 5 15 10 15 6 0 10 -7 10 -15z m230 -16 c0 -10 -4
-19 -10 -19 -5 0 -10 12 -10 26 0 14 4 23 10 19 6 -3 10 -15 10 -26z m-130 6
c0 -8 -4 -15 -10 -15 -5 0 -10 7 -10 15 0 8 5 15 10 15 6 0 10 -7 10 -15z m30
0 c0 -8 -4 -15 -10 -15 -5 0 -10 7 -10 15 0 8 5 15 10 15 6 0 10 -7 10 -15z
m133 -5 c3 -13 0 -20 -9 -20 -8 0 -14 9 -14 20 0 11 4 20 9 20 5 0 11 -9 14
-20z m1774 -32 c-3 -8 -6 -5 -6 6 -1 11 2 17 5 13 3 -3 4 -12 1 -19z m40 -30
c-3 -7 -5 -2 -5 12 0 14 2 19 5 13 2 -7 2 -19 0 -25z m216 -70 c3 -45 2 -78
-4 -78 -5 0 -9 37 -9 82 0 45 2 79 4 77 2 -2 6 -39 9 -81z m-139 -50 c5 -52 3
-78 -4 -78 -6 0 -10 32 -10 82 0 45 2 79 4 77 2 -2 6 -39 10 -81z m100 67 c3
-8 1 -15 -4 -15 -6 0 -10 7 -10 15 0 8 2 15 4 15 2 0 6 -7 10 -15z m-2194 -5
c0 -5 -11 -10 -25 -10 -14 0 -25 5 -25 10 0 6 11 10 25 10 14 0 25 -4 25 -10z
m2200 -61 c0 -24 -4 -38 -10 -34 -5 3 -10 22 -10 41 0 19 5 34 10 34 6 0 10
-18 10 -41z m-183 -11 c-3 -7 -5 -2 -5 12 0 14 2 19 5 13 2 -7 2 -19 0 -25z
m-1972 -9 c10 -15 -1 -23 -20 -15 -9 3 -13 10 -10 16 8 13 22 13 30 -1z m98
-32 c39 -34 45 -47 24 -47 -15 0 -53 41 -49 53 1 4 -5 7 -14 5 -9 -2 -19 3
-21 10 -8 23 23 12 60 -21z m33 18 c4 -8 13 -15 21 -15 8 0 12 4 9 9 -15 24
25 16 54 -10 18 -17 35 -27 39 -24 3 4 -2 11 -12 16 -9 6 -17 14 -17 19 0 15
26 12 40 -5 11 -13 14 -13 25 2 13 17 14 17 34 -1 12 -11 21 -14 21 -8 0 15
37 16 46 1 4 -8 9 -8 17 0 16 16 29 13 56 -10 l24 -20 -22 -21 c-19 -16 -27
-18 -46 -10 -15 7 -26 7 -33 0 -7 -7 -18 -5 -35 7 -20 12 -26 13 -30 3 -4 -11
-8 -11 -26 0 -18 11 -25 11 -38 0 -13 -10 -18 -9 -29 7 -13 17 -15 17 -32 1
-16 -14 -21 -14 -30 -3 -7 8 -8 18 -4 22 4 5 2 5 -4 2 -13 -8 -68 36 -58 46
12 11 24 8 30 -8z m-96 -21 c0 -8 4 -13 8 -10 4 2 14 0 22 -5 13 -8 13 -10 1
-18 -16 -10 -74 26 -65 41 9 14 34 9 34 -8z m1977 -26 c-3 -7 -5 -2 -5 12 0
14 2 19 5 13 2 -7 2 -19 0 -25z m-2016 7 c-1 -15 -24 -12 -29 3 -3 9 2 13 12
10 10 -1 17 -7 17 -13z m2062 -142 c3 -59 1 -103 -4 -103 -5 0 -9 48 -9 107 0
58 2 104 4 102 2 -2 6 -50 9 -106z m-2057 52 c4 -8 12 -15 19 -15 7 0 18 -7
25 -15 16 -19 31 -19 24 0 -3 8 -11 13 -16 12 -6 -1 -13 4 -15 11 -7 19 25 14
48 -7 20 -18 20 -18 -6 -35 -28 -18 -61 -14 -49 5 4 7 3 9 -3 6 -13 -8 -66 36
-57 46 12 11 24 8 30 -8z m125 -10 c-1 -15 -24 -12 -29 3 -3 9 2 13 12 10 10
-1 17 -7 17 -13z m84 -9 c20 -17 24 -26 15 -31 -8 -5 -18 -2 -24 7 -13 16 -50
33 -41 18 11 -17 -5 -32 -21 -19 -11 9 -10 14 9 30 28 24 29 23 62 -5z m53 2
c-3 -7 -11 -13 -18 -13 -7 0 -15 6 -17 13 -3 7 4 12 17 12 13 0 20 -5 18 -12z
m65 -4 c-1 -6 4 -11 12 -11 8 0 13 5 12 10 -4 18 21 18 39 0 12 -13 19 -14 22
-5 5 17 28 15 52 -5 22 -19 26 -33 9 -33 -7 0 -17 -8 -24 -17 -12 -16 -15 -16
-40 10 -15 15 -33 27 -39 27 -6 0 -3 -5 7 -11 17 -10 15 -29 -3 -29 -5 0 -22
11 -38 25 -32 27 -42 31 -42 15 0 -5 6 -10 14 -10 21 0 29 -17 12 -23 -8 -3
-26 4 -41 17 l-26 23 23 16 c24 17 54 18 51 1z m-332 -29 c-1 -15 -24 -12 -29
3 -3 9 2 13 12 10 10 -1 17 -7 17 -13z m139 -3 c0 -14 -11 -21 -26 -15 -21 8
-17 23 6 23 11 0 20 -4 20 -8z m61 -7 c-1 -15 -24 -12 -29 3 -3 9 2 13 12 10
10 -1 17 -7 17 -13z m67 -3 c2 -7 -6 -12 -17 -12 -21 0 -27 11 -14 24 9 9 26
2 31 -12z m-262 -77 c8 -19 24 -19 38 0 8 10 15 12 26 5 13 -8 11 -11 -7 -16
-12 -3 -24 -12 -27 -20 -5 -12 -11 -11 -35 7 -17 12 -28 26 -25 31 8 13 24 9
30 -7z m134 -3 c0 -14 -11 -21 -26 -15 -21 8 -17 23 6 23 11 0 20 -4 20 -8z
m93 -25 c39 -34 46 -47 25 -47 -23 1 -60 39 -52 52 5 7 -4 5 -20 -5 -28 -19
-63 -16 -51 4 4 6 13 8 21 5 8 -3 13 -2 13 2 -5 32 18 28 64 -11z m31 10 c-1
-9 4 -13 11 -10 17 6 67 -26 59 -38 -3 -5 -11 -9 -17 -9 -19 0 -88 60 -81 71
9 15 29 4 28 -14z m90 -10 c14 -6 16 -11 9 -18 -8 -8 -19 -6 -37 6 -27 18 -31
27 -19 39 4 4 12 1 18 -7 5 -7 19 -16 29 -20z m1822 -40 c4 -38 3 -67 -2 -67
-5 0 -11 33 -12 72 -4 89 5 86 14 -5z m-1785 48 c-1 -15 -24 -12 -29 3 -3 9 2
13 12 10 10 -1 17 -7 17 -13z m65 0 c4 -8 12 -15 20 -15 20 0 17 -13 -6 -33
-25 -21 -34 -21 -50 -2 -11 14 -14 13 -25 -1 -6 -10 -17 -14 -23 -10 -14 9
-16 26 -3 26 6 0 22 11 37 25 31 29 42 31 50 10z m-353 -13 c-2 -7 6 -12 17
-12 20 0 26 -11 14 -23 -7 -7 -64 33 -64 46 0 4 8 7 18 5 9 -2 16 -10 15 -16z
m-95 -14 c-3 -7 -11 -13 -18 -13 -7 0 -15 6 -17 13 -3 7 4 12 17 12 13 0 20
-5 18 -12z m65 -3 c1 -5 -6 -11 -15 -13 -11 -2 -18 3 -18 13 0 17 30 18 33 0z
m1996 -27 l-2 -43 -6 35 c-7 33 -5 50 5 50 2 0 3 -19 3 -42z m-1868 17 c-1
-15 -24 -12 -29 3 -3 9 2 13 12 10 10 -1 17 -7 17 -13z m-196 -74 c7 -12 -12
-24 -25 -16 -11 7 -4 25 10 25 5 0 11 -4 15 -9z m71 -6 c4 -8 13 -15 21 -15
10 0 13 -6 9 -15 -4 -11 0 -15 11 -13 9 2 18 -3 20 -9 8 -22 -23 -14 -51 12
-31 29 -42 31 -50 9 -3 -8 -10 -12 -16 -9 -15 9 -12 25 4 25 8 0 16 7 20 15 3
8 10 15 16 15 6 0 13 -7 16 -15z m64 -4 c0 -18 -18 -21 -30 -6 -10 13 -9 15 9
15 11 0 21 -4 21 -9z m61 -6 c-1 -15 -24 -12 -29 3 -3 9 2 13 12 10 10 -1 17
-7 17 -13z m65 0 c4 -8 12 -15 20 -15 16 0 19 -16 5 -25 -6 -3 -13 1 -18 8 -4
7 -16 17 -26 20 -10 4 -15 11 -12 17 9 15 25 12 31 -5z m58 9 c13 -5 14 -9 5
-20 -13 -16 -29 -9 -29 12 0 16 2 16 24 8z m76 -14 c0 -5 -5 -12 -11 -16 -14
-8 -33 11 -25 25 7 11 36 4 36 -9z m72 -10 c26 -24 16 -40 -13 -22 -16 10 -24
10 -34 2 -23 -19 -39 -1 -18 20 24 24 39 24 65 0z m-299 -5 c1 -5 -6 -11 -15
-13 -11 -2 -18 3 -18 13 0 17 30 18 33 0z m63 0 c4 -8 12 -15 20 -15 16 0 19
-16 4 -25 -12 -8 -61 36 -54 47 8 13 24 9 30 -7z m125 -10 c-1 -15 -24 -12
-29 3 -3 9 2 13 12 10 10 -1 17 -7 17 -13z m639 -34 c0 -32 -6 -24 -14 19 -4
25 -3 31 4 20 5 -8 10 -26 10 -39z m-990 30 c0 -14 -18 -23 -30 -16 -6 4 -8
11 -5 16 8 12 35 12 35 0z m65 0 c7 -12 -12 -24 -25 -16 -11 7 -4 25 10 25 5
0 11 -4 15 -9z m1992 -23 c-3 -7 -5 -2 -5 12 0 14 2 19 5 13 2 -7 2 -19 0 -25z
m40 0 c-3 -7 -5 -2 -5 12 0 14 2 19 5 13 2 -7 2 -19 0 -25z m-1899 10 c-3 -7
-11 -13 -18 -13 -7 0 -15 6 -17 13 -3 7 4 12 17 12 13 0 20 -5 18 -12z m125
-3 c1 -5 -6 -11 -15 -13 -11 -2 -18 3 -18 13 0 17 30 18 33 0z m62 4 c10 -15
-1 -23 -20 -15 -9 3 -13 10 -10 16 8 13 22 13 30 -1z m65 -10 c0 -5 -9 -9 -20
-9 -22 0 -27 16 -7 23 15 5 27 -1 27 -14z m1721 -51 c2 -20 0 -40 -4 -44 -4
-4 -7 14 -7 41 0 56 7 57 11 3z m-2174 -21 c4 -8 17 -17 28 -21 16 -6 17 -9 5
-16 -10 -7 -18 -5 -25 3 -5 7 -18 16 -28 20 -10 4 -15 11 -12 17 9 14 22 13
32 -3z m68 3 c3 -6 -1 -13 -10 -16 -19 -8 -30 0 -20 15 8 14 22 14 30 1z m65
-9 c0 -18 -18 -21 -30 -6 -10 13 -9 15 9 15 11 0 21 -4 21 -9z m68 -3 c-3 -7
-11 -13 -18 -13 -7 0 -15 6 -17 13 -3 7 4 12 17 12 13 0 20 -5 18 -12z m70 -5
c16 -16 17 -15 20 1 2 9 10 16 18 14 21 -4 17 -21 -10 -37 -20 -12 -26 -11
-49 4 -15 9 -24 21 -21 26 8 14 24 11 42 -8z m118 2 c4 -8 12 -15 20 -15 22 0
16 -16 -11 -34 -31 -20 -57 -10 -29 11 18 13 18 15 1 24 -9 6 -15 14 -12 20 9
14 25 11 31 -6z m59 4 c10 -15 -1 -23 -20 -15 -9 3 -13 10 -10 16 8 13 22 13
30 -1z m1652 -11 c-3 -8 -6 -5 -6 6 -1 11 2 17 5 13 3 -3 4 -12 1 -19z m-2001
-13 c-4 -11 0 -15 11 -13 9 2 18 -3 20 -9 6 -18 -13 -16 -42 3 -31 20 -32 34
-4 34 15 0 19 -5 15 -15z m65 0 c-1 -15 -24 -12 -29 3 -3 9 2 13 12 10 10 -1
17 -7 17 -13z m65 0 c4 -8 12 -15 20 -15 14 0 19 -12 8 -23 -9 -8 -64 34 -58
45 8 13 24 9 30 -7z m132 -3 c2 -7 -6 -12 -17 -12 -21 0 -27 11 -14 24 9 9 26
2 31 -12z m1709 -4 c-3 -8 -6 -5 -6 6 -1 11 2 17 5 13 3 -3 4 -12 1 -19z
m-1590 0 c-2 -7 -10 -12 -16 -10 -6 1 -11 -5 -11 -13 0 -15 -21 -20 -34 -8 -8
9 33 42 52 43 8 0 12 -6 9 -12z m-482 -7 c7 -12 -12 -24 -25 -16 -11 7 -4 25
10 25 5 0 11 -4 15 -9z m70 -1 c3 -6 -1 -13 -10 -16 -19 -8 -30 0 -20 15 8 14
22 14 30 1z m2112 -12 c-3 -8 -6 -5 -6 6 -1 11 2 17 5 13 3 -3 4 -12 1 -19z
m-1977 2 c0 -5 -9 -10 -20 -10 -11 0 -20 5 -20 10 0 6 9 10 20 10 11 0 20 -4
20 -10z m121 -5 c-1 -15 -24 -12 -29 3 -3 9 2 13 12 10 10 -1 17 -7 17 -13z
m-324 -78 c4 -8 17 -17 28 -21 16 -6 17 -9 5 -16 -10 -7 -18 -5 -25 3 -5 7
-18 16 -28 20 -10 4 -15 11 -12 17 9 14 22 13 32 -3z m69 -2 c4 -8 12 -15 20
-15 16 0 19 -16 4 -25 -12 -8 -61 36 -54 47 8 13 24 9 30 -7z m62 -6 c-2 -6
-8 -10 -13 -10 -5 0 -11 4 -13 10 -2 6 4 11 13 11 9 0 15 -5 13 -11z m70 -1
c-3 -7 -11 -13 -18 -13 -7 0 -15 6 -17 13 -3 7 4 12 17 12 13 0 20 -5 18 -12z
m60 1 c-2 -6 -8 -10 -13 -10 -5 0 -11 4 -13 10 -2 6 4 11 13 11 9 0 15 -5 13
-11z m63 -4 c-1 -15 -24 -12 -29 3 -3 9 2 13 12 10 10 -1 17 -7 17 -13z m83
-10 c31 -28 42 -31 49 -11 4 9 0 12 -13 9 -23 -6 -37 15 -15 23 9 4 24 -1 35
-11 22 -20 26 -35 9 -35 -7 0 -18 -8 -25 -17 -12 -17 -13 -17 -19 0 -4 9 -11
17 -16 17 -18 0 -59 32 -53 41 8 14 19 11 48 -16z m-226 -14 c28 -24 28 -31 1
-31 -15 0 -19 4 -15 16 6 15 4 15 -20 0 -14 -10 -33 -15 -42 -11 -14 5 -14 8
-3 15 8 4 20 6 28 3 9 -4 11 0 7 11 -8 22 15 20 44 -3z m44 -1 c-2 -7 3 -10
12 -7 17 7 30 -8 21 -23 -4 -6 -18 -1 -35 12 -16 12 -27 25 -24 30 8 13 30 3
26 -12z m71 5 c1 -5 -6 -11 -15 -13 -11 -2 -18 3 -18 13 0 17 30 18 33 0z m63
0 c4 -8 12 -15 20 -15 15 0 19 -16 5 -24 -11 -7 -64 38 -55 47 12 11 24 8 30
-8z m1833 -120 c3 -113 -7 -89 -13 30 -2 55 -1 89 3 75 4 -14 9 -61 10 -105z
m-2194 104 c10 -15 -1 -23 -20 -15 -9 3 -13 10 -10 16 8 13 22 13 30 -1z m70
0 c10 -15 -1 -23 -20 -15 -9 3 -13 10 -10 16 8 13 22 13 30 -1z m265 -9 c0 -5
-9 -10 -20 -10 -11 0 -20 5 -20 10 0 6 9 10 20 10 11 0 20 -4 20 -10z m1822
-82 c3 -49 1 -88 -4 -88 -4 0 -8 41 -8 92 0 50 2 89 4 87 2 -2 6 -43 8 -91z
m-70 -148 c-8 -17 -20 177 -12 200 3 8 8 -30 12 -85 4 -55 4 -107 0 -115z
m-75 48 c-2 -24 -4 -7 -4 37 0 44 2 63 4 43 2 -21 2 -57 0 -80z m-2007 93 c0
-18 -18 -21 -30 -6 -10 13 -9 15 9 15 11 0 21 -4 21 -9z m70 -1 c0 -5 -9 -10
-20 -10 -11 0 -20 5 -20 10 0 6 9 10 20 10 11 0 20 -4 20 -10z m58 -1 c-2 -6
-8 -10 -13 -10 -5 0 -11 4 -13 10 -2 6 4 11 13 11 9 0 15 -5 13 -11z m72 3 c0
-14 -11 -21 -26 -15 -21 8 -17 23 6 23 11 0 20 -4 20 -8z m58 -3 c-2 -6 -8
-10 -13 -10 -5 0 -11 4 -13 10 -2 6 4 11 13 11 9 0 15 -5 13 -11z m70 -1 c-3
-7 -11 -13 -18 -13 -7 0 -15 6 -17 13 -3 7 4 12 17 12 13 0 20 -5 18 -12z m62
4 c0 -14 -11 -21 -26 -15 -21 8 -17 23 6 23 11 0 20 -4 20 -8z m58 -3 c-2 -6
-8 -10 -13 -10 -5 0 -11 4 -13 10 -2 6 4 11 13 11 9 0 15 -5 13 -11z m-417
-24 c-1 -15 -24 -12 -29 3 -3 9 2 13 12 10 10 -1 17 -7 17 -13z m66 1 c-4 -9
2 -13 18 -13 17 0 22 4 18 14 -4 10 -1 14 11 12 23 -5 20 -21 -8 -38 -20 -12
-26 -11 -49 4 -28 18 -28 35 0 35 9 0 13 -6 10 -14z m133 5 c0 -14 -18 -23
-30 -16 -6 4 -8 11 -5 16 8 12 35 12 35 0z m61 -6 c-1 -15 -24 -12 -29 3 -3 9
2 13 12 10 10 -1 17 -7 17 -13z m62 -4 c-4 -16 12 -14 27 4 16 20 40 19 40 -1
0 -11 -6 -15 -19 -11 -14 3 -18 1 -14 -9 3 -8 0 -14 -6 -14 -20 0 -61 32 -55
42 8 12 30 4 27 -11z m132 9 c3 -6 -1 -13 -10 -16 -19 -8 -30 0 -20 15 8 14
22 14 30 1z m-488 -36 c-3 -4 -14 -3 -24 0 -15 6 -15 8 -3 16 16 10 39 -4 27
-16z m68 15 c10 -15 -1 -23 -20 -15 -9 3 -13 10 -10 16 8 13 22 13 30 -1z
m133 -7 c2 -7 -6 -12 -17 -12 -21 0 -27 11 -14 24 9 9 26 2 31 -12z m57 -12
c-5 -8 -11 -8 -17 -2 -6 6 -7 16 -3 22 5 8 11 8 17 2 6 -6 7 -16 3 -22z m195
9 c0 -5 -7 -9 -15 -9 -15 0 -20 12 -9 23 8 8 24 -1 24 -14z m-120 1 c0 -5 -9
-10 -20 -10 -11 0 -20 5 -20 10 0 6 9 10 20 10 11 0 20 -4 20 -10z m1830 -50
c0 -5 -4 -10 -10 -10 -5 0 -10 5 -10 10 0 6 5 10 10 10 6 0 10 -4 10 -10z
m-223 -32 c-3 -7 -5 -2 -5 12 0 14 2 19 5 13 2 -7 2 -19 0 -25z m183 22 c0 -5
-2 -10 -4 -10 -3 0 -8 5 -11 10 -3 6 -1 10 4 10 6 0 11 -4 11 -10z m-2170 -10
c0 -5 -9 -10 -20 -10 -11 0 -20 5 -20 10 0 6 9 10 20 10 11 0 20 -4 20 -10z
m2248 -33 c2 -21 -1 -37 -7 -37 -6 0 -12 8 -12 18 -1 9 -3 27 -4 40 -1 13 2
21 9 19 6 -2 12 -20 14 -40z m-34 6 c7 -29 2 -78 -9 -78 -5 0 -11 21 -13 48
-3 45 11 66 22 30z m-35 -73 l-1 -45 -12 40 c-7 22 -10 48 -8 58 8 32 22 -3
21 -53z m-39 24 c0 -21 -4 -33 -10 -29 -5 3 -10 19 -10 36 0 16 5 29 10 29 6
0 10 -16 10 -36z m185 -31 c-7 -17 -8 -17 -15 2 -9 24 -2 41 12 27 6 -6 7 -19
3 -29z m-255 -78 c3 -123 -3 -131 -9 -15 -6 87 -4 117 4 108 2 -2 4 -44 5 -93z
m-30 53 c0 -5 -4 -8 -10 -8 -5 0 -10 10 -10 23 0 18 2 19 10 7 5 -8 10 -18 10
-22z m-1754 -73 l43 -70 1 -206 0 -206 -37 -7 c-60 -9 -118 -7 -273 10 -188
20 -185 19 -198 49 -15 33 -17 331 -2 340 6 3 10 39 10 80 l0 74 83 4 c45 2
138 3 206 3 l124 -1 43 -70z m1826 5 c2 -42 -1 -70 -7 -70 -6 0 -10 31 -11 70
-1 91 13 91 18 0z m38 -10 c0 -27 -4 -50 -10 -50 -5 0 -10 23 -10 50 0 28 5
50 10 50 6 0 10 -22 10 -50z m-111 -32 c-1 -85 -6 -80 -11 10 -2 34 0 62 4 62
4 0 8 -33 7 -72z m119 -163 c1 -56 -1 -84 -7 -75 -12 20 -24 188 -14 203 12
19 20 -28 21 -128z m-43 95 c3 -5 1 -10 -4 -10 -6 0 -11 5 -11 10 0 6 2 10 4
10 3 0 8 -4 11 -10z m115 -81 c0 -39 -4 -69 -10 -69 -6 0 -10 32 -10 76 0 47
4 73 10 69 6 -3 10 -37 10 -76z m-152 14 l-1 -58 -6 50 c-6 48 -5 65 5 65 2 0
3 -26 2 -57z m262 11 c0 -19 -4 -34 -9 -34 -10 0 -18 38 -13 63 6 29 22 8 22
-29z m-303 -6 c-3 -7 -5 -2 -5 12 0 14 2 19 5 13 2 -7 2 -19 0 -25z m226 -16
c2 -23 0 -42 -4 -42 -9 0 -11 15 -11 60 0 50 9 39 15 -18z m-148 28 c3 -5 1
-10 -4 -10 -6 0 -11 5 -11 10 0 6 2 10 4 10 3 0 8 -4 11 -10z m185 -26 c0 -20
-4 -33 -10 -29 -5 3 -8 16 -6 28 3 12 5 25 5 30 1 4 3 7 6 7 3 0 5 -16 5 -36z
m-180 -24 c0 -5 -5 -10 -11 -10 -5 0 -7 5 -4 10 3 6 8 10 11 10 2 0 4 -4 4
-10z m-3 -72 c-2 -13 -4 -5 -4 17 -1 22 1 32 4 23 2 -10 2 -28 0 -40z m220 5
c-3 -10 -5 -2 -5 17 0 19 2 27 5 18 2 -10 2 -26 0 -35z m-290 -40 c-2 -16 -4
-3 -4 27 0 30 2 43 4 28 2 -16 2 -40 0 -55z m262 -43 c3 -106 -7 -83 -13 30
-3 54 -2 84 2 70 5 -14 10 -59 11 -100z m-39 90 c0 -5 -4 -10 -10 -10 -5 0
-10 5 -10 10 0 6 5 10 10 10 6 0 10 -4 10 -10z m-43 -77 c-2 -16 -4 -3 -4 27
0 30 2 43 4 28 2 -16 2 -40 0 -55z m-620 45 c-3 -8 -6 -5 -6 6 -1 11 2 17 5
13 3 -3 4 -12 1 -19z m28 -136 c-8 -62 -10 -62 -18 -7 -5 28 -4 34 3 20 6 -14
9 1 11 55 2 56 4 63 7 30 2 -25 1 -69 -3 -98z m522 41 c-2 -16 -4 -3 -4 27 0
30 2 43 4 28 2 -16 2 -40 0 -55z m80 -40 c-3 -10 -5 -2 -5 17 0 19 2 27 5 18
2 -10 2 -26 0 -35z m-640 -15 c-3 -7 -5 -2 -5 12 0 14 2 19 5 13 2 -7 2 -19 0
-25z m112 -176 c-2 -26 -2 -26 -7 3 l-5 30 -8 -25 c-8 -24 -9 -24 -5 3 2 20
-2 30 -13 35 -9 3 -19 10 -23 16 -4 6 -13 5 -24 -5 -16 -13 -16 -12 -4 8 l14
22 38 -31 c28 -22 38 -36 37 -56z m-89 28 c0 -5 -5 -10 -11 -10 -5 0 -7 5 -4
10 3 6 8 10 11 10 2 0 4 -4 4 -10z m-1964 -106 c29 -52 34 -68 24 -77 -9 -8
-11 -8 -7 -1 8 14 -47 117 -57 107 -4 -4 -4 1 0 11 6 15 4 17 -6 11 -9 -5 -11
-4 -6 3 4 7 9 12 11 12 2 0 21 -30 41 -66z m1987 36 c3 -11 1 -18 -4 -14 -5 3
-9 12 -9 20 0 20 7 17 13 -6z m41 -6 c3 -8 2 -12 -4 -9 -6 3 -10 10 -10 16 0
14 7 11 14 -7z m-1954 -108 c0 -3 -4 -8 -10 -11 -5 -3 -10 -1 -10 4 0 6 5 11
10 11 6 0 10 -2 10 -4z"/>
<path d="M4450 3830 c0 -5 5 -10 10 -10 6 0 10 5 10 10 0 6 -4 10 -10 10 -5 0
-10 -4 -10 -10z"/>
<path d="M4415 3800 c-3 -5 1 -10 9 -10 9 0 16 5 16 10 0 6 -4 10 -9 10 -6 0
-13 -4 -16 -10z"/>
<path d="M4297 3303 c-12 -11 -8 -23 8 -23 8 0 15 7 15 15 0 16 -12 20 -23 8z"/>
<path d="M2240 2160 c0 -5 5 -10 11 -10 5 0 7 5 4 10 -3 6 -8 10 -11 10 -2 0
-4 -4 -4 -10z"/>
<path d="M2360 4250 c-8 -5 -10 -10 -5 -10 6 0 17 5 25 10 8 5 11 10 5 10 -5
0 -17 -5 -25 -10z"/>
<path d="M2065 4150 c-13 -6 -15 -9 -5 -9 8 0 22 4 30 9 18 12 2 12 -25 0z"/>
<path d="M1630 4000 c-8 -5 -10 -10 -5 -10 6 0 17 5 25 10 8 5 11 10 5 10 -5
0 -17 -5 -25 -10z"/>
<path d="M1512 3961 c-11 -6 -11 -10 0 -19 9 -7 19 -8 28 -2 12 8 11 10 -5 11
l-20 0 20 9 c13 6 15 9 5 9 -8 0 -21 -3 -28 -8z"/>
<path d="M1581 3344 c0 -11 3 -14 6 -6 3 7 2 16 -1 19 -3 4 -6 -2 -5 -13z"/>
<path d="M1803 3229 c-29 -11 -41 -36 -39 -84 3 -58 13 -80 42 -93 43 -20 94
-12 94 14 0 8 5 14 10 14 6 0 10 5 10 10 0 6 -12 10 -27 10 -22 0 -25 2 -13
10 13 8 12 10 -5 11 -43 3 -78 8 -82 13 -12 12 8 36 31 36 13 0 27 7 30 16 6
15 4 15 -11 3 -15 -12 -16 -12 -10 5 6 14 4 17 -9 12 -14 -5 -15 -4 -4 9 16
20 11 25 -17 14z"/>
<path d="M2736 2237 c3 -10 9 -15 12 -12 3 3 0 11 -7 18 -10 9 -11 8 -5 -6z"/>
<path d="M2533 2233 c-17 -6 -16 -41 1 -58 12 -12 15 -12 19 -1 3 7 28 16 56
20 47 6 50 8 36 22 -10 11 -24 14 -45 9 -17 -4 -36 -2 -43 3 -7 5 -18 7 -24 5z"/>
<path d="M2722 2200 c0 -14 2 -19 5 -12 2 6 2 18 0 25 -3 6 -5 1 -5 -13z"/>
<path d="M2482 2021 c4 -13 18 -16 19 -4 0 4 -5 9 -11 12 -7 2 -11 -2 -8 -8z"/>
</g>
</svg>
